<?xml version="1.0" encoding="utf-8"?>
<!-- Generator: Adobe Illustrator 19.2.1, SVG Export Plug-In . SVG Version: 6.00 Build 0)  -->
<svg version="1.1" id="レイヤー_1" xmlns="http://www.w3.org/2000/svg" xmlns:xlink="http://www.w3.org/1999/xlink" x="0px"
	 y="0px" width="90px" height="114px" viewBox="0 0 90 114" style="enable-background:new 0 0 90 114;" xml:space="preserve">
<style type="text/css">
	.st0{fill:#00712F;}
</style>
<title>btn_menu_01</title>
<path class="st0" d="M17.9,20.1h47.4c2.7,0,4.8,2.1,4.8,4.8s-2.1,4.8-4.8,4.8l0,0H17.9c-2.7,0-4.8-2.1-4.8-4.8S15.2,20.1,17.9,20.1z
	"/>
<path class="st0" d="M17.9,39.4h47.4c2.7,0,4.8,2.2,4.8,4.8c0,2.6-2.1,4.8-4.8,4.8H17.9c-2.7,0-4.8-2.2-4.8-4.8
	C13.1,41.5,15.3,39.4,17.9,39.4z"/>
<path class="st0" d="M17.9,58.6h47.4c2.7,0,4.8,2.2,4.8,4.8c0,2.6-2.1,4.8-4.8,4.8H17.9c-2.7,0-4.8-2.2-4.8-4.8
	C13.1,60.8,15.3,58.6,17.9,58.6z"/>
<path class="st0" d="M15.6,78h3l2.3,6.2c0.3,0.8,0.5,1.7,0.8,2.6h0.1c0.3-0.9,0.5-1.8,0.8-2.6l2.2-6.2h3v13.3h-2.5v-5.6
	c0-1.3,0.2-3.1,0.3-4.4h-0.1l-1.1,3.1l-2,5.6h-1.5l-2.1-5.6l-1.1-3.1h-0.1c0.1,1.3,0.3,3.1,0.3,4.4v5.6h-2.4V78z"/>
<path class="st0" d="M31.9,78h8.2v2.2h-5.5v3.1h4.7v2.2h-4.7V89h5.7v2.2h-8.4V78z"/>
<path class="st0" d="M43.9,78h2.7l3.9,7l1.3,2.9h0.1c-0.1-1.4-0.3-3.2-0.3-4.7V78h2.5v13.3h-2.7l-3.8-7.1l-1.3-2.9h-0.1
	c0.1,1.4,0.3,3.1,0.3,4.7v5.3h-2.5V78z"/>
<path class="st0" d="M58.2,85.3V78h2.7v7.6c0,2.8,1,3.7,2.5,3.7s2.6-1,2.6-3.8V78h2.6v7.3c0,4.4-1.9,6.2-5.2,6.2
	S58.2,89.7,58.2,85.3z"/>
</svg>
