<?xml version="1.0" encoding="utf-8"?>
<!-- Generator: Adobe Illustrator 19.2.1, SVG Export Plug-In . SVG Version: 6.00 Build 0)  -->
<svg version="1.1" id="レイヤー_1" xmlns="http://www.w3.org/2000/svg" xmlns:xlink="http://www.w3.org/1999/xlink" x="0px"
	 y="0px" width="56px" height="56px" viewBox="0 0 56 56" style="enable-background:new 0 0 56 56;" xml:space="preserve">
<style type="text/css">
	.st0{fill:#FFFFFF;}
	.st1{fill:#00712F;}
</style>
<title>icn_tell_white_01</title>
<path class="st0" d="M28,0.5c15.2,0,27.5,12.3,27.5,27.5S43.2,55.5,28,55.5S0.5,43.2,0.5,28S12.8,0.5,28,0.5z"/>
<path class="st1" d="M18.1,25.9c2.8,5.4,7.2,9.9,12.6,12.6l4.2-4.2c0.5-0.5,1.3-0.7,2-0.5c2.2,0.7,4.5,1.1,6.8,1.1
	c1.1,0,1.9,0.9,1.9,1.9v6.7c0,1.1-0.9,1.9-1.9,1.9c-18,0-32.6-14.5-32.6-32.5c0,0,0,0,0-0.1c0-1,0.9-1.9,1.9-1.9h6.7
	c1.1,0,1.9,0.9,1.9,1.9l0,0c0,2.3,0.4,4.6,1.1,6.8c0.2,0.7,0.1,1.5-0.5,2L18.1,25.9z"/>
</svg>
