<?xml version="1.0" encoding="utf-8"?>
<!-- Generator: Adobe Illustrator 19.2.1, SVG Export Plug-In . SVG Version: 6.00 Build 0)  -->
<svg version="1.1" id="レイヤー_1" xmlns="http://www.w3.org/2000/svg" xmlns:xlink="http://www.w3.org/1999/xlink" x="0px"
	 y="0px" width="50px" height="50px" viewBox="0 0 50 50" style="enable-background:new 0 0 50 50;" xml:space="preserve">
<style type="text/css">
	.st0{fill:#FABD00;}
</style>
<title>icn_school_01</title>
<path class="st0" d="M31.1,10.4c-0.3,0-0.6-0.2-0.6-0.6V7.7c0-0.3-0.3-0.6-0.6-0.6h-9.8c-0.3,0-0.6,0.2-0.6,0.6v2.1
	c0,0.3-0.3,0.6-0.6,0.6h-4.7c-0.3,0-0.6,0.2-0.6,0.6v31c0,0.3,0.3,0.6,0.6,0.5h7.1c0.3,0,0.6-0.2,0.6-0.5v-4.7
	c0-0.3,0.3-0.6,0.6-0.5h5c0.3,0,0.6,0.2,0.6,0.5v4.7c0,0.3,0.3,0.6,0.6,0.5h7.1c0.3,0,0.6-0.2,0.6-0.5v-31c0-0.3-0.3-0.6-0.6-0.6
	L31.1,10.4L31.1,10.4z M18.9,32.4c0,0.3-0.3,0.6-0.6,0.5h-1.3c-0.3,0-0.6-0.2-0.6-0.5v-2.6c0-0.3,0.3-0.6,0.6-0.5h1.3
	c0.3,0,0.6,0.2,0.6,0.5L18.9,32.4L18.9,32.4z M18.9,24.8c0,0.3-0.3,0.6-0.6,0.5h-1.3c-0.3,0-0.6-0.2-0.6-0.5v-2.6
	c0-0.3,0.3-0.6,0.6-0.5h1.3c0.3,0,0.6,0.2,0.6,0.5L18.9,24.8L18.9,24.8z M18.9,17.3c0,0.3-0.3,0.6-0.6,0.5h-1.3
	c-0.3,0-0.6-0.2-0.6-0.5v-2.6c0-0.3,0.3-0.6,0.6-0.6h1.3c0.3,0,0.6,0.2,0.6,0.6L18.9,17.3L18.9,17.3z M23.8,32.4
	c0,0.3-0.3,0.6-0.6,0.5H22c-0.3,0-0.6-0.2-0.6-0.5v-2.6c0-0.3,0.3-0.6,0.6-0.6h1.3c0.3,0,0.6,0.2,0.6,0.5L23.8,32.4L23.8,32.4z
	 M23.8,24.9c0,0.3-0.3,0.6-0.6,0.5H22c-0.3,0-0.6-0.2-0.6-0.5v-2.7c0-0.3,0.3-0.6,0.6-0.6h1.3c0.3,0,0.6,0.2,0.6,0.5L23.8,24.9
	L23.8,24.9z M23.8,17.3c0,0.3-0.3,0.6-0.6,0.5H22c-0.3,0-0.6-0.2-0.6-0.5v-2.7c0-0.3,0.3-0.6,0.6-0.5h1.3c0.3,0,0.6,0.2,0.6,0.6
	L23.8,17.3L23.8,17.3z M28.7,32.4c0,0.3-0.3,0.6-0.6,0.5h-1.3c-0.3,0-0.6-0.2-0.6-0.5v-2.6c0-0.3,0.3-0.6,0.6-0.5h1.3
	c0.3,0,0.6,0.2,0.6,0.5L28.7,32.4L28.7,32.4z M28.7,24.9c0,0.3-0.3,0.6-0.6,0.5h-1.3c-0.3,0-0.6-0.2-0.6-0.5v-2.7
	c0-0.3,0.3-0.6,0.6-0.5h1.3c0.3,0,0.6,0.2,0.6,0.5L28.7,24.9L28.7,24.9z M28.7,17.3c0,0.3-0.3,0.6-0.6,0.5h-1.3
	c-0.3,0-0.6-0.2-0.6-0.5v-2.7c0-0.3,0.3-0.6,0.6-0.6h1.3c0.3,0,0.6,0.2,0.6,0.6L28.7,17.3L28.7,17.3z M33.6,32.4
	c0,0.3-0.3,0.6-0.6,0.5h-1.3c-0.3,0-0.6-0.2-0.6-0.5v-2.6c0-0.3,0.3-0.6,0.6-0.5H33c0.3,0,0.6,0.2,0.6,0.5L33.6,32.4L33.6,32.4z
	 M33.6,24.9c0,0.3-0.3,0.6-0.6,0.5h-1.3c-0.3,0-0.6-0.2-0.6-0.5v-2.7c0-0.3,0.3-0.6,0.6-0.5H33c0.3,0,0.6,0.2,0.6,0.5L33.6,24.9
	L33.6,24.9z M33.6,17.3c0,0.3-0.3,0.6-0.6,0.5h-1.3c-0.3,0-0.6-0.2-0.6-0.5v-2.7c0-0.3,0.3-0.6,0.6-0.6H33c0.3,0,0.6,0.2,0.6,0.6
	L33.6,17.3L33.6,17.3z"/>
</svg>
