<?xml version="1.0" encoding="utf-8"?>
<!-- Generator: Adobe Illustrator 19.2.1, SVG Export Plug-In . SVG Version: 6.00 Build 0)  -->
<svg version="1.1" id="レイヤー_1" xmlns="http://www.w3.org/2000/svg" xmlns:xlink="http://www.w3.org/1999/xlink" x="0px"
	 y="0px" width="290px" height="80px" viewBox="0 0 290 80" style="enable-background:new 0 0 290 80;" xml:space="preserve">
<style type="text/css">
	.st0{fill:#007130;}
	.st1{fill:#003F76;}
	.st2{fill:none;}
	.st3{fill:#FFFFFF;}
	.st4{fill:#F9BE00;}
</style>
<title>logo_01</title>
<path class="st0" d="M206.5,21.6v2.2h-9v-2.2h-3.9v2.2h-6v3.8h6v1.9h3.9v-1.9h9v1.9h3.9v-1.9h6.1v-3.8h-6.1v-2.2H206.5z"/>
<path class="st0" d="M216.8,46.5c-5-0.4-8.6-1.8-10.8-4.2h10.5v-3.7h-3.2v-8.3H204v-1.9h-4v1.9h-9.3v8.3h-3.1v3.7h10.1
	c-0.5,0.5-1,0.9-1.6,1.3c-2.7,1.6-5.7,2.7-8.8,3.2h-0.2l2.4,4.1h0.1c5.9-1.7,10.1-4.4,12.4-8c0.7,1.2,4.1,6.4,12.7,7.8h0.1l2.2-4.2
	L216.8,46.5z M200,35c0,1.2-0.1,2.3-0.3,3.5h-5.1v-4.7h5.4V35z M203.7,38.5c0.2-1.5,0.3-3,0.3-4.5v-0.2h5.4v4.8L203.7,38.5
	L203.7,38.5z"/>
<path class="st0" d="M250.6,30.4c-7.4-3-10.5-6.1-12.6-8.7l0,0h-4.5v0c-1.6,2.3-5,5.7-12.7,8.7h-0.1l2,4l0.2-0.1
	c1.6-0.7,3.1-1.5,4.6-2.4v1.6h16.3v-1.7c1.5,1,3,1.8,4.6,2.5l0.2,0.1l2.1-4L250.6,30.4z M230.6,29.8c1.9-1.3,3.7-3,5.1-4.8
	c1.6,1.8,3.4,3.4,5.3,4.8H230.6L230.6,29.8z"/>
<path class="st0" d="M249.4,36.1h-27.4v3.8h7.3c-0.7,2.1-1.5,4.1-2.5,6.1h-4.4v0.1l0.5,4h0.1c7,0,14-0.5,21-1.3h0.2l0.9,1.6l0.3,0.6
	l0.1-0.1l3.6-2l-0.1-0.2c-1.9-3.2-4.1-6.1-6.6-8.7l0,0h7.2L249.4,36.1L249.4,36.1z M238.8,41.9c1.5,1.8,2.3,2.7,3,3.6
	c-4.7,0.4-9.4,0.5-10.7,0.5c0.9-1.7,1.6-3.3,2.8-6.1h8.3l-3.4,1.8L238.8,41.9z"/>
<path class="st0" d="M284.3,33.4v-3.8h-6.5V26c1.9-0.2,3.7-0.5,5.5-1l0.2-0.1l-1.5-3.6H282c-4.2,1.3-12.5,1.7-14.9,1.7H267l0.8,3.8
	h0.1c1.8,0,4-0.2,6.1-0.4v3.1h-6.6v3.8h6.6v3.5h-5.4v13.9h3.9v-1.5h6.9v1.5h3.8V36.8h-5.3v-3.5H284.3L284.3,33.4z M279.3,40.5v5
	h-6.9v-5H279.3z"/>
<rect x="255.6" y="22.3" class="st0" width="10.2" height="3.2"/>
<rect x="254.6" y="26.8" class="st0" width="12.2" height="3.3"/>
<rect x="255.6" y="31.3" class="st0" width="10.2" height="3.2"/>
<rect x="255.6" y="35.9" class="st0" width="10.2" height="3.3"/>
<path class="st0" d="M255.6,40.5v10.2h3.8v-1.2h6.4v-9L255.6,40.5L255.6,40.5z M262.2,46.3h-2.9v-2.8h2.9
	C262.2,43.6,262.2,46.3,262.2,46.3z"/>
<path class="st0" d="M122.6,40.4v-4.1h-13.2v4.1h4.6v5.3h-6.2v4.1h16.3v-4.1h-6.2v-5.3C117.9,40.4,122.6,40.4,122.6,40.4z"/>
<path class="st0" d="M161,29.9h-12v-4.1h12V29.9z"/>
<path class="st0" d="M147,40.4h-21.3v-4.1H147C147,36.3,147,40.4,147,40.4z"/>
<path class="st0" d="M88.2,29.9h-12v-4.1h12V29.9z"/>
<path class="st0" d="M88.2,36.9h-12v-4.1h12V36.9z"/>
<path class="st0" d="M104,25.6V28c-0.3,4.2-0.7,9.9-5.2,13.5c-4.3,3.5-11.8,4.4-22.2,2.8l-0.5-0.1v5.5h0.4
	c13.1,0.7,21.8-1.3,26.8-6.3c4.5-4.5,5.3-11.4,5.8-17.4v-0.4L104,25.6L104,25.6z"/>
<path class="st0" d="M176.8,25.6V28c-0.3,4.2-0.7,9.9-5.2,13.5c-4.3,3.5-11.8,4.4-22.1,2.8l-0.5-0.1v5.5h0.4
	c13.1,0.7,21.8-1.3,26.8-6.3c4.5-4.5,5.3-11.4,5.8-17.4v-0.4L176.8,25.6L176.8,25.6z"/>
<path class="st1" d="M16.4,26.1c0,0.4,0,5.8,0,5.8l0.1,4.4l0.4,4.9l0.4,3.9c0.2,1.6,0.5,3.3,1,4.8c0.5,1.5,1.3,3,2.1,4.4
	c0.9,1.5,2,2.9,3,4.2c1.2,1.5,2.6,2.9,4,4.3c1.9,1.7,4,3.3,6.2,4.5c1.6-0.9,3.1-1.9,4.5-3c1.8-1.5,3.3-3,3.4-3s1.5-1.5,3-3.5
	c1-1.2,1.8-2.5,2.6-3.8c0.6-0.9,1.1-1.9,1.5-2.9c0.3-0.8,0.6-1.7,0.8-2.5c0.3-1.2,0.5-2.5,0.7-3.8c0.3-2.3,0.4-3.9,0.5-5.8v-0.5
	l0.2-4.9l0.1-2.9c0,0,0-4.3,0-4.7L16.4,26.1L16.4,26.1z"/>
<path class="st0" d="M18.4,28.3v7.4l0.3,4.1l0.4,4.4c0.2,1.6,0.4,3.1,0.8,4.6c0.3,1.1,0.8,2.2,1.4,3.2c0.7,1.2,1.4,2.4,2.2,3.5
	c1.1,1.4,2.2,2.8,3.5,4.1c1.2,1.3,2.6,2.5,4,3.5c0.9,0.7,1.8,1.2,2.8,1.8l0,0l0,0c1.3-0.7,2.6-1.6,3.8-2.6c1.2-1,2.4-2,3.5-3.2
	c1.1-1.1,2.1-2.4,3.1-3.7c1.2-1.7,2.2-3.4,3-5.3c0.3-0.9,0.6-1.7,0.7-2.7c0.4-1.5,0.7-2.9,0.9-4.4c0.2-2.3,0.4-5.2,0.4-5.8l0.1-1.2
	l0.2-3.5l0.1-4.1L18.4,28.3L18.4,28.3z"/>
<rect x="28.5" y="26.8" class="st2" width="1.4" height="1.4"/>
<rect x="26.9" y="26.8" class="st2" width="1.4" height="1.4"/>
<rect x="31.8" y="26.8" class="st2" width="1.4" height="1.4"/>
<path class="st2" d="M18.4,35.7v-7.5h0v-1.4h-1.3l0.2,8.8c0,0,0.3,5.8,0.9,9.7c0,0.4,0.1,0.9,0.2,1.4V35.7L18.4,35.7L18.4,35.7z"/>
<rect x="25.2" y="26.8" class="st2" width="1.4" height="1.4"/>
<rect x="30.1" y="26.8" class="st2" width="1.4" height="1.4"/>
<rect x="20.3" y="26.8" class="st2" width="1.4" height="1.4"/>
<rect x="18.6" y="26.8" class="st2" width="1.4" height="1.4"/>
<rect x="23.6" y="26.8" class="st2" width="1.4" height="1.4"/>
<rect x="21.9" y="26.8" class="st2" width="1.4" height="1.4"/>
<rect x="33.4" y="26.8" class="st2" width="1.4" height="1.4"/>
<rect x="43.2" y="26.8" class="st2" width="1.4" height="1.4"/>
<rect x="46.4" y="26.8" class="st2" width="1.4" height="1.4"/>
<rect x="44.8" y="26.8" class="st2" width="1.3" height="1.4"/>
<rect x="48.1" y="26.8" class="st2" width="1.4" height="1.4"/>
<rect x="41.6" y="26.8" class="st2" width="1.3" height="1.4"/>
<rect x="38.3" y="26.8" class="st2" width="1.4" height="1.4"/>
<rect x="36.7" y="26.8" class="st2" width="1.4" height="1.4"/>
<rect x="40" y="26.8" class="st2" width="1.4" height="1.4"/>
<rect x="35" y="26.8" class="st2" width="1.4" height="1.4"/>
<path class="st2" d="M47.5,50.1c-0.3,0.7-0.6,1.5-1,2.2v1.8l0.2-0.4c0.4-0.6,0.8-1.3,1.1-2V49C47.7,49.4,47.6,49.7,47.5,50.1z"/>
<path class="st2" d="M41.3,59.1c-0.5,0.5-0.9,0.9-1.3,1.3v1.5c0.5-0.4,0.9-0.8,1.3-1.3v0L41.3,59.1L41.3,59.1L41.3,59.1z"/>
<path class="st2" d="M35,64.4v1.4c0.4-0.2,0.8-0.6,1.4-0.9v-1.4C36,63.7,35.5,64.1,35,64.4z"/>
<path class="st2" d="M44.4,55.5c-0.4,0.5-0.8,1.1-1.3,1.6v1.5c0.5-0.6,1-1.2,1.4-1.7v-1.6L44.4,55.5z"/>
<path class="st2" d="M37.8,62.3c0,0-0.5,0.4-1.2,0.9v1.4c0.4-0.3,0.8-0.6,1.3-1h0v-1.4L37.8,62.3z"/>
<path class="st2" d="M38.3,61.9v1.4c0.4-0.4,0.9-0.7,1.4-1.2v-1.5C39.1,61.2,38.7,61.7,38.3,61.9z"/>
<path class="st2" d="M41.6,58.8v1.5c0.5-0.5,0.9-0.9,1.3-1.4v-1.5C42.5,57.9,42,58.4,41.6,58.8z"/>
<path class="st2" d="M44.8,54.9v1.6l0.3-0.4c0.4-0.5,0.7-1,1-1.5v-1.8C45.8,53.5,45.3,54.2,44.8,54.9z"/>
<path class="st2" d="M49.7,26.8v17.6c0.3-2.7,0.4-4.8,0.4-4.8s0.2-3.2,0.3-6.6c0.1-3,0.1-6.1,0.1-6.1H49.7z"/>
<path class="st2" d="M49.2,37.2c0,1-0.2,3.7-0.4,5.8c-0.1,1.5-0.4,3-0.7,4.4c0,0,0,0.2-0.1,0.5v3.2c0.4-1,0.8-2.1,1-3.2
	c0.1-0.6,0.2-1.2,0.3-1.8V32.6C49.4,34.8,49.3,36.2,49.2,37.2z"/>
<path class="st2" d="M27,59.6l-0.1-0.1V61l0.6,0.6l0.7,0.7v-1.4C27.8,60.4,27.4,60,27,59.6z"/>
<path class="st2" d="M23.6,55.7v1.7c0.4,0.5,0.8,1,1.4,1.7v-1.6C24.4,56.8,24,56.2,23.6,55.7z"/>
<path class="st2" d="M21.9,53.2v1.9c0.5,0.7,0.8,1,0.8,1s0.2,0.3,0.6,0.8v-1.6C22.7,54.5,22.3,53.8,21.9,53.2z"/>
<path class="st2" d="M25.2,57.7v1.6c0.4,0.5,0.9,1,1.4,1.5v-1.6C26.1,58.7,25.6,58.2,25.2,57.7z"/>
<path class="st2" d="M21.2,52c-0.4-0.6-0.7-1.3-0.9-2v2.4c0.5,0.9,1,1.7,1.4,2.3v-2C21.4,52.3,21.2,52,21.2,52z"/>
<path class="st2" d="M19.9,48.8c-0.4-1.5-0.7-3.1-0.8-4.6c0,0-0.2-2.2-0.4-4.4v-0.3V48c0.2,0.8,0.4,1.6,0.7,2.3
	c0.2,0.5,0.5,1,0.7,1.5v-2.6C20,49.1,19.9,49,19.9,48.8z"/>
<path class="st2" d="M33.9,65l-0.5-0.3v1.5l0.5,0.3c0,0,0.3-0.2,0.9-0.6v-1.4C34.5,64.7,34.2,64.8,33.9,65z"/>
<path class="st2" d="M31.8,63.7v1.5c0.5,0.4,1,0.7,1.4,0.9v-1.5C32.8,64.3,32.3,64,31.8,63.7z"/>
<path class="st2" d="M31,63.2l-0.9-0.7v1.4c0.4,0.3,0.8,0.6,1.2,0.9l0.2,0.1v-1.5L31,63.2z"/>
<path class="st2" d="M28.5,61.1v1.5c0.5,0.4,0.9,0.8,1.4,1.1v-1.4C29.4,61.9,29,61.5,28.5,61.1z"/>
<path class="st3" d="M45.3,42.2c0.1-0.3,0-0.7-0.3-0.8c-0.1,0-0.1-0.1-0.2-0.1c-0.2,0.1-0.5,0-0.7-0.1l0.3-0.2
	c0.2-0.1,0.5-0.3,0.7-0.5c0.1-0.1,0.1-0.2,0.1-0.4c0-0.3-0.2-0.6-0.5-0.6c0,0,0,0,0,0h-6.1l6.1-6.6c0-0.1,0-0.2-0.1-0.2
	c-0.1,0-0.6-0.4-0.6-0.4c-0.1,0-0.2,0-0.2,0c-0.1,0.1-0.3,0.2-0.5,0.2l1.2-1.2c0.1-0.1,0.1-0.1,0.1-0.2l-0.6-0.4
	c-0.1,0-0.3,0.1-0.4,0.1l-1.3,0.8c-0.8,0.3-1.6,0.6-2.4,0.6c-0.8,0-1.5-0.1-2.2-0.4c0,0-2.4-1.1-2.5-1.1c-0.1,0-0.2-0.1-0.3-0.1
	h-0.6c-0.1,0-0.2,0.1-0.2,0.1c-1.5,1.1-3.3,2-5.1,2.5c-1,0.3-2.1,0.4-3.1,0.5c-0.5-0.1-1,0.1-1.4,0.3c-0.3,0.1,0,0.5,0,0.5l0.9,0.7
	c0,0,0.1,0.1,0,0.1c0,0-0.1,0.1-0.1,0c-0.4,0-0.8,0.2-0.9,0.6c0,0.3,0.2,0.5,0.4,0.6c0.4,0.2,0.7,0.5,1.1,0.8v3.6
	c0,0-0.1,0.1-0.1,0.1c-0.6,0.2-1.1,0.6-1.5,1.1c-0.2,0.6,0.8,0.8,0.8,0.8l-0.4,0.4c-0.3,0.2-0.4,0.7-0.2,1c0.2,0.2,0.5,0.4,0.7,0.3
	c0.4,0,5.3,0,5.3,0s0.3,0,0.1,0.1c-1,1-6.6,7.1-6.6,7.1l0.8,0.5l0.4-0.3l0.1,0c0,0-0.4,0.4-0.7,0.8s-0.5,0.7-0.5,0.7l0.7,0.5
	c0,0,0.1,0,0.1,0c0.9-0.6,1.8-1,2.8-1.3c0.4-0.1,0.8-0.2,1.2-0.2c0.6,0,1.3,0.1,1.9,0.2c1.4,0.3,2.7,0.9,3.9,1.6h1l0.2-0.2
	c0.4-0.4,0.9-0.8,1.5-1.2c0.5-0.3,1.1-0.6,1.7-0.9c0.8-0.3,1.6-0.6,2.4-0.8c1-0.2,1.9-0.4,2.9-0.5c0.3,0,0.7-0.1,1-0.2
	c0.1-0.1,0.2-0.2,0.1-0.3c-0.1-0.5-0.5-0.9-0.9-1.2c0,0-0.1,0-0.1-0.1c0,0,0-0.1,0.1-0.1h0.4c0.6-0.1,0.3-0.7,0.3-0.7
	c-0.3-0.4-0.6-0.7-1-0.8c0,0,0-2.7,0-4.6C44.6,42.9,45,42.6,45.3,42.2z M25.6,37.3l-1.2-0.9c-0.1-0.1-0.2-0.3-0.1-0.4
	c0.1-0.2,0.3-0.3,0.6-0.3c0.2-0.1,0.5-0.1,0.8,0.1V37.3z M39.6,42.2v1.6h-5c0,0-4.4,4.6-4.5,4.7l-0.4,0.2c-0.5,0.2-1.1,0.5-1.3,0.6
	c-0.1,0,0-0.1,0-0.1s3.9-4,4-4.3c0,0,0-0.1-0.1-0.1s-0.1,0-0.1-0.1l2.3-2.5L39.6,42.2L39.6,42.2z M38.7,49.4
	c-1.5-1.2-3.3-1.8-5.2-1.7c-0.9,0-1.9,0.2-2.8,0.5c0,0-0.3,0-0.1-0.2l3.9-4.1h5v5.5L38.7,49.4L38.7,49.4z M39.6,51h-0.8
	c-0.1-0.1-0.2-0.2-0.3-0.3c0.3-0.2,0.7-0.3,1-0.5C39.5,50.5,39.6,50.7,39.6,51z M30.2,40.3v-4.5c0,0,0.6-0.3,0.8-0.4
	c0.1,0,0.1,0,0.2,0c0.4,0.5,1,0.9,1.5,1.3c0.5,0.3,1,0.4,1.5,0.5c0.6,0.1,1.3,0.1,1.9,0c0.7-0.1,1.3-0.3,1.9-0.6
	c0.1,0,0.1,0.2,0.1,0.2l-3.3,3.5L30.2,40.3L30.2,40.3z M41,35.1l1.8-1.9l0.6-0.3l0.6-0.3l0.5,0.4c-0.1,0.1-0.2,0.2-0.2,0.3
	c-0.2,0.3-0.6,0.7-1,1.1s-1,1.1-1.6,1.7c-1.7,1.8-3.4,3.6-3.4,3.6h-1c0,0,0,0,0-0.1s3.8-4.1,3.8-4.1c0-0.1,0-0.1-0.1-0.1
	c0,0,0,0,0,0C41,35.3,40.9,35.2,41,35.1z M40.9,35.5l-4,4.2h-0.1l3.9-4.2L40.9,35.5z M31.5,34.2c0.4,0.3,1,0.8,1,0.8
	c0.7,0.5,1.7,0.7,2.5,0.6c1.5-0.1,2.9-0.5,4.2-1.2L40,34h0.7l-2.2,2.4c-0.4,0.2-0.8,0.4-1.2,0.5c-0.3,0.1-0.7,0.2-1,0.2
	c-0.4,0.1-0.9,0.1-1.3,0.1c-0.5,0-1.1-0.1-1.6-0.2c-0.8-0.4-1.5-0.9-2.1-1.5c-0.1-0.1-0.3-0.1-0.4,0l-0.5,0.2
	c-0.3,0.1-0.2,0.1-0.2,0c0-0.4,0-0.7,0-0.9L31.5,34.2C31.5,34.1,31.5,34.1,31.5,34.2L31.5,34.2z M30.1,34.2l1-0.5
	c0,0,0.4,0.4,0.3,0.3s-0.2,0.1-0.5,0.3c-0.2,0.2-0.5,0.2-0.7,0.2L30.1,34.2L30.1,34.2z M25,44.8c0,0-0.9,0-0.8-0.6
	c0.1-0.4,0.4-0.7,0.7-0.8l0.4-0.2H32c0,0,0.2,0,0,0.2l-1.4,1.4H25z M27.6,49.5l4.3-4.6c0,0,0.1,0,0.1,0s-4.2,4.5-4.3,4.5
	S27.6,49.5,27.6,49.5L27.6,49.5z M44.6,49.7c0.2,0.2,0.4,0.5,0.5,0.8c0.1,0.3-0.6,0.4-0.6,0.4c-0.8,0-1.6,0.1-2.3,0.3
	c0,0-0.8,0.2-1.8,0.5c-0.5,0.2-1,0.3-1.5,0.5c-0.3,0.1-0.7,0.3-1,0.4c-1,0.4-1.8,1.1-2.6,1.9h-1c-0.6-0.4-1.2-0.7-1.8-1
	c-0.6-0.2-1.1-0.4-1.1-0.4c-0.5-0.2-1.1-0.3-1.6-0.4c-0.7-0.1-1.4-0.1-2.1,0c-1.1,0.3-2.2,0.8-3.2,1.5L24,53.8c0,0,1.7-1.9,1.8-1.9
	c0.5-0.3,1-0.5,1.5-0.7c0.2,0,0.2,0,0.3,0c0,0.1,0.1,0.2,0.3,0.2c0.2-0.1,0.5-0.3,0.7-0.3c2.1,0.1,4.2,0.7,5.9,1.8h0.9
	c0.8-0.8,1.8-1.5,2.8-2c0.1,0,0.2,0,0.3,0.1l0.3,0.2h1c0-0.3,0-0.7,0-1c0.4-0.1,0.7-0.3,1.1-0.3c1-0.2,2-0.4,3-0.5
	C44.1,49.3,44.4,49.5,44.6,49.7L44.6,49.7z M44,42.9v-1.4c0.3-0.1,0.7-0.1,1-0.1c0.1,0,0.3,0.1,0.3,0.3c0.1,0.2,0,0.4-0.1,0.5
	C44.9,42.6,44.5,42.8,44,42.9z"/>
<path class="st4" d="M24,18.4c-0.2,0.2-0.3,0.5-0.2,0.8c0.2,0.3,0.6,0.6,0.9,0.8c0,0,0.3,0.1-0.1,0.3s-1.8,1.1-1.8,1.7
	c-0.1,0.3,0.1,0.6,0.3,0.7c0,0,0,0.1,0.1-0.1c0.1-0.1,0.2-0.3,0.4-0.3c0,0,1.1-0.9,10.6-1c2.2,0,4,0.1,5.4,0.2
	c1.7,0.1,3.4,0.3,5,0.6c0.4,0,0.7,0.2,1,0.4c0.1,0.1,0.2,0.2,0.4,0.2c0.3-0.2,0.3-0.7,0.1-0.9c0,0,0,0,0,0c-0.4-0.7-1-1.2-1.7-1.5
	c0,0-0.3-0.1,0-0.4c0.2-0.1,0.3-0.3,0.5-0.4c0.2-0.2,0.3-0.6,0.2-0.8c-0.1-0.2-0.3-0.4-0.5-0.4c0,0,0,0,0.1,0.1c0.2,0.3,0.2,0.7,0,1
	l-0.5,0.5c0,0-2.2-0.2-4.5-0.3c-1.7-0.1-3.5-0.2-4.6-0.2s-3.5,0-5.6,0.1c-1.2,0.1-2.4,0.1-3.2,0.2l-1.4,0.1c-0.3-0.2-0.6-0.6-0.7-1
	c0-0.1,0.1-0.3,0.2-0.4C24.5,18.2,24.1,18.2,24,18.4z"/>
<path class="st4" d="M24.9,18.4c0,0-0.3,0-0.2-0.2c0.3-0.2,0.6-0.3,1-0.3c0,0,2.4-0.2,4.6-0.4c2.1-0.1,4-0.2,4-0.2s8.2,0.1,9.9,0.8
	c0,0,0.3,0.3-0.2,0.4c-0.1,0-0.7-0.1-1.6-0.2s-1.8-0.1-2.9-0.2c-1.6-0.1-3.2-0.2-4.8-0.1c-0.8,0-2,0-3.3,0.1s-2.6,0.2-3.8,0.3
	C26,18.3,24.9,18.4,24.9,18.4z"/>
<path class="st4" d="M25.9,19.1c1.2-0.8,2.6-1.1,4-1.1c0.6,0,1.2,0.1,1.8,0.3c0.2,0,0.5,0,0.7-0.1c0.7-0.2,1.5-0.3,2.2-0.3
	c0.5,0,1,0,1.4,0.1c0.3,0.1,0.7,0.2,1,0.3c0.2,0,0.4,0,0.6-0.1c1.1-0.2,2.3-0.2,3.4,0.1c0.5,0.2,0.9,0.3,1.2,0.4
	c0.2,0.1,0.5,0.2,0.7,0.3c0,0,0,0.1-0.2,0c-1.1-0.4-2.3-0.7-3.5-0.7c0,0-0.7,0-1.5,0.1c0,0-0.2,0-0.1,0.1c0.1,0,0.1,0.1,0.2,0.2
	c0,0,0,0.1-0.2,0c-0.3-0.3-0.8-0.3-1.2,0c0,0-0.2,0-0.1-0.1l0.2-0.1c0,0,0.2-0.1-0.3-0.2c-0.7-0.1-1.3-0.1-2-0.1
	c-0.6,0-1.2,0.1-1.8,0.2c0,0-0.2,0-0.1,0.2s0.2,0.1,0.1,0.2s-0.5-0.2-0.6-0.2c-0.2,0-0.4,0.1-0.5,0.1c0,0-0.3,0.1-0.1,0l0.1-0.1
	c0,0,0.2-0.1,0-0.1c-0.5-0.1-1-0.1-1.5-0.1c-0.5,0-0.9,0-1.4,0.1c-0.4,0.1-0.8,0.1-1.3,0.2c-0.4,0.1-0.7,0.2-1.1,0.4
	C26.1,19.2,25.8,19.3,25.9,19.1z"/>
<path class="st4" d="M24.3,22.9c0,0-0.7-0.2-0.2-0.5s2.2-0.5,5.6-0.7c1.4-0.1,3.4-0.1,5.3-0.1c2.8,0,5.3,0.2,5.3,0.2
	c1.5,0.1,2.9,0.3,4.3,0.6c0,0,0.7,0.3-0.5,0.6c-1.2,0.2-2.5,0.4-3.8,0.4c-2.5,0.1-5.2,0.2-5.2,0.2s-2.1,0-4.4-0.1
	C28.6,23.5,26.4,23.3,24.3,22.9z"/>
<path class="st4" d="M35.4,4.8c0.8,0,1.5-0.2,2.2-0.5c0.3-0.3,0-0.4-0.2-0.5c-1-0.3-2.1-0.5-3.2-0.4c-1,0-2,0.1-2.9,0.4
	c0,0-0.5,0.2-0.1,0.5c0.5,0.2,1.1,0.3,1.7,0.3c0.1,0,0.3,0,0.4,0.1c0.1,0,0.2,0.1,0.2,0.2c0,0.1,0,0.2-0.1,0.3
	c-0.3,0.3-0.5,0.6-0.6,1C32.9,6.7,32.8,7,33,7c0.4-0.2,0.8-0.2,1.3-0.2c0.5,0,0.9,0.1,1.4,0.1c0,0,0.2,0,0.2-0.3
	c0-0.4-0.1-0.8-0.4-1.1c-0.1-0.1-0.2-0.2-0.2-0.4V4.9C35.2,4.9,35.2,4.8,35.4,4.8z M34.3,3.8c-0.7,0-1.3,0.1-1.6,0.1
	c-0.3,0-0.5,0.1-0.7,0.3c-0.1,0.1-0.3,0.1-0.5,0.1c-0.3-0.1,0-0.2,0-0.2c0.3-0.1,0.6-0.2,0.9-0.2c0.6-0.1,1.3-0.1,1.9-0.1
	c0.7,0,1.3,0,2,0.2C36.1,3.8,35.1,3.8,34.3,3.8z"/>
<path class="st4" d="M48.3,9.6c-0.2-0.1-1.2-0.7-1.8-1s-0.6,0.1-1.2,0.2s-1-0.2-1.5-0.8s-2.2-0.7-3.1-0.7c-0.7,0-1.3,0.2-1.9,0.6
	c-0.2,0.2-0.4,0.2-0.5,0c-0.2-0.2-0.5-0.4-0.8-0.5C36.4,7,35.3,6.9,34.2,7c-0.7,0-1.4,0.2-2,0.6c-0.4,0.1-0.7,0.2-1.1,0.1
	c-0.4-0.1-0.8-0.3-1.2-0.6c-0.7-0.1-1.3-0.1-2,0c0,0-0.8,0.2-1.4,0.4c-0.3,0.1-0.6,0.2-0.8,0.5c-0.2,0.2-0.3,0.4-0.5,0.6
	c-0.2,0.2-0.3-0.2-0.9-0.4C23.8,8,23.3,8.1,23,8.2c-0.2,0.2-0.5,0.3-0.8,0.4c-0.6,0.2-1.3,0.5-1.9,0.8c-0.5,0.4-0.7,1-0.6,1.6
	c0.3,0.7,0.9,1.3,1.7,1.5c0.4,0.2,0.8,0.3,1.2,0.6c0.1,0,0.2,0.1,0.3,0.2c0.1,0.1,0.1,0.2,0,0.3c-0.1,0.4-0.1,0.8-0.1,1.2
	c0,0.9,1.4,0.9,1.7,0.9s0.2,0.2,0.2,0.2v1.2c0,0.4,0.2,0.3,0.2,0.3s4-0.3,9.5-0.4s8.8,0.5,9.6,0.4c0.3,0,0.6-0.2,0.7-0.6
	c0,0,0.2-0.8,0.3-1.1c0.1-0.2,0.3-0.3,0.5-0.4c0.1,0,0.1,0,0.2,0c0-0.5,0.1-1,0.2-1.4c0.1-0.3,0.3,0,0.3,0c0.2,0.1,0.5,0.1,0.7,0
	c0.2-0.1,0.3-0.4,0.2-0.6c0.2-0.5,0.5-0.9,1-1.1c0.5-0.3,0.9-0.6,1.2-1C49.3,10.7,49,9.9,48.3,9.6z M23,12.5c-0.1,0-0.3,0-0.4,0
	c0,0-1.6-0.3-1.8-1.5s1.2-1.7,1.5-1.8s0.1,0.1,0.1,0.1s-0.3,0.4-0.4,0.6c-0.2,0.3-0.2,0.5-0.2,0.8c0.2,0.5,0.5,1,0.9,1.4
	C23,12.4,23.1,12.4,23,12.5z M25.5,9.9C25.5,9,26.1,8.2,26.9,8c0.3-0.1,0.2,0.1,0.2,0.1c-0.1,0.2-0.2,0.4-0.3,0.6
	c-0.1,0.3-0.1,0.6-0.1,0.9c0.2,0.5,0.5,1,0.8,1.4c0.1,0.1,0.2,0.3,0.3,0.4c-0.2,0.1-0.3,0.1-0.5,0c-0.4-0.1-0.7-0.2-1-0.4
	C26,10.7,25.7,10.3,25.5,9.9L25.5,9.9z M29,15.1c-0.4,0-0.7-0.1-1-0.4c-0.1-0.1-0.2-0.2-0.3-0.4l0.2,0.2c0.5,0.4,1.2,0.5,1.8,0.2
	c0.3-0.1,0.5-0.3,0.7-0.6c0.2-0.2,0.3-0.5,0.3-0.8c0-0.2,0-0.4-0.1-0.6c-0.1-0.2-0.2-0.4-0.4-0.6c-0.4-0.4-1-0.6-1.5-0.5
	c-0.1,0,0.1,0.1,0.1,0.1c0.5,0.1,0.8,0.6,0.8,1.1c-0.1,0.5-0.5,1-1.1,0.9c0,0-0.1,0-0.1,0c-0.5,0-0.9-0.4-0.8-0.9c0,0,0-0.1,0-0.1
	c0,0,0-0.2-0.1-0.2c-0.1,0.1-0.2,0.3-0.2,0.4c-0.1,0.4,0,0.8,0.2,1.1c-0.1-0.1-0.2-0.3-0.2-0.4c-0.1-0.2-0.1-0.3-0.1-0.5
	c0-1,0.8-1.7,1.8-1.7c0,0,0,0,0,0c1,0,1.8,0.8,1.8,1.8v0C30.8,14.3,30,15.1,29,15.1C29,15.1,29,15.1,29,15.1z M33.4,11.6
	c0.2-0.4,0.5-0.6,0.9-0.6c0,0,0.9-0.1,0.9,0.5c0,0.2,0,0.5-0.1,0.7c-0.1,0.3-0.3,0.5-0.5,0.7c0,0,0.4-1.1,0-1.2
	c-0.2-0.1-0.4-0.1-0.5,0.1c0,0,0,0,0,0c-0.1,0.3,0,0.7,0.2,0.9c0,0,0.1,0.1,0,0.1S33.2,12.4,33.4,11.6L33.4,11.6z M31.7,8.4
	c0.2-0.5,0.7-0.9,1.2-0.9c0.2,0,0,0.2,0,0.2c-0.2,0.2-0.3,0.5-0.3,0.8c0,0.4,0.1,0.9,0.4,1.2c0.1,0.1,0.2,0.3,0.3,0.4
	c-0.2,0.1-0.4,0.1-0.5,0C32.1,9.9,31.6,9.2,31.7,8.4z M32.9,11.8c0,0.2-0.1,0.3-0.3,0.3c-0.2,0-0.3-0.1-0.3-0.3
	c0-0.2,0.1-0.3,0.3-0.3l0,0C32.8,11.5,32.9,11.7,32.9,11.8C32.9,11.8,32.9,11.8,32.9,11.8L32.9,11.8z M32.6,15.3
	c-0.2,0-0.3-0.1-0.3-0.3c0-0.2,0.1-0.3,0.3-0.3c0.2,0,0.3,0.1,0.3,0.3c0,0,0,0,0,0C32.9,15.1,32.8,15.3,32.6,15.3
	C32.6,15.3,32.6,15.3,32.6,15.3L32.6,15.3z M32.7,14.3c-0.2,0.1-0.4,0.1-0.7,0.1c-0.6,0-0.5-0.9-0.5-0.9c0-0.4,0.2-0.8,0.6-0.9
	c0.8-0.3,1.4,0.8,1.4,0.8h-0.1c-0.3-0.2-0.6-0.3-0.9-0.2c-0.2,0.1-0.3,0.3-0.2,0.5c0,0,0,0,0,0c0.1,0.4,1.2,0,1.2,0
	C33.2,13.9,33,14.1,32.7,14.3L32.7,14.3z M35.3,15.3c0,0.6-0.9,0.5-0.9,0.5c-0.4,0-0.8-0.2-0.9-0.6c-0.3-0.8,0.8-1.4,0.8-1.4v0.1
	C34,14.3,33.9,14.7,34,15c0.1,0.2,0.3,0.3,0.5,0.2c0,0,0,0,0,0c0.4-0.1,0-1.2,0-1.2c0.2,0.2,0.4,0.4,0.5,0.7
	C35.2,14.9,35.3,15.1,35.3,15.3L35.3,15.3z M36.1,11.5c0.2,0,0.3,0.1,0.3,0.3c0,0.2-0.1,0.3-0.3,0.3c-0.2,0-0.3-0.1-0.3-0.3
	c0,0,0,0,0,0C35.8,11.7,35.9,11.5,36.1,11.5L36.1,11.5z M36.1,15.3c-0.2,0-0.3-0.1-0.3-0.3c0-0.2,0.1-0.3,0.3-0.3
	c0.2,0,0.3,0.1,0.3,0.3c0,0,0,0,0,0C36.4,15.1,36.3,15.3,36.1,15.3C36.1,15.3,36.1,15.3,36.1,15.3L36.1,15.3z M36.9,14.4
	c-0.2,0-0.5,0-0.7-0.1c-0.3-0.1-0.5-0.3-0.7-0.5c0,0,1.1,0.4,1.2,0c0.1-0.2,0.1-0.4-0.1-0.5c0,0,0,0,0,0c-0.3-0.1-0.7,0-0.9,0.2
	c0,0-0.1,0.1-0.1,0s0.6-1.1,1.4-0.8c0.4,0.2,0.6,0.5,0.6,0.9C37.4,13.5,37.4,14.3,36.9,14.4L36.9,14.4z M40,15.1
	c-0.4,0-0.7-0.1-1-0.4c-0.1-0.1-0.2-0.2-0.3-0.4l0.2,0.2c0.5,0.4,1.2,0.5,1.8,0.2c0.3-0.1,0.5-0.3,0.7-0.6c0.2-0.2,0.3-0.5,0.3-0.8
	c0-0.2,0-0.4-0.1-0.6c-0.1-0.2-0.2-0.4-0.3-0.6c-0.4-0.4-1-0.6-1.5-0.5c-0.1,0,0.1,0.1,0.1,0.1c0.5,0.1,0.8,0.6,0.8,1.1
	c-0.1,0.5-0.5,0.9-1.1,0.9c0,0-0.1,0-0.1,0c-0.5,0-0.9-0.4-0.8-0.9c0,0,0-0.1,0-0.1c0,0,0-0.2-0.1-0.2c-0.1,0.1-0.2,0.3-0.2,0.4
	c-0.1,0.4,0,0.8,0.2,1.1c-0.1-0.1-0.2-0.3-0.2-0.4c-0.1-0.2-0.1-0.3-0.1-0.5c0-1,0.8-1.8,1.7-1.8c0,0,0,0,0,0c1,0,1.8,0.8,1.8,1.8v0
	c0,1-0.7,1.8-1.7,1.8C40.1,15.1,40,15.1,40,15.1z M43.6,10.1c-0.4,0.4-1,0.7-1.6,0.9c-0.2,0-0.1-0.2-0.1-0.2l0.5-0.6
	c0.2-0.2,0.3-0.5,0.5-0.8c0.2-0.4,0-0.8-0.3-1.1c-0.1-0.1-0.4-0.2,0-0.2c0.4,0,0.7,0.1,1,0.3C44.1,8.9,44.1,9.6,43.6,10.1L43.6,10.1
	z M48,11.2c-0.1,0.2-0.3,0.4-0.5,0.6c-0.2,0.2-0.4,0.3-0.6,0.4c-0.4,0.1-1,0.4-0.9,0.2c0-0.1,0.1-0.2,0.2-0.2c0.3-0.3,0.5-0.6,0.7-1
	c0.2-0.2,0.2-0.5,0.2-0.8c0-0.2-0.2-0.4-0.3-0.5c0,0-0.3-0.2-0.1-0.2c0.5-0.1,1,0.1,1.3,0.6C48.2,10.5,48.2,10.9,48,11.2z"/>
<path class="st4" d="M56.7,62.3L56.7,62.3L56.7,62.3L56.7,62.3L56.7,62.3L56.7,62.3 M54.7,61.1L54.7,61.1z M57.9,59.5L57.9,59.5z
	 M57,59.4L57,59.4z M61.6,54.9L61.6,54.9z M58.9,57.5L58.9,57.5L58.9,57.5l0.1-0.2L58.9,57.5z M58.9,57.9L58.9,57.9z M58.9,57.9
	L58.9,57.9z M58.9,57.9L58.9,57.9z M58.9,57.5L58.9,57.5L58.9,57.5L58.9,57.5z M59.1,57.7L59.1,57.7L59.1,57.7z M60.5,56.2
	L60.5,56.2z M60.5,56.2L60.5,56.2L60.5,56.2z M60.5,56.2L60.5,56.2L60.5,56.2z M60.5,56.5L60.5,56.5z M61.1,55.3l0.2-0.5
	C61.3,55,61.2,55.2,61.1,55.3L61.1,55.3z M61.6,55L61.6,55L61.6,55L61.6,55z M61.6,55L61.6,55z M54.6,60.9L54.6,60.9L54.6,60.9
	L54.6,60.9z M54.7,61.2L54.7,61.2L54.7,61.2L54.7,61.2L54.7,61.2z M57,59.4L57,59.4z M56.9,59.1L56.9,59.1L56.9,59.1z M53.5,61.8
	L53.5,61.8h0.2h0.1l0.1-0.1h0.1l0.2-0.2c0.3,0,0.6-0.1,0.9-0.3c0,0,0-0.1,0-0.1h-0.3c0,0,0-0.1,0-0.1l0.1-0.1l0.5-0.4l0.3-0.2
	l0.4-0.3l0.4-0.3c0.2,0,0.4-0.1,0.6-0.1l0.5,0.1l0.7,0.3h0.1l-0.2-0.2L58,59.5h-0.1h-0.4h-0.2h-0.2l0,0c0,0,0.1-0.1,0.1-0.1H57l0,0
	l0.3-0.2l-0.1,0.1l0.5-0.4l0.1-0.1c0.2-0.2,0.5-0.4,0.8-0.6c0.2,0,0.4-0.1,0.6-0.1c0.2,0,0.5,0.1,0.7,0.2l0.5,0.3h0.1v-0.1v-0.1
	l-0.4-0.3l-0.8-0.2H59l0,0l0,0l0,0l0,0v-0.1l0,0l0.1-0.1l0.4-0.4l0.1-0.1l0.6-0.5h0.6h0.1l0.3,0.1l0.3,0.1h0.1c0,0,0-0.1,0-0.1
	l-0.2-0.1l-0.8-0.2h-0.1l0,0l0,0l0,0l0,0l0,0l0,0v-0.1c0.2-0.3,0.5-0.6,0.8-0.8l0.3-0.1h0.8h0h0.1l0,0l-0.1-0.1l-0.2-0.1h-0.6
	c0,0,0,0,0-0.1l-0.1,0.1l0,0l0.2-0.2l-0.1,0.1l0.3-0.3l0.1-0.1l0.7-0.7l0,0c0,0,0.7-0.8,0.7-0.8v-0.1c0,0,0-0.1,0-0.1l0,0l0,0l0,0
	l0,0l-0.4,0.5l-0.8,0.8c-0.6,0.6-0.7,0.7-0.7,0.7l0,0V55v-0.1v-0.2v-0.4c0-0.1,0-0.2-0.1-0.3c0,0-0.1,0-0.1,0l-0.1,0.9L61,55.6
	l-0.5,0.7l0,0h-0.1l0.1-0.3l0,0l0,0l-0.1,0.2l-0.2,0.3L59.6,57l-0.2,0.2c0,0-0.4,0.2-0.4,0.3l0,0l0.2-0.6l0.2-0.9v-0.2v-0.3v-0.1
	v-0.1h-0.2l-0.1,0.6v0.2L58.8,57c-0.1,0.3-0.2,0.6-0.4,0.9l-0.6,0.5l-0.2,0.1L57,59.1l0,0V59l0.1-0.2l0-0.1v-0.1l0.2-0.6l0.3-0.9
	c0.1-0.2,0.1-0.4,0-0.6h-0.1l-0.1,0.3V57l-0.3,0.8l-0.4,1c-0.1,0.3-0.3,0.5-0.5,0.8L55.8,60l-0.2,0.1l-0.2,0.2l-0.7,0.5l-0.1,0.1
	l0,0l0,0l0.2-0.3l0.2-0.5l0.3-0.8l0.1-0.9c0-0.1,0-0.3-0.1-0.4h-0.1v0.1l-0.1,0.4v0.2L55.1,59v0.2l-0.2,0.6l-0.3,0.7l-0.1,0.1
	l-0.2,0.3l-0.1,0.2c0,0,0,0.1-0.1,0.1l-0.5,0.5C53.6,61.7,53.6,61.7,53.5,61.8L53.5,61.8L53.5,61.8z M60.4,55.5c0,0.3,0,0.3,0,0.3
	s0.1,0,0.1,0l0.1-0.3v-0.1v-0.2v-0.4v-0.1h-0.1l-0.1,0.6C60.4,55.4,60.4,55.4,60.4,55.5z M60.4,55.9L60.4,55.9L60.4,55.9L60.4,55.9z
	 M64.3,49.4L64.3,49.4z M60.5,52.6L60.5,52.6z M60.5,52.6L60.5,52.6z M60.6,52.3L60.6,52.3z M60.8,52.8L60.8,52.8z M60.8,52.8
	L60.8,52.8z M60.8,52.8L60.8,52.8z M60.6,52.6L60.6,52.6z M60.6,52.6L60.6,52.6z M60.6,52.6L60.6,52.6z M63.3,49.3L63.3,49.3
	L63.3,49.3L63.3,49.3L63.3,49.3L63.3,49.3z M64,47.9L64,47.9z M63.9,47.7L63.9,47.7z M63.2,49.3L63.2,49.3L63.2,49.3L63.2,49.3z
	 M63.1,49L63.1,49z M63.1,49L63.1,49z M62.9,49L62.9,49z M62.2,50.7L62.2,50.7z M62.1,50.9L62.1,50.9z M62.1,50.9L62.1,50.9z
	 M65,45.7L65,45.7z M63.5,51.3L63.5,51.3L63.5,51.3l-0.1-0.2L63.1,51h-0.6h-0.4v-0.1l0.2-0.3l0.1-0.1l0.5-0.8l0,0l0.5-0.2h0.4h0.2
	l0,0h0.1l0,0L64,49.5l0-0.3l-0.8,0h0l0.1-0.2l0.4-0.7l0,0l0.4-0.2c0.3,0,0.5-0.1,0.7-0.3v-0.1h-0.3l-0.3,0.1h-0.1H64l0,0l0,0l0-0.1
	v0.1c0.1-0.1,0.4-0.7,0.4-0.7l0,0l0.3-0.7l0.3-0.8v-0.1c0,0,0-0.1,0-0.2H65v0.1v0.1l-0.1,0.2l-0.2,0.4l-0.3,0.5
	c-0.2,0.3-0.3,0.5-0.5,0.8l0,0v-0.2c0,0-0.1-0.7-0.1-0.7l-0.1-0.1h-0.2l0.1,0.8c0,0.3,0,0.5-0.1,0.8c-0.1,0.2-0.3,0.5-0.3,0.8l0,0
	H63h-0.1c0,0,0,0,0,0.1v0.1l-0.1,0.3l-0.2,0.4L62,50.6l0,0l0,0c0,0,0-0.1,0-0.1l0,0c0,0.1,0,0.2,0,0.2l0,0c0,0,0-0.2,0-0.3
	c0,0,0,0.1,0,0.2c0-0.2,0-0.5,0-0.5c-0.1-1-0.1-1-0.1-1c0-0.1-0.1-0.3-0.2-0.4c0,0-0.1,0-0.1,0v0.6v0.2v0.7v0.1c0,0.3-0.1,0.7-0.2,1
	l-0.3,0.5L61,51.9l-0.4,0.6l-0.1,0.1c0,0.1-0.1,0.1-0.1,0.2l0,0l0.1-0.3l0.1-1v-0.7v-0.2c0-0.2,0-0.3-0.1-0.5c0,0-0.1,0-0.1,0v0.7
	v0.3l-0.1,0.7l-0.2,1l0,0L60,53.3l-0.1,0.2c0,0,0,0.1,0,0.1l0,0l0,0l0,0l0,0l0.3-0.3l0.1-0.1l0.5-0.1l0.7-0.1h0.1l0,0v0l-0.1-0.1
	h-0.1l-0.7,0.1h-0.1l0,0l0,0l0,0l0.1-0.2l-0.1,0.1l0.4-0.6l0.7-0.8l0,0l0.2-0.1l0.5-0.1h0.2H63l0.3,0.1h0.1L63.5,51.3L63.5,51.3
	L63.5,51.3z M63.5,53L63.5,53L63.5,53z M62.8,47.6L62.8,47.6z M62.8,47.6c0,0.3,0,0.4,0.1,0.4l0,0v0.1v0.3c0,0,0,0.1,0,0.1v0.3
	c0,0.1,0,0.1,0,0.1H63v-0.3c0,0,0,0,0,0l0,0v-0.4v-0.4v-0.1c0,0,0,0,0-0.1L62.8,47.6z M65.3,40.2L65.3,40.2z M65.5,38.7L65.5,38.7z
	 M65,36.4L65,36.4z M64.4,38.7L64.4,38.7L64.4,38.7z M64,40.2L64,40.2z M63.9,39.9L63.9,39.9z M63.2,42.3L63.2,42.3L63.2,42.3
	L63.2,42.3z M62.6,40.4L62.6,40.4z M62.6,44.6L62.6,44.6z M62.6,44.4L62.6,44.4L62.6,44.4z M62.6,44.5L62.6,44.5L62.6,44.5
	L62.6,44.5L62.6,44.5z M64.2,40.5L64.2,40.5z M64.3,38.7L64.3,38.7L64.3,38.7L64.3,38.7L64.3,38.7L64.3,38.7z M64.3,38.6L64.3,38.6z
	 M64.2,40.5L64.2,40.5z M64.2,40.5L64.2,40.5z M64,40.2L64,40.2z M63.5,39L63.5,39z M63.5,39L63.5,39z M63.9,40L63.9,40L63.9,40z
	 M63.6,42.5L63.6,42.5L63.6,42.5L63.6,42.5L63.6,42.5z M63.6,42.5L63.6,42.5z M63.6,42.5L63.6,42.5L63.6,42.5L63.6,42.5z M63.6,42.5
	L63.6,42.5L63.6,42.5L63.6,42.5L63.6,42.5z M63.6,42.4L63.6,42.4L63.6,42.4z M62.4,44L62.4,44L62.4,44z M62.5,44.5L62.5,44.5z
	 M65.4,38.7L65.4,38.7z M65.2,42.4L65.2,42.4L65.2,42.4L65,42.2l-0.4,0l-0.5,0.1l-0.4,0.1c0,0,0,0-0.1,0l0.1-0.5
	c0.1-0.3,0.3-0.9,0.4-1c0.2-0.2,0.4-0.3,0.7-0.4l0.4-0.1h0.1c0,0,0-0.1,0-0.1H65l-0.5,0.2l-0.1,0c0,0-0.1,0-0.1,0.1l0,0l0.2-0.9
	l0.2-0.3l0.6-0.4l0,0h0.1c0,0,0.1-0.1,0.1-0.1c0,0,0,0,0-0.1h-0.2h-0.2l-0.3,0.2L64.7,39l0,0l0,0v-0.1c0,0,0,0,0,0l0,0l0.1-0.3
	l0.3-1.1l0.2-1c0,0,0-0.1,0-0.1l0,0l0,0l0,0l-0.1-0.1h-0.1L65,36.6l-0.1,0.5l-0.1,0.5l-0.2,0.9c0,0,0,0.1,0,0.2l-0.1-0.3l-0.3-0.6
	c-0.1-0.1-0.1-0.2-0.2-0.2l-0.1,0.1l0.3,0.9l0.1,0.7l-0.1,0.3c0,0.2-0.1,0.5-0.1,0.5l0,0L64,40.1V40v-0.1l0,0c0,0,0,0,0-0.1v0.1l0,0
	l0,0c0,0,0,0,0-0.1l0,0v-0.1l-0.2-0.5L63.7,39c0-0.1-0.1-0.1-0.1-0.2L63.4,39l0.1,0.3l0.2,0.5V40l0,0.1l0.1,0.7l-0.2,0.7l-0.4,1l0,0
	l-0.1-0.7L63,41.1v-0.2v-0.2l-0.2-0.3l0,0l0,0l0,0v0.3l0.2,1l0,0.5l0.1,0.2l0.1,0.2c0,0.1,0,0.1,0,0.1L63,43.2l-0.1,0.3l-0.1,0.3
	L62.6,44l-0.1,0.2v0.1l0,0l0,0l0,0v-0.1l0,0v-0.1c0,0,0,0,0-0.1l0,0c-0.1-0.7-0.1-0.7-0.1-0.7l-0.2-1c-0.1-0.2-0.2-0.4-0.3-0.6h-0.2
	v0.2l0.1,0.4l0.1,0.7l0.1,1.1v0.9L62,45.5l-0.1,0.2L61.8,46l-0.2,0.4L61.4,47v0.2l0,0l0,0l0.1-0.1l0.1-0.1l0.2-0.4l0.2-0.4v-0.1
	l0.2-0.5l0.2-0.4l0.2-0.3c0.2-0.1,0.4-0.3,0.6-0.4l0.8-0.2l0,0h0.1l0,0h-0.1h-0.1h-0.5l-0.5,0.2l-0.2,0.1l0,0l0,0l0,0l0,0l0,0l0,0
	l0,0l0,0l0,0l0,0v0.1l0,0l0,0l0,0v-0.1v0l0,0l0.3-0.9c0.4-0.8,0.4-0.9,0.4-0.9l0,0l0.6-0.4l0.7-0.2l0,0L65.2,42.4L65.2,42.4
	L65.2,42.4z M65.2,42.4L65.2,42.4z M63.5,38.9L63.5,38.9L63.5,38.9z M61.8,41.7L61.8,41.7L61.8,41.7L61.8,41.7L61.8,41.7L61.8,41.7
	L61.8,41.7L61.8,41.7L61.8,41.7z M60.5,44.1L60.5,44.1z M60.5,44.1L60.5,44.1z M60.5,44.1L60.5,44.1L60.5,44.1l0.1,0.4l0.2,0.7
	l0.2,1l0.1,0.9c0,0,0,0.1,0,0.1l0,0l0,0h0.1l0.1-0.2v-0.5c0-0.8,0-0.8-0.1-0.8c-0.1-0.4-0.2-0.7-0.3-1l0,0
	C60.8,44.5,60.6,44.1,60.5,44.1L60.5,44.1z M62.2,32.3L62.2,32.3L62.2,32.3L62.2,32.3z M62.2,32.2L62.2,32.2L62.2,32.2L62.2,32.2
	L62.2,32.2z M61.1,39.3L61.1,39.3c0-0.1,0-0.2-0.1-0.2L61.1,39.3z M64,34.2L64,34.2z M62.5,34.5L62.5,34.5L62.5,34.5L62.5,34.5z
	 M62.5,34.5L62.5,34.5L62.5,34.5z M63.4,32.2L63.4,32.2z M62.8,31L62.8,31L62.8,31L62.8,31L62.8,31z M62.6,30.9L62.6,30.9L62.6,30.9
	L62.6,30.9L62.6,30.9z M62.8,31L62.8,31z M62.5,32.4L62.5,32.4z M61.7,36.7L61.7,36.7z M61.1,39.4L61.1,39.4L61.1,39.4z M62,36.8
	L62,36.8z M62.5,34.5L62.5,34.5L62.5,34.5L62.5,34.5z M62.5,34.5L62.5,34.5L62.5,34.5L62.5,34.5z M61.8,36.7L61.8,36.7L61.8,36.7
	L61.8,36.7z M62,36.8L62,36.8L62,36.8z M62.3,36.8L62.3,36.8L62.3,36.8L62.3,36.8z M64,34.2L64,34.2l-0.2-0.1l-0.2-0.1L63,34.2
	l-0.3,0.2c-0.2,0.1-0.2,0.1-0.2,0.1h-0.1l0,0l0,0l0,0l0,0l0,0l0,0l0,0c0-0.1,0-0.4,0-0.4c0-0.3,0.1-1,0.1-1.1
	c0.2-0.2,0.3-0.3,0.5-0.5l0.4-0.2l0.1-0.1l0,0c-0.1,0-0.1,0-0.2,0h-0.1L63,32.4l-0.2,0.1l-0.1,0.1l0,0l0,0l0,0v-0.1c0,0,0,0,0,0.1
	l0,0c0-0.1,0.1-1,0.1-1c0.1-0.1,0.1-0.2,0.2-0.3l0.4-0.4l0.1-0.1c0-0.1,0-0.1-0.1-0.1l-0.3,0.1l-0.3,0.2L62.8,31l0,0l0,0l0.1-0.8
	v-0.7c0-0.2,0-0.3,0-0.5h-0.2h-0.1v0.1l0,0.9c0,0,0,0.8-0.1,0.9l0,0l0,0v0l-0.3-0.5c-0.1-0.1-0.3-0.2-0.4-0.3l-0.1,0.1l0.4,0.5
	l0.1,0.2l0.2,0.5v0.1c0.1,0.9,0.1,0.9,0.1,0.9l0,0l0,0l0,0h-0.1l0,0h-0.1l0,0l0.1,0.6v0.4l-0.1,0.3c0,0-0.1,0.6-0.1,0.7l0,0l0,0l0,0
	l0,0v-0.1l0,0v-0.1L62,33.7l-0.4-0.8l-0.2-0.2l-0.2-0.2H61l0,0.1l0.3,0.5l0.1,0.1l0.1,0.1l0.1,0.2l0.3,0.5c0.3,1,0.3,1,0.3,1V35v0.1
	v0.2l-0.2,1c0,0-0.1,0.3-0.1,0.3l0,0c0-0.1,0-0.1,0-0.1v-0.1v-0.1l-0.3-0.9L61,34.8c-0.1-0.2-0.2-0.4-0.4-0.6l-0.1,0.1l0.5,0.9
	l0.4,1c0.1,0.3,0.2,0.7,0.2,1.1l-0.2,0.8v0.2l-0.2,0.9l0,0l0,0L61,38.9v0.2v-0.5l-0.3-0.7l-0.4-0.7l-0.4-0.4v-0.1h-0.1l0,0l0,0h0
	l0.3,0.6l0.1,0.1l0.4,0.9l0.3,0.8c0.1,1,0.1,1,0.1,1l0,0h0l0,0l0.3-0.4l0.2-0.4l0,0l0,0l0,0l0,0l-0.1,0.1l-0.1,0.1l0,0
	c0,0,0,0,0-0.1c0,0,0,0,0,0l0,0l0-0.3l0.2-0.7l0.1-0.3V38l0.1-0.3l0.2-0.4l0.5-0.5l0.5-0.2c0.1,0,0.1,0,0.2-0.1v-0.1v-0.1l-0.5,0.1
	l-0.4,0.3L62,36.8l0,0l0.1-0.7l0.1-0.6l0.1-0.5c0.2-0.2,0.3-0.3,0.5-0.5l0.5-0.2h0.4l0,0h0.2h0l0,0L64,34.2z M62.8,28.4L62.8,28.4z
	 M62.7,28.6L62.7,28.6z M62.7,28.6L62.7,28.6z M62.8,28.6L62.8,28.6L62.8,28.6L62.8,28.6L62.8,28.6L62.8,28.6l-0.1,0.1h0.1l0,0l0,0
	l0,0l0,0l0,0l0,0L62.8,28.6z M61.8,31.2L61.8,31.2z M61.7,31.2L61.7,31.2L61.7,31.2z M62.3,32.1L62.3,32.1z M61.7,31.2L61.7,31.2
	L61.7,31.2L61.7,31.2z M61.8,31.2C61.8,31.2,61.8,31.2,61.8,31.2h-0.2l0,0l0.3,0.5c0.1,0.1,0.1,0.3,0.2,0.4h0.1h0.1l-0.2-0.5
	L62,31.4L61.8,31.2z M61.4,29.1L61.4,29.1L61.4,29.1h-0.1h-0.1c-0.1,0.1-0.2,0.2-0.2,0.3c0,0,0.1,0.1,0.1,0.1l0.3-0.2L61.4,29.1
	L61.4,29.1C61.4,29.1,61.4,29.1,61.4,29.1L61.4,29.1z M60.6,34.3L60.6,34.3z M58.6,25.4L58.6,25.4z M59,25.5L59,25.5l-0.3-0.2h-0.1
	c0,0,0,0,0,0.1l0,0l0.2,0.1l0.1,0L59,25.5L59,25.5L59,25.5L59,25.5L59,25.5L59,25.5z M59.4,24.7L59.4,24.7c0,0-0.1-0.1-0.1-0.1
	L59.4,24.7z M59.8,26.1L59.8,26.1L59.8,26.1L59.8,26.1L59.8,26.1L59.8,26.1L59.8,26.1L59.8,26.1z M59.6,24.3L59.6,24.3z M59.1,24.6
	L59.1,24.6z M59.1,24.6L59.1,24.6z M59,24.6L59,24.6L59,24.6L59,24.6z M59,24.6L59,24.6L59,24.6L59,24.6z M59.6,26L59.6,26L59.6,26
	L59.6,26z M59.9,27.7L59.9,27.7L59.9,27.7z M60.2,27.9L60.2,27.9z M59.9,27.8L59.9,27.8z M59.8,26.1L59.8,26.1L59.8,26.1z M59.6,26
	L59.6,26z M58.6,23L58.6,23z M58.7,23.1L58.7,23.1z M61.3,27.2L61.3,27.2L61.2,27l-0.4,0.2l-0.2,0.3l-0.1,0.1
	c-0.1,0.1-0.1,0.1-0.2,0.2l0,0l0,0l-0.1-0.1l-0.1-0.2l-0.2-0.6v-0.4v0c0.1-0.2,0.2-0.4,0.3-0.5c0.1-0.1,0.2-0.2,0.3-0.4l0,0
	c0,0,0-0.1-0.1-0.1l-0.2,0.1L60,25.9c-0.1,0.2-0.1,0.2-0.1,0.2l0,0c0,0,0,0,0,0l-0.2-0.6c0-0.3,0-0.4,0-0.4l0.1-0.3l0.2-0.5l0,0l0,0
	l0,0l-0.1,0.1l-0.1,0.1l-0.1,0.2l-0.1,0.2l0,0l0,0l0,0l0,0l-0.1-0.3l0,0.1l-0.1-0.4l-0.3-0.7l-0.2-0.4V23v0l0,0h-0.1
	c0,0.2,0,0.2,0,0.2l0.2,0.5l0,0.9l0.1,0.2l0,0l0,0l0,0l0,0l0,0l-0.4-0.3c-0.1-0.1-0.3-0.2-0.5-0.2c0,0,0,0.1,0,0.1l0,0l0.6,0.4
	l0.5,0.5l0.1,0.1c0.1,0.1,0.1,0.3,0.2,0.4V26l0,0h0l0,0h-0.1l0,0c0,0,0,0,0,0.1l0.1,0.1v0l0.1,0.2v0.1l0.1,0.2
	c0.2,0.8,0.2,0.9,0.2,1l0,0l-0.1-0.1L59.3,27l-0.6-0.4c-0.1-0.1-0.2-0.1-0.3-0.1c0,0,0,0.1,0,0.1l0.1,0.1l0.3,0.2l0.2,0.2l0.6,0.6
	l0.5,0.8v0.1h0.1l0,0v-0.1v-0.1l0.4-0.3c0,0,0.2-0.3,0.2-0.3l0.3-0.3l0,0l0.3-0.2L61.3,27.2L61.3,27.2L61.3,27.2L61.3,27.2z
	 M57.7,27.2L57.7,27.2z M57.6,27.7L57.6,27.7z M57.3,27.7L57.3,27.7z M56.9,27.6L56.9,27.6z M58.2,28.8L58.2,28.8z M58.2,28.8
	L58.2,28.8z M58.5,28.8L58,28.1l-0.1-0.3v-0.5v-0.1l0,0l0,0h-0.1l0,0v0.1l-0.1,0.3c0,0,0,0,0,0.1v0l0,0h-0.1l0,0l0,0l-0.2-0.2
	l-0.3-0.4L57,26.9h-0.1l0,0c0,0,0,0-0.1,0l0,0l0.5,0.7l0.1,0.1l0.1,0.1l0,0h-0.1L57,27.6c-0.2,0-0.4,0-0.6,0c0,0,0,0.1,0,0.1
	l0.7,0.2l0.5,0.3l0.6,0.6c0,0,0.1,0.1,0,0.1h-0.1H58h0l0.6,0.4h0.1c0-0.3,0.1-1,0.1-1h-0.1h-0.1l-0.1,0.4L58.5,28.8L58.5,28.8
	L58.5,28.8z M57.4,24.6L57.4,24.6z M57.4,24.6L57.4,24.6l-0.2-0.4c-0.1-0.1-0.2-0.2-0.3-0.3h-0.1c0,0-0.1,0-0.1,0
	c0,0,0.5,0.8,0.5,0.8L57.4,24.6L57.4,24.6L57.4,24.6z M57.1,22.6l0.2-0.3c0,0,0-0.1,0-0.1l0,0l0,0l0,0L57,22.4
	C57,22.5,57,22.6,57.1,22.6C57,22.6,57.1,22.6,57.1,22.6L57.1,22.6L57.1,22.6z M54.8,21.7L54.8,21.7L54.8,21.7L54.8,21.7L54.8,21.7
	L54.8,21.7L54.8,21.7L54.8,21.7L54.8,21.7L54.8,21.7L54.8,21.7L54.8,21.7z M56.7,23.1L56.7,23.1z M56,21.3L56,21.3z M55.7,21.8
	L55.7,21.8L55.7,21.8z M54.9,20.8L54.9,20.8z M56.3,23.1L56.3,23.1L56.3,23.1L56.3,23.1L56.3,23.1L56.3,23.1z M56.8,23.7L56.8,23.7
	L56.8,23.7L56.8,23.7z M56.7,23.1L56.7,23.1L56.7,23.1z M56.7,23.1L56.7,23.1z M56.5,22.9L56.5,22.9L56.5,22.9L56.5,22.9z
	 M56.3,22.8L56.3,22.8L56.3,22.8z M56.3,23.1L56.3,23.1L56.3,23.1z M56.5,23L56.5,23L56.5,23L56.5,23z M55.7,21.8L55.7,21.8
	L55.7,21.8L55.7,21.8z M55.4,21.7L55.4,21.7L55.4,21.7z M53.5,19.4L53.5,19.4z M53.5,19.4L53.5,19.4z M53.5,19.4L53.5,19.4z
	 M56.9,22.7C56.8,22.7,56.8,22.7,56.9,22.7L56.7,23v0.1l-0.2-0.2L56,22.4l-0.1-0.3l0.1-0.5v-0.3v-0.1v-0.1l0,0l0,0l-0.1,0.2
	c0,0.1-0.1,0.2-0.1,0.4l0,0l-0.5-0.5c0,0-0.1-0.6-0.1-0.5s0-0.4,0-0.4h-0.1l-0.1,0v0.2c0,0,0,0.1,0,0.2l0,0l0,0l0,0l0,0v0l0,0l0,0
	l-0.1-0.1l-0.5-0.5l-0.4-0.4l-0.2-0.2l-0.1-0.1h-0.3v0.1l0.4,0.6l0.4,0.5l0.2,0.2l0,0h-0.1l-0.3-0.1l-0.5-0.1l0,0l0,0l0,0l0.1,0.1
	l0.3,0.1l0.6,0.3c0.3,0.2,0.5,0.4,0.7,0.6l-0.1,0.1l0,0l0.1,0.1l0.4,0.3l0.3,0.5l0.2,0.3l-0.1-0.1l-0.9-0.4
	c-0.2-0.1-0.5-0.1-0.7-0.1c0,0.1,0,0.1,0,0.1l0.3,0.1l0.4,0.1l0.6,0.2l0.7,0.5l0.2,0.1l0,0l0-0.7C56.9,23,56.9,22.9,56.9,22.7
	L56.9,22.7z M54.1,21.5L54.1,21.5z M54.2,21.5l0.2-0.1h0.1l0.2,0.1c0,0,0,0,0,0.1C54.5,21.7,54.3,21.6,54.2,21.5L54.2,21.5
	L54.2,21.5z M56.8,23.8L56.8,23.8z M56.8,23.8L56.8,23.8L56.8,23.8L56.8,23.8L56.8,23.8z M56.6,26.7L56.6,26.7z M56.5,26.6
	L56.5,26.6z M57.1,24.8L57.1,24.8z M56.3,24.5l0.6,0.3l0.4,0.2l0,0c0,0,0-0.1,0-0.1l0,0l-0.2-0.1l-0.8-0.5l-1-0.4h-0.1h-0.1V24h0.1
	l0.3,0.1l0.2,0.1L56.3,24.5z M57.3,28.5L57.3,28.5z M57.4,28.6L57.4,28.6z M57.4,28.7L57.4,28.7C57.4,28.6,57.4,28.6,57.4,28.7
	l-0.2-0.2c-0.1,0-0.2,0-0.3,0c0,0,0,0.1,0,0.1l0.2,0.1L57.4,28.7L57.4,28.7z M57.6,28.7L57.6,28.7z M57.7,28.7L57.7,28.7L57.7,28.7
	L57.7,28.7L57.7,28.7L57.7,28.7L57.7,28.7L57.7,28.7L57.7,28.7L57.7,28.7L57.7,28.7z M57.7,28.7L57.7,28.7z M57.8,28.7L57.8,28.7z
	 M58,28.8L58,28.8z M59.9,29.5L59.9,29.5z M60.1,29.3L60.1,29.3z M60.1,29.3L60.1,29.3z M60.1,29.3L60.1,29.3z M59.9,29.6
	c0.1-0.1,0.2-0.2,0.2-0.3c0,0,0-0.1,0-0.1H60l-0.2,0.2C59.8,29.5,59.8,29.5,59.9,29.6L59.9,29.6L59.9,29.6L59.9,29.6z M59.2,30.2
	L59.2,30.2z M59.2,30.2L59.2,30.2z M59.2,30.2L59.2,30.2z M59.2,30.2L59.2,30.2z M59.9,29.8L59.8,30C59.8,29.9,59.8,29.9,59.9,29.8
	L59.9,29.8z M60.1,31.5L60.1,31.5L60,31.3l-0.4-0.7l0.1-0.6l0.1-0.3v-0.1h-0.1l-0.1,0.2L59.6,30l-0.1,0.2l0,0l0,0l0,0
	c0,0-0.1,0-0.1-0.1l0.1,0.1l0,0l-0.1-0.2l0.1,0.1l-0.4-0.5l-0.2-0.2h-0.1h-0.2l0.3,0.5c0.2,0.3,0.2,0.4,0.2,0.4l0,0l0,0l0,0l0,0l0,0
	L59,30.1L58.7,30L58,29.7l-0.5-0.1c0,0-0.1,0-0.1,0l0,0l0,0c0,0,0,0,0,0.1l0,0l0.1,0l0.4,0.2l0.6,0.2l0.9,0.5l0.3,0.3l0.3,0.4
	l0.1,0.2L60.1,31.5L60.1,31.5L60.1,31.5L60.1,31.5z M57.6,32.6L57.6,32.6z M58.9,34.3L58.9,34.3L58.9,34.3z M57.6,32.7L57.6,32.7z
	 M58.7,34.3L58.7,34.3z M58.1,34.3l0.2,0.1l0.6,0.3H59l0.1-0.1c0-0.2,0.2-1,0.1-1h-0.1h-0.1L59,34c0,0.1,0,0.2-0.1,0.3l0,0l0,0l0,0
	l0,0l-0.1-0.1l0,0l-0.1-0.1l-0.4-0.5L58,33l-0.2-0.2h0l0,0l0,0h-0.1l0,0l0.5,0.8c0.3,0.5,0.5,0.7,0.5,0.8v0h-0.1l-0.4-0.2l-0.4,0
	h-0.2l0,0v0.1L58.1,34.3z M58.4,35.3c0.1,0,0.1,0,0.2,0c0-0.1,0-0.1,0-0.1l-0.1-0.1h-0.1h-0.1l0,0l0,0l0,0l0,0l0,0.1L58.4,35.3z
	 M58.7,36.4L58.7,36.4z M58.7,36.4L58.7,36.4L58.7,36.4L58.7,36.4L58.7,36.4c-0.2,0-0.2,0-0.2,0v0.1l0.2,0.1L58.7,36.4L58.7,36.4
	L58.7,36.4z M60,31.9L60,31.9l-0.8-0.5l-0.8-0.3l-0.2-0.1c-0.1,0-0.1,0-0.2,0c0,0,0,0.1,0,0.1l0.8,0.3l0.9,0.5h0.1l0,0v-0.1l0,0
	L60,31.9z M58.6,41L58.6,41L58.6,41z M58.3,41L58.3,41z M59,42.5L59,42.5z M59.3,43.2L59.3,43.2L59.3,43.2z M59.3,43.2L59.3,43.2z
	 M59.3,42.5L59.3,42.5z M59,42.5L59,42.5z M59.3,42.6L59.3,42.6z M58.3,41L58.3,41L58.3,41L58.3,41L58.3,41L58.3,41z M59.8,41.8
	l-0.2,0.1l-0.2,0.4l-0.1,0.2l0,0l-0.1-0.1l-0.3-0.9l0.1-0.7c0,0,0-0.2,0-0.3l0,0v-0.1l0,0l0,0v0l0,0l0,0l0,0l0,0l-0.1,0.2l-0.1,0.4
	c0,0,0,0.1,0,0.1l0,0l-0.2-0.6l-0.4-0.8v-0.1l0,0l0,0l0,0c0,0-0.1,0-0.1,0.1l0.2,0.5l0.2,0.6l0.1,0.2L58.3,41l0,0l-0.2-0.1l-0.5-0.3
	l-0.4-0.1l0,0l0,0l0,0v0.1l0.8,0.5c0.2,0.1,0.3,0.3,0.5,0.4l0.5,0.9l0,0h-0.3l0.2,0.3l0.3,0.4l0.1,0l0,0l0,0l0,0l0,0l0,0l0,0l0,0
	l0,0l0.3-0.9L59.8,41.8L59.8,41.8C59.8,41.8,59.8,41.8,59.8,41.8L59.8,41.8L59.8,41.8z M57.8,45L57.8,45z M57.8,45L57.8,45z
	 M57.5,41.8L57.5,41.8L57.5,41.8L57.5,41.8z M57.5,41.8l0.7,0.4l0.1,0.1h0h0.1l0,0v-0.1l0,0l0,0L58.3,42l-0.6-0.3l-0.1-0.1h-0.1
	L57.5,41.8L57.5,41.8L57.5,41.8L57.5,41.8L57.5,41.8z M58.3,42.2L58.3,42.2z M58.5,42.2L58.5,42.2L58.5,42.2L58.5,42.2z M58.7,42.4
	L58.7,42.4z M59.3,43.4h0.1l0,0v0c0-0.1,0-0.1,0-0.1h-0.1l0,0L59.3,43.4L59.3,43.4z M59.4,43.4L59.4,43.4L59.4,43.4L59.4,43.4
	L59.4,43.4L59.4,43.4L59.4,43.4L59.4,43.4z M58,45.2L58,45.2l0.5,0.4l0.9,0.7l0,0l0,0l0,0c0,0,0-0.2,0-0.2l0,0l-0.7-0.6
	c-0.3-0.2-0.6-0.4-0.9-0.5v0.1l0,0l0,0L58,45.2z M58.4,47.9l0.3,0.1l0.9,0.6h0.1c0,0,0.1,0,0.1,0v-0.1c0,0,0,0,0-0.1L59.2,48
	l-0.8-0.4h-0.1l0,0l0,0c0,0,0,0,0,0.1l0,0L58.4,47.9z M58.8,52L58.8,52z M58.7,52L58.7,52z M58.7,52.2l0.1,0.8v0.6c0,0,0,0.2,0,0.3
	l0,0l0,0.1l0,0l0,0h0.1H59l0.1-0.7L59,52.3l-0.1-0.2L58.8,52h-0.1L58.7,52.2z M57.9,45L57.9,45z M57.7,43.3l0.7,0.5l0.1,0.1l0.7,0.5
	h0.1v-0.1L59.1,44l-0.6-0.5l-0.8-0.4h-0.2c0,0,0,0.1,0,0.1L57.7,43.3L57.7,43.3z M55.2,53.1l0.2,0.3l0,0l0.2,0.3l0.1,0.2l0.3,0.4
	l0.5,0.8c0,0,0,0.1,0.1,0.1h0.1c0,0,0.1,0,0.1,0V55l-0.3-0.5l-0.6-0.9C55.7,53.4,55.5,53.3,55.2,53.1C55.2,53.1,55.2,53.2,55.2,53.1
	L55.2,53.1L55.2,53.1z M56.5,49.1L56.5,49.1z M56.8,50.7L56.8,50.7z M58,50.2L58,50.2z M56.8,50.7L56.8,50.7z M57,52.9L57,52.9z
	 M57.3,53.4L57.3,53.4L57.3,53.4z M57,50.9L57,50.9z M57.1,50.9L57.1,50.9z M57.1,53.6L57.1,53.6L57.1,53.6L57.1,53.6L57.1,53.6
	L57.1,53.6L57.1,53.6z M56.5,49.1L56.5,49.1L56.5,49.1L56.5,49.1z M56.5,49.1L56.5,49.1L56.5,49.1L56.5,49.1L56.5,49.1z M57,53.7
	v0.2v0.1c0,0.3,0,0.7,0,1h0.1h0.1v-0.4V54v-0.3l0.1-0.2l0-0.1v-0.1l0.1-0.2v-0.1l0,0l-0.1-0.3c-0.1-1-0.1-1.1-0.1-1.1v-0.3l0.2-0.4
	l0.4-0.4l0.3-0.3c0,0,0,0,0-0.1l0,0l0,0l-0.2,0.1h-0.1l-0.4,0.4c-0.1,0.1-0.1,0.1-0.2,0.2l-0.2-0.8v-0.2c0,0,0-0.2,0-0.2
	s0.2-0.4,0.2-0.4c0.2-0.2,0.3-0.4,0.3-0.6c0,0-0.1-0.1-0.1-0.1L57,48.9l-0.2,0.3v0.1l0,0l0,0l0,0l0,0l0,0v0.1l0,0v-0.2l-0.1-0.5
	l-0.1-0.5l-0.1-0.3l0,0c0,0,0,0,0-0.1h-0.2h-0.1v0.4c0,0,0,0.4,0.1,0.7v0.3l0,0l0,0L56.3,49l-0.5-0.5l-0.3-0.1h0l0,0
	c0,0,0,0.1,0,0.1l0.7,0.6c0.1,0.2,0.3,0.4,0.4,0.7l0.2,0.9c0,0,0,0.1,0,0.1l0,0l0,0h-0.2l0.1,0.1l0.2,0.5v0.4v0.1v1v0l0,0l0,0l0,0
	l0,0l0,0l0,0l0,0l0,0l-0.1-0.2l0.1,0.1L56.4,52l-0.1-0.1l-0.6-0.6c-0.1-0.1-0.3-0.2-0.4-0.3v0.1l0.1,0.1l0.2,0.2l0.6,0.7l0.6,0.8
	l0,0l0.3,0.6C57,53.7,57,53.7,57,53.7z M56.3,47.5L56.3,47.5L56.3,47.5L56.3,47.5L56.3,47.5L56.3,47.5v0.1l0,0l0,0l0,0l0,0l0,0l0,0
	l0,0V47.5z M56.2,50l-0.6-0.4l0,0h-0.1v0.1l0.4,0.3l0.4,0.4l0.1,0.1h0.1l0,0l0,0L56.2,50z M53.6,55.9L53.6,55.9z M54.2,54.7
	L54.2,54.7z M53.6,55.9L53.6,55.9L53.6,55.9L53.6,55.9L53.6,55.9z M53.9,54.5L53.9,54.5L53.9,54.5L53.9,54.5z M53.8,54.3l-0.4-0.6
	c-0.1-0.1-0.3-0.3-0.4-0.3c0,0,0,0.1,0,0.1l0,0l0.2,0.2l0.1,0.1l0,0.1l0.3,0.5c0,0,0.2,0.7,0.2,0.7l0,0.8v0.2L53.8,56l-0.1-0.2l0,0
	l0,0l0,0l0,0l0,0l0,0L53.6,56l0.1,0.1l0.2,0.8l-0.1,0.8v0.2c0,0,0,0.2,0,0.2l0,0c0,0.1,0.1,0.1,0.1,0.1L54,58v-0.5l0.1-0.6
	c0.2-0.2,0.3-0.4,0.5-0.5l0.5-0.4c0,0,0,0,0.1,0l0,0l0,0v-0.1H55l-0.6,0.4l-0.1,0.1l0,0h-0.1v-0.7v-0.4c0.1-0.2,0.2-0.3,0.3-0.5
	l0.4-0.4l0.1-0.1l0,0v-0.1l0,0l0,0l0,0h-0.1l-0.2,0l-0.2,0.2l-0.3,0.2v0.1l0,0v0c0,0,0-0.2,0-0.3v-0.8c0-0.2,0-0.5-0.1-0.7
	c0,0-0.1,0-0.1,0v0.3v0.6v0.5c0,0,0,0.1,0,0.1s0,0,0,0l0,0L53.8,54.3z M54,52.9L54,52.9z M54,52.8L54,52.8L54,52.8z M53.6,55.9
	L53.6,55.9z M53,54.9L53,54.9h-0.2V55l0,0l0.3,0.1l0.4,0.5l0.1,0.1l0.1,0.1l0,0l0,0l0,0h0l-0.2-0.4L53,54.9L53,54.9L53,54.9z M53,57
	l-0.6-0.7h-0.1h-0.1l0.3,0.4l0.2,0.3l0.3,0.5l0.5,1l0,0l0,0v-0.1v-0.1l-0.2-0.5c-0.5-0.9-0.5-1-0.5-1l0,0L53,57z M52.1,58.9
	L52.1,58.9L52.1,58.9L52.1,58.9z M52.1,58.9L52.1,58.9z M52.1,58.9L52.1,58.9l0.2,0.7l0.4,0.9l0,0l0,0l0,0v-0.1v-0.2l-0.3-0.7
	c-0.2-0.3-0.5-0.8-0.5-0.8L52.1,58.9z M52.4,65L52.4,65z M53,63.4L53,63.4z M52.5,64.9L52.5,64.9l0.1-0.1c0.1-0.2,0.2-0.4,0.3-0.7
	l0.1-0.4v-0.2l0,0l0,0l0,0l0,0l0,0v-0.2h-0.1l0,0.2L52.7,64l-0.2,0.5l-0.1,0.3C52.5,64.8,52.5,64.8,52.5,64.9L52.5,64.9L52.5,64.9z
	 M55.1,61.2L55.1,61.2z M55.1,61.2L55.1,61.2z M55.1,61.2h0.2c0,0,0,0,0-0.1l0,0l0,0l0,0L55.1,61.2L55.1,61.2L55.1,61.2L55.1,61.2
	L55.1,61.2L55.1,61.2L55.1,61.2L55.1,61.2z M51.8,58.5L51.8,58.5z M50.8,58.7L50.8,58.7L50.8,58.7z M51.2,56.3L51.2,56.3z
	 M50.5,58.5L50.5,58.5L50.5,58.5z M50.1,60.2L50.1,60.2z M50.5,58.5L50.5,58.5L50.5,58.5L50.5,58.5z M50.5,58.5L50.5,58.5L50.5,58.5
	z M50.6,58.5L50.6,58.5z M48.4,59.7L48.4,59.7l0.3,0.9l0.3,1l0.1,1v0.1l0,0h0l0,0l0.3-0.1l0.3-0.7l0.2-0.7l0.1-0.2l0.2-0.2l0.6-0.3
	c0.2,0,0.4-0.1,0.6-0.2c0,0,0-0.1,0-0.1h-0.3l-0.3,0.1h-0.1l-0.3,0.1h-0.1l0,0c0-0.1,0-0.1,0-0.1v0.1l0,0l0,0l0,0v-0.2
	c0,0,0,0,0,0.1v-0.1l0.3-1c0.1-0.1,0.3-0.3,0.4-0.4l0.5-0.3l0.1,0l0,0h0.1l0,0h-0.3l-0.6,0.3h0l0,0v-0.1l0.1-0.2L51,58l0.1-0.5v-0.2
	l0.1-0.3l0.1-0.2v-0.1l0,0v-0.3v-0.1v-0.1v-0.1l0,0l0,0l0,0l0,0l0,0l-0.1,0.2v0.1l-0.1,0.2l-0.3,0.9c-0.2,0.6-0.3,0.9-0.3,1v-0.3
	l-0.2-0.5c-0.1-0.2-0.2-0.3-0.4-0.4c0,0.1,0,0.1,0,0.1l0.1,0.2v0.1v0.1V58l0.1,0.5v0.7v0.1c-0.2,0.8-0.2,0.9-0.2,1l0,0h0l0,0
	c0-0.1,0-0.1,0-0.2c0,0-0.1,0-0.1,0v0.7l-0.2,0.5v0.1L49.4,62c-0.1,0.2-0.1,0.3-0.1,0.3l0,0l0,0l0,0v-0.1v0.1v-0.2l-0.1-0.5L49,61.1
	V61l-0.4-1L48.4,59.7L48.4,59.7L48.4,59.7L48.4,59.7L48.4,59.7z M49.4,58.5L49.4,58.5L49.4,58.5z M49.9,59.5L49.9,59.5l-0.2-0.7
	c-0.1-0.1-0.3-0.4-0.3-0.4h-0.1v0.1v0.1l0.4,0.9L49.9,59.5L49.9,59.5L49.9,59.5L49.9,59.5z M47.3,61.7l0.1,0.6l0.2,0.9
	c0,0.1,0.1,0.1,0.2,0.1l0.1-0.2c0-0.3-0.1-0.5-0.2-0.8L47.6,62l-0.2-0.4L47.3,61.7L47.3,61.7L47.3,61.7
	C47.3,61.7,47.3,61.7,47.3,61.7L47.3,61.7z M42.8,70.2l0.3-0.1l0.1-0.1l0.6-0.2l0.5-0.1h0.1l0.9,0.1l0.5,0.1h0.1L46,70h0.1l0,0l0,0
	l0,0l-0.5-0.2l-0.8-0.1h-0.1c0,0-0.1,0-0.1,0c0,0,0,0,0-0.1l0.7-0.3l0.2-0.3l0.8-0.4h0.1l0.2-0.1l0.6-0.2l0.6,0.1l0.7,0.3l0.5,0.4
	l0.1-0.1L49,68.7l-0.4-0.3l-1-0.3l0,0l0,0l1-0.5l0.4-0.2l0.5-0.3l0.4-0.1l0.7,0.1l0.7,0.3l0.5,0.5l0,0c0,0,0-0.1,0-0.1l-0.1-0.3
	l-0.4-0.3c0,0-1-0.4-1-0.4c0,0,0,0,0-0.1l0.6-0.4l0.2-0.1l0.6-0.3l0.3-0.1c0.1,0,0.7,0.1,0.8,0.2l0.7,0.3v-0.1c0,0,0-0.1,0-0.1
	l-0.2-0.2l-0.6-0.2l-0.3-0.1h-0.1l0.2-0.2c0.3-0.2,0.8-0.5,0.9-0.6c0.2,0,0.5-0.1,0.7-0.1h0.1l0.5,0.1h0.1H55l0.1-0.1l-0.5-0.3
	c0,0-0.7-0.1-0.7-0.1l0,0l0.7-0.5l0.9-0.6l0.8-0.6l0.2-0.2l-0.1,0l-0.7,0.5L55.6,63L55,63.5l-1,0.6l0,0l0.2-0.3v-0.1l0.2-0.6v-0.4
	h-0.1v0.1l-0.2,0.5L53.8,64l-0.5,0.6l-0.7,0.5c0,0-0.1,0-0.1,0v-0.2v-0.2h-0.1l-0.5,0.7l-0.4,0.2l-0.3,0.1l-0.9,0.5l0,0l0.2-0.3
	l0.2-0.4l0.3-0.6l0.3-0.8l0-0.5h-0.1l-0.1,0.2l-0.2,0.4l-0.2,0.6l-0.5,1l-0.6,0.8l-0.3,0.2L49,67.1h-0.1l-0.4,0.2
	c0,0-0.9,0.5-0.9,0.5l0,0l0.5-0.6l0.6-0.9l0.3-0.9l0.2-0.8h-0.1l-0.5,0.9l-0.5,1l-0.6,0.9l-0.7,0.8l-0.5,0.3l-1,0.5
	c0,0-0.9,0.4-0.9,0.4l0,0l0.4-0.4l0.1-0.1l0.6-0.9l0.4-0.9l0.2-0.8c0,0,0-0.3,0-0.5c0,0,0-0.1,0-0.1c0,0-0.1,0-0.1,0l-0.2,0.6
	l-0.4,1l-0.5,0.9l-0.7,0.8c-0.2,0.2-0.5,0.4-0.7,0.6l-1,0.4c0,0-0.3,0.1-0.5,0.1c0,0,0-0.1,0-0.1l0,0c0-0.1,0.2-0.7,0.4-1
	s0.3-0.7,0.5-1l0,0c0.2-0.3,0.3-0.6,0.5-0.9s0.4-0.7,0.6-0.9s0.3-0.4,0.5-0.6l0,0c0,0,0.1-0.1,0.1-0.2l0,0v-0.2c0-0.2,0-0.5,0-0.6
	c0-0.2,0.1-0.5,0.2-0.7c0.1-0.3,0.2-0.5,0.3-0.8c0.1-0.3,0.4-0.7,0.5-1s0.4-0.6,0.6-0.9s0.3-0.4,0.5-0.6l0,0l0.2-0.3l0.2-0.3
	l0.5-0.5l0.5-0.7l0,0l0.2-0.2l0.4-0.5l0,0l0.3-0.4l0.2-0.3l0,0l0.5-0.6c0.1-0.1,0.2-0.3,0.3-0.4s0.2-0.3,0.4-0.5l0.5-0.6l0,0
	l0.2-0.3c0.1-0.1,0.1-0.2,0.2-0.3l0,0c0.2-0.2,0.3-0.4,0.4-0.6s0.1-0.2,0.2-0.3l0.1-0.2l0.2-0.4l0.3-0.5l0.3-0.6l0.2-0.3
	c0.1-0.1,0.2-0.2,0.2-0.3l0,0l0.3-0.6l0.1-0.3l0,0l0.3-0.6c0,0,0.1-0.1,0.1-0.1l0.2,0.3l0,0l0,0l0.1-0.1l0.2-0.5l0,0
	c0-0.2,0.1-0.4,0.2-0.6c0.1-0.3,0.2-0.7,0.3-1.1s0.2-0.6,0.3-0.9l0.1-0.2l0.2-0.5l0,0l0.2-0.5c0-0.2,0.1-0.3,0.2-0.5l0,0l0.2-0.5
	c0,0,0.1-0.1,0.1-0.1c0,0,0.3,0.5,0.4,0.8s0.6,0.9,0.6,0.9v-0.1l0,0l-0.1-0.6l-0.1-0.5c0-0.1,0-0.2,0-0.3s-0.1-0.5-0.1-0.7
	s0-0.6-0.1-0.9v-0.1c0-0.3,0-0.6,0-1c0-0.1,0-0.2,0-0.2s0-0.3,0-0.5l0,0c0-0.1,0-0.2,0-0.3v-0.5c0-0.2,0-0.3,0-0.5s0-0.5,0.1-0.8
	l0,0c0-0.1,0-0.1,0-0.2s0-0.4,0.1-0.6l0,0c0-0.2,0-0.3,0-0.4s0-0.4,0-0.5s0-0.5,0-0.5l0.1-0.1l0.4,0.4l0.3,0.3l0.2,0.2h0.1
	c0,0,0-0.3-0.1-0.5s-0.1-0.4-0.1-0.5l0,0c0-0.2-0.1-0.3-0.1-0.5c-0.1-0.3-0.2-0.7-0.2-1c0,0,0-0.1,0-0.1c0-0.4,0-0.7-0.1-1.1
	s-0.1-0.5-0.1-0.7s0-0.2,0-0.4v-0.4l0,0c0-0.2-0.1-0.5-0.1-0.7s0-0.2,0-0.3c0-0.3-0.1-0.7-0.1-0.8l0,0c0,0,0-0.1,0-0.1h0.1l0.1-0.1
	l0,0c0,0-0.2-0.4-0.2-0.6s-0.2-0.7-0.3-1s-0.2-0.7-0.3-1s-0.2-0.7-0.2-1.1c0-0.1-0.1-0.3-0.1-0.5c0-0.2-0.1-0.4-0.1-0.5
	c-0.1-0.1-0.2-0.2-0.3-0.4C55.2,26,55,25.9,55,25.8c-0.2-0.3-0.4-0.6-0.6-0.9c-0.1-0.3-0.3-0.7-0.5-1s-0.2-0.7-0.4-1s-0.2-0.7-0.3-1
	s-0.3-0.7-0.3-1c0,0,0-0.1,0-0.2c-0.1-0.4-0.1-0.7-0.2-1s-0.2-0.9-0.2-1v-0.1l0.8,0.4l0.6,0.3l0,0l0.4,0.2l0.4,0.2l0.6,0.4
	c0.2,0.2,0.7,0.5,0.9,0.6s0.6,0.5,0.8,0.7s0.8,0.8,0.8,0.8l0.1,0l0.1-0.5l0.1,0c0,0,0.1,0.1,0.2,0.2l0.3,0.4l0,0l0.3,0.4l0.4,0.4
	l0,0l0.4,0.4c0.2,0.3,0.5,0.6,0.7,0.9s0.4,0.7,0.6,0.9s0.4,0.7,0.5,1s0.2,0.7,0.4,1s0.3,1,0.3,1l0.1-0.1c0.1-0.2,0.6-0.9,0.6-0.9
	l0,0h0.1c0,0,0.1,0.4,0.2,0.6l0.3,1l0.1,0.4l0.2,0.6c0.1,0.4,0.2,0.7,0.3,1.1c0.1,0.4,0.2,0.8,0.2,1.1c0.1,0.3,0,0.4,0.1,0.7l0,0
	c0,0.1,0,0.3,0,0.4v0.3c0,0.2,0,0.3,0,0.5s0,0.3,0,0.4c0,0.3-0.1,0.8-0.1,1.1s-0.2,1-0.2,1l0,0c0,0,0.4-0.4,0.6-0.6s0.4-0.4,0.6-0.6
	l0,0l0.2-0.2h0.1l0.1,0.8c0,0,0,0.1,0,0.2c0,0.3,0.1,0.6,0.1,0.9s0,0.3,0.1,0.5s0.1,0.4,0.1,0.5v0.1c0,0.3,0.1,0.7,0.1,1
	s0,0.5,0,0.8c0,0.1,0,0.2,0,0.3c0,0.3,0,0.6-0.1,0.9s-0.1,0.5-0.1,0.7s0,0.2-0.1,0.3V42v0.1c-0.1,0.3-0.2,0.6-0.2,0.9
	s-0.3,0.7-0.4,1s-0.5,0.9-0.5,0.9l0,0l0.2-0.1l0,0l0.6-0.3c0.1,0,0.2-0.1,0.3-0.1c0,0,0,0.4-0.1,0.6l-0.1,0.5c0,0.2-0.1,0.3-0.1,0.5
	s0,0.3-0.1,0.5s0,0.3-0.1,0.5V47l0,0c0,0.3-0.1,0.5-0.1,0.8s-0.2,0.8-0.2,1s-0.2,0.8-0.3,1s-0.2,0.4-0.3,0.7l0,0.5l0,0L64,51.3l0,0
	L63.6,52c0,0.1-0.1,0.2-0.1,0.2l0.6-0.1h0.2c0,0-0.2,0.5-0.3,0.8s-0.1,0.3-0.2,0.4l0,0c-0.1,0.2-0.2,0.4-0.2,0.6s-0.1,0.3-0.2,0.5
	l0,0l-0.2,0.5c-0.1,0.3-0.3,0.7-0.4,0.9s-0.3,0.6-0.5,0.9s-0.2,0.4-0.4,0.6l-0.2,0.3l0,0v0.1l0,0l0,0c-0.2,0.2-0.4,0.6-0.6,0.8
	s-0.5,0.6-0.8,0.8c-0.3,0.2-0.6,0.5-0.9,0.7c-0.2,0.1-0.5,0.3-0.7,0.5l-0.2,0.1L57.8,61l-0.3,0.2l0,0l-0.1,0.1h0.4l0,0
	c0.1,0,0.1,0,0.2,0l-0.2,0.4l-0.3,0.4l0,0l-0.3,0.5L57,62.7c-0.2,0.2-0.3,0.5-0.5,0.7l-0.2,0.4l-0.3,0.5c-0.2,0.3-0.4,0.6-0.6,0.8
	s-0.5,0.6-0.7,0.8s-0.5,0.5-0.8,0.8s-0.5,0.5-0.7,0.7s-0.6,0.5-0.9,0.7s-0.7,0.4-0.9,0.6s-0.7,0.4-1,0.5s-0.6,0.3-1,0.4h-0.1l-1,0.3
	l0,0h-0.1h0l-0.4,0.1l-0.6,0.2c-0.3,0.1-0.7,0.2-1,0.2s-0.8,0.1-1.1,0.2s-0.8,0.1-1,0.1l0,0c-0.3,0-0.7,0-1.1-0.1s-0.8-0.1-0.8-0.1
	l0,0L42.8,70.2z"/>
<path class="st4" d="M11.4,62.3L11.4,62.3L11.4,62.3L11.4,62.3 M13.4,61.2L13.4,61.2z M10.2,59.5L10.2,59.5z M11,59.5L11,59.5z
	 M6.5,55L6.5,55z M9.1,57.3l0.1,0.2l0,0l0,0L9.1,57.3z M9.1,57.9L9.1,57.9z M9.1,57.9L9.1,57.9z M9.1,57.9L9.1,57.9L9.1,57.9
	L9.1,57.9z M9.1,57.5L9.1,57.5L9.1,57.5L9.1,57.5z M8.8,57.7L8.8,57.7L8.8,57.7z M7.6,56.1L7.6,56.1z M7.6,56.2L7.6,56.2L7.6,56.2z
	 M7.6,56.2L7.6,56.2L7.6,56.2z M7.6,56.5L7.6,56.5z M6.7,54.8L7,55.4C6.9,55.2,6.8,55,6.7,54.8z M6.5,55L6.5,55L6.5,55z M6.5,55
	L6.5,55L6.5,55z M13.5,60.9L13.5,60.9L13.5,60.9L13.5,60.9z M13.4,61.1L13.4,61.1L13.4,61.1L13.4,61.1L13.4,61.1z M11.1,59.4
	L11.1,59.4z M11.1,59.2L11.1,59.2L11.1,59.2z M14.5,61.8L14.5,61.8c0,0,0-0.1-0.1-0.1L14,61.2c0,0-0.1-0.1-0.1-0.1l-0.1-0.2
	l-0.2-0.3l-0.1-0.1l-0.3-0.7L13,59.2l0-0.2v-0.2v-0.2l-0.1-0.4v-0.1c0,0-0.1,0-0.1,0c-0.1,0.1-0.1,0.2-0.1,0.4l0.1,0.9l0.1,0.8
	l0.2,0.5l0.2,0.3l0,0l0,0l-0.1-0.1l-0.7-0.5l-0.2-0.2L12.3,60l-0.5-0.4c-0.2-0.3-0.3-0.5-0.5-0.8l-0.4-1L10.6,57v-0.1l-0.1-0.3h-0.1
	c0,0.2,0,0.4,0,0.6l0.3,0.9l0.2,0.6v0.1l0,0.1l0.1,0.2v0.1l0,0l-0.7-0.6l-0.2-0.1l-0.6-0.5c-0.1-0.3-0.3-0.6-0.4-0.9L9,56.1V56
	l-0.1-0.6H8.8v0.1v0.1v0.3V56L9,56.9l0.2,0.6l0,0l-0.4-0.3L8.5,57L8,56.5l-0.2-0.3L7.7,56l0,0l0,0l-0.1,0.1H7.6l0,0L7,55.4l-0.3-0.7
	l-0.1-0.9c0,0-0.1,0-0.1,0c-0.1,0.1-0.1,0.2-0.1,0.3l0.1,0.4v0.2v0.1V55l0,0c0,0-0.1-0.1-0.7-0.7L5,53.4L4.6,53l0,0l0,0l0,0l0,0v0.1
	v0.1c0,0,0.7,0.8,0.7,0.8l0,0l0.7,0.7L6,54.9l0.3,0.3l-0.1-0.1l0.2,0.2l0,0l-0.1-0.1c0,0,0,0.1,0.1,0.1H5.7l-0.2,0.1l-0.1,0.1l0,0
	h0.1h0.1h0.8l0.3,0.1C7,55.8,7.3,56,7.5,56.3v0.1l0,0l0,0l0,0l0,0l0,0H7.4l-0.8,0.2l-0.2,0.1c0,0,0,0,0,0.1h0.2l0.3-0.1l0.3-0.1h0.1
	h0.6l0.6,0.5l0.1,0.1L9,57.8l0.1,0.1l0,0l0,0l0,0l0,0l0,0l0,0H8.9l-0.8,0.2l-0.4,0.3v0.1v0.1h0.1l0.5-0.3c0.2-0.1,0.5-0.1,0.8-0.2
	c0.2,0,0.4,0,0.6,0.1c0.3,0.2,0.5,0.4,0.8,0.6l0.1,0.1l0.4,0.4l-0.1-0.1l0.3,0.2l0,0l-0.2-0.1c0,0,0.1,0.1,0.1,0.1l0,0h-0.2h-0.2
	h-0.4h-0.1l-0.3,0.2L9.6,60h0.1l0.7-0.3l0.5-0.1c0.2,0,0.4,0,0.6,0.1l0.4,0.2l0.4,0.3l0.3,0.2l0.6,0.5l0.1,0.1c0,0,0,0,0.1,0.1H13
	c0,0,0,0.1,0,0.1c0.3,0.1,0.6,0.2,0.9,0.3l0.2,0.2h0.1l0.1,0.1h0.1H14.5L14.5,61.8L14.5,61.8z M7.6,55.3l-0.1-0.6H7.4
	c0,0,0,0.1,0,0.1v0.4v0.2v0.1l0.1,0.3c0,0,0.1,0,0.1,0c0,0,0,0,0-0.3L7.6,55.3z M7.6,55.9L7.6,55.9L7.6,55.9L7.6,55.9z M3.8,49.4
	L3.8,49.4z M7.5,52.7L7.5,52.7z M7.6,52.7L7.6,52.7z M7.5,52.4L7.5,52.4z M7.4,52.8L7.4,52.8z M7.4,52.8L7.4,52.8z M7.4,52.8
	L7.4,52.8z M7.6,52.6L7.6,52.6z M7.5,52.6L7.5,52.6z M7.5,52.6L7.5,52.6z M4.9,49.3L4.9,49.3L4.9,49.3L4.9,49.3L4.9,49.3z M4.2,48
	L4.2,48z M4.3,47.8L4.3,47.8z M4.9,49.4L4.9,49.4L4.9,49.4z M5,49L5,49z M5,49L5,49z M5.2,49L5.2,49z M5.9,50.7L5.9,50.7z M6,51
	L6,51z M6,51L6,51z M3,45.7L3,45.7z M4.6,51.3L4.6,51.3h0.2L5,51.2h0.3h0.2l0.6,0.1l0.2,0.1l0,0l0.6,0.8l0.4,0.6l-0.1-0.1l0.1,0.2
	l0,0l0,0l0,0H7.3l-0.7-0.1H6.5l-0.1,0.1v0l0,0h0.1L7.2,53l0.5,0.2l0.1,0.1l0.3,0.3l0,0l0,0v-0.1l0-0.2L7.9,53l0,0l-0.2-1l-0.1-0.7
	v-0.3v-0.7c0,0-0.1,0-0.1,0c-0.1,0.1-0.1,0.3-0.1,0.5v0.1v0.7l0.1,1l0.1,0.3l0,0c0-0.1-0.1-0.1-0.1-0.2l-0.1-0.1L7,51.9l-0.2-0.3
	l-0.3-0.5c-0.1-0.3-0.1-0.7-0.2-1V50v-0.7v-0.2v-0.6c0,0,0,0-0.1,0C6.1,48.6,6,48.8,6,48.9c0,0,0,0-0.1,1v0.5c0,0,0-0.1,0-0.2v0.3
	l0,0c0,0,0-0.1,0-0.2l0,0c0,0,0,0.1,0,0.1l0,0l0,0l-0.6-0.8l-0.2-0.4l0.1-0.3v-0.1c0,0,0,0,0-0.1H5l0,0l0,0
	c-0.1-0.3-0.2-0.5-0.3-0.8c-0.1-0.3-0.1-0.5-0.1-0.8l0.1-0.8H4.5l-0.1,0.1c0,0-0.1,0.7-0.1,0.7v0.2l0,0c-0.1-0.3-0.3-0.6-0.5-0.8
	l-0.3-0.5l-0.2-0.4l-0.1-0.2v-0.1v-0.1H2.9c0,0.1,0,0.1,0,0.2v0.1l0.3,0.8l0.3,0.7l0,0c0,0,0.4,0.6,0.5,0.7L4,47.8L4.1,48l0,0l0,0
	L4,47.9H3.9l-0.3-0.1H3.3v0.1c0.2,0.1,0.4,0.2,0.7,0.3l0.4,0.2l0,0l0.4,0.7l0.1,0.2H4.8L4,49.2l-0.2,0.1l-0.1,0.1l0,0h0.1l0,0h0.4
	h0.4l0.5,0.2l0,0c0,0,0,0.1,0.5,0.8l0.1,0.1l0.2,0.4V51H5.5l-0.6,0l-0.3,0.1L4.6,51.3L4.6,51.3L4.6,51.3L4.6,51.3z M4.6,53L4.6,53z
	 M5.2,47.6L5.2,47.6z M5.2,47.6L5.2,47.6v0.2L5,48.1v0.3l0,0c0,0,0,0,0,0v0.3h0.2c0,0,0,0,0-0.1v-0.3c0,0,0-0.1,0-0.1v-0.3V48l0,0
	C5.2,48,5.2,48,5.2,47.6L5.2,47.6z M2.8,40.2L2.8,40.2z M2.6,38.7L2.6,38.7z M3,36.4L3,36.4z M3.6,38.7L3.6,38.7L3.6,38.7L3.6,38.7z
	 M4,40.3L4,40.3z M4.2,40L4.2,40z M4.8,42.4L4.8,42.4z M5.4,40.5L5.4,40.5z M5.4,44.7L5.4,44.7z M5.4,44.5L5.4,44.5L5.4,44.5z
	 M5.4,44.6L5.4,44.6L5.4,44.6L5.4,44.6L5.4,44.6z M3.8,40.5L3.8,40.5z M3.7,38.7L3.7,38.7L3.7,38.7L3.7,38.7L3.7,38.7z M3.7,38.7
	L3.7,38.7z M3.8,40.5L3.8,40.5z M3.8,40.5L3.8,40.5z M4,40.3L4,40.3z M4.6,39L4.6,39z M4.6,39L4.6,39z M4.2,40L4.2,40L4.2,40L4.2,40
	z M4.5,42.5L4.5,42.5L4.5,42.5L4.5,42.5L4.5,42.5z M4.5,42.5L4.5,42.5z M4.5,42.5L4.5,42.5L4.5,42.5L4.5,42.5z M4.5,42.5L4.5,42.5
	L4.5,42.5L4.5,42.5z M4.5,42.4L4.5,42.4L4.5,42.4z M5.7,44L5.7,44L5.7,44L5.7,44z M5.6,44.5L5.6,44.5z M2.7,38.7L2.7,38.7z M3,42.4
	l0.5-0.1l0.7,0.2l0.6,0.4l0,0l0.4,0.9l0.3,0.8l0,0v-0.1v0.1l0,0l0,0l0,0v-0.1l0,0l0,0l0,0l0,0l0,0l0,0l0,0l0,0l0,0l0,0l-0.2-0.1
	l-0.5-0.2H4.2H4.1L4,44.4l0,0h0.1l0,0l0.8,0.3c0.2,0.1,0.4,0.3,0.6,0.4l0.1,0.3l0.2,0.4l0.2,0.5v0.1l0.2,0.4l0.2,0.4l0.1,0.1
	l0.1,0.1l0,0l0,0V47l-0.2-0.6L6.2,46l-0.1-0.3L6,45.5l-0.1-0.3v-0.9L6,43.2l0.2-0.6l0.1-0.4v-0.2H6.2c-0.1,0.2-0.2,0.4-0.3,0.6
	l-0.2,1c0,0,0,0-0.1,0.7l0,0c0,0,0,0,0,0.1v0.1l0,0v0.1l0,0l0,0l0,0c0,0,0-0.1,0-0.1l-0.1-0.2l-0.1-0.3l-0.1-0.3l-0.1-0.3l-0.3-0.5
	c0,0,0,0,0-0.1L5,42.5l0.1-0.2l0.2-0.6l0.2-1v-0.3l0,0l0,0l0,0l-0.2,0.3v0.2L5,41.1l-0.2,0.6l-0.1,0.7l0,0l-0.4-1l-0.2-0.7l0.1-0.7
	L4.3,40v-0.1l0.2-0.5L4.6,39l-0.1,0c-0.1,0-0.1,0.1-0.1,0.2l-0.1,0.2l-0.2,0.5c0,0,0,0,0,0.1V40l0,0v-0.1c0,0,0,0,0,0.1l0,0l0,0v0.1
	L4,40.2l0,0c0-0.1-0.1-0.4-0.1-0.5l-0.1-0.3l0.1-0.7l0.3-0.8l-0.1-0.1c-0.1,0-0.2,0.1-0.2,0.2l-0.3,0.6l-0.1,0.3v-0.2l-0.2-0.9
	l-0.1-0.5l-0.1-0.5L3,36.4v0l-0.1,0.1l0,0l0,0l0,0c0,0,0,0.1,0,0.1l0.2,1l0.3,1.1l0.1,0.3l0,0l0,0V39l0,0l0,0l-0.2-0.1l-0.4-0.3H2.7
	H2.6c0,0,0,0,0,0.1c0,0,0.1,0.1,0.1,0.1h0.1l0,0l0.6,0.4l0.2,0.3l0.2,0.9l0,0c0,0,0-0.1-0.1-0.1l-0.1,0l-0.5-0.2H2.7
	c0,0,0,0.1,0,0.1h0.1l0.4,0.1c0.2,0.1,0.4,0.3,0.7,0.4c0,0,0.3,0.7,0.4,1l0.1,0.5c0,0,0,0-0.1,0l-0.3,0l-0.5-0.1l-0.4,0L3,42.3V42.4
	L3,42.4L3,42.4z M2.9,42.4L2.9,42.4z M4.6,38.9L4.6,38.9L4.6,38.9L4.6,38.9L4.6,38.9L4.6,38.9z M6.3,41.8L6.3,41.8L6.3,41.8
	L6.3,41.8L6.3,41.8L6.3,41.8L6.3,41.8L6.3,41.8L6.3,41.8L6.3,41.8z M7.6,44.2L7.6,44.2z M7.6,44.2L7.6,44.2z M7.1,44.8L7.1,44.8
	c-0.1,0.3-0.2,0.7-0.3,1c0,0,0,0-0.1,0.8v0.5l0.1,0.2h0.1H7l0,0c0-0.1,0-0.1,0-0.1l0.1-0.9l0.2-1l0.2-0.7l0.2-0.4l-0.1-0.1H7.5
	C7.5,44.2,7.3,44.6,7.1,44.8z M5.8,32.3L5.8,32.3L5.8,32.3L5.8,32.3z M5.8,32.2L5.8,32.2L5.8,32.2L5.8,32.2L5.8,32.2L5.8,32.2z
	 M7,39.1c0,0.1,0,0.1-0.1,0.2v0.1L7,39.1z M4.1,34.2L4.1,34.2z M5.6,34.5L5.6,34.5L5.6,34.5z M5.6,34.5L5.6,34.5L5.6,34.5z
	 M4.8,32.2L4.8,32.2z M5.3,31L5.3,31L5.3,31L5.3,31L5.3,31z M5.5,30.9L5.5,30.9L5.5,30.9L5.5,30.9L5.5,30.9z M5.3,31.1L5.3,31.1
	L5.3,31.1z M5.6,32.4L5.6,32.4z M6.3,36.8L6.3,36.8z M7,39.4L7,39.4L7,39.4L7,39.4z M6.1,36.8L6.1,36.8z M5.6,34.6L5.6,34.6
	L5.6,34.6C5.6,34.6,5.6,34.6,5.6,34.6z M5.6,34.6L5.6,34.6L5.6,34.6z M6.4,36.7L6.4,36.7L6.4,36.7z M6.1,36.8L6.1,36.8L6.1,36.8
	C6.1,36.9,6.1,36.8,6.1,36.8z M5.8,36.8L5.8,36.8L5.8,36.8L5.8,36.8z M4.1,34.3L4.1,34.3L4.1,34.3h0.2l0,0h0.4l0.5,0.2
	c0.2,0.2,0.4,0.3,0.5,0.5l0.1,0.5L6,36.1l0.1,0.7l0,0L6,36.7l-0.4-0.3L5,36.3v0v0.1c0,0,0.1,0.1,0.2,0.1l0.5,0.2l0.5,0.5l0.2,0.4
	L6.4,38v0.2l0.1,0.3l0.2,0.7l0.1,0.3l0,0c0,0,0,0,0-0.1v0.1l0,0l-0.1-0.1l-0.1-0.1l0,0l0,0l0,0l0.2,0.4L7,40.2l0,0h0.1l0,0
	c0,0,0,0,0.1-1l0.3-0.8l0.4-0.9L8,37.3l0.3-0.6H8.3l0,0l0,0H8.2v0l-0.4,0.4l-0.4,0.7l-0.3,0.7L7,39.1v-0.2v0.4l0,0l0,0
	c0-0.1-0.1-0.4-0.2-0.9v-0.2l-0.3-0.9c0.1-0.4,0.1-0.7,0.2-1.1l0.4-1l0.4-0.9l-0.1-0.1c-0.1,0.2-0.3,0.4-0.4,0.6l-0.3,0.7l-0.3,0.9
	v0.1v0.1c0,0,0,0,0,0.1l0,0l-0.1-0.3l-0.2-1v-0.2v-0.1L6,35c0,0,0,0,0.3-1l0.3-0.5l0.1-0.2l0.1-0.1L6.8,33l0.3-0.5L7,32.4l0,0
	l-0.2,0.2l-0.2,0.2l-0.4,0.8l-0.2,0.5v0.1l0,0v0.1l0,0l0,0l0,0l0,0c0-0.1-0.1-0.7-0.1-0.7l-0.1-0.3v-0.5l0.1-0.6l0,0H5.8H5.7H5.7
	l0,0l0,0l0,0c0,0,0,0,0.1-0.9v-0.1L6,30.9L6,30.6l0.3-0.5L6.2,30c-0.2,0.1-0.3,0.2-0.4,0.3l-0.3,0.5v0l0,0l0,0
	c0-0.2-0.1-0.9-0.1-0.9l-0.1-0.9V29H5.3H5.2c0,0.2,0,0.3,0,0.5v0.7l0,0.8c0,0,0,0,0,0.1l0,0L5.2,31l-0.3-0.3l-0.3-0.1
	c0,0,0,0-0.1,0.1l0.1,0.1l0.4,0.4c0.1,0.1,0.2,0.3,0.2,0.4l0.1,1l0,0c0,0,0,0,0-0.1v0.1l0,0l0,0l0,0l-0.1-0.1l-0.2-0.1l-0.4-0.2H4.7
	c-0.1,0-0.1,0-0.2,0l0,0l0.1,0l0.4,0.2c0.2,0.2,0.3,0.3,0.5,0.5c0,0.1,0.1,0.7,0.1,1.1c0,0,0,0.3,0,0.4l0,0l0,0l0,0l0,0l0,0l0,0l0,0
	H5.5l-0.2-0.1L5,34.2l-0.5-0.1l-0.2,0.1L4.1,34.3C4.1,34.3,4.1,34.3,4.1,34.3z M5.3,28.4L5.3,28.4z M5.4,28.7L5.4,28.7z M5.4,28.7
	L5.4,28.7z M5.3,28.7L5.3,28.7L5.3,28.7L5.3,28.7L5.3,28.7L5.3,28.7L5.3,28.7L5.3,28.7L5.3,28.7L5.3,28.7L5.3,28.7L5.3,28.7
	L5.3,28.7L5.3,28.7L5.3,28.7L5.3,28.7L5.3,28.7z M6.4,31.2L6.4,31.2z M6.5,31.2L6.5,31.2L6.5,31.2z M5.9,32.1L5.9,32.1z M6.4,31.2
	L6.4,31.2L6.4,31.2z M6.2,31.4L6,31.7l-0.2,0.5h0.1h0c0,0,0.2-0.3,0.2-0.4l0.3-0.5l0,0H6.4c0,0-0.1,0-0.1,0L6.2,31.4z M6.8,29.2
	L6.8,29.2L6.8,29.2l0.3,0.3c0,0,0,0,0.1-0.1c0-0.1-0.1-0.2-0.2-0.3L6.8,29.2L6.8,29.2L6.8,29.2L6.8,29.2C6.7,29.2,6.7,29.2,6.8,29.2
	L6.8,29.2z M7.5,34.3L7.5,34.3z M9.5,25.4L9.5,25.4z M9.1,25.5L9.1,25.5L9.1,25.5L9.1,25.5L9.1,25.5l0.2,0l0.2-0.1l0,0
	c0,0,0,0,0-0.1H9.4L9.1,25.5L9.1,25.5L9.1,25.5z M8.8,24.5c0,0,0,0.1-0.1,0.1l0,0L8.8,24.5z M8.3,26.1L8.3,26.1L8.3,26.1L8.3,26.1
	L8.3,26.1L8.3,26.1L8.3,26.1L8.3,26.1z M8.4,24.3L8.4,24.3z M9,24.7L9,24.7z M9,24.7L9,24.7z M9.1,24.6L9.1,24.6z M9,24.7L9,24.7
	L9,24.7z M8.5,26L8.5,26L8.5,26L8.5,26z M8.2,27.7L8.2,27.7L8.2,27.7z M7.9,27.9L7.9,27.9z M8.2,27.7L8.2,27.7z M8.3,26.1L8.3,26.1
	L8.3,26.1z M8.5,26L8.5,26z M9.4,23L9.4,23z M9.4,23.1L9.4,23.1z M6.8,27.2L6.8,27.2L7,27.3l0.3,0.2l0,0l0.2,0.3L7.7,28l0.2,0.3v0.1
	v0.1l0,0h0.1v-0.1l0.5-0.7L9,27.1L9.2,27l0.3-0.2l0.1-0.1c0,0,0-0.1,0-0.1c-0.1,0-0.2,0-0.3,0.1l-0.6,0.4l-0.5,0.5l-0.1,0.1l0,0
	c0,0,0-0.2,0.2-1l0.1-0.2v-0.1l0.1-0.2v0l0.1-0.1v0l0,0L8.6,26l0,0H8.5l0,0v-0.1c0.1-0.1,0.1-0.3,0.2-0.4l0.1-0.1l0.5-0.5l0.6-0.4
	l0,0c0,0,0-0.1,0-0.1c-0.2,0-0.3,0.1-0.4,0.2L9,24.7l0,0l0,0l0,0l0,0l0,0l0,0l0,0l0.1-0.2l0.2-0.9l0.2-0.5c0,0,0-0.1,0-0.1H9.4l0,0
	v0v0.1l-0.2,0.4L9,24.2l-0.1,0.4v-0.1l-0.1,0.3l0,0l0,0l0,0l0,0c0-0.1-0.1-0.1-0.1-0.2l-0.1-0.2l-0.2-0.1l-0.1-0.1l0,0l0,0l0,0l0,0
	l0,0l0.2,0.5l0.1,0.4c0,0.1,0,0.3,0,0.4l-0.2,0.6l0,0l0,0c0,0,0,0-0.1-0.2l-0.3-0.3l-0.2-0.1c0,0-0.1,0-0.1,0.1l0,0
	c0.1,0.1,0.2,0.3,0.3,0.4c0.1,0.2,0.2,0.4,0.3,0.5v0.1V27L8,27.5l-0.1,0.2l-0.1,0.1l0,0l0,0c0-0.1-0.1-0.1-0.2-0.2l-0.1-0.1
	l-0.2-0.3L7,27.1L6.8,27.2L6.8,27.2L6.8,27.2z M10.3,27.2L10.3,27.2z M10.4,27.7L10.4,27.7z M10.7,27.7L10.7,27.7z M11.2,27.6
	L11.2,27.6z M9.9,28.8L9.9,28.8z M9.8,28.8L9.8,28.8z M9.6,28.8L9.6,28.8l-0.1-0.2l-0.1-0.4H9.3H9.2c0,0,0.1,0.7,0.1,1h0.1l0.6-0.4
	H10H9.9h0v-0.1l0.6-0.6l0.5-0.3l0.7-0.2c0,0,0-0.1,0-0.1c-0.2,0-0.4,0-0.6,0l-0.3,0.1h-0.1l0,0l0.1-0.1l0.1-0.1l0.5-0.7l0,0
	c0,0,0,0-0.1,0l0,0h-0.1L11,27.1l-0.3,0.4l-0.1,0.2l0,0l0,0h-0.1l0,0l0,0v-0.1l-0.1-0.3v-0.1l0,0h-0.1l0,0l0,0c0,0,0,0,0,0.1v0.1
	v0.5l-0.1,0.3l-0.6,0.7l0,0L9.6,28.8z M10.6,24.6L10.6,24.6z M10.6,24.6L10.6,24.6L10.6,24.6l0.5-0.8c0,0,0-0.1-0.1-0.1l0,0
	c-0.1,0.1-0.2,0.2-0.2,0.4L10.6,24.6L10.6,24.6L10.6,24.6L10.6,24.6z M11,22.6C11,22.6,11.1,22.6,11,22.6c0.1-0.1,0.1-0.1,0.1-0.2
	l-0.2-0.2l0,0l0,0l0,0c0,0,0,0.1,0,0.1L11,22.6L11,22.6L11,22.6z M13.3,21.7L13.3,21.7L13.3,21.7L13.3,21.7L13.3,21.7L13.3,21.7
	L13.3,21.7L13.3,21.7L13.3,21.7L13.3,21.7L13.3,21.7L13.3,21.7L13.3,21.7z M11.4,23.1L11.4,23.1L11.4,23.1z M12,21.2L12,21.2z
	 M12.4,21.7L12.4,21.7L12.4,21.7z M13.2,20.8L13.2,20.8z M11.7,23.1L11.7,23.1L11.7,23.1L11.7,23.1L11.7,23.1L11.7,23.1z M11.2,23.7
	L11.2,23.7L11.2,23.7L11.2,23.7L11.2,23.7z M11.4,23.1L11.4,23.1L11.4,23.1L11.4,23.1z M11.4,23.1L11.4,23.1z M11.6,22.8L11.6,22.8
	L11.6,22.8L11.6,22.8z M11.6,22.7L11.6,22.7L11.6,22.7z M11.6,23L11.6,23L11.6,23z M11.4,23L11.4,23L11.4,23z M12.3,21.8L12.3,21.8
	L12.3,21.8z M12.6,21.7L12.6,21.7L12.6,21.7z M14.5,19.4L14.5,19.4z M14.5,19.4L14.5,19.4z M14.5,19.4L14.5,19.4z M11,22.7
	c0,0.1,0,0.2,0.1,0.4l0.1,0.7l0,0l0.2-0.1l0.7-0.5l0.7-0.1l0.4-0.1l0.3-0.1c0,0,0-0.1,0-0.1c-0.3,0-0.5,0-0.8,0.1l-0.9,0.4l-0.1,0.1
	l0.2-0.4l0.3-0.5l0.4-0.4l0.1-0.1l0,0l-0.1-0.1c0.2-0.3,0.4-0.5,0.7-0.6l0.5-0.3l0.4-0.1l0.1-0.1l0,0l0,0l0,0l0,0l-0.5,0.1l-0.2,0.1
	h-0.1l0,0l0.2-0.2l0.4-0.6l0.4-0.5v-0.1h-0.1l-0.1,0.1l-0.2,0.2l-0.4,0.4l-0.4,0.5l-0.1,0.1l0,0l0,0v0l0,0l0,0l0,0l0,0
	c0-0.1,0-0.2,0-0.2v-0.2l-0.1,0h-0.1v0.4c0,0-0.1,0.5-0.1,0.5l-0.5,0.5c0,0,0,0,0,0c0-0.1-0.1-0.2-0.1-0.4l-0.1-0.2l0,0l0,0v0.1v0.1
	v0.3l0.1,0.4L12,22.4L11.6,23l-0.2,0.2v-0.1l-0.1-0.4c0,0,0,0-0.1,0S11.1,22.7,11,22.7L11,22.7z M13.9,21.5L13.9,21.5z M13.9,21.5
	L13.9,21.5c-0.1,0.1-0.3,0.1-0.4,0.1c0-0.1,0-0.1,0-0.1l0.1-0.1h0.1L13.9,21.5L13.9,21.5z M11.1,23.7L11.1,23.7L11.1,23.7z
	 M11.1,23.8L11.1,23.8L11.1,23.8L11.1,23.8L11.1,23.8z M11.4,26.7L11.4,26.7z M11.4,26.6L11.4,26.6z M10.8,24.7L10.8,24.7z
	 M12.1,24.2l0.2-0.1l0.3-0.1h0.1v-0.1h-0.1h-0.1l-1,0.4l-0.8,0.5l-0.2,0.1l0,0c0,0,0,0.1,0,0.1l0,0l0.4-0.2l0.6-0.3L12.1,24.2z
	 M10.7,28.4L10.7,28.4z M10.5,28.5L10.5,28.5z M10.5,28.6h0.1l0.4,0c0,0,0-0.1,0-0.1c-0.1,0-0.2,0-0.3,0L10.5,28.6
	C10.5,28.6,10.5,28.6,10.5,28.6L10.5,28.6L10.5,28.6z M10.3,28.6L10.3,28.6z M10.2,28.6L10.2,28.6L10.2,28.6L10.2,28.6L10.2,28.6
	h0.1l0,0l0,0l0,0l0,0l0,0l0,0l0,0H10.2z M10.2,28.6L10.2,28.6z M10.2,28.6L10.2,28.6z M10,28.7L10,28.7z M8.1,29.4L8.1,29.4z
	 M8,29.3L8,29.3z M8,29.3L8,29.3z M8,29.3L8,29.3z M8.2,29.6L8.2,29.6L8.2,29.6c0.1-0.1,0.1-0.1,0.1-0.2L8,29.2H7.9v0.1
	C8,29.4,8.1,29.6,8.2,29.6L8.2,29.6L8.2,29.6z M8.9,30.2L8.9,30.2z M8.9,30.2L8.9,30.2z M8.9,30.2L8.9,30.2z M8.9,30.2L8.9,30.2z
	 M8.3,30l-0.1-0.2C8.3,29.9,8.3,29.9,8.3,30z M8,31.6L8,31.6L8,31.6l0.2-0.2L8.4,31l0.3-0.3l0.9-0.5l0.6-0.2l0.4-0.1l0.1,0l0,0
	c0,0,0,0,0-0.1l0,0l0,0c0,0-0.1,0-0.1,0l-0.5,0.1l-0.8,0.3l-0.2,0.1l-0.1,0l0,0l0,0l0,0l0,0l0,0c0,0,0-0.1,0.2-0.4l0.3-0.5H9.2H9.2
	L9,29.7l-0.4,0.5l0.1-0.1l-0.1,0.2l0,0l0.1-0.1c0,0-0.1,0.1-0.1,0.1l0,0l0,0l0,0L8.5,30l-0.1-0.2l-0.1-0.2H8.2v0.1L8.3,30l0.1,0.6
	L8,31.4V31.6L8,31.6C7.9,31.6,8,31.6,8,31.6z M10.5,32.7L10.5,32.7z M9.1,34.4L9.1,34.4L9.1,34.4z M10.5,32.8L10.5,32.8z M9.5,34.3
	L9.5,34.3z M10.6,34.2L10.6,34.2L10.6,34.2l-0.2-0.1l-0.4,0l-0.4,0.2H9.5l0,0c0.1-0.1,0.2-0.3,0.5-0.8l0.5-0.8l0,0h-0.1l0,0l0,0
	h-0.1L10.1,33l-0.5,0.7l-0.4,0.5l-0.1,0.1l0,0l-0.1,0.1l0,0l0,0l0,0c0-0.1,0-0.3,0-0.4L9,33.7H8.9H8.8c0,0,0.1,0.8,0.1,1l0.1,0.1
	h0.1l0.6-0.3l0.2-0.1L10.6,34.2z M9.8,35.3L9.8,35.3L9.8,35.3L9.8,35.3L9.8,35.3L9.8,35.3L9.8,35.3L9.8,35.3l-0.1-0.1H9.5l-0.1,0.1
	c0,0,0,0,0,0.1c0.1,0,0.1,0,0.2,0L9.8,35.3z M9.4,36.5L9.4,36.5z M9.4,36.6L9.4,36.6l0.2,0c0,0,0-0.1,0-0.1c0,0-0.1,0-0.1,0H9.4l0,0
	L9.4,36.6L9.4,36.6L9.4,36.6z M8.1,32L8.1,32L8.1,32l0.1,0.1l0.9-0.5l0.8-0.3c0,0,0-0.1,0-0.1c-0.1,0-0.1,0-0.2,0l-0.2,0.1l-0.8,0.3
	L8.1,32L8.1,32L8.1,32z M9.5,41L9.5,41L9.5,41L9.5,41z M9.8,41L9.8,41z M9.1,42.5L9.1,42.5z M8.8,43.2L8.8,43.2L8.8,43.2z M8.8,43.2
	L8.8,43.2z M8.9,42.6L8.9,42.6z M9.1,42.5L9.1,42.5z M8.9,42.6L8.9,42.6z M9.8,41L9.8,41L9.8,41L9.8,41L9.8,41L9.8,41z M8.3,41.8
	C8.3,41.8,8.2,41.8,8.3,41.8L8.3,41.8c-0.1,0.2,0.2,0.5,0.2,0.5l0.3,0.8l0,0l0,0l0,0l0,0l0,0l0,0l0,0l0,0l0,0l0.1,0l0.3-0.4l0.2-0.3
	H9.1l0,0l0.5-0.9c0.1-0.2,0.3-0.3,0.5-0.4l0.8-0.4v-0.1l0,0l0,0l0,0l-0.4,0.1L10,40.9L9.8,41l0,0c0-0.1,0-0.1,0.1-0.2l0.1-0.2
	l0.2-0.6l0.2-0.5c0,0,0-0.1-0.1-0.1l0,0l0,0l0,0v0.1l-0.4,0.8l-0.2,0.6l0,0c0,0,0-0.1-0.1-0.1l-0.1-0.4l-0.1-0.2l0,0l0,0l0,0l0,0v0
	l0,0l0,0v0.1l0,0v0.2l0.1,0.7l-0.3,0.9L9,42.4l0,0l-0.1-0.2l-0.2-0.4L8.3,41.8L8.3,41.8L8.3,41.8z M10.3,45L10.3,45L10.3,45L10.3,45
	z M10.3,45L10.3,45z M10.4,41.7L10.4,41.7z M10.5,41.8L10.5,41.8z M10.5,41.8L10.5,41.8L10.5,41.8L10.5,41.8l-0.1-0.1l-0.1,0.1
	l-0.6,0.3l-0.1,0.1l0,0l0,0v0.1l0,0h0.1h0.1l0.1-0.1L10.5,41.8L10.5,41.8L10.5,41.8z M9.7,42.2L9.7,42.2z M9.5,42.2L9.5,42.2z
	 M9.3,42.4L9.3,42.4z M8.8,43.2L8.8,43.2L8.8,43.2C8.7,43.2,8.7,43.3,8.8,43.2l-0.1,0.1l0,0h0.1L8.8,43.2L8.8,43.2z M8.6,43.3
	L8.6,43.3L8.6,43.3L8.6,43.3L8.6,43.3L8.6,43.3L8.6,43.3z M10.1,45.1L10.1,45.1L10.1,45.1C10.1,45.1,10.1,45,10.1,45.1
	c-0.3,0-0.6,0.2-0.9,0.4l-0.7,0.6l0,0v0.2l0,0l0,0l0,0l0.9-0.7l0.6-0.4l0,0L10.1,45.1z M9.7,47.9L9.7,47.9
	C9.7,47.8,9.7,47.8,9.7,47.9L9.7,47.9L9.7,47.9l-0.1-0.1l-0.8,0.3l-0.6,0.4c0,0,0,0,0,0.1v0.1c0,0,0.1,0,0.1,0h0.1l0.9-0.6l0.2-0.1
	L9.7,47.9z M9.3,52L9.3,52z M9.4,52L9.4,52z M9.4,52H9.2l-0.1,0.1l-0.1,0.2L9,53.2L9.1,54l0.1,0.1h0.1l0,0l0,0L9.3,54l0,0v-0.3v-0.6
	l0.1-0.8L9.4,52z M10.2,45L10.2,45z M10.5,43.2L10.5,43.2c0.1,0,0.1-0.1,0.1-0.1h-0.2l-0.8,0.4L9,44l-0.3,0.3v0.1h0.1l0.7-0.5
	l0.1-0.1l0.7-0.5L10.5,43.2z M12.9,53.1C12.9,53.1,12.9,53.1,12.9,53.1c-0.3,0.1-0.5,0.2-0.7,0.4l-0.6,0.9L11.4,55v0.2
	c0,0,0,0,0.1,0h0.1l0.1-0.1l0.6-0.8l0.3-0.4l0.1-0.2l0.2-0.3l0,0L12.9,53.1L12.9,53.1L12.9,53.1z M11.5,49.1L11.5,49.1z M11.3,50.7
	L11.3,50.7z M10.1,50.2L10.1,50.2z M11.2,50.7L11.2,50.7z M11.1,52.9L11.1,52.9z M10.8,53.4L10.8,53.4L10.8,53.4z M11,51L11,51z
	 M11,51L11,51z M11,53.7L11,53.7L11,53.7L11,53.7L11,53.7L11,53.7L11,53.7z M11.6,49.2L11.6,49.2L11.6,49.2z M11.6,49.2L11.6,49.2
	L11.6,49.2L11.6,49.2L11.6,49.2z M11.1,53.5l0.3-0.6l0,0l0.6-0.8l0.6-0.7l0.2-0.2l0.1-0.1V51c-0.2,0-0.3,0.1-0.4,0.2l-0.6,0.6
	L11.7,52l-0.6,0.8l0.1-0.1l-0.1,0.2l0,0l0,0l0,0l0,0l0,0l0,0l0,0l0,0v-0.1v-1v-0.1v-0.4l0.2-0.5l0.1-0.1h-0.2l0,0l0,0
	c0,0,0-0.1,0-0.1l0.2-0.9c0.1-0.2,0.2-0.4,0.4-0.6l0.7-0.6c0,0,0-0.1,0-0.1l0,0h-0.1l-0.3,0.1L11.7,49l-0.1,0.2l0,0l0,0v-0.3
	c0-0.3,0.1-0.7,0.1-0.7v-0.4h-0.1h0v0.1l0,0l-0.1,0.3l-0.1,0.5l-0.1,0.5v0.1l0,0v-0.1l0,0l0,0l0,0l0,0l0,0v-0.1L11,48.9l-0.3-0.2
	c0,0-0.1,0-0.1,0.1c0.1,0.2,0.2,0.4,0.4,0.6c0,0,0.2,0.4,0.2,0.4s0,0.2,0,0.2v0.2L11,50.9c-0.1,0-0.2-0.1-0.2-0.2l-0.4-0.4h-0.1
	l-0.2-0.1l0,0l0,0v0.1l0.3,0.3l0.4,0.4l0.2,0.4v0.3c0,0,0,0.1-0.1,1.1l-0.1,0.3l0,0v0.1l0.1,0.2v0.1v0.1l0.1,0.2v0.2v0.5v0.4h0.1H11
	c0-0.3,0-0.7,0-1v0v-0.2C11,53.7,11,53.7,11.1,53.5z M11.7,47.5L11.7,47.5L11.7,47.5L11.7,47.5L11.7,47.5L11.7,47.5L11.7,47.5
	L11.7,47.5L11.7,47.5L11.7,47.5L11.7,47.5L11.7,47.5L11.7,47.5L11.7,47.5L11.7,47.5z M11.6,50.4L11.6,50.4L11.6,50.4L11.6,50.4
	l0.1-0.1l0.4-0.4l0.4-0.3v-0.1h0L11.9,50L11.6,50.4z M14.5,55.9L14.5,55.9z M13.9,54.7L13.9,54.7z M14.5,55.9L14.5,55.9L14.5,55.9
	L14.5,55.9L14.5,55.9L14.5,55.9z M14.2,54.5L14.2,54.5L14.2,54.5z M14.2,54.5L14.2,54.5L14.2,54.5v-0.1v-0.5v-0.6V53
	c0,0-0.1,0-0.1,0C14,53.2,14,53.4,14,53.6v0.8c0,0.1,0,0.3,0,0.3v0l0,0v-0.1l-0.3-0.2l-0.2-0.2l-0.2,0h-0.1l0,0l0,0l0,0v0.1l0,0
	l0.1,0.1l0.4,0.4c0.1,0.1,0.2,0.3,0.3,0.5v0.4v0.7h-0.1l0,0l-0.1-0.1l-0.6-0.4h-0.2c0,0,0,0.1-0.1,0.1l0,0l0,0v0.1l0.5,0.3
	c0.2,0.2,0.3,0.3,0.5,0.5l0,0.6V58l0.1,0.2c0.1,0,0.2,0,0.2-0.1c0,0,0,0,0,0l0,0v-0.2v-0.2l-0.1-0.8l0.2-0.8l0.1-0.1l0.1-0.2l0,0
	l0,0l0,0l0,0l0,0l0,0l-0.1,0.2l-0.1,0.1V56l0.1-0.8l0.2-0.6l0.2-0.5l0.1-0.1l0.1-0.1l0.2-0.2l0,0c0,0,0-0.1,0-0.1
	c-0.2,0.1-0.3,0.1-0.4,0.3l-0.4,0.6L14.2,54.5z M14,52.8L14,52.8z M14,52.8L14,52.8L14,52.8z M14.5,55.8L14.5,55.8z M15.1,54.8
	l-0.5,0.5l-0.2,0.4h0.1l0,0l0,0l0,0l0.1-0.1l0.1-0.1L15,55L15.1,54.8L15.1,54.8L15.1,54.8l0.1,0L15.1,54.8L15.1,54.8L15.1,54.8z
	 M15.1,57c0,0,0,0.1-0.5,1l-0.2,0.5v0.1v0.1l0,0l0,0l0.5-1l0.5-0.7l0.2-0.3l0.2-0.4h-0.1h-0.1L15.1,57L15.1,57L15.1,57z M15.9,59
	l0.1-0.1l0,0L15.9,59z M15.9,58.9L15.9,58.9z M15.8,58.8c0,0-0.3,0.5-0.5,0.8L15,60.3v0.2v0.1l0,0l0,0l0,0l0.4-0.9l0.6-0.8h-0.1
	L15.8,58.8z M15.6,64.9L15.6,64.9z M15.1,63.4L15.1,63.4z M15.6,64.9C15.6,64.9,15.6,64.9,15.6,64.9l-0.1-0.3l-0.2-0.5l-0.2-0.5
	l-0.1-0.2h-0.1c0,0,0,0-0.1,0.1l0,0l0,0l0,0l0,0l0,0v0.2l0.1,0.4c0.1,0.2,0.2,0.4,0.4,0.7L15.6,64.9L15.6,64.9L15.6,64.9z M13,61.2
	L13,61.2z M13,61.2L13,61.2z M13,61.2L13,61.2L13,61.2L13,61.2L13,61.2L13,61.2L13,61.2l-0.3-0.1l0,0l0,0l0,0c0,0,0,0,0,0.1L13,61.2
	L13,61.2z M16.3,58.5L16.3,58.5z M17.3,58.7L17.3,58.7L17.3,58.7L17.3,58.7z M16.8,56.4L16.8,56.4z M17.5,58.5L17.5,58.5L17.5,58.5
	L17.5,58.5z M18,60.2L18,60.2z M17.5,58.6L17.5,58.6L17.5,58.6z M17.5,58.6L17.5,58.6L17.5,58.6L17.5,58.6z M17.5,58.6L17.5,58.6z
	 M19.7,59.8L19.7,59.8L19.7,59.8L19.7,59.8L19.4,60L19,61v0.1l-0.1,0.6l-0.1,0.5v0.2v-0.1v0.1l0,0l0,0l0,0l-0.1-0.3l-0.3-0.7v-0.1
	l-0.2-0.5v-0.7c0,0-0.1,0-0.1,0c0,0.1-0.1,0.1-0.1,0.2l0,0l0,0l0,0c0,0,0-0.2-0.2-1v-0.2v-0.7l0.1-0.4v-0.1v-0.1v-0.1l0.1-0.2
	c0,0,0,0-0.1-0.1c-0.1,0.1-0.2,0.2-0.3,0.3l-0.2,0.5v0.3c0,0-0.1-0.3-0.3-1l-0.3-0.9l-0.1-0.2v0l-0.1-0.2l0,0l0,0l0,0l0,0l0,0v0.1
	v0.1v0.1v0.3l0,0v0.1l0,0.2l0.1,0.3v0.2L17,58l0.1,0.5l0.1,0.2v0.1l0,0h0l-0.6-0.3h-0.3l0,0h0.1l0,0l0.1,0l0.6,0.4
	c0.2,0.1,0.3,0.3,0.4,0.4l0.3,1v0.1c0,0,0,0,0-0.1v0.2l0,0l0,0v-0.1c0,0,0,0.1,0,0.1l0,0h-0.1l-0.3-0.1h-0.1L17,60.3h-0.3
	c0,0,0,0.1,0,0.1c0.2,0.1,0.4,0.2,0.6,0.2l0.6,0.3l0.1,0.3l0.1,0.3l0.2,0.7l0.3,0.7l0.3,0.1l0,0h0v-0.2l0.1-1l0.3-1L19.7,59.8
	L19.7,59.8L19.7,59.8L19.7,59.8z M18.7,58.6L18.7,58.6L18.7,58.6L18.7,58.6z M18.2,59.6L18.2,59.6L18.2,59.6h0.1l0.4-0.9v-0.1
	c0,0,0-0.1,0-0.1h-0.1c0,0-0.2,0.3-0.3,0.4L18.2,59.6L18.2,59.6L18.2,59.6z M20.8,61.6h-0.1l0,0h-0.1L20.5,62l-0.2,0.4
	c-0.1,0.3-0.1,0.5-0.2,0.8l0.1,0.2c0.1,0,0.1,0,0.2-0.1l0.2-0.9l0.1-0.6L20.8,61.6z M26,70.6L26,70.6c0,0-0.6,0.1-0.9,0.1
	s-0.8,0.1-1.1,0.1l0,0c-0.3,0-0.8,0-1-0.1s-0.7-0.1-1.1-0.2c-0.3-0.1-0.7-0.1-1-0.2l-0.6-0.2L20,70h-0.1h-0.1l0,0l-1-0.4h-0.1
	c-0.3-0.1-0.7-0.3-1-0.4s-0.7-0.4-1-0.5s-0.7-0.4-0.9-0.6s-0.6-0.4-0.9-0.7s-0.5-0.4-0.7-0.7s-0.6-0.6-0.8-0.8s-0.5-0.6-0.7-0.8
	s-0.4-0.6-0.6-0.8S12,64,11.8,63.8l-0.2-0.4c-0.1-0.2-0.3-0.5-0.5-0.7L11,62.6l-0.3-0.5l0,0l-0.3-0.4l-0.2-0.4c0.1,0,0.1,0,0.2,0
	l0,0h0.4l-0.1-0.1l0,0L10.3,61l-0.6-0.4l-0.2-0.1c-0.2-0.2-0.5-0.3-0.7-0.5s-0.6-0.5-0.9-0.7s-0.6-0.5-0.8-0.8S6.7,58,6.5,57.8l0,0
	l0,0v-0.1l0,0l-0.3-0.4c-0.1-0.2-0.3-0.4-0.4-0.6s-0.4-0.7-0.5-0.9s-0.3-0.6-0.4-1c-0.1-0.2-0.1-0.3-0.2-0.5l0,0l-0.2-0.5
	c-0.1-0.2-0.2-0.4-0.2-0.6l0,0l-0.2-0.4l-0.3-0.8H4l0.6,0.1c0-0.1-0.1-0.2-0.1-0.2l-0.3-0.7l0,0L3.9,51l0,0l-0.2-0.4
	c-0.1-0.2-0.2-0.5-0.3-0.7s-0.3-0.8-0.3-1S3,48.2,2.9,47.9s-0.1-0.5-0.1-0.8l0,0c0,0,0-0.1,0-0.1s0-0.3,0-0.5s0-0.3-0.1-0.5
	s0-0.3-0.1-0.5s0-0.3-0.1-0.5s-0.1-0.6-0.1-0.6c0.1,0,0.2,0.1,0.3,0.1l0.5,0.3l0,0L3.5,45l0,0c0,0-0.3-0.7-0.4-1s-0.3-0.7-0.4-1
	s-0.2-0.6-0.2-0.9V42v-0.1l-0.1-0.3c0-0.2-0.1-0.5-0.1-0.7S2.2,40.3,2.2,40c0-0.1,0-0.2,0-0.3c0-0.3,0-0.6,0-0.8s0.1-0.6,0.1-1v-0.1
	c0-0.2,0-0.4,0.1-0.5s0-0.3,0.1-0.5s0.1-0.6,0.1-0.9c0,0,0-0.1,0-0.2L2.7,35h0.1L3,35.1l0,0c0.2,0.2,0.4,0.5,0.6,0.6l0.6,0.6l0,0
	c0,0-0.2-0.7-0.2-1s-0.1-0.8-0.1-1.1c0-0.1,0-0.3,0-0.4s0-0.4,0-0.5v-0.2c0-0.1,0-0.2,0-0.4l0,0c0-0.2,0-0.5,0.1-0.7S4,31.4,4.1,31
	s0.2-0.7,0.3-1.1s0.1-0.4,0.2-0.6l0.1-0.4l0.3-1c0.1-0.2,0.2-0.6,0.2-0.6h0.1l0,0c0,0,0.6,0.7,0.7,0.9l0.1,0.1c0,0,0.2-0.7,0.3-1
	s0.2-0.8,0.4-1s0.3-0.7,0.5-1s0.4-0.7,0.6-0.9s0.4-0.6,0.7-0.9L8.8,23l0,0l0.3-0.4l0.3-0.4l0,0l0.3-0.4c0.1-0.1,0.2-0.2,0.2-0.2
	l0.1,0l0.1,0.5h0.1c0,0,0.6-0.6,0.8-0.8s0.6-0.5,0.8-0.7s0.6-0.5,0.9-0.6l0.6-0.3l0.4-0.2l0.4-0.2l0,0l0.6-0.3l0.8-0.4v0.1
	c0,0.1-0.1,0.7-0.2,1s-0.1,0.7-0.2,1c0,0,0,0.1,0,0.2C15,21,15,21.3,14.9,21.6s-0.2,0.7-0.3,1s-0.2,0.7-0.4,1s-0.3,0.7-0.4,1
	c-0.2,0.3-0.4,0.6-0.6,0.9c-0.1,0.1-0.2,0.2-0.3,0.4c-0.1,0.1-0.2,0.2-0.3,0.4c0,0.2-0.1,0.4-0.1,0.5c0,0.2-0.1,0.4-0.1,0.5
	c-0.1,0.4-0.2,0.7-0.2,1.1s-0.2,0.7-0.3,1s-0.2,0.7-0.3,1S11.3,31,11.3,31l0,0l0.1,0.1h0.1c0,0,0,0.1,0,0.1l0,0c0,0.1,0,0.5-0.1,0.8
	c0,0.1,0,0.2,0,0.3s-0.1,0.5-0.1,0.7l0,0c0,0.1,0,0.3,0,0.4s0,0.2,0,0.4s-0.1,0.5-0.1,0.7S11,35.3,11,35.6c0,0,0,0.1,0,0.1
	c-0.1,0.3-0.2,0.7-0.2,1c0,0.2-0.1,0.3-0.1,0.5l0,0c0,0.2-0.1,0.4-0.1,0.5s-0.1,0.5-0.1,0.5h0l0.2-0.2l0.3-0.3l0.4-0.4l0.1,0.1
	c0,0,0,0.3,0,0.5s0,0.4,0,0.5s0,0.3,0,0.4l0,0c0,0.2,0,0.4,0.1,0.6v0.2l0,0c0,0.3,0,0.6,0.1,0.8s0,0.3,0,0.5v0.5c0,0.1,0,0.2,0,0.3
	l0,0c0,0.2,0,0.3,0,0.5s0,0.2,0,0.2c0,0.3,0,0.6,0,1v0.1c0,0.3,0,0.6-0.1,0.9s-0.1,0.5-0.1,0.7s0,0.2-0.1,0.3s-0.1,0.3-0.1,0.5
	s-0.1,0.5-0.1,0.6l0,0v0.1c0,0,0.4-0.6,0.6-0.9s0.4-0.8,0.4-0.8c0,0,0.1,0.1,0.1,0.1l0.2,0.5l0,0l0.2,0.5l0.2,0.5l0,0l0.3,0.6v0.2
	c0.1,0.3,0.2,0.6,0.3,0.8s0.2,0.7,0.3,1.1c0.1,0.2,0.1,0.4,0.2,0.6l0,0l0.1,0.4l0.1,0.1l0,0l0,0l0.2-0.3c0,0,0.1,0.1,0.1,0.1
	c0.1,0.1,0.2,0.4,0.3,0.6l0,0l0.1,0.3l0.3,0.6l0,0c0.1,0.1,0.1,0.2,0.2,0.4l0.2,0.3l0.3,0.6l0.3,0.6l0.2,0.4l0.1,0.2
	c0.1,0.1,0.1,0.2,0.2,0.3c0.1,0.2,0.3,0.4,0.4,0.6l0,0l0.2,0.3l0.2,0.3l0,0c0.1,0.2,0.3,0.4,0.5,0.6l0.4,0.5
	c0.1,0.1,0.2,0.3,0.3,0.4l0.5,0.6l0,0l0.2,0.3l0.3,0.4l0,0l0.4,0.5l0.1,0.2l0,0l0.5,0.7l0.5,0.5l0.2,0.3l0.2,0.3l0,0
	c0.1,0.2,0.3,0.4,0.5,0.6s0.5,0.6,0.6,0.9s0.4,0.7,0.5,1c0.1,0.3,0.2,0.5,0.3,0.8c0.1,0.2,0.1,0.5,0.1,0.7c0,0.2,0,0.5,0,0.6
	s0,0.1,0,0.1l0,0c0,0.1,0.1,0.1,0.1,0.2l0,0c0.1,0.2,0.4,0.4,0.5,0.6s0.4,0.6,0.6,0.9s0.3,0.6,0.5,0.9l0,0c0.2,0.3,0.3,0.7,0.5,1
	S26,70,26,70.2l0,0c0,0,0,0.1,0,0.1c-0.1,0-0.5-0.1-0.5-0.1l-1-0.4c-0.3-0.2-0.5-0.4-0.7-0.6l-0.7-0.8l-0.5-0.9l-0.4-1L22,65.7
	c0,0-0.1,0-0.1,0c0,0,0,0.1,0,0.1c0,0.2,0,0.5,0,0.5l0.2,0.7l0.4,0.9l0.6,0.9l0.1,0.1l0.4,0.4l0,0l-0.9-0.4l-1-0.5l-0.5-0.3
	l-0.7-0.8l-0.6-0.9l-0.5-1l-0.5-0.9h-0.1l0.1,0.9l0.5,0.9l0.6,0.9l0.5,0.6l0,0l-0.9-0.5l-0.4-0.2h-0.1l-0.5-0.2l-0.3-0.2l-0.6-0.8
	l-0.5-1L17,64.2l-0.1-0.4l-0.1-0.2h-0.1l0,0.5L17,65l0.3,0.6l0.2,0.4l0.2,0.4l0,0l-0.9-0.5l-0.3-0.1l-0.4-0.2l-0.6-0.8h-0.1V65v0.1
	c0,0-0.1,0-0.1,0l-0.7-0.5l-0.5-0.6L14,63.4l-0.2-0.5v-0.1h-0.1v0.4l0.2,0.6v0.1l0.2,0.3l0,0l-0.9-0.6L12.4,63l-0.2-0.2l-0.7-0.5
	l-0.1,0l0.2,0.2l0.8,0.6l0.9,0.6l0.7,0.5l0,0l-0.7,0.1l-0.4,0.3h0.1h0.2h0.1l0.5-0.1h0.1c0.2,0,0.4,0,0.7,0.1c0.1,0,0.6,0.4,0.9,0.6
	l0.2,0.2c0,0,0,0-0.1,0l-0.3,0.1l-0.6,0.2L14.5,66c0,0,0,0.1,0,0.1v0.1l0.7-0.3c0.3,0,0.5,0,0.8,0l0.3,0.1l0.6,0.3l0.2,0.1l0.6,0.4
	c0,0,0,0,0,0.1l-1,0.4l-0.4,0.3l-0.1,0.3c0,0,0,0.1,0,0.1l0,0l0.5-0.6l0.6-0.3l0.7-0.1l0.4,0.1l0.5,0.3l0.4,0.2l1,0.5l0,0l0,0
	l-1,0.3L19,68.7L18.9,69H19l0.5-0.4l0.7-0.3l0.6-0.1l0.6,0.2l0.2,0.1h0.1l0.8,0.4l0.2,0.1l0.7,0.3c0,0,0,0,0,0.1c0,0-0.1,0-0.1,0
	h-0.1l-0.8,0.1L22,69.9l0,0l0,0l0,0h0.1h0.1h0.1l0.5-0.1l0.9-0.1h0.1l0.5,0.1l0.6,0.2l0.1,0.1l0.3,0.1L26,70.6z"/>
<path class="st4" d="M26.2,75.4h4.5l1.3-1.3h-4.3L26.2,75.4z M33.1,73H29l-0.7,0.6h4.2L33.1,73z M25,76.4h4.6l0.6-0.6h-4.5L25,76.4z
	"/>
<path class="st4" d="M36.1,68.8v3.7h1.3v-3.7H36.1z M30.8,68.8v3.7h1.3v-3.7H30.8z M32.6,68.8v3.7h1.3v-3.7H32.6L32.6,68.8z
	 M29.9,68.8c-0.3,0-0.6,0.1-0.9,0.2l0,0v3.4c0.3,0.1,0.6,0.2,0.9,0.2h0.4v-3.7H29.9z M27.8,70.5v0.3c0,0.5,0.3,1,0.7,1.3v-2.9
	C28.1,69.5,27.8,70,27.8,70.5L27.8,70.5z M34.4,68.8v3.7h1.3v-3.7H34.4L34.4,68.8z M38.2,68.8h-0.3v3.7h0.3c0.3,0,0.7-0.1,1-0.2V69
	C38.8,68.9,38.5,68.8,38.2,68.8L38.2,68.8z M39.7,69.3V72c0.4-0.3,0.6-0.7,0.6-1.2v-0.3C40.3,70.1,40.1,69.6,39.7,69.3L39.7,69.3z"
	/>
<path class="st4" d="M39.2,73H35l0.6,0.6h4.3L39.2,73z M40.4,74.1h-4.3l1.3,1.3h4.4L40.4,74.1z M42.4,75.8H38l0.5,0.5H43L42.4,75.8z
	"/>
<path class="st4" d="M51.5,25.9H16.2c0,0,0,3.1,0,6c0,2.3,0.1,4.4,0.1,4.4s0.1,2.5,0.4,4.9c0.2,2,0.5,3.9,0.5,3.9
	c0.2,1.7,0.5,3.3,1,4.9c0.5,1.6,1.3,3.1,2.2,4.5c1,1.5,2,2.9,3.1,4.3c1.2,1.5,2.6,3,4.1,4.3c1.9,1.8,4.1,3.3,6.4,4.6
	c1.6-0.9,3.2-1.9,4.6-3.1c1.9-1.5,3.4-3,3.4-3s1.5-1.5,3.1-3.5c0.9-1.2,1.8-2.5,2.6-3.8c0.6-0.9,1.1-1.9,1.5-2.9
	c0.3-0.8,0.6-1.7,0.8-2.5c0.3-1.2,0.5-2.5,0.7-3.8c0.3-2.2,0.4-3.8,0.6-5.8c0.1-1.1,0.2-3,0.3-5.4c0-0.9,0-2,0.1-2.9
	C51.5,28.1,51.5,25.9,51.5,25.9z M46.5,26.7h1.4v1.4h-1.4L46.5,26.7L46.5,26.7z M44.9,26.7h1.3v1.4h-1.4L44.9,26.7L44.9,26.7z
	 M43.2,26.7h1.4v1.4h-1.5L43.2,26.7L43.2,26.7z M41.6,26.7h1.3v1.4h-1.3L41.6,26.7L41.6,26.7z M40,26.7h1.4v1.4H40V26.7L40,26.7z
	 M38.4,26.7h1.4v1.4h-1.4L38.4,26.7L38.4,26.7z M36.7,26.7H38v1.4h-1.3L36.7,26.7L36.7,26.7z M35.1,26.7h1.3v1.4H35L35.1,26.7
	L35.1,26.7z M33.4,26.7h1.4v1.4h-1.4L33.4,26.7L33.4,26.7z M31.8,26.7h1.4v1.4h-1.4L31.8,26.7L31.8,26.7z M30.2,26.7h1.4v1.4h-1.4
	L30.2,26.7L30.2,26.7z M28.5,26.7h1.4v1.4h-1.4L28.5,26.7L28.5,26.7z M26.9,26.7h1.4v1.4h-1.4L26.9,26.7L26.9,26.7z M25.2,26.7h1.4
	v1.4h-1.4L25.2,26.7L25.2,26.7z M23.6,26.7H25v1.4h-1.4L23.6,26.7L23.6,26.7z M22,26.7h1.4v1.4h-1.4L22,26.7L22,26.7z M20.3,26.7
	h1.4v1.4h-1.4L20.3,26.7L20.3,26.7z M18.7,26.7H20v1.4h-1.4L18.7,26.7L18.7,26.7z M18.4,28.2L18.4,28.2l-0.1,7.5l0,0v11
	c-0.1-0.5-0.2-1-0.2-1.4c-0.6-3.9-0.9-9.7-0.9-9.7l-0.2-8.8h1.2L18.4,28.2L18.4,28.2z M20,51.9c-0.2-0.5-0.5-1-0.7-1.5
	c-0.3-0.8-0.5-1.6-0.7-2.4v-8.5v0.3c0.2,2.2,0.4,4.4,0.4,4.4c0.2,1.6,0.4,3.1,0.8,4.6c0,0.2,0.1,0.3,0.1,0.5L20,51.9L20,51.9z
	 M21.6,54.7c-0.4-0.6-0.9-1.4-1.4-2.3V50c0.3,0.7,0.6,1.3,1,2c0,0,0.1,0.3,0.4,0.8L21.6,54.7L21.6,54.7z M23.3,57
	c-0.4-0.5-0.6-0.8-0.6-0.8s-0.3-0.4-0.8-1v-2c0.3,0.6,0.8,1.3,1.4,2.1V57z M24.9,59c-0.5-0.6-1-1.2-1.4-1.7v-1.7
	c0.4,0.5,0.9,1.1,1.4,1.7V59z M26.6,60.8c-0.5-0.5-0.9-1-1.4-1.5v-1.6c0.4,0.5,0.9,1,1.4,1.5V60.8L26.6,60.8z M28.2,62.3l-0.7-0.7
	L26.9,61v-1.5l0.1,0.1c0.4,0.4,0.8,0.8,1.2,1.2L28.2,62.3L28.2,62.3z M29.8,63.7c-0.5-0.4-0.9-0.7-1.4-1.1v-1.5
	c0.5,0.4,0.9,0.8,1.4,1.2V63.7L29.8,63.7z M31.5,65l-0.2-0.1c-0.4-0.3-0.8-0.6-1.2-0.9v-1.5l0.9,0.7l0.5,0.3L31.5,65L31.5,65z
	 M33.1,66c-0.4-0.2-0.8-0.5-1.4-0.9v-1.4c0.5,0.4,1,0.7,1.4,0.9V66z M34.8,65.9c-0.6,0.4-0.9,0.6-0.9,0.6l-0.5-0.3v-1.5l0.5,0.3
	c0.3-0.1,0.5-0.3,0.8-0.4L34.8,65.9L34.8,65.9z M36.4,64.8c-0.5,0.4-1,0.7-1.4,0.9v-1.4c0.5-0.3,1-0.6,1.4-0.9V64.8z M38,63.6
	L38,63.6c-0.5,0.4-1,0.7-1.4,1v-1.3c0.7-0.5,1.2-0.9,1.2-0.9l0.2-0.2L38,63.6L38,63.6z M39.6,62.2c-0.5,0.4-0.9,0.8-1.4,1.2v-1.4
	c0.3-0.3,0.8-0.7,1.4-1.2V62.2z M41.3,60.6L41.3,60.6c-0.4,0.5-0.9,0.9-1.3,1.3v-1.5c0.4-0.4,0.9-0.8,1.3-1.3l0,0L41.3,60.6
	L41.3,60.6z M42.8,58.9c-0.4,0.5-0.8,0.9-1.3,1.4v-1.5c0.4-0.5,0.8-0.9,1.3-1.4V58.9L42.8,58.9z M44.5,56.9
	c-0.4,0.6-0.9,1.2-1.4,1.7v-1.5c0.4-0.5,0.9-1.1,1.3-1.6l0.1-0.2L44.5,56.9L44.5,56.9z M46.1,54.6c-0.3,0.5-0.6,1-1,1.5l-0.3,0.4
	v-1.6c0.5-0.7,0.9-1.4,1.3-2.1L46.1,54.6L46.1,54.6z M47.8,51.7c-0.3,0.7-0.7,1.4-1.1,2l-0.2,0.4v-1.9c0.4-0.7,0.7-1.4,1-2.2
	c0.2-0.4,0.3-0.7,0.4-1.1L47.8,51.7L47.8,51.7z M47.3,50c-0.8,1.9-1.8,3.7-3,5.3c-1,1.3-2,2.5-3.1,3.7c-1.1,1.1-2.2,2.2-3.5,3.2
	c-1.2,1-2.4,1.8-3.8,2.6c-1-0.5-1.9-1.1-2.8-1.8c-1.4-1.1-2.8-2.2-4-3.5c-1.3-1.3-2.4-2.6-3.5-4c-0.8-1.1-1.6-2.3-2.2-3.5
	c-0.6-1-1-2-1.3-3.2c-0.4-1.5-0.7-3-0.8-4.6l-0.4-4.4l-0.3-4.1c0,0,0-6.9,0-7.3h30.8l-0.1,4L49.1,36L49,37.2c0,0.3-0.1,3.4-0.4,5.8
	c-0.1,1.5-0.3,3-0.6,4.4C47.9,48.3,47.6,49.2,47.3,50z M49.5,46.2c-0.1,0.6-0.2,1.2-0.3,1.8c-0.2,1.1-0.6,2.1-1,3.2v-3.2
	c0-0.3,0.1-0.5,0.1-0.5c0.3-1.5,0.5-2.9,0.6-4.4c0.2-2.1,0.3-4.8,0.4-5.8s0.2-2.4,0.2-4.6V46.2L49.5,46.2z M49.5,28.2h-1.4v-1.4h1.4
	L49.5,28.2L49.5,28.2z M50.5,32.9c-0.1,3.4-0.3,6.6-0.3,6.6s-0.1,2.2-0.4,4.8V26.8h0.8C50.6,26.8,50.6,29.9,50.5,32.9L50.5,32.9z"/>
<rect x="76.2" y="57.2" class="st0" width="208" height="13.7"/>
<path class="st3" d="M181.9,57.8v12.5h101.7V57.8H181.9z"/>
<path class="st3" d="M85.7,62.3c0-0.4,0-0.7-0.1-1.1h0.8h0.8h1.2h0.7c0,0.1,0,0.2,0,0.3c0,0.1,0,0.1,0,0.2c0,0,0,0.1,0,0.2h-0.6H88
	h-0.5h-0.3c0,0.3,0,0.6,0,0.9c0,0.3,0,0.6,0,0.9h1.1h1c0,0.1,0,0.2,0,0.2c0,0.1,0,0.1,0,0.2c0,0,0,0.1,0,0.1c0,0,0,0.1,0,0.2
	c-0.7-0.1-1.4-0.1-2.1-0.1c0,0.2,0,0.4,0,0.5s0,0.4,0,0.5c0,0.4,0,0.7,0,1h1.1c0.3,0,0.7,0,1.1-0.1c0,0.1,0,0.1,0,0.2
	c0,0.1,0,0.3,0,0.4c0,0,0,0.1,0,0.1h-3.6c0-0.3,0-0.7,0.1-1.1c0-0.4,0-0.8,0-1.2v-1.3C85.7,63,85.7,62.6,85.7,62.3z"/>
<path class="st3" d="M91.1,61.9c0-0.3,0-0.5,0-0.7c0.3,0.1,0.6,0.1,0.8,0l2,2l2,2v-1.6c0-0.3,0-0.5,0-0.8s0-0.5,0-0.7
	c0-0.2,0-0.4,0-0.6c0-0.1,0-0.2,0-0.3c0.3,0.1,0.6,0.1,0.8,0c0,0.5,0,1-0.1,1.4c-0.1,0.4-0.1,0.8,0,1.2c0,0.4,0,0.7,0,1.1
	s0,0.7,0,1.1v1h-0.4H96c-1.3-1.3-2.6-2.7-4.1-4c0,0.2,0,0.3,0,0.5c0,0.2,0,0.3,0,0.5v1c0,0.3,0,0.6,0,0.8c0,0.2,0,0.4,0,0.6
	s0,0.3,0,0.4s0,0.2,0,0.2h-0.2h-0.3h-0.4c0-0.2,0-0.3,0-0.5c0-0.3,0-0.6,0.1-1s0.1-0.8,0.1-1.3s0-0.9,0-1.3S91.1,62.2,91.1,61.9z"/>
<path class="st3" d="M103.4,61.8c-0.6-0.3-1.3-0.3-1.9-0.1c-0.3,0.1-0.5,0.3-0.8,0.5c-0.2,0.2-0.4,0.5-0.5,0.8
	c-0.1,0.4-0.2,0.8-0.2,1.1c0,0.3,0,0.6,0.2,0.9c0.1,0.3,0.2,0.5,0.4,0.7c0.2,0.2,0.4,0.4,0.7,0.5c0.3,0.1,0.7,0.2,1,0.2h0.3h0.3h0.3
	l0.2-0.1c0-0.1,0-0.2,0-0.2c0-0.1,0-0.2,0-0.3c0-0.5,0-0.8,0-1v-0.4h0.2h0.9h0.3c0,0.1,0,0.1,0,0.2c0,0.1,0,0.2,0,0.3s0,0.3,0,0.4
	s0,0.3,0,0.4V66c0,0.1,0,0.3,0,0.4c0,0.1,0,0.2,0,0.2c-0.4,0.1-0.8,0.2-1.2,0.2c-0.4,0.1-0.8,0.1-1.2,0.1c-0.5,0-1-0.1-1.5-0.2
	c-0.4-0.1-0.8-0.3-1.2-0.6c-0.3-0.2-0.6-0.5-0.8-0.9c-0.2-0.4-0.3-0.8-0.3-1.2c0-0.5,0.1-1,0.3-1.4c0.2-0.4,0.5-0.7,0.8-1
	c0.4-0.3,0.8-0.5,1.2-0.6c0.5-0.1,1-0.2,1.5-0.2c0.4,0,0.8,0,1.2,0.1c0.3,0.1,0.7,0.2,1,0.4l-0.1,0.4c0,0.1-0.1,0.3-0.1,0.4h-0.1
	C104.1,62.1,103.8,62,103.4,61.8z"/>
<path class="st3" d="M106.7,62.3c0-0.4,0-0.7-0.1-1.1h0.3h0.8h0.3c0,0.4,0,0.7-0.1,1.1c0,0.4,0,0.8,0,1.2v1.1c0,0.3,0,0.6,0,0.9
	c0,0.3,0,0.6,0,0.8h1.1c0.3,0,0.7,0,1.1-0.1c0,0.1,0,0.1,0,0.2c0,0.1,0,0.3,0,0.4c0,0,0,0.1,0,0.1h-3.6c0-0.3,0-0.7,0.1-1.1
	s0-0.8,0-1.2v-1.2C106.7,63,106.7,62.6,106.7,62.3z"/>
<path class="st3" d="M112.1,62.3c0-0.4,0-0.7-0.1-1.1h0.3h0.8h0.3c0,0.4,0,0.7-0.1,1.1s0,0.8,0,1.2v1.1c0,0.5,0,0.9,0,1.2
	s0,0.7,0.1,1.1h-0.3h-0.8H112c0-0.3,0-0.7,0.1-1.1c0-0.4,0-0.8,0-1.2v-1.1C112.1,63,112.1,62.6,112.1,62.3z"/>
<path class="st3" d="M117.4,61.6c-0.2,0-0.5,0.1-0.7,0.2c-0.2,0.1-0.3,0.3-0.3,0.5c0,0.2,0.1,0.4,0.2,0.5c0.2,0.1,0.3,0.3,0.5,0.3
	c0.2,0.1,0.4,0.2,0.7,0.3c0.2,0.1,0.5,0.2,0.7,0.4c0.2,0.1,0.4,0.3,0.5,0.5c0.1,0.2,0.2,0.5,0.2,0.8c0,0.3-0.1,0.5-0.2,0.8
	c-0.1,0.2-0.3,0.4-0.5,0.6c-0.2,0.2-0.5,0.3-0.8,0.4c-0.3,0.1-0.7,0.1-1,0.1c-0.3,0-0.6,0-0.9-0.1c-0.2,0-0.4-0.1-0.6-0.2
	c0.1-0.2,0.1-0.4,0.2-0.5c0-0.2,0.1-0.3,0.1-0.5h0.2c0,0.1,0.1,0.2,0.1,0.3c0.1,0.1,0.2,0.2,0.3,0.3c0.1,0.1,0.2,0.2,0.4,0.2
	c0.2,0,0.3,0.1,0.5,0.1c0.3,0,0.6-0.1,0.8-0.2c0.2-0.2,0.3-0.4,0.3-0.6c0-0.2-0.1-0.4-0.2-0.5c-0.2-0.1-0.3-0.3-0.5-0.3
	c-0.2-0.1-0.4-0.2-0.7-0.3c-0.2-0.1-0.5-0.2-0.7-0.3c-0.2-0.1-0.4-0.3-0.5-0.5c-0.1-0.2-0.2-0.5-0.2-0.8c0-0.5,0.2-1,0.6-1.3
	c0.2-0.2,0.4-0.3,0.7-0.3c0.3-0.1,0.5-0.1,0.8-0.1c0.3,0,0.6,0,0.9,0.1c0.2,0.1,0.4,0.2,0.6,0.3c-0.1,0.1-0.1,0.2-0.1,0.4l-0.2,0.5
	h-0.2C118.3,61.9,117.9,61.6,117.4,61.6z"/>
<path class="st3" d="M124.5,64.2h-1.4h-0.7v0.5c0,0.5,0,0.9,0,1.2s0,0.7,0.1,1.1h-0.3h-0.8H121c0-0.3,0-0.7,0.1-1.1
	c0-0.4,0-0.8,0-1.2v-1.1c0-0.5,0-0.9,0-1.2s0-0.7,0-1.1h0.3h0.8h0.3c0,0.4,0,0.7-0.1,1.1c0,0.3,0,0.8,0,1.2h2.8c0-0.5,0-0.9,0-1.2
	c0-0.4,0-0.7-0.1-1.1h0.3h0.8h0.3c0,0.4,0,0.7-0.1,1.1s0,0.8,0,1.2v1.1c0,0.5,0,0.9,0,1.2s0,0.7,0.1,1.1h-0.3h-0.9h-0.3
	c0-0.3,0-0.7,0.1-1.1c0-0.4,0-0.8,0-1.2v-0.5L124.5,64.2z"/>
<path class="st3" d="M132,62.3c0-0.4,0-0.7-0.1-1.1h0.8h0.8h1.2h0.7c0,0.1,0,0.2,0,0.3c0,0.1,0,0.1,0,0.2c0,0,0,0.1,0,0.2h-0.6h-0.6
	h-0.5h-0.3c0,0.3,0,0.6,0,0.9s0,0.6,0,0.9h1.1h1c0,0.1,0,0.2,0,0.2c0,0.1,0,0.1,0,0.2c0,0,0,0.1,0,0.1v0.2c-0.7-0.1-1.4-0.1-2.1-0.1
	v0.4c0,0.5,0,0.9,0,1.2s0,0.7,0.1,1.1h-0.3h-0.8H132c0-0.3,0-0.7,0.1-1.1c0-0.4,0-0.8,0-1.2v-1.3C132,63,132,62.6,132,62.3z"/>
<path class="st3" d="M143.7,62.8c-0.2-0.4-0.4-0.7-0.8-0.9c-0.3-0.3-0.7-0.4-1.1-0.5c-0.4-0.1-0.9-0.2-1.4-0.2c-0.5,0-1,0.1-1.5,0.2
	c-0.4,0.1-0.8,0.4-1.1,0.6c-0.3,0.3-0.5,0.6-0.7,1c-0.2,0.4-0.3,0.8-0.3,1.2c0,0.5,0.1,0.9,0.3,1.3c0.2,0.4,0.4,0.7,0.8,0.9
	c0.3,0.2,0.7,0.4,1.1,0.5c0.5,0.1,0.9,0.2,1.4,0.2c0.5,0,1-0.1,1.4-0.2c0.4-0.1,0.8-0.4,1.1-0.6c0.3-0.3,0.6-0.6,0.7-0.9
	c0.2-0.4,0.3-0.8,0.3-1.2C144,63.6,143.9,63.2,143.7,62.8z M142.3,65.1c-0.1,0.3-0.2,0.6-0.4,0.8c-0.2,0.2-0.4,0.4-0.7,0.5
	c-0.3,0.1-0.5,0.2-0.8,0.2c-0.3,0-0.5,0-0.7-0.1c-0.2-0.1-0.4-0.2-0.6-0.4c-0.2-0.2-0.3-0.5-0.4-0.7c-0.1-0.4-0.2-0.7-0.2-1.1
	c0-0.3,0-0.7,0.1-1c0.1-0.3,0.2-0.6,0.4-0.8c0.2-0.2,0.4-0.4,0.6-0.5c0.3-0.1,0.6-0.2,0.9-0.2c0.3,0,0.6,0,0.8,0.2
	c0.2,0.1,0.5,0.3,0.6,0.5c0.2,0.2,0.3,0.5,0.4,0.7c0.1,0.3,0.2,0.7,0.1,1C142.4,64.3,142.4,64.7,142.3,65.1z"/>
<path class="st3" d="M149.5,65.5c-0.3-0.5-0.7-0.9-1-1.4c0.4-0.1,0.8-0.3,1.1-0.5c0.3-0.3,0.4-0.6,0.4-1c0-0.2,0-0.5-0.2-0.7
	c-0.1-0.2-0.3-0.3-0.4-0.5l-0.2-0.1c-0.1,0-0.2-0.1-0.3-0.1h-0.4h-0.6H147h-0.6H146h-0.3c0,0.4,0,0.7,0.1,1.1s0,0.8,0,1.2v1.1
	c0,0.5,0,0.9,0,1.2s0,0.7-0.1,1.1h0.3h0.8h0.3c0-0.3,0-0.7-0.1-1.1s0-0.8,0-1.2v-0.4h0.1l1.7,2.6h0.4h0.8h0.4L149.5,65.5z M147.3,64
	h-0.2c0-0.8,0-1.5,0-2.3c0.2,0,0.4,0,0.6,0c0.2,0,0.3,0.1,0.4,0.2c0.1,0.1,0.2,0.2,0.3,0.3c0.1,0.2,0.1,0.4,0.1,0.6
	c0,0.3-0.1,0.7-0.3,0.9C148,63.9,147.7,64,147.3,64z"/>
<path class="st3" d="M154.9,62.3c0-0.4,0-0.7-0.1-1.1h0.3h0.8h0.3c0,0.4,0,0.7-0.1,1.1s0,0.8,0,1.2v1.1c0,0.3,0,0.6,0,0.9
	c0,0.3,0,0.6,0,0.8h1.1c0.4,0,0.7,0,1.1-0.1c0,0.1,0,0.1,0,0.2c0,0.1,0,0.3,0,0.4c0,0,0,0.1,0,0.1h-3.6c0-0.3,0-0.7,0.1-1.1
	s0-0.8,0-1.2v-1.2C154.9,63,154.9,62.6,154.9,62.3z"/>
<path class="st3" d="M160,62.3c0-0.4,0-0.7-0.1-1.1h0.3h0.8h0.3c0,0.4,0,0.7-0.1,1.1c0,0.4,0,0.8,0,1.2v1.1c0,0.5,0,0.9,0,1.2
	s0,0.7,0.1,1.1h-0.3h-0.8h-0.3c0-0.3,0-0.7,0.1-1.1c0-0.4,0-0.8,0-1.2v-1.1C160,63,160,62.6,160,62.3z"/>
<path class="st3" d="M163.6,62.3c0-0.4,0-0.7-0.1-1.1h0.8h0.8h1.2h0.7c0,0.1,0,0.2,0,0.3c0,0.1,0,0.1,0,0.2c0,0,0,0.1,0,0.2h-0.6
	H166h-0.5h-0.3c0,0.3,0,0.6,0,0.9s0,0.6,0,0.9h1.1h1c0,0.1,0,0.2,0,0.2c0,0.1,0,0.1,0,0.2c0,0,0,0.1,0,0.1c0,0,0,0.1,0,0.2
	c-0.7-0.1-1.4-0.1-2.1-0.1v0.4c0,0.5,0,0.9,0,1.2s0,0.7,0.1,1.1h-0.3h-0.8h-0.3c0-0.3,0-0.7,0.1-1.1c0-0.4,0-0.8,0-1.2v-1.3
	C163.7,63,163.7,62.6,163.6,62.3z"/>
<path class="st3" d="M168.9,62.3c0-0.4,0-0.7-0.1-1.1h0.8h0.8h1.2h0.7c0,0.1,0,0.2,0,0.3c0,0.1,0,0.1,0,0.2c0,0,0,0.1,0,0.2h-0.6
	h-0.6h-0.5h-0.3c0,0.3,0,0.6,0,0.9s0,0.6,0,0.9h1.1h1c0,0.1,0,0.2,0,0.2c0,0.1,0,0.1,0,0.2c0,0,0,0.1,0,0.1c0,0,0,0.1,0,0.2
	c-0.7-0.1-1.4-0.1-2.1-0.1c0,0.2,0,0.4,0,0.5s0,0.4,0,0.5c0,0.4,0,0.7,0,1h1.1c0.4,0,0.7,0,1.1-0.1c0,0.1,0,0.1,0,0.2
	c0,0.1,0,0.3,0,0.4c0,0,0,0.1,0,0.1h-3.6c0-0.3,0-0.7,0.1-1.1s0-0.8,0-1.2v-1.3C168.9,63,168.9,62.6,168.9,62.3z"/>
<path class="st0" d="M187.2,62.1c-0.2,0-0.4,0.1-0.5,0.2c-0.1,0.1-0.2,0.2-0.2,0.4c0,0.1,0.1,0.3,0.2,0.4c0.1,0.1,0.3,0.2,0.4,0.3
	l0.5,0.2c0.2,0.1,0.4,0.2,0.5,0.3c0.2,0.1,0.3,0.2,0.4,0.4c0.1,0.2,0.2,0.4,0.2,0.6c0,0.2,0,0.4-0.1,0.6c-0.1,0.2-0.2,0.3-0.4,0.4
	c-0.2,0.1-0.4,0.2-0.6,0.3c-0.3,0.1-0.5,0.1-0.8,0.1c-0.2,0-0.5,0-0.7-0.1c-0.2,0-0.3-0.1-0.5-0.2c0-0.2,0.1-0.3,0.1-0.4
	c0-0.1,0.1-0.3,0.1-0.4h0.1c0,0.1,0.1,0.2,0.1,0.3c0.1,0.1,0.1,0.2,0.2,0.2c0.1,0.1,0.2,0.1,0.3,0.2c0.1,0,0.3,0.1,0.4,0.1
	c0.2,0,0.5,0,0.6-0.2c0.1-0.1,0.2-0.3,0.2-0.5c0-0.1-0.1-0.3-0.2-0.4c-0.1-0.1-0.2-0.2-0.4-0.3l-0.5-0.2c-0.2-0.1-0.4-0.2-0.5-0.3
	c-0.2-0.1-0.3-0.2-0.4-0.4c-0.1-0.2-0.2-0.4-0.2-0.6c0-0.2,0-0.4,0.1-0.6c0.1-0.2,0.2-0.3,0.4-0.4c0.2-0.1,0.3-0.2,0.5-0.3
	c0.2-0.1,0.4-0.1,0.6-0.1c0.2,0,0.5,0,0.7,0.1c0.2,0,0.3,0.1,0.5,0.2c0,0.1-0.1,0.2-0.1,0.3l-0.1,0.3H188
	C187.9,62.3,187.6,62.1,187.2,62.1z"/>
<path class="st0" d="M192.7,64h-1.1h-0.5v0.4c0,0.4,0,0.7,0,0.9c0,0.3,0,0.5,0,0.8h-1.2c0-0.3,0-0.5,0-0.8c0-0.3,0-0.6,0-0.9v-0.8
	c0-0.3,0-0.7,0-0.9s0-0.5,0-0.8h0.3h0.6h0.3c0,0.3,0,0.5,0,0.8s0,0.6,0,0.9h2.2c0-0.3,0-0.7,0-0.9s0-0.5,0-0.8h0.3h0.6h0.3
	c0,0.3,0,0.5,0,0.8s0,0.6,0,0.9v0.9c0,0.4,0,0.7,0,0.9c0,0.3,0,0.5,0,0.8h-1.2c0-0.3,0-0.5,0-0.8s0-0.6,0-0.9v-0.4L192.7,64z"/>
<path class="st0" d="M199.6,65.3c-0.2-0.4-0.3-0.7-0.5-1.1s-0.4-0.8-0.5-1.2l-0.5-1.2h-0.1h-0.3h-0.1l-0.3,0.8l-0.4,0.9l-0.4,0.9
	L196,65l-0.3,0.7l-0.2,0.5h0.7c0.1-0.2,0.1-0.4,0.2-0.6s0.2-0.4,0.3-0.7h1.6c0.1,0.2,0.2,0.4,0.2,0.7l0.2,0.6h1.2
	C199.9,65.9,199.7,65.6,199.6,65.3z M196.9,64.5c0.1-0.3,0.2-0.5,0.3-0.8c0.1-0.2,0.2-0.5,0.4-0.8c0.1,0.3,0.2,0.5,0.3,0.8l0.3,0.8
	H196.9L196.9,64.5z"/>
<path class="st0" d="M201.3,62.3c0-0.2,0-0.4,0-0.5h0.3h0.3l1.5,1.5l1.5,1.5v-1.2c0-0.2,0-0.4,0-0.6c0-0.2,0-0.4,0-0.6s0-0.3,0-0.4
	c0-0.1,0-0.2,0-0.2h0.3h0.3c0,0.4,0,0.7-0.1,1s0,0.6,0,0.9s0,0.6,0,0.8s0,0.6,0,0.9v0.8H205c-1-1-2-2.1-3.1-3.1c0,0.1,0,0.2,0,0.4
	s0,0.2,0,0.4v0.7c0,0.3,0,0.5,0,0.7s0,0.3,0,0.4s0,0.2,0,0.3s0,0.1,0,0.2h-0.7c0-0.1,0-0.2,0-0.4c0-0.2,0-0.5,0-0.8s0-0.6,0-1
	s0-0.7,0-1S201.3,62.5,201.3,62.3z"/>
<path class="st0" d="M207.2,62.6c0-0.3,0-0.5,0-0.8h0.6h1.6h0.6c0,0.1,0,0.2,0,0.3c0,0.1,0,0.1,0,0.2v0.1h-0.4H209h-0.4h-0.3
	c0,0.2,0,0.5,0,0.7s0,0.5,0,0.7h0.8h0.8c0,0.1,0,0.1,0,0.2c0,0,0,0.1,0,0.1c0,0,0,0.1,0,0.1v0.2c-0.5,0-1.1-0.1-1.6-0.1
	c0,0.1,0,0.3,0,0.4s0,0.3,0,0.4s0,0.5,0,0.8h0.8l0.8-0.1v0.1c0,0,0,0.1,0,0.2s0,0.1,0,0.2c0,0,0,0.1,0,0.1h-2.8c0-0.3,0-0.5,0-0.8
	c0-0.3,0-0.6,0-0.9v-1.1C207.2,63.2,207.2,62.9,207.2,62.6z"/>
<path class="st0" d="M213.7,62.6c0-0.3,0-0.5,0-0.8h0.6h1.6h0.6c0,0.1,0,0.2,0,0.3c0,0.1,0,0.1,0,0.2c0,0,0,0.1,0,0.1H216h-0.5h-0.4
	h-0.3c0,0.2,0,0.5,0,0.7s0,0.5,0,0.7h0.8h0.8c0,0.1,0,0.1,0,0.2c0,0,0,0.1,0,0.1c0,0,0,0.1,0,0.1v0.2c-0.5,0-1.1-0.1-1.6-0.1
	c0,0.1,0,0.3,0,0.4s0,0.3,0,0.4s0,0.5,0,0.8h0.8l0.8-0.1c0,0,0,0.1,0,0.1c0,0,0,0.1,0,0.2s0,0.1,0,0.2c0,0,0,0.1,0,0.1h-2.8
	c0-0.3,0-0.5,0-0.8c0-0.3,0-0.6,0-0.9v-1.1C213.7,63.2,213.7,62.9,213.7,62.6z"/>
<path class="st0" d="M217.9,62.3c0-0.2,0-0.4,0-0.5h0.3h0.3l1.5,1.5l1.6,1.5v-1.2c0-0.2,0-0.4,0-0.6s0-0.4,0-0.6s0-0.3,0-0.4
	c0-0.1,0-0.2,0-0.2h0.3h0.3c0,0.4,0,0.7-0.1,1s0,0.6,0,0.9s0,0.6,0,0.8s0,0.6,0,0.9v0.8h-0.6c-1-1-2-2.1-3.1-3.1c0,0.1,0,0.2,0,0.4
	s0,0.2,0,0.4v0.7c0,0.3,0,0.5,0,0.7s0,0.3,0,0.4s0,0.2,0,0.3s0,0.1,0,0.2h-0.7c0-0.1,0-0.2,0-0.4c0-0.2,0-0.5,0-0.8s0-0.6,0-1
	s0-0.7,0-1S217.9,62.5,217.9,62.3z"/>
<path class="st0" d="M227.4,62.3c-0.5-0.2-1-0.2-1.5,0c-0.2,0.1-0.4,0.2-0.6,0.4c-0.2,0.2-0.3,0.4-0.4,0.6c-0.1,0.3-0.2,0.6-0.2,0.9
	c0,0.2,0,0.5,0.1,0.7c0.1,0.2,0.2,0.4,0.3,0.6c0.2,0.2,0.3,0.3,0.5,0.4c0.2,0.1,0.5,0.1,0.7,0.1h0.2h0.2h0.2h0.1c0-0.1,0-0.1,0-0.2
	c0-0.1,0-0.2,0-0.3c0-0.3,0-0.6,0-0.8v-0.3h0.2h0.7h0.2c0,0.1,0,0.1,0,0.2c0,0.1,0,0.2,0,0.3s0,0.2,0,0.3s0,0.2,0,0.3v0.1
	c0,0.1,0,0.2,0,0.3c0,0.1,0,0.1,0,0.2c-0.3,0.1-0.6,0.1-0.9,0.2c-0.3,0-0.6,0.1-0.9,0.1c-0.4,0-0.8,0-1.1-0.1
	c-0.3-0.1-0.6-0.2-0.9-0.4c-0.2-0.2-0.4-0.4-0.6-0.7c-0.1-0.3-0.2-0.6-0.2-0.9c0-0.4,0.1-0.7,0.2-1.1c0.1-0.3,0.4-0.6,0.6-0.8
	c0.3-0.2,0.6-0.4,0.9-0.5c0.4-0.1,0.8-0.2,1.2-0.2c0.3,0,0.6,0,0.9,0.1c0.3,0.1,0.5,0.2,0.8,0.3l-0.1,0.3c0,0.1-0.1,0.2-0.1,0.3H228
	C227.8,62.5,227.6,62.4,227.4,62.3z"/>
<path class="st0" d="M229.9,62.6c0-0.3,0-0.5,0-0.8h0.3h0.6h0.3c0,0.3,0,0.5,0,0.8s0,0.6,0,0.9v0.9c0,0.2,0,0.5,0,0.7s0,0.4,0,0.6
	h0.8l0.8-0.1c0,0,0,0.1,0,0.1s0,0.1,0,0.2s0,0.1,0,0.2c0,0,0,0.1,0,0.1h-2.8c0-0.3,0-0.5,0-0.8s0-0.6,0-0.9v-0.9
	C229.9,63.2,229.9,62.9,229.9,62.6z"/>
<path class="st0" d="M234,62.6c0-0.3,0-0.5,0-0.8h0.3h0.6h0.3c0,0.3,0,0.5,0,0.8s0,0.6,0,0.9v0.9c0,0.3,0,0.7,0,0.9s0,0.5,0,0.8H234
	c0-0.3,0-0.5,0-0.8s0-0.6,0-0.9v-0.9C234,63.2,234,62.9,234,62.6z"/>
<path class="st0" d="M238,62.1c-0.2,0-0.4,0.1-0.5,0.2c-0.1,0.1-0.2,0.2-0.2,0.4c0,0.1,0.1,0.3,0.2,0.4c0.1,0.1,0.3,0.2,0.4,0.3
	l0.5,0.2c0.2,0.1,0.4,0.2,0.5,0.3c0.2,0.1,0.3,0.2,0.4,0.4c0.1,0.2,0.2,0.4,0.2,0.6c0,0.2,0,0.4-0.1,0.6c-0.1,0.2-0.2,0.3-0.4,0.4
	c-0.2,0.1-0.4,0.2-0.6,0.3c-0.3,0.1-0.5,0.1-0.8,0.1c-0.2,0-0.5,0-0.7-0.1c-0.2,0-0.3-0.1-0.5-0.2c0-0.2,0.1-0.3,0.1-0.4
	s0.1-0.3,0.1-0.4h0.1c0,0.1,0.1,0.2,0.1,0.3c0.1,0.1,0.1,0.2,0.2,0.2c0.1,0.1,0.2,0.1,0.3,0.2c0.1,0,0.3,0.1,0.4,0.1
	c0.2,0,0.5,0,0.6-0.2c0.1-0.1,0.2-0.3,0.2-0.5c0-0.1-0.1-0.3-0.2-0.4c-0.1-0.1-0.2-0.2-0.4-0.3l-0.5-0.2c-0.2-0.1-0.4-0.2-0.5-0.3
	c-0.2-0.1-0.3-0.2-0.4-0.4c-0.1-0.2-0.2-0.4-0.2-0.6c0-0.4,0.2-0.8,0.5-1c0.2-0.1,0.3-0.2,0.5-0.3c0.2-0.1,0.4-0.1,0.6-0.1
	c0.2,0,0.5,0,0.7,0.1c0.2,0,0.3,0.1,0.5,0.2c0,0.1-0.1,0.2-0.1,0.3l-0.1,0.3h-0.1C238.7,62.3,238.4,62.1,238,62.1z"/>
<path class="st0" d="M243.5,64h-1.1h-0.5v0.4c0,0.3,0,0.7,0,0.9s0,0.5,0,0.8h-1.2c0-0.3,0-0.5,0-0.8s0-0.6,0-0.9v-0.8
	c0-0.4,0-0.7,0-0.9c0-0.3,0-0.5,0-0.8h0.3h0.6h0.3c0,0.3,0,0.6,0,0.8c0,0.3,0,0.6,0,0.9h2.2c0-0.3,0-0.7,0-0.9s0-0.5,0-0.8h0.3h0.6
	h0.3c0,0.3,0,0.5,0,0.8s0,0.6,0,0.9v0.9c0,0.3,0,0.7,0,0.9s0,0.5,0,0.8H244c0-0.3,0-0.5,0-0.8s0-0.6,0-0.9v-0.4L243.5,64z"/>
<path class="st0" d="M250.6,62.1c-0.2,0-0.4,0.1-0.5,0.2c-0.1,0.1-0.2,0.2-0.2,0.4c0,0.1,0.1,0.3,0.2,0.4c0.1,0.1,0.3,0.2,0.4,0.3
	l0.5,0.2c0.2,0.1,0.4,0.2,0.5,0.3c0.2,0.1,0.3,0.2,0.4,0.4c0.1,0.2,0.2,0.4,0.2,0.6c0,0.2,0,0.4-0.1,0.6c-0.1,0.2-0.2,0.3-0.4,0.4
	c-0.2,0.1-0.4,0.2-0.6,0.3c-0.3,0.1-0.5,0.1-0.8,0.1c-0.2,0-0.5,0-0.7-0.1c-0.1,0-0.3-0.1-0.4-0.2l0.1-0.4c0-0.1,0.1-0.3,0.1-0.4
	h0.1c0,0.1,0.1,0.2,0.1,0.3c0.1,0.1,0.1,0.2,0.2,0.2c0.1,0.1,0.2,0.1,0.3,0.2c0.1,0,0.3,0.1,0.4,0.1c0.2,0,0.5,0,0.6-0.2
	c0.1-0.1,0.2-0.3,0.2-0.5c0-0.1-0.1-0.3-0.2-0.4c-0.1-0.1-0.2-0.2-0.4-0.3l-0.5-0.2c-0.2-0.1-0.3-0.2-0.5-0.3
	c-0.2-0.1-0.3-0.2-0.4-0.4c-0.1-0.2-0.2-0.4-0.2-0.6c0-0.4,0.2-0.8,0.5-1c0.2-0.1,0.3-0.2,0.5-0.3c0.2-0.1,0.4-0.1,0.6-0.1
	c0.2,0,0.5,0,0.7,0.1c0.2,0,0.3,0.1,0.5,0.2c0,0.1-0.1,0.2-0.1,0.3l-0.1,0.3h-0.1C251.3,62.3,251,62.1,250.6,62.1z"/>
<path class="st0" d="M257.1,65.7c0,0.1,0,0.2-0.1,0.3c-0.5,0.2-1,0.3-1.4,0.3c-0.4,0-0.8,0-1.1-0.2c-0.3-0.1-0.6-0.2-0.8-0.4
	c-0.2-0.2-0.4-0.4-0.5-0.7c-0.1-0.3-0.2-0.6-0.2-0.8c0-0.4,0.1-0.8,0.2-1.1c0.1-0.3,0.4-0.6,0.6-0.8c0.3-0.2,0.6-0.3,0.9-0.4
	c0.3-0.1,0.7-0.1,1.1-0.1h0.4l0.4,0.1l0.4,0.1l0.3,0.1c0,0.1-0.1,0.2-0.1,0.3c0,0.1,0,0.2,0,0.3H257c-0.2-0.2-0.3-0.3-0.5-0.4
	c-0.2-0.1-0.4-0.1-0.7-0.1c-0.4,0-0.8,0.2-1.1,0.5c-0.2,0.2-0.3,0.4-0.4,0.6c-0.1,0.3-0.1,0.6-0.1,0.9c0,0.3,0,0.6,0.1,0.8
	c0.1,0.2,0.2,0.4,0.4,0.6c0.2,0.1,0.3,0.3,0.5,0.3c0.2,0.1,0.4,0.1,0.6,0.1c0.1,0,0.2,0,0.3,0l0.4-0.1c0.1,0,0.2-0.1,0.3-0.2
	c0.1-0.1,0.2-0.1,0.3-0.2l0.1,0.1C257.2,65.5,257.2,65.6,257.1,65.7z"/>
<path class="st0" d="M261.3,64h-1.1h-0.5v0.4c0,0.3,0,0.7,0,0.9s0,0.5,0,0.8h-1.2c0-0.3,0-0.5,0-0.8s0-0.6,0-0.9v-0.8
	c0-0.4,0-0.7,0-0.9c0-0.3,0-0.5,0-0.8h0.3h0.6h0.3c0,0.3,0,0.6,0,0.8c0,0.3,0,0.6,0,0.9h2.2c0-0.3,0-0.7,0-0.9s0-0.5,0-0.8h0.3h0.6
	h0.3c0,0.3,0,0.5,0,0.8s0,0.6,0,0.9v0.9c0,0.3,0,0.7,0,0.9s0,0.5,0,0.8h-1.2c0-0.3,0-0.5,0-0.8c0-0.3,0-0.6,0-0.9v-0.4L261.3,64z"/>
<path class="st0" d="M269.5,63c-0.1-0.3-0.3-0.5-0.6-0.7c-0.3-0.2-0.5-0.3-0.9-0.4c-0.3-0.1-0.7-0.2-1-0.2c-0.4,0-0.8,0.1-1.1,0.2
	c-0.3,0.1-0.6,0.3-0.9,0.5c-0.2,0.2-0.4,0.5-0.5,0.7c-0.1,0.3-0.2,0.6-0.2,0.9c0,0.3,0.1,0.7,0.2,1c0.1,0.3,0.3,0.5,0.6,0.7
	c0.3,0.2,0.5,0.3,0.9,0.4c0.3,0.1,0.7,0.1,1,0.1c0.4,0,0.7-0.1,1.1-0.2c0.3-0.1,0.6-0.3,0.9-0.5c0.2-0.2,0.4-0.5,0.6-0.7
	c0.1-0.3,0.2-0.6,0.2-0.9C269.7,63.6,269.6,63.3,269.5,63z M268.4,64.8c-0.1,0.2-0.2,0.4-0.4,0.6c-0.1,0.2-0.3,0.3-0.5,0.4
	c-0.2,0.1-0.4,0.1-0.6,0.1c-0.2,0-0.4,0-0.6-0.1c-0.2-0.1-0.3-0.2-0.5-0.3c-0.2-0.2-0.3-0.4-0.3-0.6c-0.1-0.3-0.1-0.6-0.1-0.9
	c0-0.3,0-0.5,0.1-0.8c0.1-0.2,0.2-0.4,0.3-0.6c0.1-0.2,0.3-0.3,0.5-0.4c0.2-0.1,0.4-0.2,0.6-0.2c0.2,0,0.4,0,0.6,0.1
	c0.2,0.1,0.4,0.2,0.5,0.3c0.1,0.2,0.3,0.4,0.3,0.6c0.1,0.2,0.1,0.5,0.1,0.7C268.5,64.2,268.5,64.5,268.4,64.8L268.4,64.8z"/>
<path class="st0" d="M275.9,63c-0.1-0.3-0.3-0.5-0.6-0.7c-0.3-0.2-0.5-0.3-0.9-0.4c-0.3-0.1-0.7-0.1-1.1-0.1c-0.4,0-0.8,0.1-1.1,0.2
	c-0.3,0.1-0.6,0.3-0.9,0.5c-0.2,0.2-0.4,0.5-0.5,0.7c-0.1,0.3-0.2,0.6-0.2,0.9c0,0.3,0.1,0.7,0.2,1c0.1,0.3,0.3,0.5,0.6,0.7
	c0.3,0.2,0.5,0.3,0.9,0.4c0.3,0.1,0.7,0.1,1,0.1c0.4,0,0.7-0.1,1.1-0.2c0.3-0.1,0.6-0.3,0.9-0.5c0.2-0.2,0.4-0.5,0.6-0.7
	c0.1-0.3,0.2-0.6,0.2-0.9C276.1,63.6,276,63.3,275.9,63z M274.8,64.8c-0.1,0.2-0.2,0.4-0.4,0.6c-0.1,0.2-0.3,0.3-0.5,0.4
	c-0.2,0.1-0.4,0.1-0.6,0.1c-0.2,0-0.4,0-0.6-0.1c-0.2-0.1-0.3-0.2-0.5-0.3c-0.2-0.2-0.3-0.4-0.3-0.6c-0.1-0.3-0.1-0.6-0.1-0.9
	c0-0.3,0-0.5,0.1-0.8c0.1-0.2,0.2-0.4,0.3-0.6c0.1-0.2,0.3-0.3,0.5-0.4c0.2-0.1,0.4-0.2,0.6-0.2c0.2,0,0.4,0,0.6,0.1
	c0.2,0.1,0.4,0.2,0.5,0.3c0.1,0.2,0.2,0.4,0.3,0.6c0.1,0.2,0.1,0.5,0.1,0.7C274.9,64.2,274.9,64.5,274.8,64.8L274.8,64.8z"/>
<path class="st0" d="M277.5,62.6c0-0.3,0-0.5,0-0.8h0.3h0.6h0.3c0,0.3,0,0.5,0,0.8s0,0.6,0,0.9v0.9c0,0.2,0,0.5,0,0.7s0,0.4,0,0.6
	h0.8l0.8-0.1c0,0,0,0.1,0,0.1c0,0.1,0,0.2,0,0.3c0,0,0,0.1,0,0.1h-2.8c0-0.3,0-0.5,0-0.8c0-0.3,0-0.6,0-0.9v-0.9
	C277.5,63.2,277.5,62.9,277.5,62.6z"/>
</svg>
