<?xml version="1.0" encoding="utf-8"?>
<!-- Generator: Adobe Illustrator 19.2.1, SVG Export Plug-In . SVG Version: 6.00 Build 0)  -->
<svg version="1.1" id="レイヤー_1" xmlns="http://www.w3.org/2000/svg" xmlns:xlink="http://www.w3.org/1999/xlink" x="0px"
	 y="0px" width="430px" height="120px" viewBox="0 0 430 120" style="enable-background:new 0 0 430 120;" xml:space="preserve">
<style type="text/css">
	.st0{fill:#FFFFFF;}
	.st1{fill:#003F76;}
	.st2{fill:#007130;}
	.st3{fill:none;}
	.st4{fill:#F9BE00;}
</style>
<title>logo_02</title>
<path class="st0" d="M305,34.4v3.1h-12.6v-3.1h-5.6v3.1h-8.5v5.4h8.5v2.6h5.6v-2.6H305v2.6h5.6v-2.6h8.5v-5.4h-8.5v-3.1H305z
	 M295.9,43.9v2.6h-13.1v11.8h-4.4v5.2h14.3c-0.7,0.7-1.4,1.3-2.2,1.8c-3.8,2.2-8.1,3.8-12.4,4.5h-0.2l3.3,5.8h0.1
	c8.4-2.3,14.2-6.2,17.5-11.3c0.9,1.6,5.7,9,17.9,11h0.1l3.1-5.8h-0.2c-7.1-0.6-12.2-2.6-15.2-5.9h14.8v-5.3h-4.5V46.6h-13.1V44
	L295.9,43.9L295.9,43.9z M295.9,51.6v1.8c0,1.6-0.1,3.3-0.4,4.9h-7.2v-6.7H295.9L295.9,51.6z M309.1,51.6v6.7h-8
	c0.3-2.1,0.5-4.3,0.4-6.4v-0.3H309.1z"/>
<path class="st0" d="M343.2,34.4L343.2,34.4c-2.3,3.3-7.2,8.1-17.9,12.3l-0.2,0.1l2.8,5.6l0.3-0.2c2.2-1,4.4-2.1,6.5-3.4v2.2h23
	v-2.3c2.1,1.3,4.2,2.5,6.5,3.5l0.2,0.1l2.9-5.6l-0.2-0.1c-10.4-4.2-14.8-8.6-17.8-12.3l0-0.1L343.2,34.4L343.2,34.4z M346.3,39.2
	c2.2,2.6,4.7,4.9,7.4,6.8H339C341.8,44.1,344.2,41.8,346.3,39.2z M326.9,54.9v5.4h10.3c-1,2.9-2.2,5.8-3.6,8.6h-6.3v0.2l0.7,5.6h0.1
	c17-0.3,24-1.2,29.6-1.8h0.3l1.3,2.3l0.4,0.8l0.1-0.2l5.1-2.9l-0.2-0.3c-2.7-4.4-5.8-8.6-9.4-12.3l-0.1-0.1h10.2v-5.4H326.9z
	 M355.4,60.3l-4.8,2.6l0.1,0.1c2.2,2.5,3.3,3.9,4.2,5.1c-6.6,0.5-13.3,0.7-15.1,0.7c1.2-2.4,2.2-4.7,3.9-8.5L355.4,60.3L355.4,60.3z
	"/>
<path class="st0" d="M411.6,34.1c-6,1.9-17.6,2.4-21,2.4h-0.2l1.1,5.3h0.1c2.6,0,5.6-0.2,8.5-0.5v4.4h-9.3V51h9.3v4.9h-7.6v19.6h5.5
	v-2.1h9.8v2.1h5.4V55.9h-7.4V51h9.1v-5.3h-9.1v-5c2.7-0.2,5.3-0.7,7.8-1.4l0.3-0.1l-2.2-5.1L411.6,34.1z M407.8,61v7.1H398V61H407.8
	L407.8,61z M374.3,35.4V40h14.4v-4.6H374.3z M373,41.8v4.7h17.2v-4.7H373z M374.3,48.1v4.5h14.4v-4.5H374.3z M374.3,54.6v4.6h14.4
	v-4.6H374.3z M374.3,61.1v14.4h5.3v-1.6h9.1V61.1H374.3z M383.7,65.4v3.9h-4v-3.9L383.7,65.4L383.7,65.4z"/>
<path class="st0" d="M186.6,60.9v-5.8H168v5.8h6.6v7.4h-8.8v5.8h23v-5.8H180v-7.4H186.6L186.6,60.9z"/>
<path class="st0" d="M240.8,46.1h-16.9v-5.8h16.9L240.8,46.1L240.8,46.1z"/>
<path class="st0" d="M221.2,60.9H191v-5.8h30.1L221.2,60.9L221.2,60.9z"/>
<path class="st0" d="M138.2,46.1h-16.9v-5.8h16.9V46.1L138.2,46.1z"/>
<path class="st0" d="M138.2,56h-16.9v-5.8h16.9V56z"/>
<path class="st0" d="M160.5,40.1v3.3c-0.4,5.9-0.9,14-7.3,19.1c-6.1,4.9-16.6,6.2-31.3,4l-0.7-0.1v7.8h0.5c18.5,1,30.8-1.8,37.8-8.8
	c6.3-6.4,7.5-16,8.1-24.6V40L160.5,40.1L160.5,40.1z"/>
<path class="st0" d="M263.2,40.1v3.3c-0.4,5.9-1,14-7.3,19.1c-6.1,4.9-16.6,6.2-31.3,4l-0.6-0.1v7.8h0.5c18.5,1,30.8-1.8,37.8-8.8
	c6.3-6.4,7.5-16,8.1-24.6V40L263.2,40.1L263.2,40.1z"/>
<path class="st1" d="M36.9,40.7c0,0.5,0,8.1,0,8.1l0.2,6.2l0.5,6.9l0.6,5.5c0.2,2.3,0.7,4.6,1.4,6.8c0.8,2.2,1.8,4.3,3,6.2
	c1.3,2.1,2.8,4.1,4.3,6c1.7,2.1,3.7,4.1,5.7,6c2.7,2.5,5.6,4.6,8.8,6.4c2.2-1.2,4.3-2.7,6.3-4.3c2.6-2.1,4.7-4.2,4.7-4.2
	s2.1-2.1,4.3-4.9c1.3-1.7,2.6-3.5,3.7-5.3c0.8-1.3,1.6-2.7,2.2-4.1c0.5-1.2,0.8-2.3,1.1-3.6c0.4-1.7,0.7-3.5,0.9-5.3
	c0.4-3.2,0.6-5.5,0.8-8.2v-0.7l0.3-6.9l0.1-4.1c0,0,0-6.1,0-6.6H36.9z"/>
<path class="st2" d="M39.7,43.8l0.1,10.5l0.4,5.8l0.6,6.2c0.2,2.2,0.6,4.4,1.2,6.5c0.4,1.6,1.1,3.1,1.9,4.5c0.9,1.7,2,3.4,3.2,5
	c1.5,2,3.2,3.9,4.9,5.8c1.8,1.8,3.7,3.5,5.7,5c1.2,0.9,2.6,1.8,3.9,2.5h0.1h0.1c1.9-1.1,3.7-2.3,5.4-3.7c1.7-1.4,3.3-2.9,4.9-4.5
	c1.6-1.6,3-3.3,4.4-5.2c1.7-2.3,3.2-4.9,4.3-7.5c0.5-1.2,0.8-2.5,1-3.7c0.4-2.1,0.8-4.2,0.9-6.2c0.3-3.2,0.5-7.4,0.5-8.2l0.1-1.8
	l0.2-5l0.2-5.8L39.7,43.8L39.7,43.8z"/>
<rect x="53.9" y="41.7" class="st3" width="1.9" height="2"/>
<rect x="51.6" y="41.7" class="st3" width="1.9" height="2"/>
<rect x="58.5" y="41.7" class="st3" width="1.9" height="2"/>
<path class="st3" d="M39.6,54.3l-0.1-10.6h0.1v-2h-1.7l0.2,12.4c0,0,0.4,8.2,1.2,13.7c0.1,0.5,0.2,1.2,0.3,2V54.3z"/>
<rect x="49.3" y="41.7" class="st3" width="1.9" height="2"/>
<rect x="56.2" y="41.7" class="st3" width="1.9" height="2"/>
<rect x="42.3" y="41.7" class="st3" width="1.9" height="2"/>
<rect x="40" y="41.7" class="st3" width="2" height="2"/>
<rect x="47" y="41.7" class="st3" width="1.9" height="2"/>
<rect x="44.6" y="41.7" class="st3" width="1.9" height="2"/>
<rect x="60.8" y="41.7" class="st3" width="1.9" height="2"/>
<rect x="74.6" y="41.7" class="st3" width="2" height="2"/>
<rect x="79.2" y="41.7" class="st3" width="1.9" height="2"/>
<rect x="77" y="41.7" class="st3" width="1.9" height="2"/>
<rect x="81.6" y="41.7" class="st3" width="1.9" height="2"/>
<rect x="72.4" y="41.7" class="st3" width="1.8" height="2"/>
<rect x="67.8" y="41.7" class="st3" width="1.9" height="2"/>
<rect x="65.4" y="41.7" class="st3" width="1.9" height="2"/>
<rect x="70.1" y="41.7" class="st3" width="1.9" height="2"/>
<rect x="63.1" y="41.7" class="st3" width="1.9" height="2"/>
<path class="st3" d="M80.7,74.7c-0.4,1.1-0.9,2.1-1.4,3.1v2.6l0.4-0.6c0.6-0.9,1.1-1.8,1.6-2.8v-3.8C81,73.6,80.9,74.1,80.7,74.7z"
	/>
<path class="st3" d="M72,87.4c-0.7,0.7-1.3,1.3-1.9,1.9v2.1c0.6-0.6,1.2-1.2,1.8-1.8l0.1-0.1V87.4L72,87.4z"/>
<path class="st3" d="M63.1,94.8v1.9c0.5-0.3,1.2-0.8,1.9-1.3v-1.9C64.5,93.9,63.8,94.3,63.1,94.8z"/>
<path class="st3" d="M76.4,82.2c-0.6,0.8-1.2,1.5-1.8,2.2v2.2c0.7-0.8,1.4-1.6,2-2.4V82L76.4,82.2z"/>
<path class="st3" d="M67.1,91.9c0,0-0.7,0.6-1.7,1.3v1.9c0.6-0.4,1.2-0.9,1.8-1.4l0.1-0.1v-2L67.1,91.9z"/>
<path class="st3" d="M67.8,91.3v2c0.6-0.5,1.3-1,1.9-1.6v-2.1C68.9,90.4,68.2,90.9,67.8,91.3z"/>
<path class="st3" d="M72.4,87v2.1c0.7-0.7,1.3-1.3,1.8-2V85C73.6,85.7,73,86.3,72.4,87z"/>
<path class="st3" d="M77,81.4v2.3l0.4-0.6c0.5-0.7,1-1.5,1.4-2.1v-2.5C78.3,79.4,77.6,80.4,77,81.4z"/>
<path class="st3" d="M83.9,41.7v24.8c0.5-3.7,0.6-6.8,0.6-6.8s0.3-4.5,0.5-9.3c0.1-4.2,0.1-8.7,0.1-8.7S83.9,41.7,83.9,41.7z"/>
<path class="st3" d="M83.2,56.5c-0.1,1.4-0.2,5.2-0.5,8.2c-0.2,2.1-0.5,4.2-0.9,6.2c0,0,0,0.2-0.1,0.7v4.6c0.6-1.4,1.1-2.9,1.4-4.4
	c0.2-0.8,0.3-1.7,0.5-2.5V50C83.4,53.1,83.2,55,83.2,56.5z"/>
<path class="st3" d="M51.8,88.1l-0.2-0.2v2.2c0.3,0.3,0.6,0.6,0.9,0.8l1,0.9v-2.1C52.9,89.2,52.3,88.7,51.8,88.1z"/>
<path class="st3" d="M47,82.5v2.3c0.5,0.7,1.2,1.5,1.9,2.3v-2.3C48.2,84.1,47.5,83.3,47,82.5z"/>
<path class="st3" d="M44.6,79.1v2.7c0.6,0.9,1.1,1.4,1.1,1.4s0.3,0.4,0.9,1.2V82C45.8,80.9,45.1,79.9,44.6,79.1z"/>
<path class="st3" d="M49.3,85.4v2.3c0.6,0.7,1.2,1.4,1.9,2.1v-2.2C50.5,86.8,49.9,86.1,49.3,85.4z"/>
<path class="st3" d="M43.7,77.3c-0.5-0.9-1-1.8-1.3-2.8V78c0.7,1.3,1.3,2.4,1.9,3.2v-2.8C43.9,77.7,43.7,77.3,43.7,77.3z"/>
<path class="st3" d="M41.7,72.8c-0.5-2.1-0.9-4.3-1.2-6.5c0,0-0.3-3.1-0.6-6.2c0-0.1,0-0.3,0-0.4v12c0.2,1.1,0.6,2.2,1,3.3
	c0.3,0.8,0.7,1.5,1,2.2v-3.8C41.9,73.2,41.8,73,41.7,72.8z"/>
<path class="st3" d="M61.6,95.6c0,0-0.3-0.1-0.8-0.4v2.1l0.7,0.4c0,0,0.5-0.3,1.3-0.8V95C62.4,95.2,62,95.4,61.6,95.6z"/>
<path class="st3" d="M58.5,93.8v2.1c0.8,0.5,1.4,1,1.9,1.3V95C59.9,94.7,59.3,94.3,58.5,93.8z"/>
<path class="st3" d="M57.5,93.1c-0.4-0.3-0.8-0.6-1.3-1v2c0.6,0.5,1.2,0.9,1.7,1.3l0.2,0.2v-2L57.5,93.1z"/>
<path class="st3" d="M53.9,90.1v2.1c0.7,0.6,1.3,1.1,1.9,1.6v-2C55.2,91.3,54.5,90.7,53.9,90.1z"/>
<path class="st0" d="M77.7,63.5c0.2-0.4,0-0.9-0.4-1.1c-0.1-0.1-0.2-0.1-0.3-0.1c-0.6,0-1.1,0-0.9-0.1l0.4-0.2
	c0.4-0.2,0.7-0.4,0.9-0.7c0.1-0.2,0.2-0.3,0.2-0.5c0-0.4-0.3-0.8-0.7-0.8c0,0,0,0,0,0h-8.7l8.7-9.3c0-0.1,0-0.2-0.1-0.3
	c-0.2-0.1-0.8-0.6-0.8-0.6c-0.1-0.1-0.2-0.1-0.3,0C75.3,49.9,75,50,74.7,50l1.7-1.8c0.1-0.1,0.1-0.2,0.1-0.3l-0.8-0.6
	c-0.2,0-0.4,0.1-0.5,0.2l-1.9,1.1c-1.1,0.5-2.2,0.8-3.4,0.9c-1.1,0.1-2.1-0.1-3.1-0.5c0,0-3.4-1.5-3.5-1.6c-0.1-0.1-0.2-0.1-0.4-0.1
	h-1c-0.1,0-0.3,0.1-0.3,0.2c-2.2,1.6-4.6,2.8-7.2,3.5c-1.5,0.4-2.9,0.6-4.4,0.7c-1.8,0.2-1.6,0.3-2,0.5s0,0.8,0,0.8l1.2,1
	c0.1,0,0.1,0.1,0,0.2c0,0-0.1,0.1-0.1,0.1c-0.2,0-1.2,0.1-1.3,0.8c0,0.4,0.3,0.7,0.6,0.8c0.6,0.3,1.1,0.7,1.5,1.2v5.1
	c0,0.1-0.1,0.1-0.2,0.2c0,0-1.8,0.6-2.1,1.5s1.1,1.2,1.1,1.2l-0.6,0.6c-0.3,0.2-0.5,0.6-0.5,0.9c0,0.7,0.9,0.9,1.4,0.9s7.5,0,7.5,0
	s0.4,0,0.2,0.2c-1.5,1.4-9.4,10-9.4,10l1.1,0.8l0.5-0.5l0.1,0.1c0,0-0.6,0.6-1,1.1s-0.8,0.9-0.8,0.9l1,0.7c0.1,0,0.1,0,0.2,0
	c1.2-0.8,2.5-1.5,3.9-1.9c0.6-0.2,1.2-0.3,1.8-0.3c0.9,0,1.8,0.1,2.7,0.3c1.9,0.5,3.8,1.2,5.5,2.3h1.4l0.3-0.3
	c0.6-0.6,1.3-1.1,2-1.6c0.8-0.5,1.6-0.9,2.4-1.3c1.1-0.4,2.2-0.8,3.4-1.1c1.4-0.3,2.7-0.5,4.1-0.7c0.5,0,1-0.1,1.4-0.3
	c0.2-0.1,0.2-0.3,0.2-0.4c-0.2-0.7-0.7-1.3-1.3-1.6c-0.1,0-0.1,0-0.1-0.1c0-0.1,0-0.1,0.1-0.1l0.5-0.1c0.8-0.1,0.4-1,0.4-1
	c-0.4-0.5-0.8-0.9-1.4-1.2c0,0,0-3.9,0-6.5C76.5,64.4,77.2,64,77.7,63.5z M49.9,56.5l-1.7-1.2c-0.2-0.1-0.2-0.4-0.1-0.6
	c0.2-0.2,0.5-0.4,0.8-0.4c0.4-0.1,0.8-0.1,1.1,0.1V56.5L49.9,56.5z M69.5,63.4v2.3h-7.1c0,0-6.2,6.5-6.3,6.6l-0.5,0.2
	c-0.7,0.3-1.5,0.7-1.9,0.9c-0.2,0.1,0-0.2,0-0.2s5.5-5.6,5.7-6c0,0,0.1-0.1-0.1-0.2S59.1,67,59.1,67l3.3-3.5L69.5,63.4L69.5,63.4z
	 M68.3,73.6c-2.1-1.7-4.7-2.5-7.3-2.4c-1.3,0-2.7,0.3-3.9,0.8c0,0-0.4,0-0.1-0.2l5.5-5.8c0,0,7.1-0.1,7.1,0v7.7L68.3,73.6L68.3,73.6
	z M69.5,75.9h-1.1c-0.2-0.1-0.3-0.3-0.5-0.5c0.5-0.2,1-0.5,1.5-0.7C69.5,75.2,69.5,75.6,69.5,75.9L69.5,75.9z M56.3,60.8v-6.3
	c0,0,0.9-0.4,1.1-0.5c0.1-0.1,0.2-0.1,0.3,0c0.6,0.7,1.4,1.3,2.2,1.8c0.6,0.4,1.4,0.6,2.1,0.7c0.9,0.1,1.8,0.1,2.6,0
	c0.9-0.1,1.8-0.4,2.7-0.7c0.2-0.1,0.1,0.2,0.1,0.2l-4.6,4.9L56.3,60.8z M71.5,53.4l2.5-2.7l0.9-0.5c0.1-0.1,0.8-0.4,0.8-0.4l0.7,0.6
	c-0.1,0.2-0.2,0.3-0.3,0.5c-0.3,0.4-0.8,0.9-1.4,1.6s-1.4,1.5-2.2,2.4c-2.3,2.5-4.8,5-4.8,5h-1.4c0,0-0.1,0,0-0.2s5.4-5.8,5.4-5.8
	c0-0.1,0-0.2-0.1-0.2c0,0,0,0,0,0C71.6,53.7,71.4,53.6,71.5,53.4z M71.4,54l-5.6,5.9h-0.2l5.5-5.9L71.4,54z M58.2,52.2
	c0.6,0.5,1.4,1.1,1.4,1.1c1.1,0.7,2.3,1,3.6,0.9c2.1-0.1,4.1-0.7,5.9-1.7l1-0.4l1-0.1l-3.2,3.4c-0.5,0.3-1.1,0.5-1.7,0.7
	c-0.5,0.2-1,0.3-1.5,0.3c-0.6,0.1-1.2,0.1-1.9,0.1c-0.8,0-1.5-0.1-2.2-0.3c-1.1-0.5-2.1-1.3-2.9-2.1c-0.2-0.1-0.4-0.1-0.6,0
	l-0.7,0.3c-0.4,0.1-0.3,0.1-0.3,0c0-0.5,0-1,0-1.3l1.9-0.8C58.1,52.1,58.2,52.1,58.2,52.2z M56.1,52.1l1.3-0.6c0,0,0.5,0.5,0.4,0.4
	s-0.3,0.2-0.8,0.4c-0.3,0.2-0.6,0.3-1,0.3L56.1,52.1z M49,67.1c0,0-1.3-0.1-1.2-0.8c0.1-0.5,0.5-1,1-1.2l0.6-0.3h9.5
	c0,0,0.2,0.1,0,0.3l-1.9,2L49,67.1L49,67.1z M52.7,73.8l6.1-6.5c0.1-0.1,0.2,0.1,0.2,0.1s-5.9,6.3-6,6.4S52.7,73.8,52.7,73.8
	L52.7,73.8z M76.7,74.1c0.3,0.3,0.6,0.7,0.8,1.1c0.1,0.4-0.8,0.5-0.8,0.5c-1.1,0.1-2.2,0.2-3.3,0.4c0,0-1.1,0.2-2.5,0.6
	c-0.7,0.2-1.5,0.5-2.2,0.8c-0.5,0.2-0.9,0.4-1.4,0.6c-1.4,0.6-2.6,1.5-3.6,2.6h-1.4c-0.8-0.5-1.6-1-2.5-1.3
	c-0.9-0.3-1.6-0.6-1.6-0.6c-0.7-0.3-1.5-0.4-2.3-0.6c-1-0.1-2-0.1-3,0.1c-1.6,0.4-3.1,1.1-4.5,2.1l-0.9-0.7c0,0,2.4-2.6,2.5-2.7
	c0.7-0.5,1.4-0.8,2.2-1c0.3-0.1,0.3-0.1,0.4,0.1c0,0.2,0.2,0.2,0.4,0.2c0.3-0.2,0.6-0.4,1-0.5c4.2-0.1,8.4,2.5,8.4,2.5h1.2
	c1.2-1.2,2.5-2.1,4-2.8c0.2-0.1,0.3,0,0.4,0.1c0.2,0.1,0.4,0.3,0.4,0.3h1.3c0-0.4,0-0.9,0-1.3c0.5-0.2,1-0.4,1.5-0.5
	c1.4-0.3,2.9-0.6,4.3-0.7C76,73.6,76.4,73.8,76.7,74.1L76.7,74.1z M75.7,64.4v-1.9c0.4-0.1,0.9-0.2,1.4-0.1c0.2,0.1,0.4,0.2,0.5,0.4
	c0.1,0.2,0,0.5-0.2,0.7C76.9,64,76.4,64.3,75.7,64.4L75.7,64.4z"/>
<path class="st4" d="M47.5,29.8c-0.3,0.2-0.4,0.7-0.2,1.1c0.4,0.4,0.8,0.8,1.3,1.1c0,0,0.4,0.2-0.2,0.4s-2.6,1.6-2.5,2.4
	c-0.1,0.4,0.1,0.8,0.5,1c0,0,0.1,0.1,0.1-0.2c0.1-0.2,0.3-0.4,0.6-0.5c0,0,1.5-1.3,14.9-1.5c3.1,0,5.6,0.1,7.7,0.3
	c2.4,0.1,4.7,0.4,7,0.9c0.5,0.1,1,0.3,1.4,0.5c0.1,0.2,0.3,0.3,0.5,0.3c0.4-0.3,0.5-0.8,0.2-1.3c-0.6-0.9-1.4-1.6-2.4-2
	c0,0-0.4-0.2,0-0.5c0.2-0.2,0.5-0.4,0.7-0.6c0.3-0.3,0.4-0.8,0.2-1.2c-0.1-0.3-0.4-0.5-0.7-0.6c0,0-0.1,0.1,0.1,0.2
	c0.3,0.4,0.3,0.9,0,1.3l-0.7,0.7c0,0-3-0.2-6.3-0.4c-2.4-0.1-4.9-0.3-6.5-0.3s-5,0.1-8,0.2c-1.7,0.1-3.4,0.2-4.5,0.3l-1.9,0.1
	c0,0-1.1-0.9-1-1.4c0.1-0.2,0.2-0.4,0.4-0.5C48.2,29.7,47.7,29.6,47.5,29.8z"/>
<path class="st4" d="M48.8,29.9c0,0-0.5,0-0.2-0.4c0.4-0.2,0.9-0.4,1.4-0.4c0,0,3.3-0.3,6.5-0.5c2.9-0.2,5.6-0.2,5.6-0.2
	s11.6,0.1,14,1.1c0,0,0.4,0.4-0.2,0.5c-0.2,0-1-0.2-2.3-0.3s-2.6-0.2-4.1-0.3c-2.3-0.2-4.5-0.3-6.8-0.2c-1.2,0-2.9,0-4.7,0.1
	s-3.7,0.3-5.3,0.4C50.3,29.7,48.8,29.9,48.8,29.9z"/>
<path class="st4" d="M50.2,30.9c1.7-1.1,3.7-1.6,5.7-1.5c0.8,0.1,1.7,0.2,2.5,0.4c0.3,0,0.7,0,1-0.1c1-0.3,2-0.5,3.1-0.4
	c0.7,0,1.3,0.1,2,0.2c0.5,0.1,0.9,0.2,1.3,0.4c0.3,0,0.6,0,0.8-0.1c1.6-0.3,3.2-0.3,4.8,0.1c0.7,0.2,1.2,0.4,1.7,0.6
	c0.3,0.1,0.7,0.3,1,0.5c0,0,0,0.1-0.3,0c-1.5-0.6-3.2-1-4.9-1c0,0-0.9,0-2.2,0.1c0,0-0.2,0.1-0.1,0.2c0.1,0.1,0.2,0.1,0.2,0.2
	c0,0,0,0.1-0.2,0c-0.5-0.4-1.2-0.4-1.7,0c0,0-0.3,0-0.1-0.2l0.3-0.2c0,0,0.3-0.1-0.4-0.3c-1-0.1-1.9-0.1-2.9-0.1
	c-0.8,0-1.7,0.1-2.5,0.3c0,0-0.3,0.1-0.1,0.2s0.2,0.2,0.1,0.2s-0.7-0.3-0.9-0.2c-0.3,0-0.5,0.1-0.8,0.2c0,0-0.4,0.1-0.2,0l0.2-0.1
	c0,0,0.3-0.2,0-0.2c-0.7-0.1-1.4-0.1-2.1-0.1c-0.7,0-1.3,0.1-2,0.2c-0.6,0.1-1.2,0.2-1.8,0.3c-0.5,0.1-1,0.3-1.5,0.6
	C50.5,31,50.1,31.1,50.2,30.9z"/>
<path class="st4" d="M48,36.2c0,0-1-0.3-0.3-0.7s3.1-0.7,8-1c2-0.1,4.8-0.2,7.5-0.2c3.9,0,7.5,0.3,7.5,0.3c2.1,0.1,4.1,0.4,6.1,0.9
	c0,0,1,0.5-0.7,0.8c-1.8,0.3-3.5,0.5-5.3,0.6c-3.5,0.2-7.4,0.3-7.4,0.3s-2.9,0-6.2-0.1C54.1,37.2,51,36.9,48,36.2z"/>
<path class="st4" d="M63.7,10.7c1.1,0,2.1-0.3,3.1-0.7c0.4-0.4-0.1-0.6-0.2-0.6c-1.4-0.5-3-0.7-4.5-0.5c-1.4,0-2.8,0.1-4.2,0.6
	c0,0-0.8,0.3-0.1,0.7c0.8,0.3,1.6,0.5,2.4,0.5c0.2,0,0.4,0,0.6,0.1c0.2,0,0.3,0.1,0.2,0.3c0,0.2,0,0.3-0.1,0.4
	c-0.4,0.4-0.7,0.9-0.9,1.4c0,0.5-0.1,0.9,0.2,0.9c0.6-0.2,1.2-0.3,1.8-0.3c0.7,0,1.3,0.1,2,0.2c0,0,0.2,0,0.2-0.4
	c0-0.6-0.2-1.1-0.6-1.5c-0.1-0.1-0.2-0.3-0.3-0.5v-0.3C63.5,10.9,63.4,10.7,63.7,10.7z M62.1,9.3c-1,0-1.9,0.1-2.2,0.1
	c-0.4,0-0.7,0.2-1,0.5c-0.2,0.2-0.4,0.2-0.7,0.1c-0.4-0.1,0-0.3,0-0.3c0.4-0.2,0.8-0.3,1.2-0.3c0.9-0.1,1.8-0.2,2.7-0.2
	c0.9,0,1.9,0,2.8,0.3C64.6,9.3,63.3,9.3,62.1,9.3z"/>
<path class="st4" d="M81.8,17.4c-0.3-0.2-1.7-1-2.5-1.4s-0.8,0.1-1.7,0.4s-1.4-0.3-2.2-1.2s-3.1-1-4.4-1c-1,0-1.9,0.3-2.7,0.9
	c-0.3,0.2-0.5,0.4-0.7,0c-0.3-0.3-0.7-0.6-1.2-0.8c-1.5-0.5-3.1-0.7-4.7-0.5c-1,0-2,0.3-2.9,0.9c-0.5,0.2-1,0.3-1.5,0.2
	c-0.6-0.2-1.2-0.4-1.7-0.8c-0.9-0.2-1.9-0.2-2.9,0c0,0-1.2,0.4-1.9,0.5c-0.4,0.1-0.9,0.3-1.2,0.7c-0.2,0.3-0.5,0.6-0.8,0.8
	c-0.3,0.2-0.4-0.2-1.3-0.6c-0.6-0.2-1.2-0.2-1.7,0.1c-0.3,0.2-0.7,0.5-1.1,0.6c-0.9,0.3-1.8,0.7-2.6,1.2c-0.7,0.5-1,1.4-0.8,2.2
	c0.2,1,1.3,1.6,2.4,2.1c0.6,0.2,1.2,0.5,1.7,0.8c0.1,0.1,0.3,0.2,0.4,0.3c0.1,0.1,0.1,0.3,0,0.5c-0.2,0.5-0.2,1.1-0.2,1.7
	c0,1.2,2,1.3,2.4,1.3s0.2,0.4,0.2,0.4v1.7c0,0.5,0.2,0.4,0.2,0.4s5.7-0.5,13.5-0.5s12.5,0.6,13.5,0.6c0.5,0,0.9-0.3,0.9-0.8
	c0,0,0,0,0,0c0,0,0.3-1,0.4-1.5c0.1-0.3,0.4-0.5,0.7-0.5c0.1,0,0.2,0,0.3,0c0-0.7,0.1-1.3,0.2-2c0.1-0.4,0.4-0.1,0.4-0.1
	c0.3,0.1,0.6,0.1,0.9,0c0.2-0.2,0.4-0.5,0.3-0.8c0.2-0.7,0.7-1.3,1.4-1.6c0.6-0.3,1.2-0.8,1.7-1.4C83.6,18.7,82.2,17.6,81.8,17.4z
	 M46.2,21.5c-0.2,0.1-0.4,0.1-0.5,0c0,0-2.3-0.5-2.6-2.2s1.7-2.4,2.1-2.5s0.2,0.1,0.2,0.1s-0.4,0.6-0.5,0.9
	c-0.2,0.4-0.3,0.8-0.3,1.2c0.3,0.7,0.7,1.4,1.3,2C46.2,21.5,46.2,21.5,46.2,21.5z M49.8,17.9c-0.3-1.7,1.5-2.5,1.9-2.6
	s0.3,0.1,0.3,0.1c-0.2,0.3-0.3,0.6-0.5,0.9c-0.2,0.4-0.2,0.9-0.2,1.3c0.3,0.7,0.7,1.3,1.2,1.9c0.2,0.2,0.3,0.4,0.5,0.6
	c-0.2,0.1-0.5,0.1-0.7,0c-0.5-0.1-0.9-0.3-1.3-0.6C50.4,19.1,50,18.5,49.8,17.9z M54.6,25.2c-0.5,0-1.1-0.2-1.5-0.6
	c-0.2-0.2-0.3-0.3-0.5-0.5l0.3,0.3c0.7,0.6,1.7,0.7,2.5,0.3c0.4-0.2,0.7-0.5,0.9-0.8c0.2-0.3,0.4-0.7,0.4-1.1c0-0.3,0-0.6-0.1-0.9
	c-0.1-0.3-0.3-0.6-0.5-0.8c-0.5-0.6-1.4-0.9-2.1-0.6c-0.1,0.1,0.2,0.1,0.2,0.1c0.8,0.2,1.3,0.9,1.1,1.7c-0.2,0.8-0.9,1.3-1.7,1.1
	c-0.7-0.1-1.2-0.7-1.1-1.3c0,0,0,0,0-0.1c0,0,0-0.3-0.1-0.2c-0.1,0.2-0.2,0.4-0.2,0.6c-0.1,0.6,0,1.1,0.3,1.6
	c-0.2-0.2-0.3-0.4-0.3-0.6c-0.1-0.2-0.1-0.5-0.1-0.7c0-1.4,1.1-2.5,2.5-2.5c0,0,0,0,0.1,0c1.4,0,2.5,1.1,2.5,2.5
	c0,1.3-1,2.5-2.4,2.5C54.7,25.3,54.7,25.3,54.6,25.2L54.6,25.2z M60.8,20.4c0.2-0.5,0.8-0.9,1.3-0.8c0,0,1.3-0.1,1.3,0.7
	c0,0.3,0,0.7-0.2,1c-0.2,0.4-0.5,0.7-0.8,1c0,0,0.5-1.5-0.1-1.7c-0.3-0.2-0.6-0.1-0.8,0.2c0,0,0,0,0,0.1c-0.1,0.5,0,0.9,0.3,1.3
	c0,0,0.1,0.2,0,0.2S60.5,21.4,60.8,20.4z M58.4,15.8c0.3-0.7,1-1.3,1.8-1.3c0.3,0,0,0.3,0,0.3c-0.3,0.3-0.4,0.7-0.5,1.1
	c0,0.6,0.2,1.2,0.7,1.6c0.2,0.2,0.3,0.4,0.5,0.6c-0.2,0.1-0.5,0.1-0.8,0C59.5,18.2,58,17.1,58.4,15.8L58.4,15.8z M60.1,20.6
	c0,0.2-0.2,0.4-0.4,0.4c-0.2,0-0.4-0.2-0.4-0.4s0.2-0.4,0.4-0.4l0,0C59.9,20.2,60.1,20.4,60.1,20.6C60.1,20.7,60.1,20.7,60.1,20.6
	L60.1,20.6z M59.7,25.5c-0.2,0-0.4-0.2-0.4-0.4s0.2-0.4,0.4-0.4c0.2,0,0.4,0.2,0.4,0.4v0C60.1,25.3,60,25.5,59.7,25.5
	C59.7,25.5,59.7,25.5,59.7,25.5L59.7,25.5z M59.9,24.1c-0.3,0.2-0.7,0.2-1,0.2c-0.8-0.1-0.7-1.3-0.7-1.3c-0.1-0.6,0.3-1.1,0.8-1.3
	c1.1-0.4,1.9,1.1,1.9,1.1h-0.2c-0.4-0.3-0.9-0.4-1.3-0.3c-0.3,0.1-0.4,0.5-0.3,0.7c0,0,0,0,0,0.1c0.1,0.6,1.7,0.1,1.7,0.1
	C60.5,23.6,60.2,23.9,59.9,24.1L59.9,24.1z M63.5,25.6c-0.1,0.8-1.3,0.7-1.3,0.7c-0.6,0.1-1.1-0.3-1.3-0.8c-0.4-1,1.2-1.9,1.2-1.9
	v0.2c-0.3,0.4-0.4,0.9-0.3,1.3c0.1,0.3,0.5,0.4,0.7,0.3c0,0,0,0,0.1,0c0.6-0.1,0.1-1.7,0.1-1.7c0.3,0.3,0.6,0.6,0.8,1
	C63.5,25,63.5,25.3,63.5,25.6L63.5,25.6z M64.6,20.2c0.2,0,0.4,0.2,0.4,0.4c0,0.2-0.2,0.4-0.4,0.4c-0.2,0-0.4-0.2-0.4-0.4v0
	C64.2,20.4,64.4,20.2,64.6,20.2C64.6,20.2,64.6,20.2,64.6,20.2L64.6,20.2z M64.6,25.5c-0.2,0-0.4-0.1-0.5-0.4s0.1-0.4,0.4-0.5
	c0.2,0,0.4,0.1,0.5,0.4c0,0,0,0,0,0C65,25.3,64.8,25.5,64.6,25.5L64.6,25.5z M65.7,24.2c-0.3,0-0.7,0-1-0.2c-0.4-0.2-0.7-0.5-1-0.8
	c0,0,1.5,0.5,1.7-0.1c0.2-0.3,0.1-0.6-0.2-0.8c0,0,0,0-0.1,0c-0.5-0.1-0.9,0-1.3,0.3c0,0-0.2,0.1-0.2,0s0.9-1.5,1.9-1.1
	c0.5,0.2,0.9,0.8,0.8,1.3C66.4,22.9,66.5,24.2,65.7,24.2L65.7,24.2z M70.1,25.2c-0.5,0-1.1-0.2-1.5-0.6c-0.2-0.2-0.3-0.3-0.5-0.5
	l0.3,0.3c0.7,0.6,1.7,0.7,2.5,0.3c0.4-0.2,0.7-0.5,0.9-0.8c0.2-0.3,0.4-0.7,0.4-1.1c0-0.3,0-0.6-0.1-0.9c-0.1-0.3-0.3-0.6-0.5-0.8
	c-0.5-0.6-1.4-0.9-2.1-0.6c-0.1,0.1,0.2,0.1,0.2,0.1c0.8,0.2,1.3,0.9,1.1,1.7c-0.2,0.8-0.9,1.3-1.7,1.1c-0.7,0-1.2-0.6-1.2-1.3
	c0,0,0-0.1,0-0.1c0,0,0-0.3-0.1-0.2c-0.1,0.2-0.2,0.4-0.2,0.6c-0.1,0.6,0.1,1.2,0.3,1.7c-0.1-0.2-0.3-0.4-0.3-0.6
	c-0.1-0.2-0.1-0.5-0.1-0.7c0-1.4,1.1-2.5,2.5-2.5c1.4,0,2.5,1.1,2.5,2.5C72.5,24.1,71.5,25.2,70.1,25.2
	C70.1,25.3,70.1,25.3,70.1,25.2L70.1,25.2z M75.2,18.2c-0.6,0.6-1.4,1.1-2.3,1.2c-0.3,0-0.1-0.2-0.1-0.2l0.7-0.9
	c0.2-0.3,0.5-0.7,0.7-1.1c0.2-0.5,0.1-1.1-0.4-1.5c-0.1-0.1-0.6-0.3,0-0.3c0.5-0.1,1,0.1,1.4,0.4C75.9,16.4,75.9,17.5,75.2,18.2
	L75.2,18.2z M81.4,19.7c-0.2,0.3-0.4,0.6-0.7,0.9c-0.2,0.2-0.5,0.4-0.8,0.5c-0.6,0.2-1.4,0.5-1.3,0.2c0.1-0.1,0.2-0.2,0.3-0.3
	c0.4-0.4,0.7-0.9,1-1.4c0.3-0.3,0.3-0.7,0.3-1.1c-0.1-0.3-0.2-0.6-0.5-0.7c0,0-0.4-0.2-0.1-0.3c0.7-0.1,1.5,0.2,1.9,0.8
	C81.6,18.7,81.6,19.3,81.4,19.7L81.4,19.7z"/>
<path class="st4" d="M93.7,91.9L93.7,91.9L93.7,91.9L93.7,91.9L93.7,91.9 M90.9,90.2L90.9,90.2z M95.4,87.9L95.4,87.9z M94.2,87.8
	L94.2,87.8z M100.6,81.5L100.6,81.5L100.6,81.5L100.6,81.5z M96.8,85.1L96.8,85.1L96.8,85.1l0.1-0.3L96.8,85.1z M96.9,85.6
	L96.9,85.6L96.9,85.6z M96.9,85.6L96.9,85.6z M96.9,85.6L96.9,85.6L96.9,85.6L96.9,85.6z M96.9,85.1L96.9,85.1L96.9,85.1z
	 M97.2,85.3L97.2,85.3L97.2,85.3z M99,83.1L99,83.1z M99,83.2L99,83.2L99,83.2L99,83.2z M99,83.2L99,83.2L99,83.2z M99,83.6L99,83.6
	L99,83.6z M99.9,82l0.3-0.8C100.2,81.5,100,81.8,99.9,82z M100.6,81.5L100.6,81.5L100.6,81.5L100.6,81.5z M100.6,81.5L100.6,81.5
	L100.6,81.5z M90.8,89.8L90.8,89.8L90.8,89.8L90.8,89.8L90.8,89.8z M90.9,90.2L90.9,90.2L90.9,90.2L90.9,90.2L90.9,90.2L90.9,90.2z
	 M94.2,87.7L94.2,87.7z M94,87.3L94,87.3L94,87.3z M89.2,91.1L89.2,91.1h0.2h0.1l0.1-0.1l0.1-0.1l0.3-0.2c0.4-0.1,0.9-0.2,1.3-0.4
	c0,0,0-0.1,0-0.1H91h-0.1l0,0c0,0,0-0.1,0.1-0.1l0.2-0.1l0.8-0.6l0.4-0.3l0.6-0.4l0.6-0.4c0.3-0.1,0.5-0.1,0.8-0.1l0.7,0.1l1,0.4
	h0.2L96,88.2L95.5,88l-0.2-0.1l-0.6-0.1h-0.3h-0.3l0,0l0,0l0,0l0,0c0-0.1,0.1-0.1,0.2-0.2l-0.2,0.2l0,0l0.4-0.3l-0.2,0.2L95,87
	l0.1-0.1c0.3-0.3,0.7-0.6,1.1-0.8c0.3-0.1,0.6-0.1,0.8-0.1c0.3,0.1,0.7,0.2,1,0.3l0.7,0.4h0.1h0.1v-0.2l-0.1-0.2l-0.6-0.4l-1.1-0.3
	H97h0l0,0l0,0v0.1l0,0l0.1-0.1l0,0l0.1-0.1l0.6-0.5l0.2-0.2l0.7-0.7h0.8h0.1l0.4,0.1l0.4,0.1h0.1c0,0,0-0.1,0-0.2l-0.3-0.2l-1.1-0.2
	h-0.1l0,0l0,0l0,0l0,0v-0.1l0,0l0,0v-0.1c0.3-0.4,0.7-0.8,1.1-1.1l0.4-0.1h1.2h0.1h0.1l0,0l0,0l0,0l-0.2-0.1l-0.3-0.1h-0.9
	c0,0,0-0.1,0.1-0.1l-0.1,0.1l0,0l0.2-0.3l-0.1,0.1l0.5-0.5l0.1-0.1l0.9-1l0,0c0,0,1-1.2,1-1.2v-0.1c0,0,0-0.1,0-0.2l0,0v-0.2l0,0
	l0,0l-0.6,0.6l-1.1,1.1c-0.8,0.8-1,1-1,1l0,0v-0.2v-0.2v-0.2l0.1-0.6c0-0.2-0.1-0.4-0.2-0.5c0,0-0.1,0-0.1,0
	c-0.2,1.2-0.2,1.3-0.2,1.3l-0.4,1l-0.8,1l0,0h-0.1l0.1-0.1l0,0l0,0l0,0l0,0l-0.1,0.2l-0.3,0.5l-0.7,0.7l-0.3,0.3
	c0,0-0.5,0.3-0.6,0.4l0,0l0.3-0.8c0.3-1.3,0.3-1.3,0.3-1.3v-0.2v-0.4v-0.2V82h-0.2l-0.2,0.9L97,83.1l-0.3,1.3
	c-0.2,0.4-0.3,0.9-0.5,1.3l-0.8,0.7l-0.2,0.2l-1,0.8l-0.1,0l0.1-0.1l0.2-0.2l0.1-0.2v-0.1l0.3-0.8l0.4-1.4c0.1-0.3,0.1-0.6,0-0.8
	h-0.2l-0.1,0.5l-0.1,0.2l-0.4,1.2L93.8,87c-0.2,0.4-0.4,0.8-0.7,1.1l-0.7,0.6l-0.2,0.2L91.9,89l-1,0.7l-0.1,0.1l-0.1,0.1v-0.1
	l0.2-0.5l0.3-0.6l0.4-1.1l0.2-1.3c0-0.2,0-0.4-0.1-0.5c0,0-0.1,0-0.1,0v0.1l-0.1,0.6l-0.1,0.3l-0.1,0.4l-0.1,0.3l-0.3,0.8l-0.4,1
	l-0.1,0.2l-0.3,0.4l-0.2,0.3c0,0-0.1,0.1-0.1,0.1l-0.7,0.7C89.3,90.9,89.3,91,89.2,91.1L89.2,91.1L89.2,91.1z M99,82.3
	c0,0.4,0,0.4,0,0.4h0.1l0.1-0.4v-0.1l0.1-0.3v-0.6v-0.1h-0.2L99,82C99,82.1,99,82.2,99,82.3z M99,82.8L99,82.8L99,82.8L99,82.8
	L99,82.8L99,82.8z M104.4,73.6L104.4,73.6z M99.1,78.2L99.1,78.2z M99.1,78.2L99.1,78.2z M99.2,77.8L99.2,77.8z M99.4,78.5
	L99.4,78.5z M99.4,78.5L99.4,78.5z M99.4,78.5L99.4,78.5z M99,78.2L99,78.2L99,78.2z M99.1,78.2L99.1,78.2z M99.1,78.2L99.1,78.2z
	 M102.8,73.4L102.8,73.4L102.8,73.4L102.8,73.4L102.8,73.4L102.8,73.4z M103.8,71.5L103.8,71.5z M103.7,71.2L103.7,71.2z
	 M102.8,73.4L102.8,73.4L102.8,73.4z M102.7,73.1L102.7,73.1z M102.7,73.1L102.7,73.1z M102.4,73.1L102.4,73.1z M101.4,75.5
	L101.4,75.5L101.4,75.5L101.4,75.5z M101.2,75.7L101.2,75.7z M101.2,75.7L101.2,75.7z M105.4,68.3L105.4,68.3L105.4,68.3L105.4,68.3
	z M103.2,76.2L103.2,76.2l0-0.1l-0.1-0.2l-0.4-0.2h-0.8h-0.4c-0.1,0-0.1,0-0.2,0l0,0v-0.1l0.2-0.4l0.1-0.1l0.7-1.1l0,0l0.8-0.3h0.6
	h0.3h0.1h0.1h0.1l-0.2-0.1l-0.2-0.1l-1.1,0.1h-0.1l0,0l0.1-0.2c0.5-0.9,0.5-1,0.5-1l0,0L104,72c0.4-0.1,0.7-0.2,1-0.4l-0.1-0.1h-0.4
	l-0.5,0.1H104h-0.1l0,0l0,0l0,0l0.1-0.2l-0.1,0.2c0.1-0.1,0.6-1,0.6-1.1l0,0l0.5-1l0.5-1.1l0.1-0.1c0-0.1,0-0.1,0-0.2h-0.2l-0.1,0.2
	v0.1l-0.2,0.2l-0.3,0.6l-0.4,0.8c-0.2,0.4-0.5,0.7-0.7,1.2c0,0,0,0-0.1,0v-0.3c0,0-0.2-1-0.2-1l-0.1-0.1h-0.1h-0.1l0.2,1.2
	c0,0.4-0.1,0.7-0.2,1.1c-0.2,0.3-0.4,0.7-0.5,1.1c0,0,0,0,0,0.1h-0.1h-0.2c0,0,0,0.1,0,0.1v0.1l-0.1,0.4l-0.3,0.5l-0.9,1.2l0,0l0,0
	c0,0,0-0.1,0-0.2l0,0c0,0.1,0,0.2,0,0.2l0,0c0,0,0-0.2,0-0.4c0,0.1,0,0.2,0,0.2c0-0.3,0.1-0.8,0.1-0.8c-0.1-1.5-0.1-1.5-0.1-1.5
	c0-0.2-0.1-0.4-0.2-0.5c-0.1,0-0.1,0-0.1,0.1l0.1,0.9v0.2v0.9v0.2c0,0.5-0.1,0.9-0.2,1.3l-0.5,0.7l0,0.2l-0.6,0.8L99.3,78
	c0,0.1-0.1,0.2-0.2,0.2l0,0l0.1-0.4l0.1-1.3v-0.9v-0.2c0-0.2,0-0.4-0.2-0.6c0,0-0.1,0-0.1,0v1v0.4c-0.1,0.9-0.1,1-0.1,1l-0.3,1.4
	l0,0L98.5,79l-0.1,0.2c0,0,0,0.1,0,0.1c0,0,0,0,0,0.1l0,0l0,0l0,0l0,0l0,0l0.4-0.4l0.1-0.1l0.7-0.3l1-0.2l0.1-0.1l0,0l-0.1-0.1
	l-0.1-0.1h-0.2l-1,0.1h0l0,0v0.1l0,0l0.2-0.2l-0.1,0.2l0.6-0.8c0.9-1.1,0.9-1.2,0.9-1.2l0,0l0.3-0.1l0.8-0.1h0.2h0.4l0.4,0.1
	l0.1,0.1h0.1L103.2,76.2z M103.2,78.6L103.2,78.6L103.2,78.6z M102.3,71L102.3,71z M102.2,71c0.1,0.5,0.1,0.6,0.1,0.6l0,0v0.1
	l0.1,0.4c0,0.1,0,0.1,0,0.2v0.4c0,0.1,0,0.1,0,0.1h0.2l0,0l0,0v-0.5c0,0,0,0,0-0.1l0,0v-0.1v-0.3l-0.1-0.5v-0.2c0,0,0-0.1-0.1-0.1
	L102.2,71z M105.8,60.5L105.8,60.5z M106,58.4L106,58.4z M105.4,55.1L105.4,55.1z M104.6,58.4L104.6,58.4L104.6,58.4z M104,60.6
	L104,60.6z M103.8,60.2L103.8,60.2L103.8,60.2L103.8,60.2z M103,63.7L103,63.7L103,63.7z M102.1,61L102.1,61z M102.1,66.9
	L102.1,66.9z M102.2,66.7L102.2,66.7L102.2,66.7z M102.2,66.8L102.2,66.8L102.2,66.8L102.2,66.8z M104.4,61.1L104.4,61.1z
	 M104.6,58.6L104.6,58.6L104.6,58.6L104.6,58.6L104.6,58.6L104.6,58.6z M104.6,58.5L104.6,58.5L104.6,58.5z M104.4,61.1L104.4,61.1z
	 M104.4,61.1L104.4,61.1z M104.1,60.8L104.1,60.8L104.1,60.8z M103.3,58.9L103.3,58.9z M103.3,58.9L103.3,58.9z M103.8,60.3
	L103.8,60.3L103.8,60.3z M103.4,63.8L103.4,63.8L103.4,63.8L103.4,63.8L103.4,63.8z M103.4,63.8L103.4,63.8z M103.4,63.8L103.4,63.8
	L103.4,63.8z M103.4,63.8L103.4,63.8L103.4,63.8L103.4,63.8L103.4,63.8L103.4,63.8z M103.4,63.7L103.4,63.7L103.4,63.7z M101.7,66.2
	L101.7,66.2V66C101.7,66,101.7,66.1,101.7,66.2L101.7,66.2z M101.8,66.8L101.8,66.8z M106,58.6L106,58.6z M105.7,63.8L105.7,63.8
	L105.7,63.8l-0.1-0.1l-0.2-0.2l-0.6-0.1l-0.7,0.2l-0.5,0.1c0,0-0.1,0-0.1,0l0.2-0.7c0.1-0.4,0.5-1.3,0.5-1.4
	c0.3-0.2,0.6-0.4,0.9-0.6l0.5-0.1l0.2,0c0-0.1,0-0.1,0-0.2l0,0h-0.3h-0.2l-0.7,0.2l-0.2,0.1c0,0-0.1,0-0.1,0.1l-0.1-0.1
	c0,0,0.4-1.3,0.4-1.3l0.3-0.4l0.9-0.6l0,0l0.1-0.1c0.1,0,0.1-0.1,0.1-0.2c0,0,0-0.1,0-0.1H106h-0.3l-0.5,0.2l-0.3,0.2l0,0l0,0l0,0
	v-0.1c0,0,0,0,0,0.1l0,0l0.1-0.4l0.4-1.5l0.2-1.4c0,0,0-0.1,0-0.1l0,0l0,0l0,0l-0.1-0.1c0,0-0.1,0-0.1,0l-0.1,0.4l-0.2,0.7l-0.2,0.8
	l-0.3,1.2c0,0,0,0.2,0,0.2l-0.1-0.4l-0.4-0.8c-0.1-0.1-0.2-0.2-0.3-0.3l-0.1,0.1l0.5,1.2l0.1,1l-0.1,0.5c0,0.3-0.1,0.7-0.2,0.8l0,0
	l-0.2-0.2v-0.1v-0.1l0,0c0,0,0-0.1,0-0.1v0.1l0,0l0,0l0,0c0,0,0,0,0-0.1l0,0c0-0.1,0-0.1,0-0.1l-0.2-0.7l-0.2-0.3
	c-0.1-0.1-0.1-0.1-0.2-0.2l-0.1,0.1l0.2,0.5l0.3,0.8l0.1,0.2l0.1,0.2l0.1,0.9l-0.3,0.9c0,0-0.5,1.2-0.5,1.3l0,0
	c0-0.1-0.1-0.9-0.1-0.9l-0.2-0.8l-0.1-0.2l-0.1-0.2l-0.2-0.4l0,0l-0.2,0l0,0l0,0l0,0v0.4l0.3,1.5l0.2,0.8l0.1,0.2l0.1,0.2
	c0.1,0.2,0.1,0.2,0.1,0.1l-0.3,0.6l-0.2,0.5l-0.2,0.4l-0.2,0.4l-0.1,0.3l-0.1,0.2l0,0v0.1l0,0v-0.1l0,0l-0.1-0.2c0,0,0-0.1,0-0.1
	l0,0c-0.1-1-0.1-1-0.1-1l-0.3-1.5c-0.1-0.3-0.3-0.6-0.5-0.9h-0.1l0,0h-0.1l0,0l0,0l0.1,0.3L101,64l0.2,0.9l0.2,1.6v0.8v0.5l-0.2,0.4
	l-0.1,0.3l-0.2,0.4l-0.3,0.6l-0.3,0.8v0.3l0,0l0,0l0.1-0.1l0.2-0.1l0.3-0.5l0.2-0.5v-0.1l0.3-0.8l0.3-0.6l0.2-0.4
	c0.3-0.2,0.6-0.4,0.9-0.6l1.2-0.3l0,0h0.1l0,0l0,0l0,0l0-0.1h-0.1l-0.8,0.1l-0.7,0.3l-0.2,0.1l0,0c0,0,0,0,0-0.1l0,0l0,0l0,0v0l0,0
	l0,0l0,0V67l0,0l0,0l0,0l0.1-0.2v0.1l0,0l0.4-1.1c0.5-1.2,0.6-1.3,0.6-1.3l0,0l0.8-0.5l0.9-0.2l0,0L105.7,63.8L105.7,63.8
	L105.7,63.8z M105.7,63.8L105.7,63.8z M103.3,58.9L103.3,58.9L103.3,58.9L103.3,58.9L103.3,58.9L103.3,58.9L103.3,58.9z M100.9,62.9
	L100.9,62.9L100.9,62.9L100.9,62.9L100.9,62.9L100.9,62.9L100.9,62.9L100.9,62.9L100.9,62.9L100.9,62.9L100.9,62.9L100.9,62.9z
	 M99,66.2L99,66.2z M99.1,66.2L99.1,66.2z M99.1,66.2H99l-0.1,0.1l0.2,0.5l0.3,0.9l0.3,1.4l0.1,1.2c0,0.1,0,0.1,0,0.2l0,0l0,0h0.1
	l0.1-0.3v-0.7c-0.1-1.1-0.1-1.1-0.1-1.1c-0.1-0.5-0.3-1-0.5-1.5l0,0C99.5,66.8,99.1,66.2,99.1,66.2L99.1,66.2z M101.6,49.5
	L101.6,49.5L101.6,49.5L101.6,49.5L101.6,49.5z M101.6,49.4L101.6,49.4L101.6,49.4L101.6,49.4L101.6,49.4L101.6,49.4L101.6,49.4z
	 M99.9,59.4L99.9,59.4c0-0.2-0.1-0.3-0.1-0.4L99.9,59.4z M103.9,52.3L103.9,52.3z M101.8,52.7L101.8,52.7L101.8,52.7L101.8,52.7
	L101.8,52.7z M101.8,52.7L101.8,52.7L101.8,52.7z M103.1,49.5L103.1,49.5L103.1,49.5z M102.3,47.8L102.3,47.8L102.3,47.8L102.3,47.8
	L102.3,47.8z M102,47.6L102,47.6L102,47.6L102,47.6L102,47.6z M102.3,47.7L102.3,47.7L102.3,47.7z M101.9,49.7L101.9,49.7
	L101.9,49.7L101.9,49.7z M100.8,55.7L100.8,55.7z M99.9,59.5L99.9,59.5L99.9,59.5z M101.1,55.9L101.1,55.9z M101.9,52.6L101.9,52.6
	L101.9,52.6L101.9,52.6L101.9,52.6z M101.9,52.7L101.9,52.7L101.9,52.7C101.9,52.7,101.8,52.7,101.9,52.7L101.9,52.7z M100.9,55.8
	L100.9,55.8L100.9,55.8L100.9,55.8L100.9,55.8z M101.2,55.9L101.2,55.9L101.2,55.9C101.1,55.9,101.1,55.9,101.2,55.9L101.2,55.9z
	 M101.7,55.9L101.7,55.9L101.7,55.9L101.7,55.9z M104,52.2L104,52.2l-0.2-0.1l-0.3-0.1l-0.8,0.2l-0.5,0.2c-0.2,0.1-0.2,0.1-0.2,0.1
	l-0.1,0.1l0,0l0,0l0,0l0,0l0,0c0-0.1,0-0.5,0-0.5c0-0.5,0.2-1.4,0.2-1.5c0.2-0.3,0.5-0.5,0.7-0.7l0.6-0.3l0.2-0.1h-0.1
	c-0.1,0-0.2,0-0.3,0h-0.1l-0.5,0.3l-0.2,0.1l-0.2,0.1l0,0c0,0,0,0,0,0l0,0v-0.2c0,0,0,0.1,0,0.1s0,0,0,0l0.1-1.3
	c0.1-0.2,0.2-0.4,0.3-0.5l0.6-0.5l0.1-0.1c0-0.1-0.1-0.1-0.1-0.2l-0.4,0.1l-0.4,0.3l-0.1,0.1l0,0v-0.1l0.1-1.1v-1c0-0.2,0-0.5,0-0.7
	h-0.1h-0.1V45l-0.1,1.2c0,0-0.2,1.1-0.2,1.3l0,0l0,0v-0.1l-0.4-0.8c-0.1-0.2-0.3-0.4-0.6-0.5l-0.1,0.1l0.5,0.8l0.1,0.3l0.3,0.7v0.2
	c0.1,1.2,0.1,1.2,0.1,1.2l0,0l0,0l0,0l-0.1-0.1h-0.1h-0.1h-0.1l0.2,0.8v0.6l-0.1,0.4c0,0-0.1,0.8-0.2,1l0,0l0,0v0.1l0,0v-0.1l0,0
	v-0.1l-0.3-0.7l-0.6-1.2l-0.4-0.2l-0.3-0.4h-0.1l-0.1,0.1l0.4,0.7l0.1,0.2l0.1,0.2l0.1,0.2l0.4,0.7c0.4,1.5,0.4,1.5,0.4,1.5v0.2v0.1
	l-0.1,0.3l-0.3,1.5c0,0-0.1,0.4-0.1,0.4l0,0c0-0.1,0-0.1,0-0.1v-0.2v-0.1l-0.4-1.3l-0.5-1c-0.2-0.3-0.3-0.5-0.6-0.8
	c0,0-0.1,0.1-0.1,0.1l0.6,1.2l0.5,1.5c0.1,0.5,0.2,1,0.3,1.5l-0.2,1.2l-0.1,0.3c-0.2,0.7-0.3,1.1-0.3,1.3v0l0,0l0,0h-0.2l-0.1-0.6
	v0.2l-0.1-0.7l-0.4-1l-0.5-1l-0.6-0.6l-0.1-0.1l0,0l0,0l0,0l0,0L98,55.8l0.5,0.8l0.1,0.2l0.6,1.3l0.4,1.2c0.1,1.3,0.1,1.4,0.1,1.4
	l0.1,0l0.1,0.1l0,0l0.4-0.5l0.3-0.5l0,0l0,0c0,0,0,0,0-0.1l0,0l0,0l0,0l-0.1,0.1l-0.1,0.1l0,0l0,0l0,0c0,0,0-0.1,0-0.1
	c0,0,0,0.1,0,0.1l0,0l0.1-0.4l0.2-0.9l0.1-0.5v-0.2l0.1-0.4l0.2-0.6l0.8-0.7l0.7-0.3c0.1,0,0.2-0.1,0.2-0.1v-0.1l0,0l0,0l-0.6,0.2
	l-0.6,0.4l-0.2,0.2l0,0l0.2-1l0.1-0.8l0.1-0.7c0.2-0.2,0.5-0.5,0.7-0.7l0.7-0.3l0.6-0.1l0,0l0.3-0.1h0.1l0,0L104,52.2z M102.3,44
	L102.3,44L102.3,44L102.3,44L102.3,44z M102.2,44.4L102.2,44.4z M102.2,44.4L102.2,44.4L102.2,44.4z M102.3,44.4L102.3,44.4
	L102.3,44.4L102.3,44.4h-0.1l0,0v0.2l0,0l0,0l0,0l0,0l0,0l0,0l0,0l0,0l0,0l0,0L102.3,44.4z M100.8,48L100.8,48z M100.6,48L100.6,48
	L100.6,48L100.6,48z M101.5,49.3L101.5,49.3z M100.8,48L100.8,48L100.8,48L100.8,48z M100.9,48c0,0-0.1,0-0.1,0h-0.1l0,0l0.5,0.7
	c0.1,0.2,0.2,0.4,0.3,0.6h0.1c0,0,0.1,0,0.1,0l-0.3-0.6l-0.3-0.3L100.9,48z M100.3,45L100.3,45L100.3,45l-0.2,0.1l-0.1,0
	c-0.2,0.1-0.3,0.2-0.3,0.4c0,0,0.1,0.1,0.1,0.1l0.4-0.3l0.1-0.1l0,0C100.3,45.1,100.3,45.1,100.3,45L100.3,45z M99.2,52.4L99.2,52.4
	L99.2,52.4L99.2,52.4z M96.3,39.8L96.3,39.8z M96.9,40L96.9,40l-0.5-0.3h-0.1l0,0l0,0c0,0,0,0.1,0,0.1l0,0l0.3,0.2l0.1,0.1h0.1l0,0
	V40l0,0l0,0L96.9,40z M97.5,38.8L97.5,38.8c0-0.1-0.1-0.1-0.1-0.2C97.4,38.7,97.4,38.7,97.5,38.8L97.5,38.8z M98.1,40.8L98.1,40.8
	L98.1,40.8L98.1,40.8L98.1,40.8L98.1,40.8L98.1,40.8L98.1,40.8z M97.8,38.2L97.8,38.2z M97.1,38.8L97.1,38.8z M97.1,38.8L97.1,38.8z
	 M96.9,38.7L96.9,38.7L96.9,38.7L96.9,38.7z M97,38.7L97,38.7L97,38.7L97,38.7z M97.8,40.6L97.8,40.6L97.8,40.6L97.8,40.6L97.8,40.6
	L97.8,40.6L97.8,40.6z M98.2,43L98.2,43C98.2,43,98.2,43,98.2,43L98.2,43z M98.7,43.3L98.7,43.3L98.7,43.3z M98.2,43.1L98.2,43.1
	L98.2,43.1L98.2,43.1L98.2,43.1z M98,40.8L98,40.8L98,40.8L98,40.8z M97.7,40.6L97.7,40.6z M96.4,36.3L96.4,36.3z M96.5,36.5
	L96.5,36.5z M100.1,42.3L100.1,42.3l-0.1-0.2l-0.6,0.3l-0.3,0.4L99,42.9c-0.1,0.1-0.2,0.2-0.2,0.3l0,0l0,0L98.6,43l-0.1-0.3L98.3,42
	v-0.5v-0.1c0.1-0.3,0.2-0.5,0.4-0.8c0.2-0.2,0.3-0.4,0.4-0.6l0,0c0,0-0.1-0.1-0.1-0.1L98.6,40l-0.3,0.4c-0.2,0.2-0.2,0.2-0.2,0.2
	l0,0c0,0-0.1,0-0.1,0.1l-0.3-0.9c0-0.5,0-0.5-0.1-0.5l0.2-0.5l0.2-0.8l0,0V38l0,0l0,0l0,0L98,38.1l-0.2,0.1l-0.2,0.3
	c0,0.1-0.1,0.2-0.2,0.3l0,0l0,0l0,0c0,0,0,0,0,0.1c0,0,0,0,0-0.1l-0.1-0.4c0,0.1,0,0.1,0.1,0.2L97.2,38l-0.4-0.9l-0.2-0.5l-0.1-0.2
	c0,0,0,0,0-0.1l0,0l-0.1,0.1c0.1,0.3,0.1,0.3,0.1,0.2l0.2,0.7l0.3,1.2l0.1,0.2l0,0l0,0l0,0l0,0l0,0l0,0l0,0l-0.1,0l0,0l0,0l0,0l0,0
	l-0.5-0.4c-0.2-0.1-0.4-0.2-0.6-0.3c0,0,0,0.1,0,0.1l0,0l0.8,0.6l0.6,0.8l0.1,0.2c0.1,0.2,0.2,0.4,0.3,0.6l0.1,0.1c0,0,0,0,0,0.1
	h-0.1h-0.1h-0.1l0,0c0,0,0,0.1,0,0.1l0.1,0.1l0,0.3l0.2,0.2v0.1l0.2,0.3c0.2,1.1,0.3,1.3,0.3,1.4l0,0L98,42.8l-0.7-0.7l-0.8-0.6
	c-0.1-0.1-0.3-0.2-0.5-0.2c0,0,0,0.1,0,0.2l0.2,0.1l0.4,0.3l0.3,0.2l0.8,0.8l0.7,1.1l0.1,0.1h0.1l0,0V44l0.1-0.1l0.4-0.4
	c0,0,0.2-0.4,0.2-0.4c0.1-0.1,0.2-0.2,0.4-0.4l0,0l0.4-0.2L100.1,42.3L100.1,42.3L100.1,42.3z M95.1,42.3L95.1,42.3z M95,43.1
	L95,43.1z M94.6,43.1L94.6,43.1z M94,42.9L94,42.9z M95.8,44.5L95.8,44.5L95.8,44.5L95.8,44.5z M95.8,44.5L95.8,44.5z M96.2,44.5
	l-0.8-1l-0.1-0.4l-0.1-0.7c0,0,0,0,0-0.1s0-0.1,0-0.1l0,0v0l-0.1-0.1l0,0v0.2l-0.1,0.4c0,0,0,0.1,0,0.1l0,0V43l0,0l0,0l0,0H95l0,0
	H95l-0.2-0.3l-0.4-0.5l-0.4-0.5h-0.1h-0.1c0,0-0.1,0-0.1,0l0,0l0.7,1l0.1,0.2l0.1,0.1l0,0h-0.1l-0.5-0.2c-0.3-0.1-0.5-0.1-0.8-0.1
	c0,0,0,0.1,0,0.2c0,0,0.9,0.3,1,0.3l0.7,0.3l0.8,0.8c0,0,0.1,0.1,0,0.1h-0.1h-0.2h-0.1l0.9,0.6h0.1c0.1-0.4,0.2-1.5,0.2-1.5
	c0,0-0.1-0.1-0.1-0.1l-0.1,0l-0.2,0.5L96.2,44.5L96.2,44.5L96.2,44.5z M94.7,38.6L94.7,38.6z M94.6,38.6L94.6,38.6l-0.2-0.6
	c-0.1-0.2-0.2-0.3-0.3-0.5H94c0,0-0.1,0-0.1,0.1c0,0,0.6,1.1,0.7,1.1h0.1h0.1L94.6,38.6z M94.1,35.8l0.3-0.4c0,0,0-0.1,0-0.1l0,0
	v-0.1l0,0l-0.3,0.3C94.1,35.6,94.1,35.7,94.1,35.8C94.1,35.8,94.2,35.8,94.1,35.8L94.1,35.8L94.1,35.8z M91,34.6L91,34.6L91,34.6
	L91,34.6L91,34.6L91,34.6L91,34.6L91,34.6L91,34.6L91,34.6L91,34.6L91,34.6L91,34.6L91,34.6L91,34.6z M93.6,36.6L93.6,36.6
	L93.6,36.6z M92.6,34L92.6,34z M92.2,34.7L92.2,34.7L92.2,34.7L92.2,34.7z M91.1,33.4L91.1,33.4z M93.1,36.6L93.1,36.6L93.1,36.6
	L93.1,36.6L93.1,36.6L93.1,36.6L93.1,36.6L93.1,36.6L93.1,36.6L93.1,36.6z M93.8,37.5L93.8,37.5L93.8,37.5L93.8,37.5z M93.6,36.6
	L93.6,36.6L93.6,36.6L93.6,36.6z M93.6,36.6L93.6,36.6L93.6,36.6L93.6,36.6z M93.3,36.3L93.3,36.3L93.3,36.3L93.3,36.3L93.3,36.3z
	 M93.1,36.1L93.1,36.1L93.1,36.1L93.1,36.1z M93.1,36.6L93.1,36.6L93.1,36.6z M93.4,36.5L93.4,36.5L93.4,36.5L93.4,36.5z M92.2,34.8
	L92.2,34.8L92.2,34.8z M91.8,34.7L91.8,34.7L91.8,34.7L91.8,34.7z M89.1,31.4L89.1,31.4L89.1,31.4L89.1,31.4z M89.1,31.4L89.1,31.4z
	 M89.1,31.4L89.1,31.4z M94,36c-0.1,0-0.1,0-0.2,0l-0.2,0.5v0.1l-0.2-0.3l-0.6-0.8c-0.2-0.3-0.2-0.4-0.2-0.4s0.1-0.6,0.1-0.6
	l0.1-0.4V34L92.7,34l0,0l0,0l-0.1,0.2c-0.1,0.2-0.1,0.3-0.2,0.5c0,0,0,0,0,0.1L91.6,34c0,0-0.2-0.8-0.2-0.8s0-0.5,0-0.6h-0.1
	l-0.1,0.1l0,0.3c0,0,0,0.2,0,0.3l0,0l0,0v0.1l0,0v-0.1L91,33.2l0.1,0.1L91,33.1l-0.6-0.7l-0.6-0.6l-0.4-0.4l-0.2-0.1h-0.1
	c0,0-0.1,0.1-0.1,0.1l0.6,0.7l0.6,0.7l0.3,0.3v0h-0.2l-0.4-0.1L89.4,33l0,0h-0.1l0,0l0,0l0.1,0.1l0.5,0.1l0.9,0.4
	c0.4,0.2,0.7,0.6,1,0.9l-0.1,0.1l0,0l0,0l0,0l0.1,0.4l0.6,0.5l0.4,0.6l0.3,0.5L93,36.5L91.7,36c-0.3-0.1-0.7-0.2-1.1-0.2
	c0,0.1,0,0.1,0,0.2l0.4,0.2l0.6,0.2l0.9,0.3l1,0.6c0,0,0.2,0.1,0.3,0.2l0,0l0,0l0.1-1C94,36.4,94,36.2,94,36L94,36z M90.1,34.4
	L90.1,34.4z M90.1,34.3l0.2-0.1h0.1l0.2,0.1c0,0,0,0,0,0.2C90.5,34.5,90.3,34.5,90.1,34.3L90.1,34.3L90.1,34.3z M93.9,37.5
	L93.9,37.5L93.9,37.5L93.9,37.5L93.9,37.5z M93.9,37.6L93.9,37.6L93.9,37.6L93.9,37.6L93.9,37.6L93.9,37.6L93.9,37.6L93.9,37.6z
	 M93.6,41.6L93.6,41.6L93.6,41.6L93.6,41.6L93.6,41.6z M93.5,41.5L93.5,41.5L93.5,41.5L93.5,41.5z M94.4,38.9L94.4,38.9z M93.1,38.5
	l0.9,0.4l0.6,0.3l0,0c0,0,0-0.1,0-0.1l0,0l-0.2-0.2l-1.1-0.7l-1.4-0.5h-0.1c0,0-0.1,0-0.1,0.1c0,0,0,0.1,0,0.1h0.1l0.4,0.2l0.3,0.1
	L93.1,38.5z M94.5,44.1L94.5,44.1z M94.8,44.2L94.8,44.2z M94.8,44.4L94.8,44.4c0,0,0-0.1,0-0.1l-0.3-0.1c-0.1,0-0.2,0-0.4,0
	c0,0.1,0,0.1,0,0.2l0.3,0.1h0.2L94.8,44.4z M95,44.5L95,44.5z M95.2,44.5L95.2,44.5L95.2,44.5L95.2,44.5L95.2,44.5L95.2,44.5H95
	h-0.1l0,0H95.2L95.2,44.5L95.2,44.5L95.2,44.5L95.2,44.5L95.2,44.5L95.2,44.5z M95.2,44.5L95.2,44.5L95.2,44.5L95.2,44.5L95.2,44.5z
	 M95.3,44.5L95.3,44.5L95.3,44.5L95.3,44.5z M95.5,44.6L95.5,44.6L95.5,44.6L95.5,44.6z M98.2,45.5L98.2,45.5z M98.5,45.3L98.5,45.3
	z M98.5,45.3L98.5,45.3L98.5,45.3L98.5,45.3z M98.5,45.3L98.5,45.3z M98.2,45.7c0.2-0.1,0.3-0.3,0.3-0.4c0,0,0-0.1,0-0.1h-0.1
	l-0.3,0.3c0,0.1-0.1,0.2-0.1,0.2L98.2,45.7L98.2,45.7L98.2,45.7z M97.2,46.6L97.2,46.6z M97.2,46.6L97.2,46.6z M97.3,46.5L97.3,46.5
	L97.3,46.5L97.3,46.5z M97.3,46.5L97.3,46.5z M98.2,45.9l-0.1,0.3C98.1,46.1,98.1,46.1,98.2,45.9L98.2,45.9z M98.6,48.4L98.6,48.4
	l-0.1-0.3L98,47.2v-0.8l0.2-0.4v-0.1H98L97.9,46l-0.1,0.3l-0.1,0.3l0,0l0,0l0,0c0,0-0.1-0.1-0.1-0.1l0.1,0.2l0,0l-0.2-0.2l0.1,0.1
	L97,45.8l-0.2-0.3h-0.1h-0.1h-0.1l0.4,0.7c0.2,0.4,0.3,0.5,0.3,0.5l0,0l0,0l0,0l0,0l0,0h-0.1l-0.2-0.1l-0.3-0.1L95.5,46l-0.7-0.1
	c-0.1,0-0.1,0-0.2,0v0l0,0c0,0,0,0.1,0,0.1l0,0l0.1,0l0.6,0.2l0.8,0.3l1.2,0.7l0.4,0.5l0.4,0.6l0.2,0.2h0.1l0,0l0,0L98.6,48.4z
	 M95,50L95,50z M96.8,52.3L96.8,52.3L96.8,52.3L96.8,52.3z M95,50.1L95,50.1L95,50.1z M96.5,52.4L96.5,52.4L96.5,52.4L96.5,52.4z
	 M95.7,52.4l0.3,0.1l0.8,0.5h0.2l0.2-0.2c0-0.2,0.2-1.4,0.2-1.4h-0.1h-0.1L97,52c0,0.1-0.1,0.3-0.1,0.4l0,0l0,0v0l0,0l-0.1-0.2
	l0.1,0.1l-0.1-0.1l-0.6-0.8l-0.7-0.9l-0.2-0.3h-0.1h-0.1H95h-0.1l0,0l0.7,1.1c0.4,0.7,0.6,1,0.8,1.1l0.1,0.1l-0.2-0.1l-0.5-0.2
	L95.2,52h-0.3l0,0l0,0l0,0v0.1L95.7,52.4z M96.2,53.8c0.1,0.1,0.2,0.1,0.3,0.1c0.1-0.1,0-0.1,0-0.1l-0.2-0.1h-0.2h-0.3l0,0l0,0h0.1
	l0,0l0,0v0l0,0l0.1,0.1L96.2,53.8z M96.6,55.4L96.6,55.4z M96.6,55.5L96.6,55.5L96.6,55.5L96.6,55.5l-0.1-0.1c-0.2,0-0.2,0-0.2,0
	s0,0.1,0,0.2l0.2,0.1L96.6,55.5L96.6,55.5L96.6,55.5z M98.3,49L98.3,49l-1.1-0.6L96.1,48l-0.2-0.1c-0.1,0-0.2,0-0.3,0
	c0,0.1,0,0.1,0,0.2l1.1,0.4l1.3,0.7l0.1,0.1l0,0v-0.2l0,0L98.3,49z M96.4,61.8L96.4,61.8L96.4,61.8z M95.9,61.8L95.9,61.8L95.9,61.8
	L95.9,61.8z M96.9,63.8L96.9,63.8z M97.4,64.8L97.4,64.8L97.4,64.8z M97.4,64.8L97.4,64.8z M97.3,64L97.3,64z M96.9,63.9L96.9,63.9
	L96.9,63.9z M97.3,64L97.3,64z M96,61.8L96,61.8L96,61.8L96,61.8L96,61.8L96,61.8L96,61.8z M98.1,62.9l-0.2,0.2l-0.3,0.6l-0.2,0.3
	h-0.1l-0.1-0.2c-0.4-1.2-0.5-1.3-0.5-1.3l0.2-1c0,0,0-0.2,0-0.4l0,0c0-0.1,0-0.1,0-0.1l0,0l0,0v-0.1l0,0v0.1v-0.1l0,0l-0.2,0.3
	l-0.2,0.5c0,0.1,0,0.1-0.1,0.2l0,0L96,61l-0.6-1.2l-0.1-0.1l0,0l-0.1,0l0,0c0,0-0.1,0.1-0.1,0.1l0.3,0.8l0.3,0.9l0.1,0.3
	c0,0.1,0.1,0.1,0.1,0.2l0,0l-0.2-0.2L95,61.2l-0.6-0.1l0,0l0,0v0.1v0.1l1.1,0.6c0.2,0.2,0.5,0.4,0.7,0.6l0.7,1.3c0,0,0,0,0.1,0h-0.4
	l0.3,0.4l0.4,0.5l0.1,0.1l0,0l0,0l0,0l0,0l0,0l0,0l0,0l0,0l0,0c0,0,0,0,0-0.1l0.4-1.2C97.8,63.5,98,63,98.1,62.9L98.1,62.9
	c0,0,0-0.1-0.1-0.1l0,0L98.1,62.9z M95.3,67.4L95.3,67.4L95.3,67.4L95.3,67.4z M95.3,67.4L95.3,67.4z M94.9,63L94.9,63L94.9,63
	L94.9,63z M94.9,63l1,0.5l0.1,0.1h0.1h0.1l0,0l0.1-0.1l0,0l0,0L96,63.3l-0.8-0.4L95,62.8h-0.2l-0.1,0.1l0,0L94.9,63L94.9,63L94.9,63
	z M96,63.5L96,63.5z M96.2,63.5L96.2,63.5L96.2,63.5L96.2,63.5L96.2,63.5z M96.5,63.8L96.5,63.8L96.5,63.8L96.5,63.8z M97.3,65.1
	h0.2l0,0v-0.1c0-0.1,0-0.1-0.1-0.1h-0.1l0,0l0,0L97.3,65.1L97.3,65.1z M97.5,65.1v0.2l0,0v-0.1l0,0l0,0l0,0V65.1z M95.6,67.8
	L95.6,67.8l0.7,0.5l1.2,1l0,0l0,0l0,0c0,0,0-0.3,0-0.3l0,0l-0.9-0.8c-0.4-0.3-0.8-0.5-1.3-0.7c0,0,0,0.1,0,0.1l0,0l0,0l0,0h0.1
	L95.6,67.8z M96.2,71.6l0.3,0.2l1.3,0.9h0.1c0.1,0,0.1,0,0.2,0v-0.2c0,0,0-0.1,0-0.1l-0.8-0.6l-1.2-0.5h-0.1l0,0l0,0
	c0,0,0,0.1,0,0.1l0,0L96.2,71.6z M96.7,77.3L96.7,77.3z M96.5,77.3L96.5,77.3z M96.5,77.6l0.1,1.2v0.9c0,0,0,0.3,0,0.4l0,0l0.1,0.1
	l0,0l0,0h0.1l0.1-0.1l0.1-1L97,77.8l-0.1-0.3c0,0-0.1-0.2-0.1-0.2h-0.2l0,0L96.5,77.6z M95.4,67.5L95.4,67.5L95.4,67.5L95.4,67.5
	L95.4,67.5z M95.1,65.1l1,0.6l0.2,0.1l1,0.8h0.1c0,0,0-0.1,0-0.1L97.1,66l-0.9-0.7l-1.1-0.5H95l0,0l0,0c0,0.1,0,0.1,0,0.2l0,0.1
	L95.1,65.1z M91.5,78.9c0.1,0.1,0.2,0.3,0.3,0.4l0,0l0.3,0.4l0.2,0.2l0.4,0.6l0.8,1.2c0,0,0.1,0.1,0.1,0.1h0.1c0,0,0.1,0,0.1-0.1
	l-0.1-0.3l-0.4-0.7l-0.9-1.2C92.2,79.3,91.9,79.1,91.5,78.9C91.6,78.9,91.5,78.9,91.5,78.9L91.5,78.9L91.5,78.9z M93.5,73.3
	L93.5,73.3z M93.9,75.6L93.9,75.6h-0.1H93.9L93.9,75.6z M95.6,74.9L95.6,74.9L95.6,74.9L95.6,74.9z M94,75.6L94,75.6z M94.1,78.6
	L94.1,78.6z M94.5,79.4L94.5,79.4L94.5,79.4z M94.2,75.8L94.2,75.8z M94.3,75.8L94.3,75.8z M94.3,79.6
	C94.3,79.7,94.3,79.7,94.3,79.6L94.3,79.6L94.3,79.6L94.3,79.6L94.3,79.6L94.3,79.6L94.3,79.6z M93.4,73.3L93.4,73.3L93.4,73.3
	L93.4,73.3z M93.4,73.3L93.4,73.3L93.4,73.3L93.4,73.3L93.4,73.3L93.4,73.3z M94.2,79.7L94.1,80l0,0c0,0.5,0,0.9,0.1,1.4h0.1
	l0.1-0.1v-0.6l0-0.7v-0.3l0.1-0.2l0.1-0.1l0.1-0.1l0.1-0.3l-0.1-0.1l-0.1-0.1l-0.1-0.4c-0.2-1.4-0.2-1.6-0.2-1.6v-0.4l0.3-0.5
	l0.5-0.6l0.4-0.4c0,0,0-0.1,0.1-0.1l0,0l0,0L95.2,75l-0.2,0l-0.5,0.5c-0.1,0.1-0.2,0.2-0.3,0.3L94,74.7v-0.3c0,0,0-0.3,0-0.3
	s0.3-0.6,0.3-0.6c0.2-0.2,0.4-0.5,0.5-0.8c0,0-0.1-0.1-0.1-0.1l-0.4,0.3L94,73.3l-0.1,0.1l0,0l0,0l0,0l0,0l0,0v0.1l0,0v-0.1l0,0
	v-0.1l-0.1-0.8l-0.2-0.7l-0.1-0.5c0,0,0,0,0-0.1c0,0,0-0.1,0-0.1h-0.2h-0.1v0.6c0,0,0.1,0.6,0.1,1v0.4v0.1v-0.1L93.2,73l-0.7-0.7
	l-0.4-0.2H92l0,0c0,0,0,0.1,0,0.1l1,0.9c0.2,0.3,0.4,0.6,0.6,0.9l0.3,1.2c0,0.1,0,0.1,0,0.2l0,0l0,0l0,0l0,0h-0.1h-0.2l0.1,0.2
	l0.4,0.7V77v0.1l0.1,1.4c0,0,0,0,0,0.1l0,0l0,0v0.1l0,0l0,0l0,0l0,0l0,0l-0.2-0.2l0.1,0.1l-0.8-1.2L93,77.2l-0.8-0.9
	C92,76.1,91.8,76,91.6,76l-0.1,0.2l0.2,0.1l0.3,0.2l0.8,0.9l0.9,1.2l0,0l0.4,0.9C94.2,79.7,94.2,79.7,94.2,79.7L94.2,79.7z
	 M93.3,70.9L93.3,70.9L93.3,70.9L93.3,70.9L93.3,70.9L93.3,70.9v0.2l0,0l0,0l0,0l0,0l0,0l0,0l0,0l0,0V70.9z M92.9,74.4l-0.8-0.6l0,0
	c0,0-0.1,0-0.1,0l0,0.1l0.5,0.4l0.5,0.6l0.1,0.1h0.1l0,0l0.1-0.1L92.9,74.4z M89.4,82.7L89.4,82.7z M90.2,81.1L90.2,81.1L90.2,81.1
	L90.2,81.1z M89.4,82.7L89.4,82.7L89.4,82.7L89.4,82.7L89.4,82.7z M89.8,80.8L89.8,80.8L89.8,80.8z M89.7,80.6l-0.6-0.8
	c-0.2-0.2-0.4-0.3-0.6-0.4c0,0-0.1,0.1-0.1,0.1l0,0l0.3,0.3l0.1,0.2l0.1,0.1l0.5,0.7c0,0,0.3,0.9,0.3,0.9l0.1,1.1v0.3L89.6,83
	l-0.1-0.3l0,0l0,0l0,0h-0.1h-0.1l0,0l0.1,0.3l0.1,0.1l0.3,1.1l-0.1,1.1v0.2c0,0,0,0.2,0,0.3l0,0c0,0.1,0.1,0.2,0.2,0.2l0.2-0.2v-0.6
	l0.1-0.8c0.2-0.3,0.5-0.5,0.7-0.8c0.4-0.3,0.6-0.4,0.7-0.4c0,0,0.1,0,0.1-0.1l0,0l0,0l0,0v-0.1h-0.2l-0.9,0.5
	c-0.1,0-0.1,0.1-0.2,0.2l0,0l0,0l0,0h-0.1v-1V82c0.1-0.2,0.2-0.5,0.4-0.7l0.4-0.6l0.2-0.2v-0.1l0.1-0.1l0,0l0,0l0,0l0,0l0,0h-0.2
	l-0.3,0.1l-0.3,0.2L90.2,81h-0.1l0,0v-0.1c0,0,0-0.3,0-0.4v-1.1c0-0.3,0-0.7-0.1-1c-0.1,0-0.1,0-0.2,0l-0.1,0.5l-0.1,0.9v0.6
	C89.7,80.4,89.7,80.5,89.7,80.6c0.1,0.1,0.1,0.1,0.1,0.1l0,0L89.7,80.6z M90,78.5L90,78.5L90,78.5L90,78.5L90,78.5z M90,78.4
	L90,78.4L90,78.4L90,78.4L90,78.4L90,78.4z M89.3,82.7L89.3,82.7z M88.4,81.3h-0.1h-0.2l0.1,0.1l0.1,0.1l0.2,0.2l0.6,0.7l0.2,0.2
	l0.1,0.1l0,0h0.1l0,0l0.1-0.1L89.1,82L88.4,81.3L88.4,81.3L88.4,81.3z M88.5,84.3l-0.8-1h-0.1h-0.2l0.4,0.6l0.3,0.5l0.5,0.8l0.7,1.4
	l0.1,0.1l0,0v-0.1v-0.2L89,85.6c-0.7-1.3-0.7-1.4-0.7-1.4l0,0L88.5,84.3z M87.2,87L87.2,87l0.1,0.2L87.2,87z M87.2,87L87.2,87z
	 M87.3,86.9c0,0-0.1,0-0.1,0l0.5,1l0.6,1.3l0.1,0.1l0,0l0,0v-0.1l0.2-0.2l-0.4-1c-0.2-0.4-0.7-1.1-0.7-1.1L87.3,86.9z M87.7,95.6
	L87.7,95.6L87.7,95.6L87.7,95.6z M88.4,93.4L88.4,93.4z M87.7,95.6L87.7,95.6l0.2-0.1c0.2-0.3,0.4-0.6,0.5-0.9l0.1-0.6l0.1-0.3
	c0,0,0,0,0-0.1l0,0l0,0l0,0l0,0c0,0-0.1-0.1-0.1-0.1l-0.1,0.1l-0.1,0.2L88,94.5l-0.2,0.7L87.7,95.6C87.7,95.6,87.7,95.6,87.7,95.6
	L87.7,95.6L87.7,95.6z M91.4,90.3L91.4,90.3z M91.4,90.3L91.4,90.3z M91.4,90.3h0.3c0,0,0.1-0.1,0.1-0.1c0,0,0,0,0-0.1l0,0l0,0h-0.2
	l0,0h0h-0.1L91.4,90.3L91.4,90.3L91.4,90.3L91.4,90.3L91.4,90.3L91.4,90.3z M86.7,86.5L86.7,86.5z M85.3,86.8L85.3,86.8L85.3,86.8z
	 M86,83.5L86,83.5z M85,86.5L85,86.5L85,86.5L85,86.5z M84.3,88.9L84.3,88.9L84.3,88.9z M85,86.6L85,86.6L85,86.6L85,86.6z M85,86.6
	L85,86.6L85,86.6z M85.1,86.5L85.1,86.5z M82,88.3L82,88.3l0.4,1.3l0.4,1.5l0.1,1.4v0.2l0,0h0.1l0,0l0.4-0.1l0.4-1l0.4-1l0.2-0.5
	l0.3-0.3l0.9-0.4c0.3,0,0.6-0.1,0.9-0.3c0,0,0-0.1,0-0.1h-0.5L85.5,89L85.3,89l-0.5,0.2l-0.1,0.1l0,0c0-0.1,0-0.1,0-0.2v0.2l0,0
	c0,0,0,0,0-0.1l0,0v-0.3c0,0,0,0,0,0.1v-0.1l0.4-1.4c0.2-0.2,0.4-0.4,0.6-0.6l0.7-0.4l0.2-0.1h0.1l0.1-0.1l0,0l0,0l0,0l-0.4-0.1
	l-0.9,0.4h-0.1l0,0v-0.1l0.1-0.3l0.2-0.6l0.2-0.7v-0.2l0.1-0.4l0.1-0.2l0.1-0.1l0,0l0.1-0.4v-0.1v-0.2l-0.1-0.1l0,0l0,0l0,0l0,0l0,0
	l0,0L86,83.5v0.1l-0.1,0.3l-0.4,1.2c-0.3,0.9-0.4,1.3-0.5,1.4L85,86l-0.2-0.6c-0.1-0.2-0.3-0.3-0.4-0.4C84.2,85,84.2,85,84.2,85
	l0.1,0.3v0.1v0.1l0.1,0.2l0.2,0.6l0.1,1v0.2c-0.2,1.1-0.3,1.3-0.3,1.4l0,0h-0.1l0,0c0-0.1-0.1-0.2-0.2-0.3c-0.1,0-0.1,0-0.1,0.1v0.8
	v0.2l-0.3,0.7v0.1l-0.4,0.9c-0.1,0.2-0.2,0.4-0.2,0.5l0,0V92l0,0c0,0,0-0.1,0-0.2c0,0,0,0.1,0,0.1v-0.2L83,91l-0.1-0.9V90l-0.5-1.4
	L82,88.3L82,88.3L82,88.3L82,88.3L82,88.3L82,88.3L82,88.3L82,88.3z M83.4,86.5L83.4,86.5L83.4,86.5z M84.1,88L84.1,88l-0.2-1
	c-0.1-0.2-0.4-0.5-0.4-0.6h-0.1c0,0,0,0.1,0,0.1l0.1,0.1l0.5,1.3h0.1l0,0l0,0l0,0H84.1L84.1,88L84.1,88z M80.4,91.1l0.2,0.8l0.3,1.3
	c0,0.1,0.1,0.2,0.2,0.2l0.1-0.2c-0.1-0.4-0.1-0.7-0.2-1.1l-0.2-0.6l-0.2-0.5h-0.1l0,0h-0.2C80.4,90.9,80.4,91,80.4,91.1L80.4,91.1z
	 M74.1,103.1l0.4-0.2l0.2-0.1l0.8-0.4l0.6-0.1h0.1l1.3,0.1l0.8,0.2h0.2h0.2h0.1l0,0l0,0l0,0l-0.7-0.3l-1.1-0.2h-0.2
	c-0.1,0-0.1,0-0.2,0c0,0,0-0.1,0-0.1l1-0.5l0.3-0.2l1.2-0.5h0.1l0.4-0.2l0.8-0.3l0.8,0.1l1,0.4l0.9,0.5l0.1-0.1l-0.2-0.3l-0.6-0.4
	l-1.4-0.4c0,0,0,0,0-0.1l0,0l1.4-0.7l0.6-0.2l0.8-0.4l0.5-0.1l0.9,0.2l1,0.4l0.7,0.8v-0.1c0,0,0-0.1,0-0.1l-0.2-0.4L86,98.8
	c0,0-1.4-0.6-1.4-0.6c0,0,0-0.1,0-0.1l0.9-0.5l0.3-0.2l0.9-0.5l0.4-0.2c0.1,0,1,0.2,1.2,0.2l1,0.5v-0.1c0-0.1,0-0.1,0-0.2L89,96.9
	l-0.9-0.3l-0.4-0.2c0,0,0,0-0.1-0.1l0.3-0.3c0.4-0.3,1.2-0.8,1.3-0.8c0.3,0,0.7-0.1,1-0.1h0.1l0.7,0.1h0.1h0.3l0.2-0.1L90.9,95
	c0,0-1-0.2-1-0.1c0,0,0,0,0-0.1l1-0.7l1.2-0.9l1.2-0.9l0.3-0.3l-0.1-0.1l-1,0.7l-0.3,0.2l-1,0.7l-1.3,0.9h0l0.2-0.4v-0.1l0.3-0.9
	v-0.5h-0.1l-0.1,0.2L90,93.4l-0.5,0.9l-0.7,0.8l-1,0.8c-0.1,0-0.1,0-0.1,0.1v-0.2l0.1-0.3h-0.1l-0.7,1l-0.6,0.3L86,96.9l-1.3,0.7h0
	L85,97l0.3-0.5l0.5-0.9l0.4-1.2l0.1-0.7h-0.1L86,94l-0.2,0.6l-0.3,0.8l-0.7,1.4L83.9,98l-0.4,0.3l-0.7,0.3l-0.1,0.1L82.1,99
	c0,0-1.3,0.7-1.2,0.7c0,0,0,0-0.1,0l0.7-0.8l0.8-1.3l0.6-1.3l0.3-1.3h-0.1l-0.6,1.3l-0.8,1.4l-0.9,1.3l-1,1.1l-0.8,0.4l-1.4,0.7
	c0,0-1.3,0.6-1.3,0.6c0,0,0,0-0.1,0l0.6-0.6L77,101l0.9-1.3l0.5-1.2l0.3-1.1c0,0,0.1-0.5,0.1-0.7c0,0,0-0.1,0-0.1c0,0-0.1,0-0.1,0
	l-0.3,0.9l-0.6,1.4l-0.8,1.3l-1,1.2c-0.3,0.3-0.6,0.6-1,0.8l-1.4,0.6c0,0-0.5,0.1-0.7,0.2c0,0,0-0.1,0-0.1l0,0
	c0.1-0.2,0.3-0.9,0.5-1.4s0.4-0.9,0.7-1.4l0,0c0.2-0.4,0.4-0.8,0.7-1.2s0.6-1,0.8-1.3s0.4-0.6,0.7-0.9l0,0c0.1-0.1,0.1-0.1,0.2-0.2
	l0,0v-0.3c0-0.2,0-0.7,0.1-0.9c0-0.3,0.1-0.7,0.2-1c0.1-0.4,0.3-0.8,0.4-1.1c0.2-0.4,0.5-1,0.8-1.4s0.6-0.8,0.9-1.2s0.4-0.6,0.7-0.8
	l0,0l0.3-0.4l0.3-0.4l0.6-0.8l0.7-0.9l0,0l0.2-0.3l0.5-0.7l0,0l0.4-0.5l0.3-0.3l0,0c0.2-0.3,0.4-0.6,0.7-0.9s0.3-0.4,0.5-0.6
	s0.3-0.4,0.5-0.6s0.4-0.6,0.6-0.9l0,0l0.3-0.4c0.1-0.1,0.2-0.3,0.3-0.4l0,0c0.2-0.3,0.5-0.6,0.6-0.9s0.2-0.3,0.3-0.5l0.1-0.2
	c0.1-0.2,0.2-0.4,0.3-0.6l0.4-0.8L88,78l0.2-0.4c0.1-0.2,0.2-0.3,0.3-0.5l0,0l0.4-0.8c0.1-0.1,0.1-0.3,0.2-0.4l0,0
	c0.2-0.3,0.3-0.6,0.4-0.8c0-0.1,0.1-0.1,0.2-0.2l0.2,0.3l0,0l0,0l0.1-0.1l0.2-0.6l0,0c0.1-0.3,0.2-0.6,0.2-0.9
	c0.1-0.5,0.3-1,0.4-1.5s0.3-0.8,0.4-1.2l0.1-0.2l0.3-0.7l0,0l0.2-0.7c0.1-0.2,0.2-0.5,0.2-0.7l0,0l0.2-0.7c0-0.1,0.1-0.1,0.1-0.2
	c0,0,0.4,0.8,0.6,1.1s0.9,1.3,0.9,1.3V70l0,0c0-0.2-0.1-0.5-0.1-0.8s-0.1-0.5-0.1-0.7s0-0.3-0.1-0.4c-0.1-0.3-0.1-0.7-0.2-1
	s-0.1-0.9-0.1-1.3v-0.2c0-0.4-0.1-0.9-0.1-1.3c0-0.1,0-0.2,0-0.3s0-0.4,0-0.7l0,0c0-0.2,0-0.3,0-0.5v-0.7c0-0.2,0-0.4,0-0.6
	c0-0.4,0.1-0.8,0.1-1.2l0,0c0-0.1,0-0.2,0-0.3c0-0.3,0.1-0.6,0.1-0.9l0,0c0-0.2,0-0.4,0.1-0.6s0-0.5,0.1-0.8s0.1-0.7,0.1-0.8
	l0.1-0.1l0.5,0.5l0.4,0.4l0.3,0.2h0.1c0,0-0.1-0.5-0.1-0.7s-0.1-0.5-0.2-0.8l0,0c-0.1-0.2-0.1-0.5-0.2-0.7c-0.1-0.5-0.2-1-0.3-1.5
	c0-0.1,0-0.1,0-0.2c-0.1-0.4-0.2-0.9-0.2-1.3s-0.1-0.7-0.1-1c0-0.2,0-0.3-0.1-0.5l-0.1-0.6l0,0c0-0.3-0.1-0.7-0.1-1
	c0-0.1,0-0.3,0-0.4c-0.1-0.5-0.1-0.9-0.1-1.1l0,0c0-0.1,0-0.1,0-0.2l0.2,0.1l0.1-0.1l0,0c0,0-0.2-0.5-0.3-0.8
	c-0.2-0.5-0.3-1-0.5-1.5s-0.3-1-0.4-1.5s-0.2-1-0.3-1.5c0-0.2-0.1-0.5-0.1-0.7c0-0.2-0.1-0.5-0.2-0.7c-0.1-0.2-0.2-0.3-0.4-0.5
	c-0.2-0.2-0.4-0.4-0.4-0.6c-0.3-0.4-0.5-0.9-0.8-1.3c-0.2-0.4-0.4-1-0.6-1.4s-0.3-1-0.5-1.4s-0.3-1-0.4-1.5s-0.2-0.9-0.3-1.3
	c0-0.1,0-0.2,0-0.2c-0.1-0.5-0.2-1-0.3-1.5s-0.2-1.3-0.2-1.5V30l1.1,0.6l0.8,0.5l0,0l0.5,0.3l0.5,0.3c0.3,0.2,0.6,0.3,0.9,0.5
	s0.9,0.6,1.3,0.9s0.9,0.7,1.2,1s1.1,1.1,1.1,1.1l0.2-0.1l0.2-0.7l0.1-0.1c0,0,0.2,0.2,0.3,0.3l0.5,0.6l0,0c0.2,0.2,0.3,0.4,0.5,0.6
	l0.4,0.5l0,0l0.5,0.6c0.3,0.4,0.7,0.9,0.9,1.2s0.6,0.9,0.8,1.3s0.5,1,0.7,1.4s0.4,1,0.5,1.5s0.4,1.5,0.4,1.5l0.2-0.1
	c0.2-0.2,0.9-1.3,0.9-1.3l0,0h0.1c0,0,0.2,0.6,0.2,0.9l0.5,1.5c0.1,0.2,0.1,0.4,0.2,0.6s0.2,0.6,0.3,0.9c0.2,0.5,0.3,1,0.4,1.5
	s0.2,1.1,0.3,1.5c0,0.2,0.1,0.6,0.1,0.9l0,0c0,0.2,0,0.4,0,0.5v0.3c0,0.2,0,0.5,0,0.8s0,0.4,0,0.6c0,0.4-0.1,1.1-0.2,1.5
	s-0.3,1.4-0.3,1.4h0.1c0,0,0.6-0.5,0.8-0.8s0.6-0.6,0.8-0.9l0,0l0.2-0.3h0.1l0.2,1.1c0,0.1,0,0.2,0,0.2c0,0.4,0.1,0.9,0.2,1.3
	c0,0.2,0.1,0.5,0.1,0.7s0.1,0.5,0.1,0.8v0.1c0.1,0.5,0.1,1,0.2,1.4s0,0.7,0,1.2c0,0.1,0,0.3,0,0.4c0,0.4,0,0.8-0.1,1.2
	s-0.1,0.7-0.1,1c0,0.2-0.1,0.3-0.1,0.5v0v0.1v0.2c-0.1,0.4-0.2,0.9-0.3,1.2s-0.4,1-0.5,1.4s-0.7,1.3-0.7,1.3l0,0l0.2-0.1l0,0
	l0.8-0.4c0.1-0.1,0.3-0.1,0.4-0.2c0,0,0,0.6-0.1,0.9s-0.1,0.4-0.1,0.7s-0.1,0.4-0.1,0.7s-0.1,0.5-0.1,0.7s0,0.4-0.1,0.7
	c0,0.1,0,0.1,0,0.2l0,0c0,0.4-0.1,0.7-0.2,1.1s-0.2,1.1-0.3,1.5s-0.3,1.1-0.4,1.5s-0.2,0.6-0.4,0.9l-0.2,0.5l0,0l-0.2,0.5l0,0
	l-0.5,0.9c0,0.1-0.1,0.2-0.1,0.3c0,0,0.6-0.2,0.8-0.2h0.2c0,0-0.3,0.7-0.4,1.1s-0.2,0.4-0.3,0.6l0,0c-0.1,0.3-0.2,0.5-0.3,0.8
	s-0.2,0.5-0.3,0.7l0,0c-0.1,0.2-0.2,0.5-0.3,0.7c-0.2,0.4-0.4,1-0.6,1.3s-0.4,0.9-0.7,1.3s-0.3,0.5-0.5,0.8l-0.3,0.5v0.1v0.1v0.1
	l0,0c-0.2,0.3-0.6,0.8-0.9,1.1s-0.8,0.8-1.1,1.1c-0.4,0.4-0.8,0.7-1.2,1c-0.2,0.2-0.6,0.4-1,0.6l-0.3,0.2c-0.3,0.2-0.6,0.4-0.9,0.5
	l-0.5,0.3l0,0l-0.1,0.1h0.6l0,0c0.1,0,0.2,0,0.2,0L95.1,91l-0.4,0.6l0,0l-0.5,0.7l-0.2,0.2c-0.2,0.3-0.5,0.7-0.7,1s-0.2,0.4-0.4,0.6
	s-0.3,0.5-0.5,0.7c-0.3,0.4-0.6,0.8-0.9,1.2s-0.7,0.9-1,1.2s-0.7,0.8-1.1,1.1s-0.7,0.7-1,1s-0.9,0.7-1.2,1s-0.9,0.6-1.3,0.8
	s-1,0.5-1.4,0.7s-0.9,0.4-1.3,0.5h-0.1c-0.5,0.2-0.9,0.3-1.4,0.5h-0.1h-0.1h-0.1l-0.5,0.2l-0.9,0.3c-0.5,0.1-0.9,0.2-1.4,0.3
	s-1.1,0.2-1.5,0.2s-1.1,0.1-1.5,0.1l0,0c-0.4,0-1-0.1-1.5-0.1s-1.2-0.2-1.2-0.2v-0.1L74.1,103.1z"/>
<path class="st4" d="M29.8,91.9L29.8,91.9L29.8,91.9L29.8,91.9L29.8,91.9L29.8,91.9 M32.5,90.2L32.5,90.2z M28.1,87.9L28.1,87.9z
	 M29.2,87.8L29.2,87.8z M22.9,81.5L22.9,81.5L22.9,81.5z M26.5,84.8l0.1,0.3l0,0l0,0L26.5,84.8z M26.5,85.6L26.5,85.6L26.5,85.6z
	 M26.5,85.6L26.5,85.6z M26.5,85.6L26.5,85.6L26.5,85.6L26.5,85.6z M26.5,85.1L26.5,85.1L26.5,85.1L26.5,85.1L26.5,85.1L26.5,85.1
	L26.5,85.1L26.5,85.1z M26.2,85.3L26.2,85.3L26.2,85.3z M24.3,83.2L24.3,83.2z M24.4,83.2L24.4,83.2L24.4,83.2L24.4,83.2z
	 M24.4,83.2L24.4,83.2L24.4,83.2z M24.3,83.7L24.3,83.7L24.3,83.7z M23.2,81.3l0.3,0.8C23.4,81.8,23.3,81.6,23.2,81.3z M22.9,81.5
	L22.9,81.5L22.9,81.5L22.9,81.5z M22.9,81.6L22.9,81.6L22.9,81.6z M32.7,89.9L32.7,89.9L32.7,89.9L32.7,89.9L32.7,89.9z M32.5,90.3
	L32.5,90.3L32.5,90.3L32.5,90.3L32.5,90.3L32.5,90.3z M29.3,87.8L29.3,87.8z M29.4,87.4L29.4,87.4L29.4,87.4L29.4,87.4z M34.2,91.1
	L34.2,91.1c0-0.1,0-0.1-0.1-0.2l-0.7-0.7c0,0-0.1-0.1-0.1-0.1l-0.2-0.3l-0.3-0.4l-0.1-0.2l-0.4-1l-0.3-0.8L32,87.3l0-0.4l-0.1-0.3
	L31.8,86v-0.1c0,0-0.1,0-0.1,0c-0.1,0.2-0.1,0.4-0.1,0.5l0.1,1.2l0.4,1.1l0.3,0.6l0.3,0.5V90l-0.1-0.1l-0.1-0.1l-1-0.7l-0.3-0.2
	L31,88.7l-0.7-0.6c-0.2-0.4-0.5-0.7-0.6-1.1l-0.6-1.4l-0.4-1.2l0-0.2l-0.1-0.5h-0.2c-0.1,0.3-0.1,0.6,0,0.8l0.4,1.3l0.3,0.8v0.1
	l0.1,0.2l0.1,0.3v0.1l-0.1-0.1l-1-0.8l-0.2-0.2l-0.8-0.7c-0.2-0.4-0.4-0.8-0.5-1.3l-0.3-1.2l-0.1-0.2L26.2,82H26v0.1v0.2v0.4v0.2
	l0.3,1.3l0.3,0.8l0,0C26.5,85,26,84.7,26,84.7l-0.3-0.3L25,83.7l-0.3-0.5L24.6,83l0,0l0,0l0,0l0,0l0,0l0,0l-0.1,0.1c0,0-0.1,0-0.1,0
	l0,0l-0.8-1l-0.4-1L23,79.9c0,0-0.1,0-0.1,0c-0.1,0.1-0.2,0.3-0.2,0.5l0.1,0.6v0.2v0.2v0.2l0,0c0,0-0.2-0.2-1-1l-1.1-1.1l-0.6-0.6
	l0,0l0,0v0.1l0,0V79v0.1c0,0,1,1.2,1,1.2l0,0l0.9,1l0.1,0.1l0.5,0.5l-0.1-0.1l0.3,0.3l0,0l-0.1-0.1c0,0,0.1,0.1,0.1,0.1h-0.9
	l-0.3,0.1l-0.2,0.1l0,0h0.1h0.1h1.2l0.4,0.1c0.4,0.3,0.8,0.7,1.1,1.1v0.1l0,0l0,0c0,0,0,0,0,0.1l0,0l0,0l0,0c0,0-0.1,0-0.1,0
	l-1.1,0.2L22.8,84c0,0,0,0,0,0.2H23l0.4-0.1l0.4,0H24h0.8l0.8,0.7l0.2,0.3l0.5,0.5l0.1,0.1l0,0l0.1,0.1l0,0v-0.1l0,0l0,0h-0.1h-0.1
	L25.2,86l-0.6,0.4l0,0.2v0.2h0.1l0,0l0.6-0.4c0.3-0.1,0.7-0.2,1-0.3c0.3,0,0.6,0.1,0.9,0.1c0.4,0.3,0.7,0.5,1.1,0.8l0.1,0.1l0.6,0.6
	l-0.2-0.2l0.4,0.3l0,0L29,87.7c0.1,0.1,0.1,0.1,0.2,0.2l0,0l0,0l0,0h-0.3h-0.3L28,88l-0.1,0l-0.5,0.3l-0.2,0.3h0.2l1-0.4l0.7-0.1
	c0.3,0,0.5,0.1,0.8,0.1l0.6,0.4l0.6,0.4l0.5,0.3l0.8,0.6l0.2,0.2c0,0,0.1,0.1,0.1,0.1l0,0h-0.1h-0.4c0,0,0,0.1,0,0.1
	c0.4,0.2,0.8,0.3,1.3,0.4l0.3,0.2h0.1l0.1,0.1H34L34.2,91.1L34.2,91.1L34.2,91.1z M24.4,82l-0.1-0.8h-0.2c0,0,0,0.1,0,0.1v0.6
	l0.1,0.3v0.1l0.1,0.4c0,0,0.1,0,0.1,0c0,0,0,0,0-0.4C24.5,82.3,24.5,82.3,24.4,82z M24.5,82.8L24.5,82.8L24.5,82.8L24.5,82.8
	L24.5,82.8L24.5,82.8L24.5,82.8L24.5,82.8L24.5,82.8z M19,73.7L19,73.7z M24.2,78.2L24.2,78.2z M24.3,78.2L24.3,78.2z M24.2,77.8
	L24.2,77.8z M24,78.5L24,78.5z M24,78.5L24,78.5z M24,78.5L24,78.5z M24.3,78.2L24.3,78.2L24.3,78.2L24.3,78.2z M24.2,78.2
	L24.2,78.2z M24.2,78.2L24.2,78.2z M20.5,73.5L20.5,73.5L20.5,73.5L20.5,73.5L20.5,73.5L20.5,73.5z M19.5,71.6L19.5,71.6z
	 M19.6,71.2L19.6,71.2z M20.6,73.5L20.6,73.5L20.6,73.5z M20.7,73.1L20.7,73.1z M20.7,73.1L20.7,73.1z M20.9,73.1L20.9,73.1z
	 M21.9,75.5L21.9,75.5L21.9,75.5z M22,75.8L22,75.8L22,75.8z M22,75.8L22,75.8z M18,68.5L18,68.5z M20.2,76.4h0.1l0.1-0.1l0.4-0.1
	h0.4h0.2l0.8,0.2l0.3,0.1l0,0c0,0,0.1,0.1,0.9,1.2l0.6,0.8l-0.1-0.2l0.2,0.2l0,0v-0.1v0.1l0,0H24l-1-0.1h-0.2l-0.1,0.1l-0.1,0.1l0,0
	l0.1,0.1l1,0.2l0.7,0.3l0.1,0.1l0.4,0.4l0,0l0,0l0,0l0,0l0,0v-0.1c0-0.1,0-0.1,0-0.1l-0.1-0.2l-0.2-0.4l0,0l-0.3-1.4
	c0,0,0-0.1-0.1-1.1v-0.4v-1c0,0-0.1,0-0.1,0C24.1,75,24,75.2,24,75.4v0.2v0.9l0.1,1.3l0.1,0.4l0,0c0-0.1-0.1-0.2-0.1-0.3l-0.1-0.2
	L23.5,77l-0.2-0.2l-0.5-0.7c-0.1-0.4-0.2-0.9-0.2-1.3v-0.2v-0.9v-0.3l0.1-0.9c0,0,0,0-0.1-0.1c-0.1,0.1-0.2,0.3-0.3,0.5
	c0,0,0,0-0.1,1.5l0.1,0.8c0-0.1,0-0.1,0-0.2c0,0.2,0,0.4,0,0.5l0,0c0,0,0-0.1,0-0.2s0,0,0,0c0,0,0,0.1,0,0.2l0,0l0,0l-0.9-1.2
	L21,73.6l0-0.4v-0.1c0,0,0-0.1,0-0.1h-0.2h-0.1V73c-0.2-0.4-0.3-0.7-0.5-1c-0.1-0.4-0.2-0.7-0.2-1.1l0.1-1.2h0H20l-0.1,0.1
	c0,0-0.2,1-0.2,1v0.3c-0.2-0.4-0.4-0.8-0.7-1.1l-0.4-0.8l-0.3-0.6L18,68.4v-0.1l0-0.2h-0.2c0,0.1,0,0.1,0,0.2l0.1,0.1l0.5,1.1l0.5,1
	l0,0c0,0,0.5,0.9,0.6,1.1l-0.1-0.2l0.1,0.2l0,0l0,0l0,0h-0.1h-0.1l-0.5-0.1h-0.4l-0.1,0.1c0.3,0.2,0.6,0.3,1,0.4l0.6,0.3l0,0
	c0,0,0,0.1,0.5,1l0.1,0.2l0,0h-0.1l-1.1-0.1l-0.2,0.1L19,73.6h0.1h0.1h0.1h0.3h0.6l0.8,0.5l0,0c0,0,0,0.1,0.7,1.1l0.1,0.1l0.2,0.4
	v0.1h-0.5h-0.8L20.2,76l-0.1,0.2L20,76.3h0L20.2,76.4z M20.1,78.8L20.1,78.8z M21.1,71.2L21.1,71.2z M21.1,71.1
	C21.1,71.2,21.1,71.2,21.1,71.1v0.2l-0.1,0.5v0.3v0.2l0,0c0,0,0,0,0,0.1v0.5H21c0,0,0,0,0-0.1v-0.4c0-0.1,0-0.1,0-0.2l0.1-0.4v-0.1
	l0,0C21.1,71.7,21.1,71.6,21.1,71.1C21.1,71.1,21,71.1,21.1,71.1L21.1,71.1z M17.6,60.7L17.6,60.7z M17.4,58.5L17.4,58.5z M18,55.3
	L18,55.3z M18.9,58.5L18.9,58.5L18.9,58.5z M19.4,60.8L19.4,60.8z M19.6,60.4L19.6,60.4L19.6,60.4z M20.5,63.7L20.5,63.7L20.5,63.7
	L20.5,63.7z M21.3,61L21.3,61z M21.3,66.9L21.3,66.9L21.3,66.9z M21.2,66.7L21.2,66.7L21.2,66.7z M21.2,66.9v-0.1V66.9L21.2,66.9z
	 M19,61.1L19,61.1z M18.8,58.6L18.8,58.6L18.8,58.6L18.8,58.6L18.8,58.6z M18.8,58.5L18.8,58.5L18.8,58.5L18.8,58.5z M19,61.1
	L19,61.1z M19,61.1L19,61.1z M19.3,60.8L19.3,60.8L19.3,60.8z M20.1,59L20.1,59z M20.1,59L20.1,59z M19.6,60.4L19.6,60.4L19.6,60.4
	L19.6,60.4z M20,63.8L20,63.8L20,63.8L20,63.8L20,63.8z M20,63.8L20,63.8z M20,63.8L20,63.8L20,63.8L20,63.8z M20,63.8L20,63.8
	L20,63.8L20,63.8L20,63.8z M20,63.7L20,63.7L20,63.7L20,63.7z M21.7,66L21.7,66z M21.6,66.8L21.6,66.8z M17.5,58.6L17.5,58.6z
	 M17.9,63.8l0.7-0.1l0.9,0.3l0.9,0.5l0,0c0,0,0,0.1,0.6,1.3l0.4,1.1l0,0l0,0v-0.1l0,0l0,0.1l0,0l0,0l0,0v-0.1l0,0l0,0V67l0,0l0,0
	l0,0l0,0l0,0L21,66.8l-0.7-0.3l-0.8-0.1h-0.1l-0.2,0.1l0,0l0,0l0,0h0.1l0,0l1.2,0.4c0.3,0.2,0.6,0.4,0.9,0.6l0.2,0.4l0.3,0.6
	l0.3,0.8v0.1l0.2,0.5l0.3,0.5l0.2,0.1l0.1,0.1l0,0l0,0v-0.4l-0.4-0.8l-0.3-0.6l-0.2-0.4l-0.1-0.3L22,67.8v-0.5v-0.8l0.2-1.6l0.2-0.9
	l0.2-0.6l0.1-0.3l0,0l0,0h-0.1l0,0h-0.1c-0.2,0.3-0.3,0.5-0.4,0.8l-0.3,1.5c0,0,0,0-0.1,1l0,0l0,0c0,0,0,0.1,0,0.1l0,0.2l0,0v0.1
	l0,0v-0.1v0.1c0-0.1,0-0.1-0.1-0.2l-0.1-0.3l-0.2-0.4l-0.1-0.4l-0.2-0.5l-0.3-0.6c0,0,0,0,0.1-0.1l0.1-0.2l0.1-0.2l0.2-0.8l0.3-1.5
	V61h-0.1l-0.1,0.1l0,0L21,61.5l-0.1,0.2L20.8,62l-0.2,0.8c0,0-0.1,0.9-0.1,1l0,0l-0.5-1.3l-0.3-0.9l0.1-0.9l0.1-0.2l0.1-0.2l0.3-0.8
	l0.2-0.5l-0.1-0.1c-0.1,0.1-0.1,0.1-0.2,0.2l-0.2,0.3l-0.2,0.7c0,0,0,0.1,0,0.1v0.1l0,0l0,0v-0.1c0,0,0,0.1,0,0.1l0,0v0.1v0.1
	l-0.1,0.2l0,0c0-0.1-0.1-0.5-0.1-0.8l-0.1-0.5l0.1-1l0.5-1.2l-0.1-0.1c-0.1,0.1-0.2,0.2-0.3,0.3L19,58.3l-0.1,0.4v-0.2l-0.4-1.2
	l-0.2-0.8l-0.2-0.7L18,55.3c0,0-0.1,0-0.1,0l-0.1,0.1l0,0l0,0l0,0c0,0,0,0.1,0,0.1L18,57l0.4,1.5l0.1,0.4l0,0c0,0,0,0,0-0.1v0.1l0,0
	l0,0l0,0l-0.3-0.2l-0.5-0.2h-0.3h-0.1c0,0,0,0.1,0,0.1c0,0.1,0.1,0.1,0.1,0.2l0.1,0.1l0,0l0.9,0.6l0.3,0.4c0,0,0.3,1.2,0.3,1.2
	L19,61.1c0,0-0.1-0.1-0.1-0.1l-0.2-0.1L18,60.7h-0.1h-0.3l0,0c0,0.1,0,0.1,0,0.2l0.2,0.1l0.5,0.1c0.3,0.2,0.6,0.4,0.9,0.6
	c0,0.1,0.4,1,0.5,1.4l0.2,0.7c0,0-0.1,0-0.1,0l-0.5-0.1l-0.7-0.2l-0.6,0l-0.2,0.2l-0.1,0.1l0,0L17.9,63.8L17.9,63.8z M17.7,63.8
	L17.7,63.8z M20.2,58.8L20.2,58.8L20.2,58.8L20.2,58.8L20.2,58.8L20.2,58.8L20.2,58.8L20.2,58.8z M22.6,62.8L22.6,62.8L22.6,62.8
	L22.6,62.8L22.6,62.8L22.6,62.8L22.6,62.8L22.6,62.8L22.6,62.8L22.6,62.8L22.6,62.8z M24.4,66.2L24.4,66.2z M24.4,66.2L24.4,66.2z
	 M23.8,67.1L23.8,67.1c-0.2,0.5-0.3,1-0.5,1.5c0,0,0,0-0.1,1.1v0.7l0.1,0.3h0.1l0,0l0,0l0,0c0-0.1,0-0.2,0-0.2l0.1-1.2l0.4-1.5
	c0,0,0-0.1,0.4-0.9l0.2-0.5l-0.1-0.1h-0.1C24.3,66.2,23.9,66.8,23.8,67.1L23.8,67.1z M21.8,49.5L21.8,49.5L21.8,49.5L21.8,49.5z
	 M21.8,49.4L21.8,49.4L21.8,49.4L21.8,49.4L21.8,49.4L21.8,49.4C21.8,49.4,21.8,49.4,21.8,49.4z M23.5,59.1c0,0.1,0,0.2-0.1,0.3v0.1
	L23.5,59.1z M19.4,52.2L19.4,52.2z M21.5,52.6L21.5,52.6L21.5,52.6L21.5,52.6c0,0,0.1,0,0.1,0L21.5,52.6z M21.5,52.6L21.5,52.6
	L21.5,52.6z M20.3,49.4L20.3,49.4z M21,47.7L21,47.7L21,47.7L21,47.7L21,47.7z M21.4,47.6L21.4,47.6L21.4,47.6L21.4,47.6L21.4,47.6z
	 M21.1,47.8L21.1,47.8L21.1,47.8z M21.5,49.7L21.5,49.7L21.5,49.7z M22.5,55.8L22.5,55.8z M23.4,59.5L23.4,59.5L23.4,59.5L23.4,59.5
	z M22.2,55.9L22.2,55.9z M21.5,52.7L21.5,52.7C21.5,52.7,21.5,52.7,21.5,52.7c0-0.1,0.1,0,0.1,0L21.5,52.7z M21.5,52.7L21.5,52.7
	L21.5,52.7z M22.5,55.7L22.5,55.7L22.5,55.7z M22.2,55.8V56l0,0c0,0,0.1-0.1,0.1-0.1L22.2,55.8z M21.7,55.8L21.7,55.8L21.7,55.8
	L21.7,55.8z M19.3,52.2L19.3,52.2L19.3,52.2l0.4,0.1l0,0l0.6,0.1l0.7,0.3c0.3,0.2,0.5,0.5,0.7,0.7l0.3,0.8l0.1,0.8l0.2,1l0,0
	L22,55.7l-0.6-0.4l-0.6-0.2l0,0l0,0v0.1c0.1,0.1,0.1,0.1,0.2,0.1l0.7,0.3l0.8,0.7l0.2,0.6l0.1,0.4v0.2l0.1,0.5l0.2,0.9l0.1,0.4l0,0
	c0,0,0-0.1,0-0.1v0.1l0,0l-0.1-0.1l-0.1-0.1l0,0l0,0l0,0c0,0,0,0,0,0.1v0.1l0.3,0.5l0.4,0.5l0,0l0.1-0.1l0.1,0c0,0,0,0,0.1-1.4
	l0.3-1.1l0.6-1.2l0.1-0.1l0.5-0.8c0,0-0.1,0-0.1-0.1l0,0l0,0l0,0l0,0l-0.1,0.1l-0.6,0.6l-0.5,1l-0.4,1l-0.1,0.7v-0.2l-0.1,0.6h-0.2
	l0,0l0,0v-0.1c0-0.2-0.1-0.5-0.3-1.3l-0.1-0.3l-0.2-1.2c0.1-0.5,0.2-1,0.3-1.5l0.5-1.5l0.6-1.2c0,0-0.1-0.1-0.1-0.1
	c-0.2,0.3-0.4,0.5-0.5,0.8l-0.5,1l-0.4,1.3v0.1v0.2c0,0,0,0,0,0.1l0,0l-0.1-0.4L22.3,54l-0.1-0.3v-0.1v-0.2c0,0,0,0,0.4-1.5l0.3-0.8
	l0.1-0.2l0.1-0.2l0.1-0.2l0.4-0.8l-0.1-0.1h-0.1L23.2,50l-0.3,0.3l-0.6,1.2l-0.3,0.7v0.1l0,0L22,52.4l0,0v-0.1l0,0l0,0
	c0-0.2-0.2-1-0.2-1l-0.1-0.4v-0.3v-0.2l0.2-0.8h-0.1h-0.1h-0.1l-0.1,0.1l0,0l0,0l0,0c0,0,0,0,0.1-1.2v-0.2l0.3-0.7l0.1-0.3l0.5-0.8
	l-0.1-0.1c-0.2,0.1-0.4,0.2-0.6,0.5l-0.4,0.8v0.1l0,0l0,0c0-0.2-0.1-1.3-0.1-1.3L21.3,45v-0.1h-0.1h-0.1c0,0.2,0,0.5,0,0.7v1
	l0.1,1.1c0,0,0,0.1,0,0.1l0,0L21,47.6l-0.4-0.3l-0.4-0.1c0,0,0,0-0.1,0.2l0.1,0.1l0.6,0.5c0.1,0.2,0.3,0.4,0.4,0.6l0.1,1.3l0,0
	c0,0,0-0.1,0-0.1s0,0.2,0,0.2l0,0v-0.1l0,0l-0.1-0.1l-0.2-0.1l-0.5-0.3h-0.1c-0.1,0-0.2,0-0.3,0l0,0l0,0l0,0l0,0.2l0.6,0.3
	c0.3,0.2,0.5,0.5,0.7,0.7c0,0.1,0.1,1,0.2,1.5c0,0,0,0.4,0,0.5l0,0l0,0l0,0l0,0l0,0l0,0l0,0l0,0l0,0l-0.1-0.1l-0.2-0.1l-0.5-0.2
	L20,52.1l-0.3,0.1l-0.2,0.1l0,0L19.3,52.2z M21,44L21,44L21,44L21,44L21,44L21,44z M21.1,44.3L21.1,44.3z M21.1,44.3L21.1,44.3
	L21.1,44.3L21.1,44.3z M21,44.4L21,44.4L21,44.4L21,44.4L21,44.4L21,44.4L21,44.4L21,44.4L21,44.4L21,44.4L21,44.4L21,44.4L21,44.4
	L21,44.4l-0.1,0l0,0l0,0L21,44.4z M22.6,47.9L22.6,47.9z M22.7,47.9L22.7,47.9L22.7,47.9L22.7,47.9z M22,49.3L22,49.3z M22.7,48.1
	L22.7,48.1L22.7,48.1z M22.4,48.3l-0.3,0.3l-0.3,0.6c0,0,0.1,0,0.1,0H22c0,0,0.2-0.4,0.3-0.6l0.5-0.7l0,0h-0.1c0,0-0.1,0-0.1,0
	L22.4,48.3L22.4,48.3z M23.2,45.2L23.2,45.2l0.1,0.1l0.4,0.3c0,0,0,0,0.1-0.1c-0.1-0.2-0.2-0.3-0.3-0.4l-0.1,0l-0.2,0l0,0l0,0
	C23.1,45.1,23.1,45.1,23.2,45.2L23.2,45.2z M24.2,52.3L24.2,52.3z M27.1,39.8L27.1,39.8z M26.5,40L26.5,40L26.5,40L26.5,40L26.5,40
	l0.3,0l0.3-0.2l0,0c0,0,0-0.1,0-0.1H27L26.5,40L26.5,40L26.5,40z M26.1,38.6c0,0.1-0.1,0.1-0.1,0.2l0,0L26.1,38.6z M25.4,40.8
	L25.4,40.8L25.4,40.8L25.4,40.8L25.4,40.8L25.4,40.8L25.4,40.8L25.4,40.8L25.4,40.8z M25.6,38.2L25.6,38.2z M26.4,38.8L26.4,38.8z
	 M26.4,38.8L26.4,38.8z M26.5,38.7L26.5,38.7L26.5,38.7z M26.4,38.7L26.4,38.7L26.4,38.7L26.4,38.7z M25.7,40.6L25.7,40.6L25.7,40.6
	L25.7,40.6L25.7,40.6L25.7,40.6L25.7,40.6z M25.2,43C25.2,43,25.2,43,25.2,43L25.2,43L25.2,43z M24.8,43.2L24.8,43.2L24.8,43.2z
	 M25.2,43.1L25.2,43.1L25.2,43.1L25.2,43.1L25.2,43.1z M25.4,40.8L25.4,40.8L25.4,40.8L25.4,40.8z M25.7,40.6L25.7,40.6z M27,36.4
	L27,36.4z M26.9,36.6L26.9,36.6z M23.2,42.3L23.2,42.3l0.2,0.1l0.4,0.2l0,0c0.1,0.1,0.2,0.3,0.4,0.4l0.2,0.4l0.3,0.5l0.1,0.1v0.1
	l0,0l0.2-0.1V44l0.8-1l0.8-0.8l0.3-0.2l0.4-0.3l0.2-0.1c0,0,0-0.1,0-0.2c-0.2,0-0.3,0-0.5,0.2l-0.8,0.6l-0.7,0.7l-0.2,0.2l0,0
	c0-0.1,0.1-0.3,0.3-1.3l0.1-0.3v-0.1l0.1-0.3l0-0.1l0.1-0.1v-0.1l0,0l0,0l0,0l0,0h-0.1h-0.1h-0.1v-0.1l0.1-0.1
	c0.1-0.2,0.2-0.4,0.3-0.6l0.1-0.2l0.6-0.8l0.8-0.6l0,0c0,0,0-0.1,0-0.1c-0.2,0-0.5,0.1-0.6,0.2l-0.5,0.4l0,0l0,0l0,0l0,0l-0.1,0l0,0
	h0l0,0l0,0l0,0l0.1-0.2l0.4-1.2l0.2-0.8c0.1-0.1,0.1-0.2,0.1-0.2c0,0,0,0-0.1-0.1l0,0v0.1l-0.1,0.2l-0.2,0.5L26.3,38l-0.2,0.6
	l0.1-0.2L26,38.8c0,0,0,0,0,0.1c0,0,0,0,0-0.1l0,0l0,0l0,0c-0.1-0.1-0.1-0.2-0.1-0.3l-0.2-0.3l-0.1-0.1L25.3,38l0,0l0,0l0,0l0,0l0,0
	l0,0l0,0l0.2,0.8l0.2,0.5c0,0.2,0,0.4,0,0.5l-0.3,0.9c0,0,0,0-0.1-0.1l0,0c0,0,0,0-0.2-0.2L24.9,40l-0.3-0.2c0,0-0.1,0.1-0.1,0.1
	l0,0c0.1,0.2,0.3,0.4,0.4,0.5c0.1,0.3,0.3,0.5,0.4,0.8v0.1v0.5L25,42.6L24.8,43l-0.1,0.2l0,0l0,0c-0.1-0.1-0.1-0.2-0.2-0.3l-0.1-0.2
	L24,42.4l-0.5-0.3L23.2,42.3L23.2,42.3L23.2,42.3z M28.2,42.3L28.2,42.3z M28.4,43.1L28.4,43.1z M28.8,43.1L28.8,43.1z M29.4,42.9
	L29.4,42.9z M27.6,44.6L27.6,44.6L27.6,44.6L27.6,44.6z M27.5,44.6L27.5,44.6z M27.2,44.6L27.2,44.6l-0.1-0.3L27,43.8l-0.1-0.1
	c0,0-0.1,0-0.1,0.1c0,0,0.1,1,0.2,1.5h0l0.9-0.6l0,0l0,0h0h-0.1h-0.1c-0.1,0,0-0.1,0-0.1l0.8-0.8l0.7-0.4c0.1,0,1-0.3,1-0.3
	c0,0,0-0.1,0-0.2c-0.3,0-0.5,0-0.8,0.1l-0.5,0.2h-0.1l0,0l0.1-0.1l0.1-0.2l0.7-1l0,0c0,0-0.1,0-0.1,0h-0.1h-0.1l-0.4,0.5l-0.4,0.5
	L28.5,43h-0.1l0,0h-0.1l0,0l0,0l0,0l0,0l0,0v-0.1l-0.1-0.4v-0.2l0,0l-0.1,0c0,0,0,0,0,0l0,0c0,0,0,0,0,0.1v0.1l0,0.7L28,43.7
	L27.2,44.6L27.2,44.6L27.2,44.6z M28.7,38.7L28.7,38.7z M28.8,38.7L28.8,38.7h0.1l0.6-1.1c0,0-0.1-0.1-0.1-0.1h-0.1
	c-0.1,0.2-0.2,0.3-0.3,0.5l-0.3,0.6h0.1l0,0L28.8,38.7z M29.3,35.9c0,0,0.1,0,0.1,0c0-0.1,0-0.2-0.1-0.3L29,35.4l0,0v0.1l0,0
	c0,0,0,0.1,0,0.1L29.3,35.9L29.3,35.9L29.3,35.9z M32.4,34.5L32.4,34.5L32.4,34.5L32.4,34.5L32.4,34.5L32.4,34.5L32.4,34.5
	L32.4,34.5L32.4,34.5L32.4,34.5L32.4,34.5l0.1,0.1l0,0L32.4,34.5z M29.8,36.5L29.8,36.5L29.8,36.5z M30.8,34L30.8,34z M31.2,34.7
	L31.2,34.7L31.2,34.7L31.2,34.7z M32.3,33.3L32.3,33.3z M30.3,36.6L30.3,36.6L30.3,36.6L30.3,36.6L30.3,36.6L30.3,36.6L30.3,36.6
	L30.3,36.6L30.3,36.6L30.3,36.6z M29.6,37.5L29.6,37.5L29.6,37.5L29.6,37.5L29.6,37.5z M29.8,36.6L29.8,36.6L29.8,36.6L29.8,36.6z
	 M29.8,36.6L29.8,36.6L29.8,36.6L29.8,36.6z M30.1,36.2L30.1,36.2L30.1,36.2L30.1,36.2L30.1,36.2L30.1,36.2z M30.2,36.1L30.2,36.1
	L30.2,36.1L30.2,36.1z M30.2,36.5L30.2,36.5L30.2,36.5z M29.9,36.4L29.9,36.4L29.9,36.4L29.9,36.4z M31.2,34.7L31.2,34.7L31.2,34.7z
	 M31.6,34.6L31.6,34.6L31.6,34.6L31.6,34.6z M34.3,31.3L34.3,31.3L34.3,31.3L34.3,31.3z M34.3,31.3L34.3,31.3z M34.2,31.3L34.2,31.3
	z M29.4,36c0,0.2,0,0.3,0.1,0.5l0.1,0.9l0,0l0,0l0.3-0.2l1-0.6l0.9-0.3l0.6-0.2l0.5-0.1c0,0,0-0.1,0-0.2c-0.4,0-0.7,0-1,0.2
	l-1.2,0.5l-0.2,0.1l0.3-0.5l0.4-0.6l0.7-0.5l0.2-0.1l0,0l0,0l-0.1-0.1c0.3-0.4,0.6-0.7,1-0.9l0.9-0.4l0.4-0.2l0.1-0.1l0,0l0,0l0,0
	L34,33.1l0,0l-0.7,0.1L33,33.3h-0.2v0c0.1-0.1,0.3-0.3,0.3-0.3l0.6-0.7l0.6-0.7c0,0,0-0.1,0-0.1h-0.1L34,31.4l-0.3,0.4l-0.6,0.6
	l-0.6,0.7l-0.1,0.1l0.1,0l0,0.1v0.1l0,0v-0.1l0,0l0,0c0-0.1,0-0.3,0-0.3l-0.1-0.3l-0.1-0.1H32c0,0.1,0,0.6,0,0.6S31.9,34,31.9,34
	s-0.1,0-0.7,0.7c0,0,0,0,0-0.1c0-0.2-0.1-0.4-0.2-0.5l-0.1-0.2l0,0l0,0L30.7,34v0.1l0,0.4l0.1,0.6l-0.2,0.4l-0.6,0.8l-0.2,0.2v-0.1
	c-0.1-0.1-0.2-0.5-0.2-0.5S29.6,36,29.4,36C29.3,36,29.4,36,29.4,36L29.4,36z M33.4,34.4L33.4,34.4z M33.4,34.4L33.4,34.4
	c-0.2,0.1-0.4,0.1-0.6,0.1c0-0.1,0-0.2,0-0.2l0.2-0.1h0.1L33.4,34.4L33.4,34.4z M29.5,37.5L29.5,37.5L29.5,37.5L29.5,37.5L29.5,37.5
	z M29.5,37.6L29.5,37.6L29.5,37.6L29.5,37.6L29.5,37.6L29.5,37.6L29.5,37.6L29.5,37.6z M29.8,41.6L29.8,41.6L29.8,41.6L29.8,41.6
	L29.8,41.6z M29.9,41.5L29.9,41.5L29.9,41.5L29.9,41.5z M29,38.9L29,38.9z M30.9,38.2l0.3-0.1l0.4-0.1h0.1v-0.1c0,0-0.1,0-0.1-0.1
	h-0.1l-1.4,0.5L29,39l-0.2,0.2l0,0c0,0,0,0.1,0,0.1l0,0l0.6-0.3l0.8-0.4L30.9,38.2z M28.9,44.1L28.9,44.1z M28.6,44.2L28.6,44.2z
	 M28.7,44.4h0.2l0.4-0.1c0-0.1,0-0.1,0-0.2c-0.1,0-0.2,0-0.4,0l-0.3,0.1c0,0,0,0.1,0,0.1l0,0L28.7,44.4z M28.5,44.4L28.5,44.4z
	 M28.3,44.4L28.3,44.4L28.3,44.4L28.3,44.4L28.3,44.4L28.3,44.4l0.1,0l0,0L28.3,44.4L28.3,44.4L28.3,44.4L28.3,44.4L28.3,44.4
	L28.3,44.4L28.3,44.4L28.3,44.4z M28.2,44.4L28.2,44.4L28.2,44.4L28.2,44.4L28.2,44.4z M28.2,44.4L28.2,44.4L28.2,44.4z M28,44.5
	L28,44.5L28,44.5L28,44.5z M25.3,45.4L25.3,45.4z M25,45.3L25,45.3z M24.9,45.3L24.9,45.3L24.9,45.3L24.9,45.3z M24.9,45.3
	L24.9,45.3z M25.2,45.8L25.2,45.8L25.2,45.8c0.1-0.1,0.1-0.2,0-0.3L25,45.2h-0.1v0.1C24.9,45.5,25,45.6,25.2,45.8L25.2,45.8
	L25.2,45.8z M26.2,46.6L26.2,46.6z M26.2,46.6L26.2,46.6z M26.2,46.6L26.2,46.6L26.2,46.6z M26.2,46.6L26.2,46.6z M25.3,46.2l0-0.2
	C25.3,46.1,25.4,46.2,25.3,46.2L25.3,46.2z M24.9,48.4L24.9,48.4L24.9,48.4l0.3-0.2l0.4-0.6l0.4-0.5l1.2-0.7l0.9-0.3l0.6-0.2l0.3,0
	l0,0c0,0,0-0.1,0-0.1l0,0l0,0c-0.1,0-0.1,0-0.2,0L28,46l-1.1,0.5l-0.3,0.1l-0.2,0.1h-0.1l0,0h0l0,0l0,0l0,0c0,0,0.1-0.1,0.3-0.5
	l0.4-0.7h-0.1h-0.1h-0.1l-0.2,0.3l-0.5,0.7l0.1,0l-0.2,0.2l0,0l0.1-0.2c0,0-0.1,0.1-0.1,0.1l0,0l0,0l0,0l-0.1-0.3l-0.1-0.3l-0.1-0.2
	h-0.1V46l0.1,0.5c0,0,0,0.1,0.1,0.8L25,48.2L24.9,48.4L24.9,48.4L24.9,48.4L24.9,48.4z M28.5,50L28.5,50z M26.6,52.4L26.6,52.4
	L26.6,52.4L26.6,52.4z M28.5,50.1L28.5,50.1L28.5,50.1L28.5,50.1z M27,52.4L27,52.4L27,52.4z M28.5,52.2V52l0,0l0,0l0,0h-0.3
	l-0.5,0.1l-0.5,0.2L27,52.4v-0.1c0.1-0.1,0.3-0.4,0.8-1.1l0.7-1.1l0,0h-0.1h0h0h-0.1L28,50.5l-0.7,0.9l-0.5,0.8l-0.1,0.1l0-0.1
	l-0.1,0.2l0,0l0,0l0,0l0,0c-0.1-0.1-0.1-0.3-0.1-0.4l-0.1-0.5h-0.1h-0.1c0,0,0.2,1.2,0.2,1.4l0.2,0.2h0.1l0.8-0.5l0.3-0.1L28.5,52.2
	z M27.4,53.8L27.4,53.8L27.4,53.8l0.1-0.1l0,0l0,0l0,0l0,0l0,0h-0.2h-0.2L27,53.7c0,0,0,0,0,0.1C27.1,53.9,27.2,53.8,27.4,53.8
	L27.4,53.8z M26.9,55.5L26.9,55.5z M26.9,55.6L26.9,55.6l0.3,0c0,0,0-0.1,0-0.2c-0.1,0-0.1,0-0.2,0l-0.1,0.1l0,0L26.9,55.6
	L26.9,55.6L26.9,55.6z M25.1,49.1l0,0.2l0,0l0.1-0.1l1.3-0.7l1.1-0.4c0,0,0-0.1,0-0.2c-0.1,0-0.2,0-0.3,0L27.3,48l-1.1,0.4L25.2,49
	L25.1,49.1L25.1,49.1z M27,61.8L27,61.8L27,61.8z M27.5,61.8L27.5,61.8L27.5,61.8z M26.5,63.8L26.5,63.8z M26,64.8L26,64.8L26,64.8z
	 M26,64.8L26,64.8z M26.2,64L26.2,64z M26.5,63.9L26.5,63.9z M26.2,64L26.2,64z M27.5,61.8L27.5,61.8L27.5,61.8L27.5,61.8L27.5,61.8
	L27.5,61.8L27.5,61.8z M25.4,62.9c0,0-0.1,0.1-0.1,0.1l0,0c0,0.1,0.3,0.6,0.3,0.6l0.4,1.2c0,0,0,0,0,0.1l0,0l0,0l0,0l0,0l0,0l0,0
	l0,0l0,0l0,0l0.1-0.1l0.4-0.5l0.3-0.4h-0.3l0,0c0,0,0,0,0.7-1.3c0.2-0.3,0.5-0.5,0.8-0.7l1-0.6v-0.1v-0.1l0,0l0,0l-0.6,0.1l-0.7,0.4
	l-0.2,0.2l0,0c0-0.1,0.1-0.1,0.1-0.2l0.1-0.3l0.4-0.9l0.3-0.8c0,0-0.1-0.1-0.1-0.1l0,0l-0.1,0l0,0L28,59.8L27.4,61L27,61.9l0,0
	c0-0.1,0-0.1,0-0.2l-0.2-0.5l-0.2-0.3l0,0V61v0l0,0V61l0,0l0,0v0.1l0,0l0,0.4l0.2,1c0,0,0,0.1-0.5,1.3c-0.1,0.1-0.1,0.1-0.1,0.2
	l-0.2,0l-0.2-0.3l-0.3-0.6L25.4,62.9L25.4,62.9L25.4,62.9z M28.1,67.4L28.1,67.4L28.1,67.4L28.1,67.4z M28.2,67.4L28.2,67.4z
	 M28.4,62.8L28.4,62.8z M28.6,62.9L28.6,62.9L28.6,62.9z M28.6,62.9L28.6,62.9L28.6,62.9l-0.1-0.2h-0.2l-0.2,0.1l-0.9,0.4l-0.2,0.2
	l0,0l0,0l0.1,0.1l0,0h0.1h0.1l0.2-0.1L28.6,62.9L28.6,62.9L28.6,62.9z M27.4,63.6L27.4,63.6z M27.1,63.6L27.1,63.6L27.1,63.6
	L27.1,63.6L27.1,63.6z M26.8,63.8L26.8,63.8z M26.1,65L26.1,65H26c0,0-0.1,0.1-0.1,0.1v0.1l0,0h0.2L26.1,65L26.1,65z M26,65.2
	L26,65.2L26,65.2L26,65.2L26,65.2L26,65.2L26,65.2L26,65.2L26,65.2z M28,67.7L28,67.7L28,67.7L28,67.7L28,67.7
	C28,67.6,28,67.6,28,67.7c-0.4,0.1-0.8,0.3-1.2,0.6l-1,0.8l0,0v0.3l0,0l0,0h0l1.2-1l0.7-0.5l0,0L28,67.7z M27.4,71.4L27.4,71.4
	C27.4,71.4,27.4,71.4,27.4,71.4L27.4,71.4L27.4,71.4l-0.1-0.1l-1.1,0.5l-0.8,0.6c0,0,0,0.1,0,0.1v0.2c0.1,0,0.1,0,0.2,0h0.1l1.3-0.9
	l0.4-0.2L27.4,71.4z M26.7,77.3L26.7,77.3z M26.9,77.3L26.9,77.3z M26.9,77.3h-0.2l-0.1,0.2l-0.1,0.3l-0.1,1.2l0.1,1l0.1,0.1h0.1
	l0,0l0,0l0.1-0.1l0,0c0-0.1,0-0.4,0-0.4v-0.9l0.1-1.2L26.9,77.3z M28,67.5L28,67.5z M28.5,65L28.5,65c0.1-0.1,0.1-0.1,0.1-0.2h-0.2
	l-1.1,0.5l-0.9,0.7L26,66.5v0.1h0.1l1-0.8l0.2-0.1l1-0.6L28.5,65z M31.9,79c0,0,0-0.1-0.1-0.1c-0.3,0.2-0.6,0.4-0.8,0.7l-0.9,1.2
	l-0.4,0.7l-0.1,0.3c0,0,0,0,0.1,0.1h0.1l0.1-0.1l0.8-1.2l0.4-0.6l0.2-0.2l0.3-0.4l0,0C31.8,79.2,31.8,79.1,31.9,79L31.9,79L31.9,79z
	 M30,73.4L30,73.4z M29.7,75.6h-0.1l0,0H29.7z M27.9,74.9L27.9,74.9L27.9,74.9z M29.5,75.6L29.5,75.6z M29.4,78.6L29.4,78.6z
	 M29,79.4L29,79.4L29,79.4L29,79.4z M29.3,75.8L29.3,75.8z M29.2,75.8L29.2,75.8z M29.2,79.7L29.2,79.7L29.2,79.7v0.1h-0.1
	C29.1,79.7,29.1,79.7,29.2,79.7L29.2,79.7L29.2,79.7z M30,73.3L30,73.3L30,73.3L30,73.3z M30,73.4L30,73.4L30,73.4L30,73.4L30,73.4
	L30,73.4z M29.4,79.5l0.4-0.9l0,0l0.9-1.2l0.8-0.9l0.3-0.3l0.2-0.1L31.8,76c-0.2,0.1-0.5,0.2-0.6,0.3l-0.8,0.9l-0.2,0.2l-0.8,1.2
	l0.1-0.1l-0.1,0.2l0,0l0,0l0,0l0,0l0,0v-0.1l0,0l0,0v-0.1l0.1-1.4V77v-0.5l0.3-0.7l0.1-0.2h-0.2h-0.1l0,0c0,0,0,0,0-0.1l0,0
	c0-0.1,0-0.1,0-0.2l0.3-1.2c0.2-0.3,0.3-0.6,0.5-0.9l0.9-0.8c0-0.1,0-0.1,0-0.1l0,0h-0.1l-0.4,0.2l-0.7,0.7L30,73.3v0.1v-0.1v-0.4
	c0.1-0.4,0.1-1,0.1-1v-0.6H30h0c0,0,0,0.1,0,0.1c0,0,0,0,0,0.1l-0.1,0.5l-0.2,0.7l-0.1,0.8v0.1l0,0v0.1l0,0v-0.2l0,0l0,0l0,0l0,0
	l0,0l-0.1-0.1L29.2,73l-0.4-0.3c0,0-0.1,0-0.1,0.1c0.1,0.3,0.3,0.6,0.5,0.8c0,0,0.3,0.6,0.3,0.6s0,0.3,0,0.3v0.3l-0.2,1.1
	c-0.1-0.1-0.2-0.2-0.3-0.3L28.3,75h-0.2l-0.3-0.1l0,0l0,0L28,75l0.4,0.4l0.5,0.6l0.2,0.5v0.4c0,0,0,0.1-0.2,1.6l-0.1,0.4l-0.1,0.1
	l0,0.1l0.1,0.3l0.1,0.1l0.1,0.1l0.1,0.2v0.3L29,80.8v0.6l0.1,0.1h0.1c0.1-0.5,0.1-0.9,0.1-1.4V80l-0.1-0.3
	C29.2,79.7,29.3,79.7,29.4,79.5L29.4,79.5z M30.2,71L30.2,71L30.2,71L30.2,71L30.2,71L30.2,71L30.2,71L30.2,71L30.2,71L30.2,71
	L30.2,71L30.2,71L30.2,71L30.2,71z M30,75.1L30,75.1L30,75.1l0.2,0.1l0.1-0.1l0.6-0.6l0.5-0.4v-0.2h-0.1l0,0l-0.8,0.6L30,75.1z
	 M34.1,82.8L34.1,82.8z M33.3,81.1L33.3,81.1L33.3,81.1L33.3,81.1z M34,82.8L34,82.8L34,82.8L34,82.8L34,82.8L34,82.8z M33.7,80.8
	L33.7,80.8L33.7,80.8L33.7,80.8z M33.7,80.8L33.7,80.8C33.7,80.8,33.7,80.8,33.7,80.8c0-0.1,0-0.2,0-0.2V80v-0.9l-0.1-0.5
	c-0.1,0-0.1,0-0.2,0c-0.1,0.3-0.1,0.7-0.1,1v1.1c0,0.1,0,0.4,0,0.4v0.1l0,0L33.2,81l-0.4-0.3l-0.3-0.2l-0.3-0.1h-0.2l0,0l0,0l0,0
	l0,0l0,0l0.1,0.1v0.1l0.2,0.2l0.6,0.6c0.1,0.2,0.3,0.4,0.4,0.7v0.6v0.9h-0.1l0,0l0,0l0,0l-0.2-0.2l-0.9-0.5H32c0,0,0,0.1,0,0.1l0,0
	l0,0l0,0c0,0,0,0.1,0.1,0.1c0.1,0.1,0.3,0.2,0.7,0.4c0.3,0.2,0.5,0.5,0.7,0.8l0.1,0.8v0.7l0.1,0.3c0.1,0,0.2-0.1,0.2-0.2l0,0v-0.3
	v-0.2l-0.2-1.1c0,0,0-0.1,0.3-1.1l0.1-0.2l0.1-0.2l0,0l0,0h-0.1l0,0l0,0l0,0L34,83.1l-0.2,0.2v-0.3l0.1-1.1c0,0,0.3-0.9,0.3-0.9
	l0.5-0.7l0.1-0.1l0.1-0.2l0.3-0.3l0,0c0-0.1-0.1-0.1-0.1-0.1c-0.2,0.1-0.5,0.2-0.6,0.4l-0.6,0.8L33.7,80.8z M33.4,78.5L33.4,78.5
	L33.4,78.5L33.4,78.5L33.4,78.5L33.4,78.5z M33.4,78.4L33.4,78.4L33.4,78.4L33.4,78.4L33.4,78.4L33.4,78.4z M34.1,82.7L34.1,82.7z
	 M35,81.3L34.3,82L34,82.7l0.1,0.1l0,0h0l0,0l0.1-0.1l0.2-0.2l0.6-0.7l0.2-0.2l0.1-0.1l0.1-0.1h-0.2L35,81.3L35,81.3L35,81.3z
	 M35,84.3c0,0,0,0.1-0.7,1.4L34,86.4v0.2v0.1h0l0.1-0.1l0.7-1.4l0.5-0.8l0.3-0.5l0.4-0.6h-0.2h-0.1L35,84.3L35,84.3L35,84.3z
	 M36.1,87.2l0.1-0.2l0,0L36.1,87.2z M36.1,87L36.1,87z M36,86.9c0,0-0.4,0.7-0.7,1.1l-0.4,1l0.1,0.2v0.1l0,0l0,0l0.1-0.1l0.7-1.4
	l0.5-1C36.2,87,36.1,87,36,86.9L36,86.9z M35.7,95.6L35.7,95.6L35.7,95.6z M35,93.4L35,93.4z M35.7,95.6
	C35.7,95.6,35.7,95.5,35.7,95.6l-0.1-0.5l-0.2-0.7l-0.2-0.7L35,93.4v-0.1c0,0-0.1,0-0.1,0.1l0,0l0,0l0,0l0,0c0,0,0,0,0,0.1l0.1,0.3
	l0,0.7c0.1,0.3,0.3,0.6,0.5,0.9L35.7,95.6L35.7,95.6L35.7,95.6z M32,90.3L32,90.3z M32,90.3L32,90.3z M32,90.3L32,90.3L32,90.3
	L32,90.3L32,90.3L32,90.3v-0.1h-0.1h-0.1l0,0h-0.2l0,0l0,0l0,0l0,0c0,0,0,0,0,0.1c0,0,0,0.1,0.1,0.1L32,90.3L32,90.3z M36.7,86.5
	L36.7,86.5z M38.1,86.8L38.1,86.8L38.1,86.8L38.1,86.8z M37.5,83.5L37.5,83.5z M38.5,86.5L38.5,86.5L38.5,86.5
	C38.5,86.5,38.4,86.5,38.5,86.5L38.5,86.5z M39.1,89L39.1,89L39.1,89z M38.5,86.6L38.5,86.6L38.5,86.6z M38.5,86.6L38.5,86.6
	L38.5,86.6L38.5,86.6z M38.4,86.6L38.4,86.6z M41.5,88.4L41.5,88.4L41.5,88.4L41.5,88.4L41.5,88.4L41.5,88.4L41.5,88.4l-0.3,0.4
	l-0.5,1.4v0.1L40.4,91l-0.1,0.7v0.2v-0.1c0,0.1,0,0.1,0,0.2l0,0v0l0,0l-0.2-0.5l-0.4-0.9v-0.1l-0.3-0.7v-0.2v-0.8
	c0,0-0.1-0.1-0.1-0.1c-0.1,0.1-0.1,0.2-0.2,0.3l0,0h-0.1l0,0c0,0,0-0.2-0.3-1.4v-0.2l0.1-1l0.2-0.6L39,85.6v-0.1v-0.1l0.3-0.4
	c0,0,0,0-0.1-0.1c-0.2,0.1-0.3,0.3-0.4,0.4L38.5,86l-0.1,0.5c0-0.1-0.2-0.5-0.5-1.4l-0.4-1.2l-0.1-0.3v-0.1l-0.1-0.3l0,0l0,0l0,0
	l0,0l0,0l0,0l-0.1,0.1v0.2v0.1L37.2,84l0,0l0.1,0.2l0.1,0.2l0.1,0.4l0,0.2l0.2,0.8l0.2,0.6l0.1,0.3l0,0.1l0,0H38l-0.9-0.4l-0.4,0.1
	l0,0l0,0l0,0l0.1,0.1l0.1,0.1l0.1,0.1l0.7,0.4c0.2,0.2,0.4,0.4,0.6,0.6l0.5,1.4v0.1c0,0,0-0.1,0-0.1v0.3l0,0v0l0,0v-0.2
	c0,0,0,0.1,0,0.2l0,0l-0.1-0.1l-0.5-0.2L38,89.1L37.6,89h-0.5c0,0,0,0.1,0,0.1c0.3,0.1,0.6,0.2,0.9,0.2l0.9,0.4l0.3,0.3l0.2,0.5
	l0.4,1l0.4,1l0.4,0.1l0,0h0.1l0,0v-0.2l0.1-1.4l0.4-1.5l0.4-1.2l0,0L41.5,88.4z M40,86.6L40,86.6L40,86.6L40,86.6z M39.3,88L39.3,88
	L39.3,88L39.3,88L39.3,88L39.3,88h0.1l0.5-1.3l0.1-0.1c0,0,0-0.1,0-0.1h-0.1c0,0-0.3,0.4-0.4,0.6L39.3,88L39.3,88L39.3,88z M43,90.9
	h-0.1l0,0h-0.1l-0.2,0.5L42.4,92c-0.1,0.4-0.2,0.7-0.2,1.1l0.1,0.2c0.1,0,0.2-0.1,0.2-0.2l0.3-1.3l0.2-0.8C43,91.1,43,91,43,90.9
	L43,90.9z M50.4,103.6L50.4,103.6c0,0.1-0.8,0.2-1.2,0.2s-1.1,0.1-1.5,0.1l0,0c-0.4,0-1.1,0-1.5-0.1s-1-0.1-1.5-0.2
	c-0.5-0.1-0.9-0.2-1.4-0.3l-1-0.2l-0.5-0.2h-0.1h-0.1h-0.1c-0.5-0.2-1-0.3-1.4-0.5H40c-0.5-0.2-1-0.4-1.3-0.5s-1-0.5-1.4-0.7
	s-1-0.6-1.3-0.8s-0.8-0.6-1.2-1s-0.7-0.6-1-1s-0.8-0.8-1.1-1.1s-0.7-0.8-1-1.2s-0.6-0.8-0.9-1.2c-0.2-0.2-0.3-0.5-0.5-0.7L30,93.5
	c-0.2-0.3-0.5-0.7-0.7-1l-0.1-0.2l-0.5-0.7l0,0L28.3,91L28,90.5c0.1,0,0.2,0,0.2,0l0,0h0.6l-0.1-0.1l0,0L28.2,90l-0.9-0.5L27,89.3
	c-0.4-0.2-0.7-0.4-1-0.6s-0.9-0.7-1.2-1s-0.8-0.8-1.1-1.1s-0.6-0.8-0.9-1.1l0,0v-0.1v-0.1v-0.1l-0.3-0.5c-0.2-0.3-0.4-0.5-0.5-0.8
	c-0.3-0.4-0.5-0.9-0.7-1.3s-0.4-0.9-0.6-1.3c-0.1-0.2-0.2-0.5-0.3-0.7l0,0c-0.1-0.2-0.2-0.5-0.3-0.7s-0.2-0.5-0.3-0.8l0,0
	c-0.1-0.2-0.2-0.4-0.3-0.6S19,77.4,19,77.4h0.2c0.2,0,0.8,0.2,0.8,0.2c0-0.1,0-0.2,0-0.3l-0.5-0.9l0,0c-0.1-0.2-0.2-0.3-0.2-0.5l0,0
	L19,75.4c-0.1-0.3-0.3-0.7-0.4-0.9s-0.4-1.1-0.5-1.5s-0.2-1-0.3-1.5s-0.1-0.7-0.1-1.1l0,0c0-0.1,0-0.1,0-0.2c0-0.2,0-0.4-0.1-0.7
	s0-0.5-0.1-0.7s-0.1-0.4-0.1-0.7s-0.1-0.4-0.1-0.7s-0.1-0.9-0.1-0.9c0.1,0.1,0.3,0.1,0.4,0.2c0.2,0.1,0.5,0.3,0.8,0.4l0,0l0.2,0.2
	l0,0c0,0-0.5-1-0.6-1.3s-0.4-1-0.5-1.4s-0.2-0.8-0.3-1.2v-0.2v-0.1v-0.1c0-0.2,0-0.3-0.1-0.5c0-0.3-0.1-0.7-0.1-1s-0.1-0.8-0.1-1.2
	c0-0.1,0-0.3,0-0.4c0-0.4,0-0.8,0-1.2s0.1-0.9,0.1-1.4v-0.1c0-0.2,0.1-0.5,0.1-0.8s0.1-0.5,0.1-0.7c0.1-0.4,0.1-0.9,0.2-1.3
	c0-0.1,0-0.2,0-0.2l0.1-1.1h0.1l0.2,0.3l0,0c0.2,0.3,0.6,0.7,0.8,0.9s0.8,0.8,0.8,0.8h0.1c0,0-0.3-1-0.3-1.4s-0.1-1.1-0.2-1.5
	c0-0.2,0-0.4,0-0.6s0-0.5,0-0.8v-0.3c0-0.1,0-0.3,0-0.5l0,0c0-0.3,0.1-0.7,0.1-0.9c0.1-0.4,0.2-1,0.3-1.5s0.3-1,0.4-1.5
	c0.1-0.3,0.2-0.6,0.3-0.9s0.1-0.4,0.2-0.6c0.2-0.5,0.3-1,0.5-1.5c0.1-0.3,0.2-0.9,0.2-0.9h0.1l0,0c0,0,0.7,1.1,0.9,1.3l0.2,0.1
	c0,0,0.2-1,0.4-1.5s0.3-1.1,0.5-1.5s0.5-1,0.7-1.4s0.6-1,0.8-1.3s0.6-0.8,1-1.2l0.5-0.6l0,0l0.5-0.5c0.2-0.2,0.3-0.4,0.5-0.6l0,0
	l0.5-0.6c0.1-0.1,0.3-0.3,0.3-0.3l0.1,0.1l0.2,0.6l0.2,0.1c0,0,0.8-0.8,1.1-1.1s0.8-0.8,1.2-1s0.9-0.7,1.3-0.9l0.9-0.5l0.5-0.3
	l0.5-0.3l0,0l0.8-0.5l1.1-0.6v0.1c0,0.2-0.2,1-0.2,1.5s-0.2,1-0.3,1.5c0,0.1,0,0.2,0,0.2c-0.1,0.4-0.2,0.9-0.3,1.3s-0.3,1-0.4,1.5
	s-0.3,1-0.5,1.4s-0.4,1-0.6,1.4c-0.2,0.5-0.5,0.9-0.8,1.3c-0.1,0.1-0.3,0.4-0.5,0.6c-0.1,0.2-0.3,0.3-0.4,0.5
	c-0.1,0.2-0.1,0.5-0.1,0.8c0,0.2-0.1,0.5-0.1,0.7c-0.1,0.5-0.2,1-0.3,1.5s-0.3,1-0.4,1.5s-0.3,1-0.5,1.5c-0.1,0.3-0.3,0.8-0.3,0.8
	l0,0l0.1,0.1l0.3-0.1c0,0.1,0,0.1,0,0.2l0,0c0,0.2-0.1,0.6-0.1,1.1c0,0.1,0,0.3,0,0.4c0,0.3-0.1,0.6-0.1,1l0,0c0,0.2,0,0.4-0.1,0.6
	s0,0.3-0.1,0.5c0,0.3-0.1,0.7-0.1,1s-0.2,0.9-0.2,1.3c0,0.1,0,0.1,0,0.2c-0.1,0.5-0.2,1-0.3,1.5c-0.1,0.2-0.1,0.5-0.2,0.7l0,0
	c-0.1,0.3-0.1,0.5-0.2,0.8s-0.1,0.7-0.1,0.7h0.1l0.3-0.3l0.4-0.4l0.5-0.5l0.1,0.1c0,0.1,0,0.4,0.1,0.8s0,0.6,0.1,0.8s0,0.4,0,0.6
	l0,0c0,0.3,0.1,0.6,0.1,0.9v0.3l0,0c0,0.4,0.1,0.8,0.1,1.2c0,0.2,0,0.4,0,0.6v0.7c0,0.2,0,0.3,0,0.5l0,0c0,0.2,0,0.4,0,0.7
	s0,0.2,0,0.3c0,0.4,0,0.9-0.1,1.3v0.1c0,0.4-0.1,0.9-0.1,1.3s-0.1,0.7-0.2,1c0,0.1,0,0.3-0.1,0.4s-0.1,0.4-0.1,0.7s-0.1,0.7-0.1,0.8
	l0,0v0.2c0,0,0.6-0.9,0.8-1.3s0.6-1.1,0.6-1.1c0,0.1,0.1,0.1,0.1,0.2l0.2,0.7l0,0l0.2,0.7l0.2,0.7l0,0l0.2,0.7l0.1,0.2
	c0.2,0.4,0.3,0.8,0.4,1.2s0.3,1,0.4,1.5c0.1,0.2,0.2,0.6,0.2,0.9l0,0l0.2,0.6l0.1,0.1l0,0l0,0l0.2-0.4c0.1,0.1,0.1,0.1,0.2,0.2
	c0.1,0.2,0.3,0.5,0.5,0.8l0,0c0.1,0.1,0.1,0.3,0.2,0.4s0.3,0.5,0.4,0.8l0,0c0.1,0.2,0.2,0.3,0.3,0.5l0.3,0.5l0.5,0.9l0.4,0.8
	c0.1,0.2,0.2,0.4,0.3,0.6l0.1,0.2c0.1,0.2,0.2,0.3,0.3,0.5c0.2,0.2,0.4,0.6,0.6,0.9l0,0c0.1,0.1,0.2,0.3,0.3,0.4l0.3,0.4l0,0
	c0.2,0.3,0.4,0.6,0.6,0.9s0.3,0.4,0.5,0.6s0.3,0.4,0.5,0.6l0.7,0.9l0,0l0.3,0.4l0.4,0.5l0,0l0.5,0.7c0.1,0.1,0.2,0.2,0.2,0.3l0,0
	l0.7,0.9l0.6,0.8l0.3,0.4l0.3,0.4l0,0c0.2,0.3,0.5,0.5,0.7,0.8s0.7,0.9,0.9,1.2s0.6,1,0.8,1.4c0.2,0.4,0.3,0.8,0.4,1.1
	c0.1,0.3,0.2,0.7,0.2,1c0,0.2,0,0.6,0.1,0.9s0,0.2,0,0.2l0,0c0.1,0.1,0.1,0.2,0.2,0.2l0,0c0.2,0.3,0.5,0.6,0.7,0.9s0.6,0.9,0.8,1.3
	s0.5,0.8,0.7,1.2l0,0c0.2,0.4,0.5,0.9,0.7,1.4s0.5,1.2,0.5,1.4v0.1c0,0,0,0.1,0,0.1c-0.2-0.1-0.7-0.2-0.7-0.2l-1.4-0.6
	c-0.4-0.3-0.7-0.5-1-0.8l-1-1.2l-0.8-1.3L45,97.5l-0.3-0.9c0,0-0.1,0-0.1,0c0,0,0,0.1,0,0.1c0,0.2,0.1,0.7,0.1,0.7l0.3,1.1l0.5,1.2
	l0.9,1.3l0.2,0.2l0.6,0.6H47c0.1,0-1.3-0.6-1.3-0.6l-1.4-0.7l-0.8-0.4l-1-1.1l-0.9-1.3L41,96.3L40.3,95h-0.1l0.3,1.1l0.6,1.3
	l0.8,1.3l0.7,0.8h-0.1c0.1,0-1.2-0.7-1.2-0.7l-0.6-0.3l-0.1-0.1l-0.7-0.3L39.5,98l-0.8-1.2L38,95.4l-0.3-0.8L37.4,94l-0.1-0.2h-0.1
	l0.1,0.7l0.4,1.2l0.5,0.9l0.3,0.5l0.3,0.6h-0.1l-1.3-0.7L37,96.7l-0.6-0.3l-0.7-1h-0.1l0.1,0.3v0.2c0,0-0.1-0.1-0.1-0.1l-1-0.8
	l-0.7-0.8l-0.5-0.9l-0.2-0.7l-0.1-0.2H33v0.6l0.3,0.8V94l0.2,0.4h0l-1.3-0.9l-1-0.7l-0.3-0.2l-1-0.7L29.8,92l0.3,0.3l1.2,0.9
	l1.2,0.9l1,0.7c0,0,0,0,0,0.1l-1,0.1l-0.6,0.4l0.2,0.1l0.3-0.1h0.1l0.7-0.2h0.1c0.3,0,0.7,0,1,0.1c0.1,0.1,0.9,0.5,1.3,0.8l0.3,0.3
	c0,0-0.1,0-0.1,0.1l-0.4,0.2L34.4,97l-0.3,0.3c0,0.1,0,0.1,0,0.2v0.1l1-0.5c0.4-0.1,0.8-0.2,1.2-0.2l0.4,0.2l0.9,0.5l0.3,0.2
	l0.9,0.5c0,0,0,0.1,0,0.1l-1.4,0.6l-0.5,0.4l-0.2,0.4c0,0,0,0.1,0,0.1v0.1l0.7-0.8l0.9-0.4l0.9-0.2l0.5,0.2l0.8,0.3l0.5,0.3l1.4,0.7
	l0,0l0,0l-1.4,0.4l-0.6,0.4l-0.2,0.3l0.1,0.1l0.7-0.5l1-0.4l0.9-0.1l0.8,0.3l0.4,0.2h0.1l1.2,0.5l0.3,0.2l1,0.5c0,0,0,0-0.1,0.1
	c-0.1,0-0.1,0-0.2,0h-0.2l-1.1,0.2l-0.7,0.3l0,0l0,0l0,0l0,0h0.1h0.2H45l0.8-0.2l1.3-0.1h0.1l0.6,0.1l0.8,0.4l0.2,0.1l0.4,0.2
	L50.4,103.6z"/>
<path class="st4" d="M50.7,110.3H57l1.9-1.8h-6.1L50.7,110.3z M60.4,107h-5.9l-1,0.8h6L60.4,107z M49,111.8h6.5l0.8-0.8h-6.4
	L49,111.8z"/>
<path class="st4" d="M64.7,101.1v5.2h1.8v-5.2H64.7z M57.1,101.1v5.2H59v-5.2H57.1L57.1,101.1z M59.6,101.1v5.2h1.8v-5.2H59.6
	L59.6,101.1z M55.9,101.1c-0.4,0-0.9,0.1-1.3,0.2l0,0v4.8c0.4,0.2,0.8,0.2,1.3,0.2h0.6v-5.2L55.9,101.1L55.9,101.1z M52.9,103.5v0.4
	c0,0.7,0.4,1.4,1,1.8v-4.1C53.3,102.1,52.9,102.7,52.9,103.5L52.9,103.5z M62.2,101.1v5.2H64v-5.2H62.2L62.2,101.1z M67.5,101.1
	h-0.3v5.2h0.4c0.5,0,1-0.1,1.5-0.3v-4.7C68.5,101.1,68,101.1,67.5,101.1L67.5,101.1z M69.7,101.8v3.8c0.5-0.4,0.8-1,0.8-1.7v-0.4
	C70.5,102.8,70.2,102.2,69.7,101.8L69.7,101.8z"/>
<path class="st4" d="M69.1,107h-5.9l0.9,0.8h6L69.1,107z M70.8,108.5h-6.1l1.9,1.8h6.2L70.8,108.5z M73.6,111h-6.3l0.7,0.8h6.4
	L73.6,111z"/>
<path class="st4" d="M86.3,40.5H36.6c0,0,0,4.4,0.1,8.4c0.1,3.3,0.2,6.2,0.2,6.2s0.2,3.6,0.5,6.9c0.3,2.9,0.6,5.5,0.6,5.5
	c0.2,2.3,0.7,4.7,1.4,6.9c0.8,2.2,1.8,4.3,3.1,6.3c1.3,2.1,2.8,4.1,4.3,6c1.8,2.1,3.7,4.1,5.7,6c2.7,2.5,5.7,4.7,9,6.5
	c2.3-1.2,4.5-2.7,6.5-4.3c2.7-2.2,4.8-4.2,4.8-4.2s2.1-2.1,4.3-5c1.3-1.7,2.6-3.5,3.7-5.3c0.8-1.3,1.6-2.7,2.2-4.1
	c0.5-1.2,0.8-2.4,1.1-3.6c0.4-1.8,0.7-3.5,0.9-5.3c0.4-3.2,0.6-5.4,0.8-8.3c0.1-1.6,0.3-4.3,0.4-7.6c0-1.2,0.1-2.9,0.1-4.1
	C86.4,43.6,86.3,40.5,86.3,40.5z M79.2,41.7h1.9v2h-1.9V41.7z M77,41.7h1.9v2H77L77,41.7L77,41.7z M74.6,41.7h2v2h-2V41.7z
	 M72.4,41.7h1.8v2h-1.8V41.7z M70.1,41.7H72v2h-1.9V41.7z M67.8,41.7h1.9v2h-1.9C67.8,43.7,67.8,41.7,67.8,41.7z M65.5,41.7h1.9v2
	h-1.9L65.5,41.7L65.5,41.7z M63.2,41.7h1.9v2h-1.9L63.2,41.7L63.2,41.7z M60.8,41.7h1.9v2h-1.9L60.8,41.7L60.8,41.7z M58.5,41.7h1.9
	v2h-1.9L58.5,41.7L58.5,41.7z M56.2,41.7h1.9v2h-1.9L56.2,41.7L56.2,41.7z M53.9,41.7h1.9v2h-1.9L53.9,41.7L53.9,41.7z M51.6,41.7
	h1.9v2h-1.9L51.6,41.7L51.6,41.7z M49.3,41.7h1.9v2h-1.9L49.3,41.7L49.3,41.7z M47,41.7h1.9v2H47L47,41.7L47,41.7z M44.7,41.7h1.9v2
	h-1.9L44.7,41.7L44.7,41.7z M42.4,41.7h1.9v2h-2L42.4,41.7L42.4,41.7z M40,41.7h2v2h-2L40,41.7L40,41.7z M39.6,43.7h-0.1l0.1,10.6
	v15.5c-0.1-0.8-0.2-1.4-0.3-2c-0.8-5.5-1.2-13.7-1.2-13.7l-0.2-12.4h1.7L39.6,43.7L39.6,43.7z M42,77.2c-0.3-0.7-0.7-1.4-1-2.2
	c-0.4-1.1-0.8-2.2-1-3.3v-12c0,0.1,0,0.3,0,0.4c0.3,3.1,0.6,6.2,0.6,6.2c0.2,2.2,0.6,4.4,1.2,6.5c0.1,0.2,0.1,0.4,0.2,0.7L42,77.2
	L42,77.2z M44.3,81.2c-0.6-0.9-1.2-2-1.9-3.2v-3.4c0.4,1,0.8,1.9,1.3,2.8c0,0,0.2,0.4,0.6,1.1V81.2L44.3,81.2z M46.6,84.3
	c-0.6-0.7-0.9-1.1-0.9-1.1s-0.4-0.5-1.1-1.4v-2.7c0.5,0.8,1.1,1.8,1.9,2.9L46.6,84.3L46.6,84.3z M48.9,87.2
	c-0.8-0.9-1.4-1.7-1.9-2.3v-2.3c0.6,0.8,1.2,1.6,1.9,2.4C48.9,84.9,48.9,87.2,48.9,87.2z M51.2,89.7c-0.7-0.7-1.3-1.4-1.9-2.1v-2.3
	c0.6,0.7,1.2,1.4,1.9,2.1C51.2,87.5,51.2,89.7,51.2,89.7z M53.5,91.9l-1-0.9c-0.3-0.3-0.6-0.6-0.9-0.8v-2.2l0.2,0.2
	c0.6,0.6,1.2,1.2,1.7,1.7L53.5,91.9L53.5,91.9z M55.8,93.9c-0.6-0.5-1.3-1-1.9-1.6v-2.1c0.7,0.6,1.3,1.1,1.9,1.6V93.9L55.8,93.9z
	 M58.1,95.6l-0.2-0.2c-0.5-0.4-1.1-0.8-1.7-1.3v-2c0.5,0.4,0.9,0.7,1.3,1l0.6,0.4L58.1,95.6L58.1,95.6z M60.5,97.2
	c-0.5-0.3-1.2-0.7-1.9-1.3v-2.1c0.8,0.5,1.4,0.9,1.9,1.2V97.2L60.5,97.2z M62.8,97c-0.8,0.5-1.3,0.8-1.3,0.8l-0.7-0.4v-2.2
	c0.5,0.3,0.8,0.4,0.8,0.4c0.4-0.2,0.8-0.4,1.2-0.6V97L62.8,97z M65.1,95.4c-0.7,0.5-1.4,1-1.9,1.3v-2c0.7-0.4,1.3-0.9,1.9-1.3V95.4
	L65.1,95.4z M67.4,93.7L67.4,93.7c-0.7,0.6-1.3,1.1-1.9,1.5v-2c1-0.7,1.7-1.3,1.7-1.3l0.3-0.2L67.4,93.7L67.4,93.7z M69.7,91.8
	c-0.7,0.6-1.3,1.1-1.9,1.6v-2c0.5-0.4,1.1-1,1.9-1.7V91.8L69.7,91.8z M72,89.5L72,89.5c-0.7,0.7-1.3,1.3-1.9,1.8v-2.1
	c0.6-0.6,1.2-1.2,1.9-1.9l0,0L72,89.5L72,89.5z M74.2,87.1c-0.6,0.7-1.2,1.3-1.8,2V87c0.6-0.6,1.2-1.3,1.8-2V87.1L74.2,87.1z
	 M76.6,84.2c-0.6,0.8-1.3,1.6-2,2.4v-2.2c0.6-0.7,1.2-1.5,1.8-2.2l0.2-0.3L76.6,84.2L76.6,84.2z M78.8,81c-0.4,0.7-0.9,1.4-1.4,2.1
	L77,83.7v-2.3c0.7-1,1.3-2,1.9-3C78.8,78.4,78.8,81,78.8,81z M81.2,77c-0.5,1-1,1.9-1.6,2.8l-0.4,0.6v-2.6c0.5-1,1-2,1.4-3.1
	c0.2-0.5,0.4-1,0.5-1.5C81.2,73.2,81.2,77,81.2,77z M80.4,74.6c-1.1,2.7-2.5,5.2-4.3,7.5c-1.3,1.8-2.8,3.5-4.4,5.1
	c-1.5,1.6-3.2,3.1-4.9,4.5c-1.7,1.4-3.4,2.6-5.3,3.7c-1.4-0.7-2.7-1.6-3.9-2.5c-2-1.5-3.9-3.2-5.7-5c-1.8-1.8-3.4-3.7-5-5.7
	c-1.2-1.6-2.2-3.3-3.2-5c-0.8-1.4-1.4-2.9-1.8-4.4c-0.5-2.1-0.9-4.3-1.2-6.5l-0.5-6.2l-0.4-5.7c0,0-0.1-9.8-0.1-10.3h43.6l-0.2,5.7
	l-0.2,5l-0.1,1.8c0,0.5-0.2,4.8-0.5,8.2c-0.2,2.1-0.5,4.2-0.9,6.2C81.2,72.1,80.9,73.4,80.4,74.6L80.4,74.6z M83.5,69.2
	c-0.1,0.8-0.3,1.7-0.5,2.5c-0.3,1.5-0.8,3-1.4,4.4v-4.6c0.1-0.4,0.1-0.7,0.1-0.7c0.4-2.1,0.8-4.1,0.9-6.2c0.3-3,0.5-6.8,0.5-8.2
	s0.3-3.4,0.3-6.4V69.2L83.5,69.2z M83.5,43.7h-1.9v-2h1.9V43.7z M85,50.4c-0.2,4.8-0.5,9.3-0.5,9.3s-0.1,3.1-0.6,6.8V41.7h1.2
	C85.1,41.7,85.1,46.2,85,50.4z"/>
<rect x="121.2" y="84.7" class="st0" width="293.5" height="19.4"/>
<path class="st0" d="M270.3,85.6v17.7h143.5V85.6H270.3z"/>
<path class="st2" d="M122.3,85.6v17.7h148.1V85.6H122.3z"/>
<path class="st0" d="M134.6,91.8c0-0.5,0-1-0.1-1.5h1.2h1.2h1.7h1c0,0.2-0.1,0.3-0.1,0.5c0,0.1,0,0.2,0,0.3c0,0.1,0,0.2,0,0.2h-0.8
	h-0.9H137h-0.5c0,0.4-0.1,0.9-0.1,1.3s0,0.8,0,1.3h1.5l1.4-0.1c0,0.1,0,0.2-0.1,0.3c0,0.1,0,0.1,0,0.2c0,0.1,0,0.1,0,0.2
	c0,0.1,0,0.2,0,0.3c-1-0.1-2-0.1-3-0.1c0,0.2,0,0.5,0,0.8s0,0.5,0,0.8c0,0.5,0,1,0,1.5c0.5,0,1,0,1.5,0c0.5,0,1-0.1,1.5-0.1
	c0,0.1,0,0.2,0,0.2c0,0.2,0,0.4,0,0.6c0,0.1,0,0.1,0,0.2h-0.9h-3.9h-0.3c0-0.5,0.1-1,0.1-1.5c0-0.5,0-1.1,0-1.7v-1.6
	C134.5,93,134.6,92.3,134.6,91.8z"/>
<path class="st0" d="M142.3,91.3c0-0.4,0-0.7,0-1c0.4,0.1,0.8,0.1,1.2,0l2.8,2.8l2.9,2.8v-2.1c0-0.4,0-0.8,0-1.1s0-0.7,0-1
	c0-0.3,0-0.6,0-0.8c0-0.2,0-0.3,0-0.5c0.4,0.1,0.8,0.1,1.2,0c0,0.7-0.1,1.4-0.1,1.9c0,0.6-0.1,1.1-0.2,1.6c0,0.5,0,1,0,1.5
	s0,1,0,1.6v1.4h-0.5H149c-1.8-1.9-3.7-3.8-5.7-5.7c0,0.2,0,0.5,0,0.7c0,0.2,0,0.5,0,0.7v1.4c0,0.5,0,0.9,0,1.2c0,0.3,0,0.6,0,0.8
	s0,0.4,0,0.6s0,0.3,0,0.3h-0.3h-0.3H142c0-0.2,0.1-0.4,0.1-0.7c0-0.4,0-0.9,0.1-1.4s0.1-1.1,0.1-1.8c0-0.7,0-1.3,0-1.9
	S142.3,91.7,142.3,91.3z"/>
<path class="st0" d="M159.7,91.2c-0.9-0.4-1.8-0.4-2.7-0.1c-0.4,0.2-0.8,0.4-1.1,0.7c-0.3,0.3-0.6,0.7-0.8,1.2
	c-0.2,0.5-0.3,1.1-0.3,1.6c0,0.4,0.1,0.9,0.2,1.3c0.1,0.4,0.3,0.7,0.6,1c0.3,0.3,0.6,0.5,1,0.7c0.4,0.2,0.9,0.3,1.3,0.2h0.4h0.4
	l0.4-0.1c0.1,0,0.2,0,0.2-0.1c0-0.1,0-0.2,0-0.3c0-0.1,0-0.3,0-0.5c0-0.7,0-1.1,0-1.4c0-0.3,0-0.5,0-0.6h0.4h0.6h0.7h0.4
	c0,0.1,0,0.2,0,0.3c0,0.1,0,0.3,0,0.5s0,0.4,0,0.6s0,0.4,0,0.6v0.4c0,0.2,0,0.4,0,0.6c0,0.1,0,0.2,0,0.4c-0.6,0.1-1.2,0.3-1.8,0.3
	c-0.6,0.1-1.2,0.1-1.7,0.1c-0.7,0-1.4-0.1-2.1-0.3c-0.6-0.2-1.1-0.4-1.6-0.8c-0.4-0.3-0.8-0.7-1.1-1.2c-0.3-0.5-0.4-1.1-0.4-1.6
	c0-0.7,0.1-1.4,0.4-2c0.3-0.5,0.7-1,1.1-1.4c0.5-0.4,1.1-0.7,1.7-0.8c0.7-0.2,1.4-0.3,2.1-0.3c0.6,0,1.2,0.1,1.7,0.2
	c0.5,0.1,1,0.3,1.4,0.5l-0.2,0.6c-0.1,0.2-0.1,0.4-0.2,0.6h-0.2C160.5,91.7,160.1,91.4,159.7,91.2z"/>
<path class="st0" d="M164.3,91.8c0-0.5,0-1-0.1-1.5h0.5h0.6h0.6h0.5c0,0.5-0.1,1-0.1,1.5c0,0.5,0,1.1,0,1.7v1.6c0,0.4,0,0.9,0,1.3
	c0,0.4,0,0.8,0,1.1c0.5,0,1,0,1.5,0s1-0.1,1.5-0.1c0,0.1,0,0.2,0,0.2c0,0.2,0,0.4,0,0.6c0,0.1,0,0.1,0,0.2h-0.9h-3.9h-0.3
	c0-0.5,0.1-1,0.1-1.5c0-0.5,0-1.1,0-1.7v-1.6C164.3,92.9,164.3,92.3,164.3,91.8z"/>
<path class="st0" d="M171.8,91.8c0-0.5,0-1-0.1-1.5h0.5h0.6h0.6h0.5c0,0.5-0.1,1-0.1,1.5c0,0.5,0,1.1,0,1.7v1.6c0,0.7,0,1.2,0,1.7
	c0,0.5,0,1,0.1,1.5h-0.5h-1.2h-0.5c0-0.5,0.1-1,0.1-1.5c0-0.5,0-1.1,0-1.7v-1.6C171.8,92.9,171.8,92.3,171.8,91.8z"/>
<path class="st0" d="M179.3,90.9c-0.4,0-0.7,0.1-1,0.3c-0.2,0.2-0.4,0.4-0.4,0.7c0,0.3,0.1,0.5,0.3,0.7c0.2,0.2,0.5,0.4,0.7,0.5
	c0.3,0.1,0.6,0.3,1,0.4c0.4,0.1,0.7,0.3,1,0.5c0.3,0.2,0.5,0.4,0.7,0.7c0.2,0.3,0.3,0.7,0.3,1.1c0,0.4-0.1,0.8-0.3,1.1
	c-0.2,0.3-0.4,0.6-0.7,0.8c-0.3,0.2-0.7,0.4-1.1,0.5c-0.5,0.1-0.9,0.2-1.4,0.2c-0.4,0-0.8,0-1.3-0.1c-0.3-0.1-0.6-0.2-0.8-0.3
	c0.1-0.3,0.2-0.5,0.2-0.8c0.1-0.2,0.1-0.5,0.2-0.7h0.2c0,0.2,0.1,0.3,0.2,0.5c0.1,0.2,0.2,0.3,0.4,0.4c0.2,0.1,0.3,0.2,0.5,0.3
	c0.2,0.1,0.5,0.1,0.7,0.1c0.4,0,0.8-0.1,1.2-0.3c0.2-0.2,0.4-0.5,0.4-0.8c0-0.3-0.1-0.5-0.3-0.7c-0.2-0.2-0.5-0.4-0.7-0.5
	c-0.3-0.1-0.6-0.3-0.9-0.4c-0.3-0.1-0.6-0.3-0.9-0.5c-0.3-0.2-0.5-0.4-0.7-0.7c-0.2-0.3-0.3-0.7-0.3-1.1c0-0.7,0.3-1.4,0.9-1.9
	c0.3-0.2,0.6-0.4,0.9-0.5c0.4-0.1,0.7-0.2,1.1-0.2c0.4,0,0.8,0,1.2,0.2c0.3,0.1,0.6,0.2,0.9,0.4c-0.1,0.2-0.1,0.4-0.2,0.5l-0.2,0.6
	h-0.2C180.7,91.2,180,90.8,179.3,90.9z"/>
<path class="st0" d="M189.4,94.5h-1h-1h-1v0.7c0,0.7,0,1.2,0,1.7s0,1,0.1,1.5H186h-1.2h-0.5c0-0.5,0.1-1,0.1-1.5c0-0.5,0-1.1,0-1.7
	v-1.6c0-0.7,0-1.2,0-1.7c0-0.5,0-1-0.1-1.5h0.5h0.6h0.6h0.5c0,0.5-0.1,1-0.1,1.5c0,0.5,0,1.1,0,1.7h0.8h2.3h0.8c0-0.7,0-1.2,0-1.7
	c0-0.5,0-1-0.1-1.5h0.5h0.6h0.6h0.5c0,0.5-0.1,1-0.1,1.5c0,0.5,0,1.1,0,1.7v1.6c0,0.7,0,1.2,0,1.7s0,1,0.1,1.5H192h-1.2h-0.5
	c0-0.5,0.1-1,0.1-1.5c0-0.5,0-1.1,0-1.7v-0.6L189.4,94.5z"/>
<path class="st0" d="M200,91.8c0-0.5,0-1-0.1-1.5h1.2h1.2h1.7h1c0,0.2-0.1,0.3-0.1,0.5c0,0.1,0,0.2,0,0.3c0,0.1,0,0.2,0,0.2h-0.8
	h-0.9h-0.8H202c0,0.4-0.1,0.9-0.1,1.3s0,0.8,0,1.3h1.5l1.4-0.1c0,0.1,0,0.2-0.1,0.3c0,0.1,0,0.1,0,0.2c0,0.1,0,0.1,0,0.2
	c0,0.1,0,0.2,0,0.3c-1-0.1-2-0.1-3-0.1v0.6c0,0.7,0,1.2,0,1.7s0,0.9,0.2,1.3h-0.5h-1.2h-0.5c0-0.5,0.1-1,0.1-1.5c0-0.5,0-1.1,0-1.7
	v-1.6C200,92.9,200,92.3,200,91.8z"/>
<path class="st0" d="M207.2,92.7c0.2-0.5,0.6-1,1-1.3c0.5-0.4,1-0.7,1.6-0.9c0.7-0.2,1.4-0.3,2.1-0.3c0.7,0,1.3,0.1,1.9,0.3
	c0.6,0.2,1.1,0.4,1.6,0.8c0.4,0.3,0.8,0.8,1.1,1.3c0.3,0.6,0.4,1.2,0.4,1.8c0,0.6-0.1,1.1-0.4,1.7c-0.2,0.5-0.6,1-1,1.3
	c-0.5,0.4-1,0.7-1.6,0.9c-0.6,0.2-1.3,0.3-2,0.3c-0.7,0-1.3-0.1-1.9-0.2c-0.6-0.1-1.1-0.4-1.6-0.7c-0.5-0.3-0.8-0.8-1.1-1.3
	c-0.3-0.6-0.4-1.2-0.4-1.9C206.9,93.8,207,93.2,207.2,92.7z M214.5,92.7c-0.1-0.4-0.3-0.7-0.6-1c-0.2-0.3-0.6-0.5-0.9-0.7
	c-0.4-0.2-0.8-0.2-1.2-0.2c-0.4,0-0.8,0.1-1.2,0.3c-0.4,0.2-0.7,0.5-0.9,0.8c-0.3,0.3-0.4,0.7-0.6,1.2c-0.1,0.5-0.2,0.9-0.2,1.4
	c0,0.5,0.1,1.1,0.2,1.6c0.1,0.4,0.3,0.7,0.6,1c0.2,0.3,0.5,0.5,0.9,0.6c0.3,0.1,0.7,0.2,1,0.2c0.4,0,0.8-0.1,1.1-0.2
	c0.4-0.2,0.7-0.4,0.9-0.7c0.3-0.3,0.5-0.7,0.6-1.2c0.2-0.5,0.3-1.1,0.2-1.7C214.7,93.6,214.6,93.2,214.5,92.7L214.5,92.7z"/>
<path class="st0" d="M221.3,94.7v0.5c0,0.7,0,1.2,0,1.7c0,0.5,0,1,0.1,1.5h-0.5h-1.2h-0.5c0-0.5,0.1-1,0.1-1.5c0-0.5,0-1.1,0-1.7
	v-1.6c0-0.7,0-1.2,0-1.7s0-1-0.1-1.5h0.5h0.6h0.8c0.3,0,0.7,0,1.1,0h0.9c0.2,0,0.4,0,0.6,0.1c0.2,0,0.3,0.1,0.4,0.1
	c0.1,0,0.2,0.1,0.4,0.2c0.3,0.2,0.5,0.4,0.6,0.6c0.2,0.3,0.2,0.6,0.2,0.9c0,0.5-0.2,1-0.5,1.4c-0.4,0.4-0.9,0.7-1.5,0.8
	c0.4,0.7,0.9,1.3,1.4,2l1.4,2h-0.6h-1.2h-0.6l-2.3-3.7L221.3,94.7L221.3,94.7z M223.3,91.7c-0.1-0.2-0.2-0.3-0.4-0.5
	c-0.2-0.1-0.4-0.2-0.6-0.2c-0.3,0-0.6,0-0.9,0c0,1.1,0,2.1,0,3.2h0.1h0.1c0.5,0,0.9-0.1,1.3-0.4c0.3-0.3,0.5-0.8,0.5-1.3
	C223.4,92.2,223.4,92,223.3,91.7L223.3,91.7z"/>
<path class="st0" d="M232.3,91.8c0-0.5,0-1-0.1-1.5h0.5h0.6h0.6h0.5c0,0.5-0.1,1-0.1,1.5c0,0.5,0,1.1,0,1.7v1.6c0,0.4,0,0.9,0,1.3
	c0,0.4,0,0.8,0,1.1c0.5,0,1,0,1.5,0s1-0.1,1.5-0.1c0,0.1,0,0.2,0,0.2c0,0.2,0,0.4,0,0.6c0,0.1,0,0.1,0,0.2h-0.9h-3.9h-0.3
	c0-0.5,0.1-1,0.1-1.5c0-0.5,0-1.1,0-1.7v-1.6C232.3,92.9,232.3,92.3,232.3,91.8z"/>
<path class="st0" d="M239.5,91.8c0-0.5,0-1-0.1-1.5h0.5h0.6h0.6h0.5c0,0.5-0.1,1-0.1,1.5c0,0.5,0,1.1,0,1.7v1.6c0,0.7,0,1.2,0,1.7
	c0,0.5,0,1,0.1,1.5h-0.5h-1.2h-0.5c0-0.5,0.1-1,0.1-1.5c0-0.5,0-1.1,0-1.7v-1.6C239.5,92.9,239.5,92.3,239.5,91.8z"/>
<path class="st0" d="M244.6,91.8c0-0.5,0-1-0.1-1.5h1.2h1.2h1.7h1c0,0.2-0.1,0.3-0.1,0.5c0,0.1,0,0.2,0,0.3c0,0.1,0,0.2,0,0.2h-0.8
	h-0.9H247h-0.5c0,0.4-0.1,0.9-0.1,1.3s0,0.8,0,1.3h1.5l1.4-0.1c0,0.1,0,0.2-0.1,0.3c0,0.1,0,0.1,0,0.2c0,0.1,0,0.1,0,0.2
	c0,0.1,0,0.2,0,0.3c-1-0.1-2-0.1-3-0.1v0.6c0,0.7,0,1.2,0,1.7s0,1,0.1,1.5H246h-1h-0.5c0-0.5,0.1-1,0.1-1.5c0-0.5,0-1.1,0-1.7v-1.6
	C244.6,93,244.6,92.3,244.6,91.8z"/>
<path class="st0" d="M252.1,91.8c0-0.5,0-1-0.1-1.5h1.2h1.2h1.7h1c0,0.2-0.1,0.3,0,0.5c0,0.1,0,0.2,0,0.3c0,0.1,0,0.2,0,0.2h-0.8
	h-0.9h-0.8h-0.4c0,0.4-0.1,0.9-0.1,1.3s0,0.8,0,1.3h1.5l1.4-0.1c0,0.1,0,0.2,0,0.3c0,0.1,0,0.1,0,0.2c0,0.1,0,0.1,0,0.2
	c0,0.1,0,0.2,0,0.3c-1-0.1-2-0.1-3-0.1c0,0.2,0,0.5,0,0.8s0,0.5,0,0.8c0,0.5,0,1,0,1.5c0.5,0,1,0,1.5,0s1-0.1,1.5-0.1
	c0,0.1,0,0.2,0,0.2c0,0.2,0,0.4,0,0.6c0,0.1,0,0.1,0,0.2h-0.9h-3.9h-0.3c0-0.5,0.1-1,0.1-1.5c0-0.5,0-1.1,0-1.7v-1.6
	C252.1,93,252.1,92.3,252.1,91.8z"/>
<path class="st2" d="M277.8,91.6c-0.3,0-0.5,0.1-0.8,0.2c-0.2,0.1-0.3,0.3-0.3,0.6c0,0.2,0.1,0.4,0.2,0.5c0.2,0.2,0.4,0.3,0.6,0.4
	c0.2,0.1,0.5,0.2,0.7,0.3c0.3,0.1,0.5,0.2,0.7,0.4c0.2,0.1,0.4,0.3,0.6,0.6c0.2,0.2,0.2,0.5,0.2,0.8c0,0.3-0.1,0.6-0.2,0.8
	c-0.1,0.3-0.3,0.5-0.5,0.6c-0.3,0.2-0.5,0.3-0.8,0.4c-0.4,0.1-0.7,0.1-1.1,0.1c-0.3,0-0.7,0-1-0.1c-0.2,0-0.5-0.1-0.6-0.3
	c0.1-0.2,0.1-0.4,0.2-0.6c0.1-0.2,0.1-0.4,0.1-0.6h0.2c0,0.1,0.1,0.3,0.1,0.4c0.1,0.1,0.2,0.2,0.3,0.3c0.1,0.1,0.3,0.2,0.4,0.2
	c0.2,0.1,0.4,0.1,0.5,0.1c0.3,0,0.6-0.1,0.9-0.3c0.2-0.2,0.3-0.4,0.3-0.7c0-0.2-0.1-0.4-0.2-0.6c-0.2-0.2-0.3-0.3-0.5-0.4
	c-0.2-0.1-0.5-0.2-0.7-0.3c-0.3-0.1-0.5-0.2-0.7-0.4c-0.2-0.1-0.4-0.3-0.5-0.6c-0.2-0.3-0.2-0.5-0.2-0.8c0-0.3,0.1-0.6,0.2-0.8
	c0.1-0.2,0.3-0.4,0.5-0.6c0.2-0.2,0.5-0.3,0.7-0.4c0.3-0.1,0.6-0.1,0.9-0.1c0.3,0,0.6,0,1,0.1c0.2,0.1,0.5,0.2,0.7,0.3
	c-0.1,0.1-0.1,0.3-0.2,0.4l-0.2,0.5h-0.1C278.9,91.8,278.4,91.5,277.8,91.6z"/>
<path class="st2" d="M285.6,94.3h-1.5h-0.8v0.5c0,0.5,0,0.9,0,1.3c0,0.4,0,0.8,0.1,1.1h-1.6c0-0.4,0-0.8,0.1-1.1c0-0.4,0-0.8,0-1.3
	v-1.2c0-0.5,0-0.9,0-1.3s0-0.8-0.1-1.2h0.4h0.9h0.4c0,0.4-0.1,0.8-0.1,1.2s0,0.8,0,1.3h3.1c0-0.5,0-0.9,0-1.3s0-0.8-0.1-1.2h0.4h0.9
	h0.4c0,0.4,0,0.8-0.1,1.2s0,0.8,0,1.3v1.2c0,0.5,0,0.9,0,1.3c0,0.4,0,0.8,0.1,1.1h-1.6c0-0.4,0-0.8,0.1-1.1c0-0.4,0-0.8,0-1.3v-0.5
	L285.6,94.3z"/>
<path class="st2" d="M296,97.3h-1.7l-0.3-0.9c-0.1-0.3-0.2-0.6-0.4-0.9h-2.3c-0.1,0.3-0.3,0.6-0.4,0.9s-0.2,0.6-0.3,0.9h-1l0.3-0.7
	l0.4-0.9l0.5-1.1l0.5-1.2l0.5-1.2l0.5-1.1h0.2h0.4h0.2l0.7,1.6c0.2,0.6,0.5,1.2,0.7,1.7s0.5,1.1,0.7,1.6
	C295.6,96.5,295.8,97,296,97.3z M292.5,92.8c-0.2,0.4-0.3,0.7-0.5,1.1c-0.2,0.4-0.3,0.7-0.5,1.1h1.8l-0.4-1.1
	C292.7,93.5,292.6,93.2,292.5,92.8L292.5,92.8z"/>
<path class="st2" d="M297.8,91.9c0-0.3,0-0.5,0-0.8c0.3,0.1,0.6,0.1,0.9,0l2.2,2.2l2.2,2.1v-1.7c0-0.3,0-0.6,0-0.9
	c0-0.3,0-0.6,0-0.8s0-0.4,0-0.6c0-0.1,0-0.2,0-0.3c0.3,0.1,0.6,0.1,0.9,0c0,0.6-0.1,1-0.1,1.5s0,0.9,0,1.2s0,0.8,0,1.2s0,0.8,0,1.2
	v1.1H303c-1.4-1.4-2.8-2.9-4.4-4.3c0,0.2,0,0.3,0,0.5s0,0.3,0,0.5v1c0,0.4,0,0.7,0,0.9s0,0.5,0,0.6s0,0.3,0,0.4s0,0.2,0,0.3h-0.9
	c0-0.2,0-0.3,0-0.5c0-0.3,0-0.7,0.1-1.1s0-0.9,0.1-1.4s0-1,0-1.4S297.8,92.2,297.8,91.9z"/>
<path class="st2" d="M306.1,92.3c0-0.4,0-0.8,0-1.2h0.9h0.9h1.3h0.8c0,0.1,0,0.3,0,0.4c0,0.1,0,0.2,0,0.2c0,0.1,0,0.1,0,0.2h-0.6
	h-0.7H308h-0.4c0,0.3,0,0.7,0,1s0,0.7,0,1h1.2h1.1c0,0.1,0,0.2,0,0.2c0,0.1,0,0.1,0,0.2c0,0,0,0.1,0,0.2c0,0,0,0.1,0,0.2
	c-0.8,0-1.5-0.1-2.3-0.1c0,0.2,0,0.4,0,0.6s0,0.4,0,0.6c0,0.4,0,0.8,0,1.1h1.1c0.4,0,0.8,0,1.1-0.1c0,0.1,0,0.1,0,0.2s0,0.1,0,0.2
	s0,0.2,0,0.2c0,0,0,0.1,0,0.1H306c0-0.4,0-0.8,0-1.1c0-0.4,0-0.8,0-1.3v-1.5C306.1,93.1,306.1,92.7,306.1,92.3z"/>
<path class="st2" d="M315.3,92.3c0-0.4,0-0.8,0-1.2h0.9h0.9h1.3h0.8c0,0.1,0,0.3,0,0.4c0,0.1,0,0.2,0,0.2c0,0.1,0,0.1,0,0.2h-0.6
	h-0.7h-0.6h-0.4c0,0.3,0,0.7,0,1s0,0.7,0,1h1.2h1.1c0,0.1,0,0.2,0,0.2c0,0.1,0,0.1,0,0.2c0,0,0,0.1,0,0.2c0,0,0,0.1,0,0.2
	c-0.8,0-1.5-0.1-2.3-0.1c0,0.2,0,0.4,0,0.6s0,0.4,0,0.6c0,0.4,0,0.8,0,1.1h1.1c0.4,0,0.8,0,1.1-0.1c0,0.1,0,0.1,0,0.2
	c0,0.1,0,0.1,0,0.2s0,0.2,0,0.2c0,0,0,0.1,0,0.1h-3.9c0-0.4,0-0.8,0-1.1c0-0.4,0-0.8,0-1.3v-1.5C315.3,93.1,315.3,92.7,315.3,92.3z"
	/>
<path class="st2" d="M321.2,91.9c0-0.3,0-0.5,0-0.8c0.3,0.1,0.6,0.1,0.9,0l2.2,2.2l2.2,2.2v-1.7c0-0.3,0-0.6,0-0.9s0-0.6,0-0.8
	s0-0.4,0-0.6c0-0.1,0-0.2,0-0.3c0.3,0.1,0.6,0.1,0.9,0c0,0.6-0.1,1-0.1,1.5s0,0.9,0,1.2s0,0.8,0,1.2s0,0.8,0,1.2v1.1h-0.8
	c-1.4-1.4-2.8-2.9-4.4-4.3c0,0.2,0,0.3,0,0.5s0,0.3,0,0.5v1c0,0.4,0,0.7,0,0.9s0,0.5,0,0.6s0,0.3,0,0.4s0,0.2,0,0.3H321
	c0-0.2,0-0.3,0-0.5c0-0.3,0-0.7,0.1-1.1s0-0.9,0.1-1.4s0-1,0-1.4S321.2,92.2,321.2,91.9z"/>
<path class="st2" d="M334.5,91.8c-0.7-0.3-1.4-0.3-2.1-0.1c-0.3,0.1-0.6,0.3-0.8,0.5c-0.2,0.3-0.4,0.6-0.6,0.9
	c-0.2,0.4-0.2,0.8-0.2,1.2c0,0.3,0.1,0.7,0.2,1c0.1,0.3,0.3,0.6,0.5,0.8c0.2,0.2,0.5,0.4,0.8,0.5c0.3,0.1,0.7,0.2,1,0.2h0.3h0.3h0.3
	c0.1,0,0.1,0,0.2-0.1c0-0.1,0-0.2,0-0.3c0-0.1,0-0.2,0-0.4c0-0.5,0-0.8,0-1.1s0-0.4,0-0.5h0.3h1h0.3c0,0.1,0,0.2,0,0.2
	c0,0.1,0,0.2,0,0.4s0,0.3,0,0.4s0,0.3,0,0.5v0.3c0,0.2,0,0.3,0,0.4c0,0.1,0,0.2,0,0.3c-0.4,0.1-0.9,0.2-1.3,0.3
	c-0.4,0.1-0.9,0.1-1.3,0.1c-0.5,0-1.1-0.1-1.6-0.2c-0.5-0.1-0.9-0.3-1.2-0.6c-0.3-0.3-0.6-0.6-0.8-0.9c-0.2-0.4-0.3-0.8-0.3-1.2
	c0-0.5,0.1-1,0.3-1.5c0.2-0.4,0.5-0.8,0.9-1.1c0.4-0.3,0.8-0.5,1.3-0.7c0.5-0.1,1.1-0.2,1.6-0.2c0.4,0,0.9,0,1.3,0.1
	c0.4,0.1,0.7,0.2,1.1,0.4l-0.1,0.5c-0.1,0.2-0.1,0.3-0.1,0.5h-0.1C335.2,92.3,334.9,92,334.5,91.8z"/>
<path class="st2" d="M338.1,92.3c0-0.4,0-0.8-0.1-1.2h0.4h0.9h0.4c0,0.4,0,0.8-0.1,1.2s0,0.8,0,1.3v1.2c0,0.3,0,0.7,0,1s0,0.6,0,0.8
	h1.1c0.4,0,0.8,0,1.1-0.1c0,0.1,0,0.1,0,0.2s0,0.1,0,0.2s0,0.2,0,0.2c0,0,0,0.1,0,0.1H338c0-0.4,0-0.8,0.1-1.1s0-0.8,0-1.3v-1.3
	C338.1,93.1,338.1,92.7,338.1,92.3z"/>
<path class="st2" d="M343.8,92.3c0-0.4,0-0.8-0.1-1.2h0.4h0.9h0.4c0,0.4,0,0.8-0.1,1.2s0,0.8,0,1.3v1.2c0,0.5,0,0.9,0,1.3
	s0,0.8,0.1,1.1h-1.6c0-0.4,0-0.8,0.1-1.1s0-0.8,0-1.3v-1.2C343.9,93.1,343.8,92.7,343.8,92.3z"/>
<path class="st2" d="M349.6,91.6c-0.3,0-0.5,0.1-0.8,0.2c-0.2,0.1-0.3,0.3-0.3,0.6c0,0.2,0.1,0.4,0.2,0.5c0.2,0.2,0.4,0.3,0.6,0.4
	c0.2,0.1,0.5,0.2,0.7,0.3c0.3,0.1,0.5,0.2,0.7,0.4c0.2,0.1,0.4,0.3,0.6,0.6c0.2,0.2,0.2,0.5,0.2,0.8c0,0.3-0.1,0.6-0.2,0.8
	c-0.1,0.3-0.3,0.5-0.5,0.6c-0.3,0.2-0.5,0.3-0.8,0.4c-0.4,0.1-0.7,0.1-1.1,0.1c-0.3,0-0.7,0-1-0.1c-0.2,0-0.5-0.1-0.6-0.3
	c0.1-0.2,0.1-0.4,0.2-0.6s0.1-0.4,0.1-0.6h0.2c0,0.1,0.1,0.3,0.1,0.4c0.1,0.1,0.2,0.2,0.3,0.3c0.1,0.1,0.3,0.2,0.4,0.2
	c0.2,0.1,0.4,0.1,0.5,0.1c0.3,0,0.6-0.1,0.9-0.3c0.2-0.2,0.3-0.4,0.3-0.7c0-0.2-0.1-0.4-0.2-0.6c-0.2-0.2-0.3-0.3-0.5-0.4
	c-0.2-0.1-0.5-0.2-0.7-0.3c-0.3-0.1-0.5-0.2-0.7-0.4c-0.2-0.1-0.4-0.3-0.5-0.6c-0.2-0.3-0.2-0.5-0.2-0.8c0-0.6,0.2-1.1,0.7-1.4
	c0.2-0.2,0.5-0.3,0.7-0.4c0.3-0.1,0.6-0.1,0.9-0.1c0.3,0,0.6,0,1,0.1c0.2,0.1,0.5,0.2,0.7,0.3c-0.1,0.1-0.1,0.3-0.1,0.4l-0.2,0.5
	h-0.1C350.6,91.8,350.1,91.5,349.6,91.6z"/>
<path class="st2" d="M357.3,94.3h-1.5H355v0.5c0,0.5,0,0.9,0,1.3s0,0.8,0.1,1.1h-1.6c0-0.4,0-0.8,0.1-1.1s0-0.8,0-1.3v-1.2
	c0-0.5,0-0.9,0-1.3c0-0.4,0-0.8-0.1-1.2h0.4h0.9h0.4c0,0.4-0.1,0.8-0.1,1.2c0,0.4,0,0.8,0,1.3h3.1c0-0.5,0-0.9,0-1.3s0-0.8-0.1-1.2
	h0.4h0.9h0.4c0,0.4,0,0.8-0.1,1.2s0,0.8,0,1.3v1.2c0,0.5,0,0.9,0,1.3s0,0.8,0.1,1.1H358c0-0.4,0-0.8,0.1-1.1c0-0.4,0-0.8,0-1.3v-0.5
	L357.3,94.3z"/>
<path class="st2" d="M367.3,91.6c-0.3,0-0.5,0.1-0.8,0.2c-0.2,0.1-0.3,0.3-0.3,0.6c0,0.2,0.1,0.4,0.2,0.5c0.2,0.2,0.4,0.3,0.6,0.4
	c0.2,0.1,0.5,0.2,0.7,0.3c0.3,0.1,0.5,0.2,0.7,0.4c0.2,0.1,0.4,0.3,0.6,0.6c0.2,0.3,0.2,0.5,0.2,0.8c0,0.3-0.1,0.6-0.2,0.8
	c-0.1,0.3-0.3,0.5-0.5,0.6c-0.3,0.2-0.5,0.3-0.8,0.4c-0.4,0.1-0.7,0.1-1.1,0.1c-0.3,0-0.7,0-1-0.1c-0.2,0-0.5-0.1-0.6-0.3
	c0.1-0.2,0.1-0.4,0.2-0.6c0-0.2,0.1-0.4,0.1-0.6h0.2c0,0.1,0.1,0.3,0.1,0.4c0.1,0.1,0.2,0.2,0.3,0.3c0.1,0.1,0.3,0.2,0.4,0.2
	c0.2,0.1,0.4,0.1,0.5,0.1c0.3,0,0.6-0.1,0.9-0.3c0.2-0.2,0.3-0.4,0.3-0.7c0-0.2-0.1-0.4-0.2-0.6c-0.2-0.2-0.3-0.3-0.5-0.4
	c-0.2-0.1-0.5-0.2-0.7-0.3c-0.3-0.1-0.5-0.2-0.7-0.4c-0.2-0.1-0.4-0.3-0.5-0.6c-0.2-0.3-0.2-0.5-0.2-0.8c0-0.6,0.2-1.1,0.7-1.4
	c0.2-0.2,0.5-0.3,0.7-0.4c0.3-0.1,0.6-0.1,0.9-0.1c0.3,0,0.6,0,1,0.1c0.2,0.1,0.5,0.2,0.7,0.3c-0.1,0.1-0.1,0.3-0.2,0.4l-0.2,0.5
	h-0.1C368.3,91.8,367.8,91.5,367.3,91.6z"/>
<path class="st2" d="M376.5,96.7c0,0.1-0.1,0.3-0.1,0.4c-0.6,0.3-1.3,0.4-2,0.4c-0.5,0-1.1-0.1-1.6-0.2c-0.4-0.1-0.8-0.3-1.2-0.6
	c-0.3-0.3-0.6-0.6-0.7-1c-0.2-0.4-0.3-0.8-0.2-1.2c0-0.5,0.1-1.1,0.3-1.6c0.2-0.4,0.5-0.8,0.9-1.1c0.4-0.3,0.8-0.5,1.3-0.6
	c0.5-0.1,1-0.2,1.5-0.2c0.2,0,0.4,0,0.5,0l0.6,0.1c0.2,0,0.3,0.1,0.5,0.1c0.1,0,0.3,0.1,0.4,0.2c-0.1,0.1-0.1,0.3-0.2,0.5
	c0,0.2-0.1,0.3-0.1,0.5h-0.1c-0.2-0.3-0.5-0.5-0.8-0.6c-0.3-0.1-0.6-0.2-0.9-0.2c-0.6,0-1.1,0.2-1.5,0.7c-0.2,0.2-0.4,0.5-0.5,0.8
	c-0.1,0.4-0.2,0.8-0.2,1.2c0,0.4,0.1,0.8,0.2,1.2c0.1,0.3,0.3,0.6,0.5,0.8c0.2,0.2,0.5,0.4,0.8,0.5c0.3,0.1,0.6,0.1,0.9,0.1
	c0.2,0,0.3,0,0.5,0c0.2,0,0.3-0.1,0.5-0.1c0.2-0.1,0.3-0.1,0.5-0.2c0.1-0.1,0.3-0.2,0.4-0.3l0.1,0.1
	C376.6,96.4,376.6,96.6,376.5,96.7z"/>
<path class="st2" d="M382.4,94.3h-1.5h-0.8v0.5c0,0.5,0,0.9,0,1.3s0,0.8,0.1,1.1h-1.6c0-0.4,0-0.8,0.1-1.1s0-0.8,0-1.3v-1.2
	c0-0.5,0-0.9,0-1.3c0-0.4,0-0.8-0.1-1.2h0.4h0.9h0.4c0,0.4-0.1,0.8-0.1,1.2c0,0.4,0,0.8,0,1.3h3.1c0-0.5,0-0.9,0-1.3s0-0.8-0.1-1.2
	h0.4h0.9h0.4c0,0.4,0,0.8-0.1,1.2s0,0.8,0,1.3v1.2c0,0.5,0,0.9,0,1.3s0,0.8,0.1,1.1h-1.6c0-0.4,0-0.8,0.1-1.1c0-0.4,0-0.8,0-1.3
	v-0.5L382.4,94.3z"/>
<path class="st2" d="M386.9,93c0.2-0.4,0.5-0.7,0.8-1c0.4-0.3,0.8-0.5,1.2-0.7c0.5-0.2,1-0.3,1.6-0.2c0.5,0,1,0.1,1.5,0.2
	c0.4,0.1,0.8,0.3,1.2,0.6c0.3,0.3,0.6,0.6,0.8,1c0.2,0.4,0.3,0.9,0.3,1.4c0,0.4-0.1,0.9-0.3,1.3c-0.2,0.4-0.5,0.7-0.8,1
	c-0.4,0.3-0.8,0.5-1.2,0.7c-0.5,0.2-1,0.2-1.5,0.2c-0.5,0-1-0.1-1.5-0.2c-0.4-0.1-0.8-0.3-1.2-0.6c-0.3-0.3-0.6-0.6-0.8-1
	c-0.2-0.5-0.3-1-0.3-1.5C386.6,93.8,386.7,93.4,386.9,93z M392.4,93c-0.1-0.3-0.2-0.6-0.4-0.8c-0.2-0.2-0.4-0.4-0.7-0.5
	c-0.3-0.1-0.6-0.2-0.9-0.2c-0.3,0-0.6,0.1-0.9,0.2c-0.3,0.1-0.5,0.4-0.7,0.6c-0.2,0.3-0.3,0.6-0.4,0.9c-0.1,0.4-0.2,0.7-0.1,1.1
	c0,0.4,0,0.8,0.2,1.2c0.1,0.3,0.3,0.6,0.5,0.8c0.2,0.2,0.4,0.3,0.7,0.4c0.3,0.1,0.5,0.1,0.8,0.1c0.3,0,0.6-0.1,0.9-0.2
	c0.3-0.1,0.5-0.3,0.7-0.5c0.2-0.3,0.4-0.6,0.5-0.9c0.1-0.4,0.2-0.8,0.2-1.3C392.6,93.7,392.5,93.3,392.4,93L392.4,93z"/>
<path class="st2" d="M395.9,93c0.2-0.4,0.5-0.7,0.8-1c0.4-0.3,0.8-0.5,1.2-0.7c0.5-0.2,1-0.3,1.6-0.2c0.5,0,1,0.1,1.5,0.2
	c0.4,0.1,0.8,0.3,1.2,0.6c0.3,0.3,0.6,0.6,0.8,1c0.2,0.4,0.3,0.9,0.3,1.4c0,0.4-0.1,0.9-0.3,1.3c-0.2,0.4-0.5,0.7-0.8,1
	c-0.4,0.3-0.8,0.5-1.2,0.7c-0.5,0.2-1,0.2-1.5,0.2c-0.5,0-1-0.1-1.5-0.2c-0.4-0.1-0.8-0.3-1.2-0.6c-0.3-0.3-0.6-0.6-0.8-1
	c-0.2-0.5-0.3-1-0.3-1.5C395.6,93.8,395.7,93.4,395.9,93z M401.5,93c-0.1-0.3-0.3-0.6-0.5-0.8c-0.2-0.2-0.4-0.4-0.7-0.5
	c-0.3-0.1-0.6-0.2-0.9-0.2c-0.3,0-0.6,0.1-0.9,0.2c-0.3,0.1-0.5,0.4-0.7,0.6c-0.2,0.3-0.3,0.6-0.4,0.9c-0.1,0.4-0.2,0.7-0.1,1.1
	c0,0.4,0,0.8,0.2,1.2c0.1,0.3,0.3,0.6,0.5,0.8c0.2,0.2,0.4,0.3,0.7,0.4c0.3,0.1,0.5,0.1,0.8,0.1c0.3,0,0.6-0.1,0.9-0.2
	c0.3-0.1,0.5-0.3,0.7-0.5c0.2-0.3,0.4-0.6,0.5-0.9c0.1-0.4,0.2-0.8,0.2-1.3C401.6,93.7,401.6,93.3,401.5,93L401.5,93z"/>
<path class="st2" d="M405.2,92.3c0-0.4,0-0.8-0.1-1.2h0.4h0.9h0.4c0,0.4,0,0.8-0.1,1.2s0,0.8,0,1.3v1.2c0,0.3,0,0.7,0,1s0,0.6,0,0.8
	h1.1c0.4,0,0.8,0,1.1-0.1c0,0.1,0,0.1,0,0.2c0,0.1,0,0.3,0,0.4c0,0,0,0.1,0,0.1h-3.9c0-0.4,0-0.8,0.1-1.1c0-0.4,0-0.8,0-1.3v-1.3
	C405.2,93.1,405.2,92.7,405.2,92.3z"/>
</svg>
