<?xml version="1.0" encoding="utf-8"?>
<!-- Generator: Adobe Illustrator 12.0.0, SVG Export Plug-In . SVG Version: 6.00 Build 51448)  -->
<!DOCTYPE svg PUBLIC "-//W3C//DTD SVG 1.1//EN" "http://www.w3.org/Graphics/SVG/1.1/DTD/svg11.dtd" [
	<!ENTITY ns_svg "http://www.w3.org/2000/svg">
	<!ENTITY ns_xlink "http://www.w3.org/1999/xlink">
]>
<svg  version="1.1" id="レイヤー_1" xmlns="&ns_svg;" xmlns:xlink="&ns_xlink;" width="40.202" height="24.491"
	 viewBox="0 0 40.202 24.491" overflow="visible" enable-background="new 0 0 40.202 24.491" xml:space="preserve">
<path fill="#3A5E2E" d="M1.207,11.872c0.815,0.176,2.513,1.22,2.884,0.527c0.379-0.653,1.502-1.34,2.225-1.323
	c0.896,0.071,2.061-1.127,3.153-0.841c0.994,0.203,2.599,1.928,3.364,2.104c0.742,0.148,1.604-0.972,1.673,0.665
	c0.079,1.637,1.632,2.725,1.088,3.296c-0.659,0.615-1.009,2.367-1.767,2.197c-0.746-0.187-2.402,0.593-1.799,1.032
	c0.553,0.533,1.184,2.021,0.344,2.088c-0.816,0.055-1.544,2.225,0.33,2.158c1.993-0.027,2.175-0.352,2.479-1.39
	c0.259-1.065,0.876-2.235,1.884-2.905c1.058-0.621,1.767-1.302,2.27-2.027c0.482-0.824,2.04-1.527,3.164-1.659
	c1.09-0.065,3.309-0.065,4.193,0.094c0.849,0.23,1.236,0.95,1.115,1.494c-0.267,0.599-0.324,1.049-1.241,0.841
	c-0.879-0.198-3.024-1.434-3.601-0.703c-0.66,0.703-0.602,1.961-0.602,1.961s-2.047,1.131-0.926,1.049
	c1.115-0.182,2.985,0.418,3.56-0.065c0.544-0.511,1.917-1.665,2.81-0.72c0.742,0.939,0.865,2.549,1.362,3.263
	c0.442,0.741,0.741,2.269,0.926,0.994c0.198-1.352,0.198-1.923,0.573-2.373c0.374-0.39,4.867-2.296,4.002-3.977
	c-0.926-1.703-1.681-1.879-0.75-2.373c0.986-0.55,1.863-0.835,2.197-1.879c0.292-1.038-0.065-1.697,0.654-2.323
	c0.717-0.577,1.197-1.324,1.563-2.214c0.426-0.901,1.77-0.813,0.703-1.967c-1.021-1.082-1.755-2.011-1.499-2.384
	c0.239-0.451,3.364-2.302,2.519-2.143c-0.885,0.176-2.041,0.39-1.964,0.061c0.143-0.352,2.535-0.682,0.944-1.038
	c-1.755-0.401-4.367-0.747-5.372-0.517c-0.997,0.274-1.626,1.494-3.622,1.132c-1.863-0.352-3.352-0.154-4.527-1.055
	c-1.343-0.891-1.523-1.066-2.134-0.891c-0.653,0.275-3.694,3.12-4.202,3.264c-0.48,0.143-1.621-0.1-2.867-0.407
	c-1.324-0.291-4.598,0.527-6.598,0.308C8.233,3.066,7.823,1.034,7.823,1.034S5.97,3.225,5.524,3.599
	C4.964,4,4.712,4.039,4.964,4.928c0.3,0.973,1.313,2.681,0.739,2.571C5.217,7.389,3.577,6.96,2.6,7.5
	c-0.944,0.549-2.464,2.384-2.59,2.873C-0.081,10.861,0.474,11.723,1.207,11.872"/>
</svg>
