<?xml version="1.0" encoding="utf-8"?>
<!-- Generator: Adobe Illustrator 12.0.0, SVG Export Plug-In . SVG Version: 6.00 Build 51448)  -->
<!DOCTYPE svg PUBLIC "-//W3C//DTD SVG 1.1//EN" "http://www.w3.org/Graphics/SVG/1.1/DTD/svg11.dtd" [
	<!ENTITY ns_svg "http://www.w3.org/2000/svg">
	<!ENTITY ns_xlink "http://www.w3.org/1999/xlink">
]>
<svg  version="1.1" id="レイヤー_1" xmlns="&ns_svg;" xmlns:xlink="&ns_xlink;" width="72.782" height="25.66"
	 viewBox="0 0 72.782 25.66" overflow="visible" enable-background="new 0 0 72.782 25.66" xml:space="preserve">
<g>
	<path fill="#BF000A" d="M46.426,13.297c0.539,0.323,1.149,0.513,1.727,0.748l-0.876-0.357
		C46.897,13.533,46.693,13.46,46.426,13.297"/>
	<polygon fill="#BF000A" points="49.843,14.471 50.17,14.527 50.451,14.57 	"/>
	<path fill="#BF000A" d="M53.093,14.811c-0.581-0.007-1.127-0.072-1.665-0.116C51.9,14.735,52.447,14.809,53.093,14.811"/>
	<path fill="#BF000A" d="M50.501,14.565c0.2,0.039,0.291,0.059-0.038,0.008l-0.012-0.003l0.977,0.125
		C51.077,14.669,50.768,14.623,50.501,14.565"/>
	<path fill="#BF000A" d="M50.501,14.565c-0.193-0.038-0.495-0.094-0.6-0.115C50.075,14.485,50.274,14.522,50.501,14.565"/>
	<path fill="#BF000A" d="M51.333,14.557c0.321,0.026,0.242,0.053,0.89,0.104c1.525,0.087,2.833,0.066,4.256,0.005
		c0.653-0.028,1.682-0.049,2.327-0.093c1.527-0.119,5.444-0.326,3.135-0.227c-3.468,0.168-5.719,0.42-8.822,0.326
		c-2.5-0.076-4.988-0.438-7.196-1.79c-0.618-0.362-1.123-0.831-1.61-1.295c0.625,0.625,1.339,1.195,2.229,1.672
		C47.713,13.868,49.269,14.345,51.333,14.557"/>
	<path fill="#BF000A" d="M39.798,1.698c0.045,0.325,0.135,0.97,0.135,0.97c0.214,1.439,0.622,2.938,1.27,4.326l-0.256-0.63
		c-0.309-0.821-0.326-0.923-0.097-0.176c-0.586-1.684-0.964-3.339-1.056-5.058C39.794,1.236,39.754,1.215,39.798,1.698"/>
	<polygon fill="#BF000A" points="39.773,0.116 39.792,1.13 39.794,1.09 39.773,0.083 	"/>
	<path fill="#BF000A" d="M60.018,14.578c2.166-0.124,4.275-0.233,6.336-0.107c3.23-0.561,1.451,2.241,0.039,3.438
		c-0.223,0.208-0.409,0.327-0.737,0.571c-0.251,0.19-0.511,0.359-0.796,0.493c-0.509,0.288-1.023,0.548-1.571,0.737l-0.573,0.23
		l-0.011,0.005c-0.312,0.101-0.222,0.076-0.027,0.026l0.574-0.215c-0.105,0.04-0.389,0.146-0.574,0.215
		c-0.262,0.07-0.56,0.154-0.904,0.253c-0.506,0.168-1.05,0.265-1.615,0.383c0.629-0.134,1.171-0.238,1.615-0.383l0.942-0.284
		l0.267-0.108c-1.253,0.449-2.545,0.751-3.86,0.94c-0.298,0.045-0.589,0.088-0.821,0.122c-0.949,0.11-1.905,0.205-2.499,0.207
		l-0.711,0.034l0.137-0.004l-0.263,0.011c-0.998,0.027-2,0.038-3.008,0.015l-1.992-0.039c0,0.001-0.451-0.032-0.676-0.05
		c-0.272-0.006-0.664-0.02-1.116-0.042c0.535,0.038,1.033,0.075,1.489,0.106c0.679,0.041,1.507,0.032,2.308,0.069
		c-0.801-0.037-1.629-0.028-2.308-0.069c-0.456-0.031-0.954-0.068-1.489-0.106c-0.953-0.052-2.18-0.147-3.163-0.242
		c1.224,0.084,2.258,0.17,3.163,0.242c0.452,0.022,0.844,0.036,1.116,0.042c0.225,0.018,0.676,0.051,0.676,0.05l1.992,0.039
		c-1.962-0.039-3.95-0.155-5.968-0.31c-6.553-0.24-12.715-1.729-18.394-4.635c-5.933-2.267-12.387-3.157-19.162-3.17
		c-1.784,0.173-3.785,0.755-4.726,2.417c-1.042,1.607-0.296,3.814,1.113,4.879c3.011,2.342,6.943,1.276,10.176,0.524
		c3.329-0.864,6.585-2.075,9.19-4.252c2.48-2.327,4.017-5.321,5.79-8.086c0.236-0.405,1.381-2.011,0.874-1.43
		C30.809,7.94,30.846,8.772,30.95,9.6c0.209,1.666,0.254,3.273,0.228,4.977c-0.056,1.691,0.182,3.382,0.429,5.069l0.413,2.538
		l0.213,1.275c0.212,0.144-0.326,0.588,0.503,0.483l0.452-0.547c0.528-2.731,3.289-5.522,4.623-9.177
		c1.37-3.569,2.071-7.317,2.392-9.881C40.77-2.564,40.29,1,40.269,1.325c-0.597,4.137-0.364,7.747-4.085,15.527
		c1.321-2.607,0.965-1.585-0.293,0.591c-0.632,1.086-1.549,2.423-2.276,3.92c-0.348,0.766-0.404,1.653-0.958,2.206
		c-0.101,0.598-0.242-1.166-0.344-1.542c-1.027-3.938-0.538-8.843-1.135-13.934l0.01-0.943c-0.168-0.176,0.383-0.275-0.377-0.516
		l-0.266,0.407L29.477,8.68c-0.706,1.096-1.327,2.244-2.037,3.327c-1.416,2.138-2.956,4.273-5.075,5.538
		c-2.086,1.296-4.555,2.254-7.412,3.004c-3.533,0.861-7.935,1.937-10.513-1.016c-1.267-1.311-1.212-3.568,0.177-4.741
		c1.313-1.241,3.296-1.548,5.113-1.497c7.483,0.232,15.132,1.394,22.38,5.133c4.007,1.626,7.827,2.103,11.412,2.422
		c2.632,0.2,5.448,0.427,7.593,0.481c3.373,0.077,6.306-0.023,9.049-0.581c-3.072,0.575-5.365,0.622-8.829,0.582
		c-2.313-0.081,1.609,0.041,3.141-0.049c0.655-0.027,1.689-0.032,2.337-0.098c1.426-0.116,2.729-0.304,4.226-0.654
		c0.634-0.157,0.564-0.128,0.879-0.215c2.021-0.585,3.435-1.435,4.475-2.278c0.756-0.697,1.337-1.421,1.752-2.224
		c0.143-0.332,0.787-1.447-0.146-1.285l-1.135-0.124c0.301,0.022,0.407,0.067,0.509,0.087c-0.544-0.077-1.321-0.101-1.878-0.141
		c0.557,0.041,1.334,0.064,1.878,0.141c-0.102-0.02-0.208-0.065-0.509-0.087c-2.75-0.201-5.915,0.067-8.846,0.243l0.042,0.002
		c1.713-0.095,3.393-0.217,5.171-0.24c-0.771,0.015-0.676,0.003,0.208-0.023l0.676,0.001c-1.533,0.034-3.061,0.122-4.51,0.187
		c0,0-0.655,0.047-0.982,0.066c-0.483,0.023-0.459,0.011-0.563,0.009l-1.017,0.053C57.762,14.692,60.018,14.578,60.018,14.578"/>
	<path fill="#BF000A" d="M61.736,20.235c0.229-0.068,0.504-0.149,0.797-0.235c-1.063,0.331-2.148,0.587-3.247,0.755
		C59.867,20.684,60.813,20.505,61.736,20.235"/>
	<path fill="#BF000A" d="M67.251,16.808c0.331,0.189,0.89-0.099,0.49-0.115c0.275,0.455,0.545,0.448,0.133-0.008l-1.373-1.633
		l1.372,1.648c0.542,0.572-0.087,0.235-0.122-0.121C68.197,16.938,67.497,16.862,67.251,16.808"/>
	<polygon fill="#BF000A" points="64.117,16.287 63.522,16.742 63.016,17.131 	"/>
	<path fill="#BF000A" d="M57.235,18.639c1.313-0.104,2.531-0.386,3.722-0.664C59.908,18.207,58.696,18.515,57.235,18.639"/>
	<path fill="#BF000A" d="M62.921,17.187c-0.424,0.175-0.621,0.252,0.071-0.044l0.024-0.012c-0.679,0.273-1.348,0.609-2.06,0.844
		C61.708,17.726,62.347,17.411,62.921,17.187"/>
	<path fill="#BF000A" d="M62.921,17.187c0.388-0.216,0.917-0.671,1.119-0.805C63.711,16.612,63.368,16.924,62.921,17.187"/>
	<path fill="#BF000A" d="M61.234,18.031c-0.715,0.189-0.558,0.102-2.006,0.436c-3.448,0.613-6.458,0.567-9.7,0.43
		c-1.491-0.052-3.825-0.295-5.289-0.441c-3.55,0.094-12.171-2.412-7.093-0.973c7.794,1.306,12.973,1.808,20.057,1.303
		c2.795-0.325,5.873-0.847,7.75-3.168c0.422-0.219,0.677-2.103,0.963-1.074l1.387,1.638l0.696,0.825
		c0.495,0.293-0.542-0.92-0.161-0.169c-0.433-0.175-1.366-0.229-2.039-0.242c-1.651-0.085-3.199-0.018-4.755,0.043
		c2.021-0.078,4.116-0.169,6.407,0.102c1.549,0.741-0.745-0.95-1.67-2.375C65.31,15.286,63.503,17.531,61.234,18.031"/>
	<path fill="#BF000A" d="M39.054,8.588c0.376,0.646,1.124,1.928,1.124,1.928c1.757,2.85,4.746,5.045,8.199,5.771
		c-0.5-0.126-0.976-0.309-1.476-0.466c-1.863-0.714-2.052-0.87-0.439-0.119c-3.888-1.405-6.368-4.773-7.901-8.306
		C38.659,7.615,38.573,7.596,39.054,8.588"/>
	<path fill="#BF000A" d="M37.796,5.224c0.158,0.761,0.498,1.472,0.765,2.173l-0.03-0.085c-0.286-0.719-0.597-1.419-0.753-2.162
		L37.796,5.224z"/>
	<path fill="#BF000A" d="M41.511,18.077c-5.012-0.282-9.329-2.656-13.685-4.355c-4.421-1.599-8.993-2.417-13.51-2.841
		c-0.695-0.043-1.192-0.072-2.121-0.144l-2.137-0.133c-1.331-0.03-2.65,0.041-3.94,0.327c-0.461,0.048-0.905,0.208-1.345,0.405
		l-0.026,0.009c-0.692,0.28-0.493,0.207-0.064,0.042c0.481-0.193,0.916-0.377,1.324-0.407c-0.265,0-0.908,0.225-1.324,0.407
		C4.111,11.613,3.42,11.817,2.79,12.35c-1.026,0.627-1.921,1.611-2.395,2.827c0.535-1.36,1.494-2.282,2.395-2.827
		c0.592-0.51,1.297-0.742,1.983-1.015l0.61-0.245c-2.884,0.756-5.627,3.242-5.366,6.423c-0.097,0.708,0.338,1.305,0.438,1.828
		c0.911,1.986,2.746,3.416,4.021,3.861c0.48,0.234,0.965,0.488,1.509,0.57l-0.3-0.074c0.231,0.058,0.421,0.102,0.58,0.142
		c2.204,0.636,4.56,0.459,6.806,0.067c1.451-0.328,2.954-0.599,4.409-1.069c0,0,0.993-0.29,1.484-0.431
		c0.593-0.179,1.438-0.479,2.388-0.875c-1.128,0.47-2.219,0.796-3.22,1.08c-1.472,0.473-3.306,0.915-5.1,1.254
		c1.794-0.339,3.628-0.781,5.1-1.254c1-0.284,2.092-0.61,3.22-1.08c2.004-0.84,4.428-2.311,6.082-3.841
		c-2.072,1.89-4.186,3.044-6.082,3.841c-0.95,0.396-1.795,0.696-2.388,0.875c-0.492,0.141-1.484,0.431-1.484,0.431
		c-1.456,0.471-2.958,0.741-4.409,1.069c4.36-0.855,8.88-2.046,12.638-4.798c3.14-2.109,4.942-5.499,6.872-8.556
		c0.475-0.781,0.964-1.55,1.495-2.288c-0.358-0.595-1.621-0.544-2.384-0.845c-1.423-0.3-4.283-1.181-4.515-0.995
		c0.402,0.201,1.178,0.173,0.366-0.003c-0.362,0.265-0.138,0.855-0.179,1.266l0.146,2.702c0.112,1.799,0.182,3.598,0.147,5.396
		c0.075,1.805,0.403,3.582,0.606,5.37l0.434,2.666c0.448,0.72,1.636,0.503,2.412,0.866c12.062,3.233,14.877-38.55,8.418-8.395
		c-0.923,1.861-2.073,3.598-3.094,5.403c-0.417,0.974-0.646,1.979-1.228,2.81c-0.292,0.537-0.745,0.642-0.901,0.792
		c0.237-0.001,0.515,0.305,0.718,0.048c-0.19-0.052-0.481-0.118-0.717-0.178l-2.973-0.759l-1.48-0.381
		c-0.072-0.256-0.168-0.938-0.254-1.383c-0.37-1.994-0.652-4.002-0.801-6.009c-0.257-2.012-0.017-4.001-0.256-6.021
		c0.187-1.639-1.362-5.186,1.47-3.588l2.892,0.724c0.353,0.286,1.417,0.089,0.503-0.082c-0.193-0.252-0.692,0.12-0.237,0.184
		c0.443,0.029-0.222,0.018-0.188,0.331c-1.104,1.647-2.067,3.379-3.164,5.005c-3.869,7.146-12.272,9.456-19.521,10.374
		c-3.664,0.295-7.867-1.185-9.312-4.722c-1.321-3.741,2.346-7.28,6.02-7.425c7.417-0.594,15.082,0.797,22.164,3.376
		c6.787,3.772,14.839,4.24,22.698,4.532c3.017-0.064,6.845,0.116,10.66-1.431c0.915-0.422,1.876-0.989,2.523-1.847
		c0.377-0.753,1.81-2.348,0.633-1.773l2.066,2.456c-0.312-0.637-1.927-0.398-2.871-0.484c-8.501,0.326-17.665,1.372-22.152-3.101
		c-5.145-5.835-4.632-8.385-4.884-8.018C37.821,5.3,38.495,7.421,38.72,7.735c1.869,4.443,5.318,7.922,10.948,8.857
		c2.771,0.413,5.875,0.343,9.501,0.171c1.812-0.112,3.756-0.199,5.861-0.196c0.848-0.22,2.56,0.592,2.838-0.209
		c-0.653-0.602-1.658-2.395-2.11-2.113c0.74,0.059,1.69,1.792,2.011,1.998c0.598,0.542-0.296,0.59,0.17,0.53
		c0.133-0.444-0.493-0.744-1.03-1.515c-0.301-0.356-0.651-0.771-1.043-1.229c-0.602-0.291,0.25,0.717,0.149,0.211
		c-0.477-0.122-0.371,0.515-0.615,0.723c-1.286,2.679-5.299,3.765-8.945,3.928c-3.736,0.301-7.572,0.053-10.721-0.211
		c-9.464,0.604-18.909-7.093-30.845-7.49c-2.876-0.358-5.899-0.556-8.832,0.056c-2.926,0.437-5.822,3.009-5.657,6.187
		c0.187,3.182,3.08,5.385,5.876,6.074c2.891,0.789,5.875,0.266,8.609-0.363c5.372-1.262,11.715-3.56,15.146-9.703
		c1.243-1.825,2.263-3.746,3.513-5.517c-0.395-1.065-0.794,0.137-0.344,0.021c0.044-0.151,0.951,0.601,0.569-0.296l-1.578-0.398
		l-3.145-0.783c-0.359,0.047-0.307-0.383-1.001,0.056l-0.006,0.817c0.015,0.543-0.023,1.094,0.036,1.627
		c0.078,1.061,0.247,2.17,0.271,3.185c-0.038,2.162,0.08,4.313,0.335,6.443c0.582,1.94-0.139,4.679,1.817,5.908l3.102,0.791
		c0.427-0.093,1.235,0.761,1.358-0.115c-0.242,0.122-0.554-0.586-0.727,0.222c0.227,0.166,0.876-0.078,0.852-0.286
		c1.679-4.032,4.493-7.245,5.789-11.464c0.721-2.027,1.263-4.124,1.645-6.246c0.189-1.06,0.371-2.126,0.494-3.202l0.151-1.62
		c-0.777-0.513-0.248,0.783-0.434,1.086c-0.147,4.276-0.731,8.673-2.261,12.709c-0.897,1.985-2.292,3.71-3.29,5.735
		c-0.521,1.035-0.619,2.17-1.438,2.921l-0.533,0.618c0.767,0.043-0.251-0.126-0.289-0.177L33.3,25.018
		c-2.025-1.064-5.091-0.017-4.653-3.076c-0.282-2.246-0.753-4.509-0.729-6.775c0.023-2.451-0.178-4.816-0.292-7.114
		c-0.102-0.441,0.088-1.425-0.152-1.399l0.418,0.101c0.384-0.677-0.134-0.251-0.153-0.429l-0.817-0.21
		c0.603,0.89,2.034,0.702,2.992,1.102c1.899,0.888,5.483,0.163,2.904,2.561c-1.119,1.802-2.161,3.588-3.35,5.251
		c-3.366,5.155-9.941,7.283-14.576,8.291c-3.677,0.952-7.416,1.134-10.47-0.339c-3.068-1.273-5.167-4.712-3.911-7.707
		c-1.317,3.399,1.151,6.49,3.864,7.693c2.821,1.34,6.239,1.405,10.035,0.468c5.12-1.301-3.533,1.368-7.026,0.539
		c-1.442-0.256-3.702-1.027-4.754-2.07c-2.563-1.875-3.536-5.674-1.12-8.335c0.979-1.067,1.015-0.786,1.559-1.261
		c4.13-2.415,8.136-1.432,11.05-1.351c2.304,0.208,4.348,0.508,6.337,0.88c1.249,0.281,2.502,0.501,3.79,0.859l2.48,0.704
		c-0.652-0.199-0.888-0.279-1.112-0.357c1.221,0.284,2.83,1.018,4.018,1.446c-1.188-0.428-2.797-1.162-4.018-1.446
		c0.224,0.078,0.46,0.158,1.112,0.357c2.949,0.996,5.937,2.592,9.203,3.637c3.28,1.035,6.79,1.205,10.109,1.558l-0.096-0.013
		c-3.863-0.434-7.783-0.536-11.553-2.117c1.662,0.568,1.429,0.559-0.445-0.161l-1.419-0.597c3.183,1.469,6.621,2.236,9.917,2.509
		c0,0,1.486,0.149,2.226,0.224c1.098,0.12,1.042,0.109,1.274,0.143l2.311,0.185C46.617,18.659,41.508,18.105,41.511,18.077"/>
	<path fill="#BF000A" d="M2.718,12.4c0.426-0.347,0.976-0.694,1.651-0.903c-2.313,0.911-4.409,3.009-4.35,5.638
		C-0.144,15.804,0.792,13.538,2.718,12.4"/>
	<path fill="#BF000A" d="M14.583,12.157c-0.836-0.091-1.673-0.181-2.51-0.202l1.261,0.083C13.877,12.097,14.165,12.12,14.583,12.157
		"/>
	<polygon fill="#BF000A" points="9.742,11.844 9.297,11.823 8.916,11.823 	"/>
	<path fill="#BF000A" d="M5.428,12.46c0.727-0.276,1.451-0.456,2.169-0.546C6.965,11.989,6.234,12.149,5.428,12.46"/>
	<path fill="#BF000A" d="M8.852,11.84c-0.272,0.002-0.398,0,0.048-0.015l0.016-0.001c-0.435,0.022-0.88,0.001-1.319,0.091
		C8.063,11.825,8.486,11.854,8.852,11.84"/>
	<path fill="#BF000A" d="M8.852,11.84c0.266-0.015,0.672,0.024,0.816,0.028C9.432,11.858,9.162,11.825,8.852,11.84"/>
	<path fill="#BF000A" d="M7.758,12.021c-0.42,0.084-0.337-0.02-1.179,0.192c-1.934,0.518-3.646,1.435-4.451,3.155
		c-0.406,0.768-0.533,2.163-0.271,2.994c0.189,2.465,5.308,4.642,2.532,3.16c-4.155-2.505-3.05-7.818,1.063-8.921
		c3.181-1.177,6.57-0.451,9.978-0.255c0.967,0.085,1.87,0.191,2.771,0.365c-1.17-0.233-2.393-0.328-3.74-0.476
		C12.702,12.05,10.518,11.908,7.758,12.021"/>
	<path fill="#BF000A" d="M32.362,17.007c-0.407-0.167-1.209-0.508-1.209-0.511c-1.773-0.813-3.663-1.643-5.628-2.236l0.863,0.291
		c1.104,0.407,1.232,0.456,0.258,0.072c2.249,0.816,4.272,1.828,6.405,2.705C32.924,17.264,32.959,17.267,32.362,17.007"/>
	<polygon fill="#BF000A" points="34.32,17.818 33.052,17.329 33.1,17.352 34.361,17.835 	"/>
	<path fill="#BF000A" d="M2.473,19.846c3.989,5.012,10.742,2.85,15.486,1.484c0.38-0.152,0.651-0.264,1.167-0.454l1.184-0.438
		c0.745-0.252,1.439-0.595,2.135-0.94c0.238-0.126,0.501-0.225,0.729-0.396l0.015-0.01c0.364-0.244,0.257-0.18,0.029-0.036
		c-0.249,0.179-0.508,0.282-0.723,0.385c0.137-0.065,0.508-0.225,0.723-0.385c0.306-0.195,0.656-0.423,1.057-0.685
		c0.578-0.418,1.133-0.911,1.711-1.428c-0.641,0.577-1.197,1.069-1.711,1.428l-1.1,0.73l-0.33,0.2
		c1.54-0.91,2.941-2.027,4.129-3.364c0.27-0.303,0.506-0.617,0.708-0.861c0.809-0.996,1.5-2.085,1.939-2.751l0.5-0.812l-0.095,0.154
		l0.182-0.3c0.688-1.148,1.418-2.28,2.155-3.409c0.189-0.537,0.524-0.493,1.022-0.31c-0.074-0.114-0.771-0.214-1.127-0.323
		c0,0-0.587-0.16-0.878-0.237c-0.356-0.079-0.867-0.202-1.459-0.344c0.697,0.182,1.342,0.355,1.938,0.511
		c0.438,0.119,0.932,0.232,1.443,0.355c0.181,0.024-0.911-0.367-0.985,0.336c0.074-0.704,1.166-0.312,0.985-0.336
		c-0.511-0.123-1.005-0.236-1.443-0.355c-0.596-0.156-1.241-0.329-1.938-0.511c-0.249-0.032-0.781-0.258-0.851-0.14L29.04,7.696
		c-0.018,0.74,0.056,1.482,0.113,2.14c-0.092-0.813-0.164-1.577-0.13-2.285c0.004-0.333,0.03-0.733,0.021-0.979
		c0.237-0.046,0.599,0.125,0.875,0.174c0.592,0.143,1.103,0.265,1.459,0.344c0.291,0.077,0.878,0.237,0.878,0.237
		c0.357,0.109,1.053,0.209,1.127,0.323c-0.498-0.184-0.833-0.228-1.022,0.31c-0.06-0.885,1.848-0.033,0.569-0.487l-1.937-0.486
		L29.04,6.502c-0.006,0.66-0.051,1.343-0.012,2.026c0.515,4.343,0.03,8.681,0.956,12.881c0.321,0.895-0.006,2.453,0.854,2.795
		l3.085,0.786c0.25,0.813,1.648-2.429,2.378-4.02c2.134-3.615,4.544-7.374,4.805-11.81c0.232-1.067,0.279-2.159,0.369-3.251
		c0.25-1.017,0.009-2.947-0.154-0.908c-0.247,2.193-0.676,4.402-1.407,6.548c-1.341,4.736-4.333,8.752-6.258,12.958
		c-0.163,0.382,0.781,0.539,0.399,0.178l-0.86-0.218l-1.717-0.441c-0.729-0.215-0.541-2.06-0.854-3.004
		c-0.417-2.311-0.667-4.615-0.653-6.935c0.12-2.314-0.376-4.608-0.324-6.846c-0.181-0.884,0.168-0.303,0.868-0.269l1.641,0.405
		c0.17-0.971-0.614,1.049-1.209,1.703c-2.271,3.812-4.571,7.804-8.555,9.875c-3.859,2.069-8.245,3.313-12.677,3.664
		c-2.186,0.063-4.544-0.539-6.133-2.095c-1.87-1.429-1.949-4.214-0.511-5.958c2.252-3.06,8.032-2.391,12.893-1.893
		c5.069,0.391,9.924,1.891,13.103,3.202c8.538,3.593,4.2,1.524,3.769,1.408c-5.128-2.326-9.326-4.524-20.946-5.333
		c3.94,0.384,2.493,0.167-0.889,0.007c-1.67,0.015-3.918-0.092-6.003,0.771c-2.062,0.897-3.5,3.154-3.233,5.109
		c0.435,2.814,3.51,4.944,6.696,5.07c3.242,0.183,6.542-0.693,9.815-1.758c3.245-1.118,6.492-2.846,8.751-5.586
		c2.028-2.512,4.227-6.346,5.197-8.1c0.084-0.825-3.999-1.695-2.889,0.918c0.104,1.824,0.376,3.656,0.319,5.653
		c-0.034,2.59,0.323,5.166,0.769,7.661c0.14,1.115,0.224,2.962,1.856,2.855l1.852,0.462c-0.005-1.202-0.61,0.106-0.118-0.45
		c0.215-0.264,0.414-0.49,0.6-0.801c1.792-4.643,5.01-8.77,6.077-13.8c0.315-1.231,0.578-2.473,0.761-3.734l0.217-1.894
		c-0.186-0.826-0.476,0.323-0.409,0.86c-0.12,2.537-0.558,5.056-1.112,7.562c-0.659,2.466-2.106,4.678-3.432,6.956
		c-0.667,1.131-1.327,2.338-1.74,3.611c-0.105,0.722-0.908,0.799-0.861,1.84l0.488,0.129l0.121,0.029
		c0.086-0.15-0.09,0.372,0.128-0.361c0.071,0.014,0.006,0,0-0.001l-0.239-0.059l-0.984-0.246l-2.058-0.521l-1.005-0.257
		c0.176,0.255-0.047-0.513-0.052-0.715c-0.208-1.34-0.46-2.641-0.618-3.919c-0.475-2.551-0.311-5.005-0.423-7.443
		c-0.175-1.692-0.18-3.789-0.447-5.108c1.464,0.216,3.799,1.27,4.201,0.734c-3.366,2.702-4.431,7.058-7.319,9.396
		c3.096-2.828,3.858-6.034,7.033-9.46c0.457-0.163,0.612,0.525,0.297,0.377c-0.144-0.038-0.184-0.048-0.141-0.041
		c0.027,0.006,0.206,0.048,0.32,0.076c-0.04-0.568-0.394-0.246-0.648-0.431c-1.015,0.925-1.703,2.536-2.331,3.392
		c-0.438,0.76-1.189,1.916-1.673,2.637c-1.06,1.579-2.176,2.947-3.733,4.263c-0.655,0.568-0.598,0.477-0.96,0.715
		c-2.271,1.607-4.399,2.19-6.038,2.853c-1.288,0.428-2.49,0.662-3.635,0.977c-0.724,0.204-1.471,0.308-2.242,0.453
		c-0.488,0.076-0.989,0.16-1.5,0.201c0.4-0.014,0.546-0.038,0.686-0.04c-0.729,0.107-1.764,0.146-2.506,0.121
		c0.742,0.025,1.777-0.014,2.506-0.121c-0.14,0.002-0.285,0.026-0.686,0.04c-3.402,0.571-8.721-1.179-8.983-5.506l-0.004,0.057
		c0.15,2.332,1.991,4.196,4.212,4.981c-0.957-0.391-0.829-0.351,0.264,0.087c0.267,0.136,0.579,0.171,0.865,0.259
		c-1.99-0.446-3.913-1.583-4.801-3.354c-0.026,0.018-0.374-0.799-0.453-1.227c-0.098-0.643-0.101-0.608-0.087-0.747
		c0.014-0.451,0.004-0.899,0.152-1.341C1.209,17.015,2.246,19.961,2.473,19.846"/>
	<path fill="#BF000A" d="M24.316,18.345c-0.266,0.177-0.586,0.388-0.93,0.615c1.281-0.774,2.417-1.768,3.428-2.863
		C26.279,16.675,25.357,17.572,24.316,18.345"/>
	<path fill="#BF000A" d="M63.413,14.356c1.212-0.045,2.424-0.008,3.62,0.137L65.22,14.33C64.432,14.332,64.015,14.344,63.413,14.356
		"/>
	<polygon fill="#BF000A" points="67.708,16.53 67.31,17.026 66.935,17.422 	"/>
	<path fill="#BF000A" d="M62.543,19.917c1.097-0.265,1.985-0.881,2.916-1.335C64.629,18.96,63.759,19.615,62.543,19.917"/>
	<path fill="#BF000A" d="M66.882,17.5c-0.29,0.261-0.42,0.384,0.038-0.062l0.017-0.017c-0.464,0.417-0.874,0.917-1.478,1.16
		C66.099,18.326,66.477,17.833,66.882,17.5"/>
	<path fill="#BF000A" d="M66.882,17.5c0.277-0.262,0.664-0.705,0.788-0.872C67.46,16.898,67.2,17.188,66.882,17.5"/>
	<path fill="#BF000A" d="M65.712,18.595c-0.554,0.295-0.438,0.197-1.557,0.791c-2.715,1.187-5.256,1.733-8.019,1.844
		c-1.265,0.137-3.264,0.042-4.515,0.029c-2.97-0.074-10.528-0.663-6.071-0.316c6.653,0.388,11.193,0.968,17.001-0.881
		c2.277-0.786,4.635-1.965,5.697-4.266c0.819-1.703-1.421-1.371-2.376-1.519c-1.22-0.095-2.456-0.01-3.706-0.009
		c-1.401,0.069-2.716,0.132-4.038,0.192c1.721-0.054,3.487-0.208,5.448-0.199c1.286-0.057,2.703,0.049,4.307,0.199
		C69.248,15.575,67.118,17.629,65.712,18.595"/>
	<path fill="#BF000A" d="M40.975,5.469c0.167,0.616,0.661,1.776,0.697,1.76c1.055,2.585,2.988,5.143,5.778,6.288
		c-0.389-0.202-0.795-0.359-1.153-0.629c-1.418-0.936-1.534-1.111-0.335-0.193c-2.9-1.959-4.38-5.131-5.307-8.275
		C40.699,4.619,40.684,4.574,40.975,5.469"/>
	<polygon fill="#BF000A" points="40.284,2.492 40.655,4.419 40.645,4.342 40.273,2.428 	"/>
	<path fill="#BF000A" d="M49.286,21.076c-4.185-0.3-8.282-0.466-12.185-1.361c-3.947-0.779-7.36-2.843-11.01-4.098
		c-0.562-0.185-0.963-0.314-1.712-0.574c-0.578-0.199-1.169-0.314-1.758-0.473c-1.09-0.311-2.196-0.477-3.304-0.642l-1.184-0.182
		l-0.024-0.004c-0.627-0.094-0.45-0.062-0.067,0.004c0.435,0.07,0.831,0.138,1.168,0.194c-0.214-0.036-0.787-0.13-1.168-0.194
		c-0.515-0.086-1.11-0.182-1.792-0.29c-1.015-0.201-2.087-0.188-3.204-0.296c1.243,0.104,2.313,0.113,3.204,0.296l1.883,0.29
		l0.551,0.082c-2.54-0.481-5.094-0.67-7.666-0.826c-0.583-0.037-1.149-0.088-1.601-0.103c-1.881-0.217-3.692,0.571-4.604,1.241
		c-0.369,0.268-0.742,0.545-0.998,0.943l0.165-0.206l-0.318,0.398c-1.406,1.604-0.497,3.978,1.001,5.154
		c0.951,0.881,2.265,1.213,3.53,1.442c0,0,0.878,0.046,1.314,0.068c0.525-0.011,1.288-0.069,2.153-0.204
		c-1.029,0.143-1.997,0.209-2.879,0.13c-1.292-0.06-2.957-0.4-4.11-1.486c1.153,1.086,2.819,1.427,4.11,1.486
		c0.882,0.079,1.851,0.013,2.879-0.13c1.823-0.284,4.144-0.865,5.959-1.452c-2.255,0.744-4.223,1.202-5.959,1.452
		c-0.866,0.135-1.628,0.193-2.153,0.204c-0.437-0.022-1.314-0.068-1.314-0.068c-1.265-0.229-2.579-0.562-3.53-1.442
		c3.167,2.503,7.506,1.362,11.144,0.412c3.032-0.852,6.007-2.006,8.478-3.94c2.37-2.073,3.922-4.808,5.525-7.415
		c0.308-1.097,3.041-3.2,0.611-2.643c-0.09,1.543,0.146,3.062,0.217,4.589c0.071,3.045,0.045,6.132,0.612,9.156l0.368,2.271
		c0.101,0.384,0.037,0.754,0.274,1.146c-0.388-0.062,0.535,0.157,0.737,0.215c1.594-0.373,1.398-2.594,2.361-3.697
		c1.665-2.589,2.983-5.471,3.656-8.543c0.289-1.538,0.609-3.089,0.736-4.666c-0.017-0.472,0.388-2.283,0.024-1.659
		c-0.103,0.784-0.258,1.566-0.42,2.347c-0.714,3.097-1.595,6.254-3.239,9.086c-0.889,1.52-1.935,2.977-2.605,4.62
		c-0.118,0.421-0.328,0.837-0.37,1.265c-0.05,0.157-0.273,0.262-0.419,0.473c-0.073,0.328,0.382,0.545,0.525,0.234l-0.436-2.582
		c-0.705-3.43-0.632-6.878-0.803-10.315c-0.068-0.851-0.179-1.728-0.214-2.552l0.007-1.281c-0.038-0.509-0.998-0.575-0.996-0.175
		c-1.001,1.392-1.804,2.885-2.715,4.311c-1.686,2.932-3.869,5.587-6.916,7.054c-2.936,1.551-6.151,2.462-9.376,2.854
		c-3.025,0.681-7.195-0.11-7.603-3.61c0.016-3.526,4.492-4.229,7.346-3.819c3.192,0.198,6.375,0.518,9.503,1.137
		c6.361,0.929,11.727,5.106,18.318,5.867c6.432,0.912,13.045,1.475,19.795,0.754c2.514-0.406,5.838-1.008,8.43-3.451
		c0.543-0.687,1.165-1.343,1.49-2.209c0.761-1.499-1.187-1.193-1.756-1.635c-1.846-0.367-3.714,0.008-5.504-0.03
		c-7.142,0.664-15.34,0.747-17.99-4.191c-3.521-5.632-2.809-7.661-3.082-7.392c-0.056,0.147,0.299,2,0.406,2.303
		c1.152,3.778,3.108,7.689,7.769,9.16c4.614,1.568,10.558-0.045,18.771,0.616c-2.736-0.578-3.694-0.148-3.255-0.288
		c0.376,0.075,2.264-0.421,4.425,0.731c0.004,1.919-3.043,4.483-5.95,5.251c-3.034,0.984-6.32,1.18-8.997,1.166
		c-7.692-0.281-17.477-0.304-26.308-5.132c-4.663-1.805-9.754-2.536-14.771-2.892c-2.435-0.215-5.205-0.46-7.388,1.025
		c-2.501,1.491-1.703,5.251,0.606,6.319c4.649,1.853,10.067,0.137,15.204-2.218c3.485-1.615,5.78-4.835,7.578-7.984L29.9,8.128
		c0.58-0.832,0.943-1.662,1.225-1.149c-0.124,1.832,0.313,3.668,0.298,5.459c-0.032,3.629,0.386,7.293,1.09,10.843
		c0.089,0.038-0.035,0.859,0.229,0.255c-0.238-0.149-0.137,0.17-0.006-0.076c0.476-0.399,0.333-0.931,0.564-1.305
		c0.288-0.837,0.72-1.63,1.164-2.41c0.927-1.521,1.946-3.096,2.67-4.775c0.7-1.696,1.267-3.441,1.721-5.22
		c0.233-0.887,0.428-1.786,0.602-2.69l0.221-1.367c-0.267-0.5-0.52,0.132-0.458,0.596c-0.347,3.634-0.901,7.34-2.542,10.676
		c-0.722,1.67-1.934,3.181-2.683,4.946c-0.202,1.998-2.327,3.368-2.193,0.484c-0.792-3.767-0.864-7.548-0.931-11.511
		c-0.219-1.841-0.375-5.026,0.177-3.731c-1.12,1.626-2.07,3.288-3.07,4.856c-1.902,3.213-4.521,5.751-7.768,7.078
		c-4.576,1.855-10.26,3.606-14.09,2.019c-1.467-0.599-2.567-1.889-2.949-3.295c-0.307-1.482,0.698-2.852,1.844-3.601
		c2.38-1.751,5.361-1,7.981-0.914c-2.942-0.152-5.748-0.76-7.954,0.882c-2.621,1.283-2.445,5.283,0.7,6.761
		c1.998,0.867,1.304,0.579-0.231-0.08c-1.58-0.676-2.976-3.332-2.182-4.7c0.379-1.223,2.075-2.41,3.244-2.796
		c2.627-0.719,5.229-0.038,8.154,0.021c1.257,0.069,1.099,0.165,1.724,0.233c3.982,0.579,7.069,1.044,9.46,2.033
		c1.85,0.65,3.462,1.365,5.029,2.067c0.984,0.471,2.01,0.831,3.081,1.235c0.662,0.283,1.391,0.421,2.113,0.613
		c-0.562-0.155-0.764-0.22-0.956-0.282c1.032,0.259,2.477,0.68,3.548,0.817c-1.072-0.138-2.516-0.559-3.548-0.817
		c0.192,0.063,0.394,0.127,0.956,0.282c5.175,1.293,11.348,1.492,17.024,1.686l-0.083-0.006c-3.325-0.035-6.572-0.322-10.001-0.603
		c1.486,0.126,1.296,0.146-0.402-0.026l-1.299-0.167c2.952,0.36,5.911,0.479,8.71,0.69c0,0,1.27,0.05,1.901,0.074
		c0.938,0.025,0.89,0.02,1.09,0.031l1.973-0.005C53.65,21.29,49.286,21.102,49.286,21.076"/>
	<path fill="#BF000A" d="M16.177,13.442c0.456,0.071,1.004,0.155,1.591,0.246c-2.123-0.41-4.28-0.5-6.428-0.66
		C12.469,13.153,14.328,13.191,16.177,13.442"/>
	<path fill="#BF000A" d="M18.309,15.105c-0.73-0.143-1.467-0.254-2.204-0.321l1.109,0.14C17.691,15.01,17.944,15.047,18.309,15.105"
		/>
	<polygon fill="#BF000A" points="14.056,14.552 13.665,14.505 13.33,14.482 	"/>
	<path fill="#BF000A" d="M10.193,14.292c0.685,0.045,1.336,0.085,1.972,0.123C11.606,14.377,10.953,14.336,10.193,14.292"/>
	<path fill="#BF000A" d="M13.271,14.493c-0.239-0.02-0.349-0.031,0.044-0.011l0.014,0l-1.164-0.067
		C12.58,14.441,12.949,14.468,13.271,14.493"/>
	<path fill="#BF000A" d="M13.271,14.493c0.233,0.013,0.592,0.063,0.719,0.08C13.781,14.545,13.544,14.508,13.271,14.493"/>
	<path fill="#BF000A" d="M12.286,14.552c-0.381-0.021-0.29-0.049-1.06-0.09c-1.792-0.157-3.419-0.114-4.886,0.659
		c-0.724,0.276-1.399,1.396-1.352,2.144c-0.349,2.499,4.779,3.563,2.078,2.684c-1.885-0.696-2.652-2.916-1.492-4.141
		c1.037-1.212,2.811-1.405,4.589-1.377c2.986,0.165,5.87,0.342,8.879,0.907c0.843,0.157,1.644,0.26,2.421,0.488
		c-1.012-0.3-2.095-0.411-3.268-0.649C16.65,14.892,14.744,14.723,12.286,14.552"/>
	<path fill="#BF000A" d="M33.795,20.286c-0.368-0.125-1.097-0.375-1.097-0.375c-1.605-0.634-3.269-1.364-4.933-2.083l0.73,0.338
		c0.956,0.414,1.068,0.454,0.225,0.077c1.923,0.872,3.762,1.656,5.704,2.282C34.305,20.483,34.334,20.485,33.795,20.286"/>
	<polygon fill="#BF000A" points="35.581,20.846 34.424,20.525 34.468,20.541 35.619,20.859 	"/>
	<path fill="#BF000A" d="M5.319,18.619c1.455,2.375,4.623,1.951,6.857,1.61c2.407-0.457,4.687-1.234,6.896-2.071
		c0.328-0.154,0.562-0.267,1.008-0.46c0.354-0.129,0.659-0.34,0.982-0.524c0.615-0.329,1.146-0.764,1.688-1.187
		c0.196-0.138,0.359-0.324,0.542-0.495l0.01-0.01c0.277-0.273,0.194-0.2,0.018-0.037c-0.201,0.179-0.364,0.365-0.54,0.481
		c0.116-0.067,0.364-0.325,0.54-0.481c0.227-0.227,0.517-0.459,0.792-0.783c0.409-0.481,0.846-0.966,1.238-1.533
		c-0.431,0.631-0.878,1.11-1.238,1.533c-0.256,0.31-0.553,0.555-0.82,0.83l-0.245,0.241c1.192-1.05,2.147-2.312,3.027-3.617
		c0.194-0.301,0.385-0.592,0.533-0.829c0.576-0.979,1.17-1.948,1.557-2.537l0.445-0.717l-0.087,0.136l0.166-0.263
		c0.302-0.509,0.658-0.984,0.994-1.475c0.438-0.274-0.423-0.435-0.379-0.328l0.869,0.213c0.69,0.186,1.668,0.345,2.152,0.568
		c0,0-0.02,0.538-0.031,0.804c-0.015,0.323,0.027,0.791,0.077,1.323c-0.061-0.633-0.056-1.225-0.024-1.768
		c0.178-0.841-1.476-0.577-2.179-0.974c0.703,0.397,2.357,0.132,2.179,0.974c-0.032,0.543-0.036,1.135,0.024,1.768
		c0.115,1.127,0.198,2.584,0.189,3.753c-0.031-1.453-0.109-2.68-0.189-3.753c-0.05-0.532-0.092-1-0.077-1.323
		c0.011-0.266,0.031-0.804,0.031-0.804c-0.484-0.223-1.462-0.383-2.152-0.568c3.242-0.226,1.765,3.072,2.344,5.289
		c0.001,3.864,0.258,7.674,1,11.372c0.623,1.476-0.876,0.308-1.667,0.321c-0.69,0.464,0.436-0.689,0.58-1.557
		c0.7-1.734,1.715-3.318,2.673-4.933c2.14-3.162,2.697-7.062,3.043-10.85c0.36-3.62-0.388,0.368-0.589,1.885
		c-0.43,1.903-0.969,3.815-1.766,5.652c-0.797,2.021-1.875,3.887-2.964,5.719c-0.574,0.902-1.035,1.89-1.329,2.91
		c-0.174,0.572-0.313,0.932-0.93,0.621c0.116,0.409,0.911,0.344,1.332,0.536l1.522,0.395c0.514,0.286,1.181,0.232,0.847-0.512
		l-0.508-3.075c-0.354-2.047-0.573-4.083-0.52-6.131c0.056-2.048-0.253-4.083-0.322-6.055c1.41-1.319-1.682-1.445-3.402-1.995
		c-2.586,2.973-3.881,6.919-6.863,9.473c-2.966,2.521-6.89,3.621-10.711,4.463c-1.887,0.328-4.089,0.582-5.654-0.609
		c-1.748-1.264-0.937-4.032,1.176-4.371c6.221-0.823,18.006,1.522,23.354,4.561c7.76,2.748,3.816,1.044,3.413,1.056
		c-4.754-1.504-8.018-4.432-18.295-5.685c3.464,0.467,2.184,0.309-0.784-0.043c-1.485-0.15-3.398-0.354-5.361-0.352
		c-1.876-0.222-4.313,0.457-4.724,2.335c-0.551,2.965,3.226,4.281,5.837,3.619c2.806-0.393,5.671-1.255,8.482-2.463
		c2.878-1.171,5.156-3.608,6.717-6.252l2.392-3.921c0.334-0.45,0.995-1.662,1.112-1.457l2.161,0.537l1.08,0.272l0.544,0.14
		c0.365-0.703-0.205-0.267-0.271-0.46c-1.045,0.402-0.32,1.442-0.485,2.173c0.151,1.601,0.309,3.221,0.289,4.984
		c-0.076,2.293,0.244,4.574,0.619,6.783c0.243,0.909,0.227,2.658,0.696,2.876l-3.239-0.831l-0.402-0.104
		c-0.305,0.791,0.092,0.267,0.151,0.475c0.275,0.144,0.904-0.104,0.857-0.408c0.23-0.568,0.339-1.08,0.568-1.577
		c0.395-1.016,1.023-1.917,1.593-2.892c1.096-1.938,2.107-3.942,2.851-6.061c0.759-2.113,1.282-4.314,1.583-6.558
		c-0.086-0.478,0.508-1.312-0.168-1.478l-0.142,1.684c-0.102,1.125-0.147,2.263-0.405,3.373c-0.188,4.744-3.517,8.294-5.413,12.763
		c-0.003,0.44-0.9,1.483-0.487,1.132c-0.19,0.758,0.968,0.474,1.375,0.755c0.309-0.112,0.54,0.57,0.907-0.198l-0.146-0.87
		l-0.284-1.713c-0.394-2.256-0.666-4.412-0.658-6.542c-0.063-1.552-0.03-3.205-0.186-4.733c-0.292-1.3,0.44-3.605-1.417-3.413
		L29.75,6.019c-0.124-0.32-0.755,0.209-0.302,0.253c0.38,0.062,0.155-0.288,0.016,0.15c-0.55,0.759-1.029,1.544-1.488,2.299
		c-0.948,1.503-1.747,2.987-2.721,4.306c1.083-1.478,1.83-2.888,2.715-4.281C28.401,8.05,28.831,7.32,29.349,6.6
		c0.105-0.058,0.305-0.642,0.336-0.277c-0.188,0.228-0.631-0.531-0.194-0.359l1.436,0.35c2.671,1.002-2.292-1.473-2.032,1.027
		c-0.413,0.663-1.08,1.682-1.482,2.343c-0.878,1.447-1.646,2.793-2.774,4.202c-0.494,0.589-0.46,0.498-0.708,0.792
		c-1.673,1.794-3.338,2.797-4.801,3.354c-1.114,0.445-2.145,0.774-3.144,1.1l-1.942,0.569l-1.303,0.31
		c0.348-0.068,0.477-0.085,0.6-0.1c-0.63,0.165-1.532,0.321-2.187,0.396c0.654-0.074,1.556-0.23,2.187-0.396
		c-0.123,0.015-0.252,0.031-0.6,0.1c-1.575,0.31-3.341,0.621-5.082,0.238c-1.736-0.283-3.186-2.218-2.514-3.873l-0.018,0.048
		c-0.78,2.053,1.33,3.903,3.366,3.986c-0.905-0.126-0.786-0.121,0.245,0.015c0.258,0.058,0.532,0.054,0.796,0.046
		c-1.774,0.075-3.8-0.587-4.428-2.29c-0.087,0.028-0.133-0.757-0.208-1.134c0.182-0.545,0.184-0.512,0.23-0.623
		c0.06-0.412,0.415-0.66,0.649-0.98C4.617,15.876,4.95,18.761,5.319,18.619"/>
	<path fill="#BF000A" d="M24.144,14.629c-0.173,0.225-0.432,0.448-0.688,0.704c0.968-0.903,1.765-1.968,2.509-3.055
		C25.565,12.848,24.907,13.774,24.144,14.629"/>
	<path fill="#BF000A" d="M71.885,15.355c-0.216,1.041-0.908,2.281-1.685,3.193c0.36-0.517,0.833-0.947,1.057-1.547
		C71.563,16.304,71.914,15.803,71.885,15.355"/>
	<path fill="#BF000A" d="M67.547,20.776l-0.574,0.331l-0.498,0.27C66.833,21.174,67.214,21.005,67.547,20.776"/>
	<path fill="#BF000A" d="M61.479,23.092c1.142-0.184,2.205-0.511,3.207-0.898C63.805,22.531,62.749,22.882,61.479,23.092"/>
	<path fill="#BF000A" d="M66.396,21.436c-0.36,0.187-0.526,0.271,0.058-0.047l0.021-0.013c-0.559,0.335-1.175,0.565-1.789,0.817
		C65.337,21.931,65.925,21.714,66.396,21.436"/>
	<path fill="#BF000A" d="M66.396,21.436c0.347-0.186,0.896-0.458,1.079-0.575C67.169,21.041,66.802,21.216,66.396,21.436"/>
	<path fill="#BF000A" d="M64.937,22.231c-0.603,0.241-0.458,0.195-1.719,0.565c-2.99,0.779-5.631,0.971-8.495,1.093
		c-1.314,0.03-3.387-0.014-4.683-0.087c-3.079-0.073-10.919-0.809-6.297-0.378c6.929,0.539,11.533,0.868,17.72-0.187
		c2.506-0.462,4.879-1.423,6.922-2.894c1.034-0.719,1.914-1.649,2.647-2.694c0.313-0.551,0.575-1.15,0.835-1.728
		c0.21-0.182,0.218-0.831-0.114-0.715c-0.015,0.127,0.862,0.795,0.409,0.277c-0.933-1.115-1.811-2.159-2.691-3.211l1.753,2.098
		l0.916,1.099c0.32,0.854-0.781-1.071-0.11,0.011C71.275,18.052,68.86,20.705,64.937,22.231"/>
	<path fill="#BF000A" d="M47.636,10.374c0.476,0.489,1.72,0.939,1.717,0.941c2.781,0.993,5.952,0.714,8.993,0.6l-1.364,0.05
		c-1.761,0.048-1.964,0.064-0.398,0.028c-3.431,0.015-7.357,0.303-9.729-2.451C46.993,9.706,46.919,9.706,47.636,10.374"/>
	<path fill="#BF000A" d="M45.671,7.892c0.344,0.588,0.745,1.157,1.183,1.651l-0.049-0.062c-0.449-0.513-0.83-1.075-1.167-1.646
		L45.671,7.892z"/>
	<path fill="#BF000A" d="M47.619,23.6c-4.343-0.302-8.583-0.651-12.604-1.68c-4.065-0.932-7.562-3.16-11.407-4.309
		c-0.593-0.158-1.01-0.296-1.807-0.498l-1.838-0.436c-1.147-0.246-2.294-0.429-3.441-0.606l-1.236-0.139l-0.024-0.003
		c-0.654-0.071-0.468-0.046-0.068,0.007c0.454,0.055,0.867,0.105,1.218,0.151c-0.223-0.028-0.821-0.101-1.218-0.151
		c-0.539-0.066-1.159-0.147-1.873-0.208c-1.065-0.101-2.168-0.172-3.332-0.202c1.294,0.027,2.396,0.108,3.332,0.202l1.965,0.204
		l0.575,0.063c-2.65-0.26-5.319-0.719-7.974-0.305c-0.629,0.06-1.119,0.521-1.255,0.979c-0.724,2.258,2.246,3.006,3.192,2.625
		l1.419-0.175l-0.271,0.029c0.208-0.027,0.381-0.036,0.522-0.068c1.966-0.397,3.941-0.852,5.821-1.61
		c1.23-0.462,2.439-1.072,3.557-1.817c0,0,0.72-0.562,1.075-0.842c0.437-0.333,0.898-0.987,1.518-1.652
		c-0.72,0.807-1.367,1.571-2.136,2.091c-1.025,0.892-2.554,1.629-4.055,2.187c1.501-0.558,3.029-1.295,4.055-2.187
		c0.769-0.52,1.416-1.285,2.136-2.091c1.154-1.53,2.426-3.656,3.484-5.328c-1.279,2.102-2.373,3.886-3.484,5.328
		c-0.62,0.665-1.081,1.319-1.518,1.652c-0.355,0.28-1.075,0.842-1.075,0.842c-1.118,0.745-2.327,1.355-3.557,1.817
		c3.907-1.159,6.654-4.417,8.608-7.96c0.812-1.286,1.812-3.037,2.559-3.852l4.713,1.159c0.44,0.064,2.329,0.676,1.575,0.297
		c-1.111-0.63-0.898,0.705-0.853,1.408c0.061,1.606,0.292,3.185,0.255,4.782c-0.196,3.206,0.428,6.356,0.914,9.486
		c0.29,0.982-0.456,0.924,0.617,0.984l-2.302-0.59c-1.456-0.563-3.79-0.24-2.396-2.246c1.344-2.849,3.474-5.366,4.4-8.481
		c0.825-3.106,1.196-6.332,1.293-9.584l-0.001-2.446c0.089-0.731-0.38-0.418-0.257,0.153l-0.056,1.228
		c-0.081,1.635-0.278,3.272-0.597,4.896c-0.617,3.254-1.733,6.438-3.162,9.515c-0.767,1.672-1.645,3.279-2.587,4.837
		c-0.122,0.246-0.721,1.112-0.417,0.84l-1.318-0.343c0.534,0.472,1.661,0.521,2.458,0.801l5.231,1.345
		c0.503-1.027-0.397-3.321-0.462-4.914c-0.536-3.499-0.215-7.084-0.647-10.562c1.454-1.679-3.378-1.873-6.559-2.914
		c-2.865,1.466-3.727,5.687-5.784,8.047c-2.393,2.38-5.635,3.664-8.823,4.529c-1.616,0.382-3.269,0.697-4.911,0.631
		c-0.74-0.05-1.832-0.2-1.821-0.92c0.122-0.688,0.759-1.431,1.573-1.398c3.257-0.287,6.6,0.292,9.852,0.755
		c6.7,0.62,12.244,5.003,19.027,5.999c6.675,0.953,13.512,1.606,20.53,1.096c2.658-0.249,6.003-0.747,9.162-2.474
		c3.015-1.39,6.472-6.117,4.575-7.087c-1.837-4.025-6.58-2.992-9.861-3.114c-3.499,0.162-6.67,0.494-9.234,0.277
		c-3.562,0-5.16-1.678-5.904-2.653c-0.812-0.953-0.956-1.32-0.962-1.229c0.012,0.158,1.125,1.777,1.405,1.974
		c3.189,3.104,7.693,2.157,12.387,2.046c2.442-0.152,5.174-0.263,8.353,0.058c1.902-0.349,2.188,1.702,3.658,2.953
		c0.255,0.609,2.049,2.048,0.794,0.637c-0.781,0.795-0.891,1.841-1.637,2.672c0.858-1.196,1.161-2.114,1.378-2.622
		c0.69,0.119,0.522,0.434,0.454,0.203c-0.762-0.875-0.736,1.919-2.661,3.42c-3.48,4.039-11.88,5.027-17.349,4.802
		c-8.014-0.275-18.075-0.615-27.265-5.579c-4.892-1.714-10.176-2.4-15.414-2.541c-1.223-0.125-3.035,0.226-3.193,1.912
		c0.667,1.541,2.468,1.049,3.623,1.111c2.588-0.248,5.074-0.953,7.387-1.929c2.269-1.009,4.655-2.333,6.186-4.682
		c1.017-2.19,2.654-5.458,4.322-6.606l5.602,1.388l1.391,0.348c0.5-0.706-0.658-0.385-0.911-0.628
		c-0.296,0.782,0.322,0.321,0.433,0.538c-0.271-0.189-0.082,0.359-0.131,0.498l0.064,1.447c0.479,3.759,0.051,7.593,0.866,11.333
		l0.471,2.788c0.901,0.37-1.321-0.295-1.828-0.396l-5.466-1.403c0.407,1.778,2.258-0.958,2.846-2.431
		c0.89-1.668,1.73-3.368,2.413-5.138c1.421-3.515,2.361-7.252,2.666-11.076c0.087-0.918,0.082-2,0.167-2.776
		c-0.648,0.377-0.177,1.749-0.322,2.576c-0.054,1.914-0.173,3.829-0.457,5.736c-0.336,3.916-2.084,7.38-4.293,10.702
		c-0.534,0.819-0.982,1.779-1.251,2.73c-0.329,0.358,0.203,0.107,0.016,0.852l0.724,0.188l1.452,0.373l2.921,0.749
		c0.692-0.99-1.488-0.136-0.328-0.104c0.469-0.862-0.014-1.102,0.032-1.683c-0.965-4.239-0.763-8.234-1-12.144
		c-0.129-0.98-0.104-1.897-0.149-2.852c-0.435-0.18,0.671,0.141,0.93,0.185c0.045-0.676-0.771-0.38-1.112-0.617l-5.353-1.299
		C25.32,9.33,23.081,15.2,18.786,16.647c-3.045,1.426-6.155,2.144-9.105,2.487c-1.4,0.323-3.104-0.545-3.02-1.957
		c0.097-1.581,2.039-1.457,3.286-1.508c-1.462-0.004-3.337,0.063-3.302,1.674c0.087,1.389,1.705,2.065,2.996,1.804
		c2.741-0.295,5.589-0.931,8.752-2.304c4.13-2.056-2.802,1.631-5.954,1.907c-1.253,0.251-3.378,0.706-4.55,0.248
		c-1.377-0.451-1.737-2.436-0.426-3.052c1.292-0.414,2.76-0.309,4.275-0.238c1.303,0.081,1.147,0.119,1.798,0.169
		c4.167,0.344,7.332,1.012,9.886,1.775c1.959,0.555,3.611,1.343,5.244,2.063c1.024,0.48,2.084,0.864,3.177,1.32
		c0.681,0.295,1.439,0.447,2.177,0.688c-0.577-0.184-0.784-0.259-0.98-0.331c1.062,0.302,2.536,0.824,3.648,0.982
		c-1.112-0.158-2.586-0.681-3.648-0.982c0.197,0.072,0.403,0.147,0.98,0.331c5.314,1.551,11.726,1.861,17.612,2.102l-0.085-0.002
		c-3.446-0.11-6.82-0.355-10.366-0.772c1.537,0.194,1.338,0.191-0.417-0.037l-1.343-0.194c3.049,0.453,6.119,0.631,9.023,0.856
		c0,0,1.316,0.056,1.972,0.083c0.974,0.058,0.923,0.046,1.13,0.064l2.045,0.02C52.145,23.86,47.618,23.625,47.619,23.6"/>
	<path fill="#BF000A" d="M13.245,15.72c0.479,0.041,1.049,0.096,1.661,0.17c-2.221-0.217-4.461-0.525-6.691-0.267
		C9.388,15.453,11.316,15.55,13.245,15.72"/>
</g>
</svg>
