<?xml version="1.0" encoding="utf-8"?>
<!-- Generator: Adobe Illustrator 12.0.0, SVG Export Plug-In . SVG Version: 6.00 Build 51448)  -->
<!DOCTYPE svg PUBLIC "-//W3C//DTD SVG 1.1//EN" "http://www.w3.org/Graphics/SVG/1.1/DTD/svg11.dtd" [
	<!ENTITY ns_svg "http://www.w3.org/2000/svg">
	<!ENTITY ns_xlink "http://www.w3.org/1999/xlink">
]>
<svg  version="1.1" id="レイヤー_1" xmlns="&ns_svg;" xmlns:xlink="&ns_xlink;" width="157.774" height="55.622"
	 viewBox="0 0 157.774 55.622" overflow="visible" enable-background="new 0 0 157.774 55.622" xml:space="preserve">
<g>
	<path fill="#BF000A" d="M100.639,28.822c1.168,0.701,2.491,1.113,3.742,1.621l-1.898-0.774
		C101.662,29.333,101.219,29.179,100.639,28.822"/>
	<polygon fill="#BF000A" points="108.047,31.367 108.756,31.488 109.366,31.584 	"/>
	<path fill="#BF000A" d="M115.09,32.104c-1.256-0.014-2.443-0.153-3.607-0.25C112.505,31.941,113.693,32.102,115.09,32.104"/>
	<path fill="#BF000A" d="M109.474,31.572c0.432,0.085,0.63,0.129-0.084,0.018l-0.025-0.006l2.118,0.271
		C110.722,31.798,110.052,31.695,109.474,31.572"/>
	<path fill="#BF000A" d="M109.474,31.572c-0.421-0.082-1.073-0.202-1.301-0.249C108.551,31.398,108.98,31.48,109.474,31.572"/>
	<path fill="#BF000A" d="M111.276,31.555c0.695,0.057,0.524,0.114,1.928,0.226c3.309,0.187,6.143,0.14,9.229,0.009
		c1.415-0.061,3.646-0.106,5.043-0.201c3.31-0.257,11.801-0.705,6.794-0.488c-7.515,0.363-12.394,0.909-19.123,0.704
		c-5.421-0.163-10.812-0.947-15.598-3.878c-1.341-0.785-2.434-1.799-3.491-2.807c1.357,1.352,2.904,2.592,4.834,3.623
		C103.428,30.059,106.803,31.096,111.276,31.555"/>
	<path fill="#BF000A" d="M86.272,3.68c0.098,0.705,0.291,2.105,0.291,2.105c0.463,3.119,1.35,6.366,2.75,9.376l-0.551-1.366
		c-0.672-1.78-0.707-2.001-0.211-0.383c-1.27-3.65-2.09-7.239-2.289-10.964C86.264,2.678,86.176,2.631,86.272,3.68"/>
	<polygon fill="#BF000A" points="86.22,0.25 86.26,2.447 86.266,2.363 86.22,0.18 	"/>
	<path fill="#BF000A" d="M130.102,31.6c4.694-0.269,9.27-0.508,13.736-0.232c7-1.217,3.146,4.859,0.082,7.453
		c-0.481,0.451-0.885,0.709-1.596,1.237c-0.547,0.414-1.108,0.78-1.727,1.069c-1.103,0.625-2.217,1.188-3.406,1.6l-1.242,0.5
		l-0.024,0.01c-0.675,0.219-0.479,0.165-0.058,0.055l1.242-0.463c-0.229,0.084-0.838,0.314-1.242,0.463
		c-0.565,0.154-1.215,0.336-1.959,0.549c-1.098,0.365-2.274,0.575-3.502,0.831c1.365-0.29,2.535-0.517,3.502-0.831l2.041-0.613
		l0.578-0.236c-2.717,0.976-5.518,1.629-8.367,2.041c-0.648,0.096-1.275,0.188-1.779,0.264c-2.059,0.236-4.129,0.443-5.419,0.447
		l-1.54,0.074l0.295-0.008l-0.568,0.021c-2.162,0.059-4.338,0.084-6.521,0.033l-4.316-0.086c0,0.004-0.981-0.068-1.469-0.107
		c-0.588-0.014-1.438-0.043-2.418-0.092c1.16,0.085,2.238,0.164,3.228,0.232c1.47,0.087,3.267,0.07,5.003,0.15
		c-1.736-0.08-3.533-0.063-5.003-0.15c-0.989-0.068-2.067-0.147-3.228-0.232c-2.064-0.111-4.729-0.318-6.855-0.522
		c2.653,0.181,4.895,0.368,6.855,0.522c0.979,0.049,1.83,0.078,2.418,0.092c0.487,0.039,1.469,0.111,1.469,0.107l4.316,0.086
		c-4.254-0.084-8.563-0.335-12.939-0.67c-14.203-0.521-27.563-3.748-39.87-10.049c-12.863-4.912-26.853-6.844-41.538-6.873
		c-3.867,0.378-8.207,1.639-10.246,5.243c-2.259,3.482-0.64,8.267,2.412,10.575c6.526,5.076,15.051,2.766,22.06,1.137
		c7.216-1.874,14.275-4.5,19.921-9.22c5.377-5.044,8.708-11.531,12.553-17.526c0.512-0.877,2.993-4.36,1.895-3.099
		c-0.089,1.829-0.01,3.636,0.218,5.427c0.452,3.611,0.549,7.098,0.493,10.789c-0.122,3.665,0.395,7.332,0.93,10.988l0.895,5.503
		l0.46,2.766c0.46,0.308-0.708,1.271,1.091,1.044l0.979-1.184c1.146-5.921,7.131-11.971,10.022-19.895
		c2.969-7.735,4.49-15.859,5.186-21.42c1.229-14.961,0.191-7.233,0.143-6.529C86,11.839,86.502,19.663,78.437,36.529
		c2.865-5.653,2.091-3.436-0.635,1.279c-1.37,2.354-3.357,5.254-4.934,8.502c-0.754,1.658-0.877,3.582-2.078,4.779
		c-0.219,1.296-0.525-2.525-0.746-3.344c-2.227-8.537-1.166-19.168-2.459-30.203l0.022-2.046c-0.366-0.381,0.829-0.594-0.818-1.116
		l-0.576,0.884l-2.316,3.549c-1.53,2.375-2.876,4.864-4.415,7.214c-3.068,4.631-6.406,9.261-11,12.002
		c-4.523,2.81-9.875,4.886-16.066,6.514c-7.659,1.864-17.201,4.197-22.788-2.202C6.88,39.5,7,34.604,10.01,32.064
		c2.849-2.689,7.146-3.355,11.084-3.246c16.222,0.502,32.802,3.019,48.514,11.125c8.687,3.527,16.967,4.56,24.738,5.252
		c5.704,0.434,11.809,0.926,16.46,1.042c7.309,0.169,13.67-0.05,19.614-1.259c-6.661,1.245-11.63,1.348-19.14,1.26
		c-5.014-0.175,3.487,0.09,6.809-0.104c1.42-0.059,3.66-0.071,5.067-0.215c3.091-0.252,5.916-0.656,9.159-1.416
		c1.373-0.342,1.223-0.275,1.906-0.465c4.379-1.268,7.447-3.109,9.701-4.941c1.638-1.51,2.897-3.077,3.796-4.815
		c0.311-0.722,1.706-3.14-0.317-2.788l-2.455-0.27c0.65,0.047,0.879,0.146,1.103,0.189c-1.181-0.167-2.866-0.22-4.071-0.308
		c1.205,0.088,2.891,0.141,4.071,0.308c-0.224-0.043-0.452-0.143-1.103-0.189c-5.961-0.435-12.824,0.146-19.179,0.527l0.092,0.002
		c3.715-0.203,7.354-0.469,11.21-0.518c-1.672,0.031-1.462,0.004,0.449-0.053l1.467,0.006c-3.326,0.071-6.637,0.261-9.778,0.402
		c0,0-1.419,0.103-2.128,0.146c-1.049,0.048-0.996,0.022-1.22,0.016l-2.204,0.117C125.215,31.846,130.102,31.6,130.102,31.6"/>
	<path fill="#BF000A" d="M133.828,43.861c0.497-0.147,1.091-0.322,1.728-0.509c-2.304,0.718-4.656,1.271-7.039,1.637
		C129.777,44.834,131.825,44.447,133.828,43.861"/>
	<path fill="#BF000A" d="M145.782,36.434c0.717,0.41,1.93-0.213,1.063-0.248c0.598,0.985,1.181,0.971,0.288-0.018l-2.977-3.541
		l2.975,3.576c1.174,1.24-0.189,0.51-0.264-0.265C147.833,36.715,146.315,36.55,145.782,36.434"/>
	<polygon fill="#BF000A" points="138.989,35.304 137.7,36.291 136.602,37.136 	"/>
	<path fill="#BF000A" d="M124.069,40.405c2.85-0.228,5.49-0.837,8.07-1.442C129.864,39.467,127.235,40.135,124.069,40.405"/>
	<path fill="#BF000A" d="M136.397,37.255c-0.921,0.38-1.348,0.547,0.15-0.096l0.055-0.023c-1.472,0.593-2.924,1.319-4.463,1.827
		C133.768,38.424,135.151,37.74,136.397,37.255"/>
	<path fill="#BF000A" d="M136.397,37.255c0.84-0.468,1.988-1.454,2.425-1.745C138.109,36.007,137.366,36.688,136.397,37.255"/>
	<path fill="#BF000A" d="M132.739,39.084c-1.551,0.411-1.208,0.22-4.349,0.947c-7.474,1.329-13.998,1.229-21.024,0.93
		c-3.234-0.113-8.293-0.639-11.466-0.957c-7.697,0.203-26.384-5.227-15.374-2.107c16.896,2.829,28.119,3.918,43.477,2.822
		c6.061-0.705,12.732-1.834,16.797-6.866c0.916-0.476,1.468-4.561,2.091-2.327l3.005,3.551l1.508,1.789
		c1.074,0.633-1.173-1.996-0.348-0.368c-0.939-0.379-2.961-0.495-4.418-0.524c-3.582-0.186-6.936-0.037-10.309,0.094
		c4.382-0.169,8.923-0.367,13.887,0.221c3.361,1.605-1.611-2.061-3.617-5.15C141.576,33.135,137.659,38,132.739,39.084"/>
	<path fill="#BF000A" d="M84.661,18.616c0.815,1.401,2.436,4.181,2.436,4.179c3.807,6.179,10.287,10.937,17.773,12.509
		c-1.084-0.272-2.115-0.671-3.2-1.009c-4.038-1.549-4.448-1.887-0.95-0.26C92.288,30.99,86.917,23.688,83.59,16.031
		C83.804,16.508,83.616,16.464,84.661,18.616"/>
	<path fill="#BF000A" d="M81.932,11.321c0.34,1.652,1.082,3.19,1.658,4.712l-0.066-0.185c-0.617-1.56-1.295-3.078-1.631-4.685
		L81.932,11.321z"/>
	<path fill="#BF000A" d="M89.985,39.186c-10.863-0.613-20.223-5.759-29.664-9.443c-9.584-3.465-19.495-5.238-29.286-6.158
		c-1.506-0.095-2.583-0.156-4.597-0.313l-4.633-0.289c-2.884-0.064-5.746,0.088-8.542,0.709c-1,0.104-1.961,0.453-2.915,0.879
		l-0.056,0.021c-1.501,0.607-1.068,0.447-0.141,0.09c1.043-0.42,1.986-0.816,2.87-0.883c-0.572,0.001-1.966,0.488-2.87,0.883
		c-1.239,0.491-2.736,0.935-4.102,2.09c-2.225,1.36-4.164,3.491-5.191,6.129c1.159-2.949,3.238-4.946,5.191-6.129
		c1.284-1.105,2.812-1.611,4.299-2.201l1.323-0.533C5.419,25.68-0.528,31.068,0.038,37.963c-0.208,1.535,0.735,2.829,0.952,3.962
		c1.973,4.305,5.953,7.405,8.716,8.372c1.042,0.508,2.091,1.059,3.271,1.235l-0.65-0.16c0.501,0.122,0.914,0.221,1.259,0.307
		c4.775,1.379,9.884,0.993,14.751,0.142c3.146-0.709,6.402-1.295,9.558-2.314c0,0,2.152-0.625,3.218-0.934
		c1.284-0.386,3.115-1.035,5.176-1.897c-2.446,1.02-4.81,1.726-6.982,2.342c-3.187,1.027-7.165,1.986-11.053,2.719
		c3.888-0.732,7.867-1.691,11.053-2.719c2.172-0.616,4.536-1.322,6.982-2.342c4.344-1.819,9.596-5.008,13.183-8.323
		c-4.49,4.095-9.072,6.596-13.183,8.323c-2.061,0.862-3.892,1.512-5.176,1.897c-1.066,0.309-3.218,0.934-3.218,0.934
		c-3.156,1.02-6.412,1.605-9.558,2.314c9.452-1.85,19.249-4.43,27.395-10.396c6.808-4.573,10.714-11.92,14.898-18.547
		c1.028-1.692,2.09-3.36,3.239-4.96c-0.776-1.288-3.513-1.178-5.169-1.832c-3.084-0.649-9.284-2.561-9.786-2.154
		c0.873,0.433,2.555,0.375,0.794-0.009c-0.785,0.573-0.298,1.856-0.389,2.743l0.317,5.858c0.243,3.899,0.395,7.797,0.318,11.697
		c0.162,3.912,0.875,7.764,1.313,11.638l0.94,5.781c0.973,1.561,3.548,1.09,5.228,1.875c26.149,7.01,32.249-83.562,18.247-18.194
		c-2,4.034-4.49,7.798-6.704,11.714c-0.906,2.107-1.401,4.291-2.663,6.086c-0.632,1.166-1.616,1.395-1.954,1.721
		c0.516-0.004,1.116,0.662,1.558,0.104c-0.413-0.111-1.042-0.257-1.553-0.388l-6.444-1.644l-3.208-0.824
		c-0.157-0.555-0.366-2.035-0.551-2.998c-0.802-4.324-1.414-8.674-1.736-13.025c-0.558-4.361-0.037-8.674-0.554-13.053
		c0.404-3.553-2.953-11.242,3.188-7.777l6.267,1.57c0.763,0.619,3.072,0.191,1.091-0.177c-0.417-0.545-1.5,0.257-0.512,0.396
		c0.959,0.063-0.482,0.041-0.408,0.717c-2.394,3.571-4.481,7.326-6.858,10.852C56.254,44.086,38.038,49.092,22.323,51.08
		C14.381,51.721,5.27,48.513,2.137,40.846c-2.864-8.107,5.087-15.783,13.05-16.098c16.077-1.287,32.694,1.729,48.045,7.322
		c14.712,8.177,32.169,9.19,49.204,9.824c6.538-0.141,14.838,0.25,23.107-3.102c1.983-0.916,4.066-2.145,5.471-4.005
		c0.814-1.63,3.922-5.086,1.371-3.841l4.479,5.32c-0.677-1.379-4.179-0.861-6.223-1.048c-18.43,0.706-38.295,2.975-48.019-6.724
		C81.468,15.85,82.579,10.321,82.033,11.115c-0.046,0.374,1.415,4.971,1.903,5.65c4.05,9.632,11.526,17.172,23.732,19.201
		c6.008,0.896,12.731,0.741,20.594,0.372c3.928-0.246,8.143-0.433,12.705-0.427c1.839-0.479,5.551,1.28,6.154-0.454
		c-1.418-1.303-3.596-5.191-4.576-4.58c1.604,0.128,3.662,3.886,4.357,4.331c1.297,1.176-0.639,1.279,0.371,1.148
		c0.289-0.963-1.068-1.613-2.233-3.283c-0.653-0.772-1.41-1.67-2.26-2.664c-1.304-0.631,0.542,1.555,0.323,0.459
		c-1.033-0.266-0.803,1.114-1.332,1.566c-2.787,5.807-11.489,8.16-19.393,8.515c-8.097,0.651-16.412,0.113-23.238-0.458
		C78.625,41.803,58.15,25.115,32.277,24.258c-6.234-0.777-12.787-1.206-19.144,0.118C6.79,25.326,0.512,30.898,0.868,37.791
		c0.406,6.896,6.678,11.672,12.74,13.166c6.267,1.709,12.734,0.575,18.663-0.787c11.646-2.734,25.396-7.716,32.833-21.035
		c2.693-3.952,4.903-8.117,7.612-11.958c-0.854-2.31-1.72,0.298-0.743,0.047c0.095-0.329,2.062,1.303,1.232-0.642l-3.419-0.864
		l-6.819-1.7c-0.777,0.102-0.665-0.829-2.171,0.123l-0.012,1.771c0.032,1.176-0.051,2.371,0.078,3.527
		c0.169,2.301,0.536,4.702,0.585,6.904c-0.082,4.686,0.175,9.348,0.728,13.968c1.259,4.202-0.301,10.142,3.939,12.807l6.724,1.714
		c0.926-0.2,2.677,1.648,2.943-0.248c-0.525,0.264-1.201-1.273-1.576,0.48c0.492,0.356,1.9-0.17,1.847-0.622
		c3.639-8.739,9.741-15.706,12.549-24.851c1.561-4.394,2.736-8.939,3.565-13.537c0.408-2.301,0.802-4.61,1.066-6.942l0.329-3.514
		c-1.684-1.112-0.534,1.698-0.939,2.355c-0.321,9.27-1.584,18.8-4.898,27.55c-1.946,4.301-4.974,8.042-7.131,12.431
		c-1.134,2.243-1.345,4.704-3.121,6.333l-1.156,1.34c1.664,0.09-0.546-0.274-0.627-0.383l-3.503-0.994
		c-4.389-2.307-11.036-0.033-10.085-6.666c-0.61-4.87-1.633-9.773-1.58-14.689c0.05-5.313-0.385-10.441-0.632-15.421
		c-0.223-0.956,0.19-3.089-0.331-3.031l0.905,0.218c0.832-1.469-0.291-0.544-0.333-0.931l-1.771-0.456
		c1.308,1.928,4.409,1.521,6.486,2.388c4.117,1.924,11.886,0.352,6.296,5.552c-2.427,3.903-4.686,7.776-7.263,11.382
		c-7.295,11.178-21.55,15.791-31.596,17.975c-7.97,2.061-16.077,2.457-22.698-0.734c-6.65-2.763-11.198-10.215-8.477-16.709
		c-2.854,7.371,2.496,14.072,8.376,16.68c6.114,2.902,13.523,3.045,21.754,1.014c11.098-2.82-7.658,2.966-15.231,1.166
		c-3.125-0.555-8.024-2.224-10.305-4.483c-5.557-4.069-7.664-12.302-2.427-18.071c2.121-2.313,2.199-1.704,3.379-2.73
		c8.953-5.238,17.635-3.105,23.954-2.932c4.993,0.451,9.424,1.102,13.734,1.909c2.709,0.61,5.426,1.087,8.217,1.864l5.375,1.525
		c-1.414-0.434-1.923-0.605-2.41-0.774c2.646,0.616,6.133,2.208,8.709,3.134c-2.576-0.926-6.063-2.518-8.709-3.134
		c0.487,0.169,0.997,0.341,2.41,0.774c6.392,2.158,12.871,5.617,19.949,7.883c7.109,2.244,14.72,2.614,21.915,3.375l-0.208-0.024
		c-8.372-0.942-16.872-1.163-25.044-4.591c3.603,1.232,3.097,1.211-0.962-0.349l-3.079-1.294c6.901,3.184,14.354,4.849,21.497,5.438
		c0,0,3.223,0.326,4.825,0.486c2.382,0.26,2.26,0.236,2.764,0.31l5.011,0.399C101.053,40.443,89.978,39.247,89.985,39.186"/>
	<path fill="#BF000A" d="M5.893,26.879c0.924-0.75,2.115-1.504,3.578-1.957c-5.012,1.974-9.557,6.523-9.428,12.221
		C-0.311,34.258,1.715,29.346,5.893,26.879"/>
	<path fill="#BF000A" d="M31.61,26.35c-1.812-0.196-3.626-0.391-5.439-0.437l2.733,0.18C30.083,26.223,30.707,26.271,31.61,26.35"/>
	<polygon fill="#BF000A" points="21.117,25.673 20.153,25.627 19.328,25.628 	"/>
	<path fill="#BF000A" d="M11.766,27.01c1.576-0.6,3.146-0.988,4.704-1.184C15.099,25.988,13.516,26.334,11.766,27.01"/>
	<path fill="#BF000A" d="M19.188,25.664c-0.59,0.004-0.862,0.002,0.105-0.034l0.035-0.002c-0.942,0.049-1.907,0.002-2.86,0.198
		C17.478,25.63,18.396,25.698,19.188,25.664"/>
	<path fill="#BF000A" d="M19.188,25.664c0.577-0.031,1.458,0.052,1.772,0.063C20.445,25.703,19.861,25.633,19.188,25.664"/>
	<path fill="#BF000A" d="M16.817,26.057c-0.911,0.181-0.73-0.043-2.555,0.414c-4.192,1.123-7.904,3.112-9.649,6.842
		c-0.882,1.664-1.153,4.688-0.587,6.49c0.41,5.343,11.506,10.059,5.49,6.85c-9.006-5.428-6.612-16.946,2.305-19.339
		c6.894-2.552,14.243-0.977,21.628-0.553c2.095,0.186,4.055,0.415,6.005,0.792c-2.536-0.508-5.188-0.711-8.108-1.033
		C27.534,26.12,22.799,25.813,16.817,26.057"/>
	<path fill="#BF000A" d="M70.153,36.866c-0.882-0.36-2.624-1.103-2.622-1.105c-3.843-1.764-7.941-3.562-12.201-4.849l1.872,0.631
		c2.395,0.881,2.67,0.986,0.559,0.156c4.875,1.771,9.261,3.964,13.887,5.864C71.372,37.424,71.447,37.43,70.153,36.866"/>
	<polygon fill="#BF000A" points="74.397,38.624 71.649,37.563 71.751,37.613 74.486,38.659 	"/>
	<path fill="#BF000A" d="M5.361,43.019c8.647,10.863,23.286,6.181,33.568,3.219c0.827-0.33,1.414-0.571,2.529-0.984l2.567-0.948
		c1.613-0.546,3.118-1.287,4.627-2.039c0.517-0.272,1.088-0.486,1.58-0.857l0.031-0.02c0.791-0.531,0.558-0.392,0.065-0.08
		c-0.54,0.388-1.104,0.613-1.568,0.834c0.295-0.141,1.099-0.486,1.568-0.834c0.66-0.423,1.421-0.915,2.289-1.484
		c1.252-0.904,2.458-1.972,3.709-3.094c-1.388,1.252-2.595,2.318-3.709,3.094l-2.385,1.584l-0.715,0.436
		c3.338-1.973,6.375-4.395,8.95-7.293c0.585-0.656,1.098-1.339,1.535-1.866c1.754-2.16,3.252-4.522,4.205-5.966l1.084-1.76
		l-0.208,0.336l0.396-0.651c1.491-2.491,3.074-4.942,4.673-7.392c0.408-1.163,1.135-1.068,2.214-0.668
		c-0.16-0.25-1.669-0.467-2.443-0.704c0,0-1.275-0.344-1.906-0.513c-0.771-0.173-1.88-0.437-3.162-0.747
		c1.511,0.395,2.91,0.769,4.2,1.105c0.951,0.258,2.02,0.506,3.129,0.771c0.393,0.055-1.972-0.794-2.133,0.73
		c0.161-1.524,2.525-0.676,2.133-0.73c-1.109-0.265-2.178-0.513-3.129-0.771c-1.29-0.336-2.689-0.71-4.2-1.105
		c-0.54-0.068-1.693-0.557-1.845-0.304l-0.06,2.366c-0.04,1.604,0.122,3.214,0.245,4.639c-0.199-1.764-0.354-3.418-0.281-4.953
		c0.009-0.723,0.065-1.59,0.043-2.123c0.514-0.102,1.299,0.27,1.897,0.375c1.282,0.31,2.391,0.573,3.162,0.747
		c0.631,0.169,1.906,0.513,1.906,0.513c0.774,0.237,2.283,0.454,2.443,0.704c-1.079-0.4-1.806-0.495-2.214,0.668
		c-0.13-1.917,4.004-0.069,1.233-1.053l-4.199-1.055l-4.237-1.048c-0.013,1.43-0.11,2.911-0.026,4.39
		c1.114,9.416,0.065,18.818,2.073,27.922c0.695,1.939-0.014,5.318,1.851,6.061l6.688,1.702c0.543,1.763,3.572-5.263,5.155-8.715
		c4.627-7.835,9.85-15.981,10.417-25.597c0.504-2.313,0.604-4.681,0.798-7.049c0.542-2.202,0.021-6.387-0.332-1.966
		c-0.536,4.754-1.464,9.539-3.049,14.192c-2.907,10.265-9.397,18.973-13.568,28.087c-0.354,0.827,1.693,1.17,0.866,0.386
		l-1.865-0.47l-3.721-0.959c-1.58-0.465-1.171-4.462-1.853-6.512c-0.902-5.008-1.445-10.004-1.417-15.032
		c0.26-5.019-0.815-9.991-0.701-14.841c-0.393-1.916,0.365-0.655,1.881-0.583l3.557,0.878c0.369-2.105-1.332,2.273-2.622,3.691
		c-4.924,8.263-9.908,16.916-18.544,21.406c-8.365,4.488-17.873,7.184-27.481,7.943c-4.738,0.139-9.849-1.166-13.294-4.539
		c-4.053-3.097-4.224-9.135-1.106-12.915c4.881-6.632,17.41-5.183,27.948-4.103c10.987,0.846,21.512,4.097,28.402,6.939
		c18.507,7.787,9.105,3.303,8.168,3.051c-11.115-5.041-20.214-9.805-45.402-11.557c8.54,0.832,5.402,0.361-1.928,0.015
		c-3.619,0.03-8.494-0.2-13.012,1.67c-4.468,1.943-7.585,6.839-7.01,11.075c0.944,6.102,7.608,10.719,14.518,10.992
		c7.026,0.393,14.179-1.504,21.275-3.813c7.034-2.423,14.072-6.168,18.97-12.109c4.396-5.445,9.164-13.755,11.266-17.556
		c0.182-1.79-8.669-3.677-6.262,1.992c0.225,3.952,0.815,7.923,0.692,12.253c-0.074,5.615,0.7,11.195,1.664,16.605
		c0.306,2.416,0.488,6.422,4.025,6.189l4.015,1.006c-0.011-2.607-1.321,0.227-0.253-0.979c0.464-0.572,0.896-1.064,1.299-1.737
		c3.883-10.064,10.86-19.011,13.174-29.915c0.683-2.666,1.252-5.361,1.647-8.096l0.471-4.104c-0.404-1.792-1.032,0.701-0.886,1.868
		c-0.26,5.499-1.208,10.958-2.411,16.39c-1.427,5.349-4.564,10.14-7.438,15.078c-1.448,2.451-2.876,5.069-3.772,7.827
		c-0.227,1.563-1.967,1.733-1.867,3.989l1.059,0.277l0.262,0.068c0.185-0.328-0.196,0.803,0.276-0.788
		c0.155,0.032,0.014,0.003,0-0.001l-0.517-0.125l-2.132-0.535l-4.462-1.129l-2.178-0.557c0.381,0.55-0.104-1.111-0.114-1.551
		c-0.452-2.903-0.998-5.725-1.34-8.496c-1.03-5.527-0.675-10.85-0.916-16.135c-0.381-3.666-0.391-8.21-0.971-11.07
		c3.173,0.468,8.234,2.751,9.105,1.589c-7.297,5.857-9.604,15.299-15.865,20.37c6.711-6.132,8.363-13.08,15.246-20.509
		c0.991-0.352,1.326,1.139,0.645,0.818c-0.313-0.081-0.399-0.105-0.305-0.088c0.06,0.012,0.446,0.102,0.694,0.162
		c-0.085-1.231-0.854-0.533-1.406-0.934c-2.2,2.008-3.69,5.495-5.051,7.354c-0.948,1.648-2.579,4.152-3.627,5.714
		c-2.296,3.427-4.716,6.39-8.09,9.241c-1.422,1.234-1.299,1.035-2.082,1.551c-4.925,3.482-9.536,4.747-13.088,6.185
		c-2.792,0.924-5.396,1.437-7.88,2.116c-1.57,0.443-3.189,0.666-4.86,0.98c-1.057,0.164-2.144,0.35-3.253,0.438
		c0.868-0.028,1.182-0.083,1.486-0.086c-1.579,0.234-3.824,0.316-5.432,0.26c1.607,0.057,3.853-0.025,5.432-0.26
		c-0.304,0.003-0.619,0.058-1.486,0.086c-7.375,1.238-18.903-2.556-19.472-11.935l-0.01,0.122c0.326,5.057,4.315,9.096,9.131,10.799
		c-2.074-0.848-1.797-0.76,0.572,0.186c0.579,0.296,1.253,0.375,1.875,0.563c-4.314-0.967-8.482-3.432-10.407-7.268
		c-0.057,0.037-0.81-1.732-0.982-2.661c-0.211-1.392-0.219-1.317-0.188-1.618c0.031-0.979,0.008-1.951,0.329-2.906
		C2.622,36.883,4.869,43.271,5.361,43.019"/>
	<path fill="#BF000A" d="M52.713,39.767c-0.578,0.384-1.272,0.843-2.016,1.335c2.776-1.682,5.239-3.834,7.43-6.209
		C56.965,36.145,54.968,38.09,52.713,39.767"/>
	<path fill="#BF000A" d="M137.463,31.117c2.627-0.095,5.254-0.016,7.848,0.299l-3.932-0.354
		C139.671,31.066,138.768,31.092,137.463,31.117"/>
	<polygon fill="#BF000A" points="146.774,35.83 145.911,36.906 145.099,37.766 	"/>
	<path fill="#BF000A" d="M135.578,43.175c2.376-0.573,4.302-1.909,6.32-2.894C140.1,41.101,138.211,42.518,135.578,43.175"/>
	<path fill="#BF000A" d="M144.981,37.936c-0.629,0.566-0.911,0.832,0.084-0.132l0.035-0.038c-1.004,0.904-1.893,1.988-3.202,2.516
		C143.286,39.725,144.104,38.657,144.981,37.936"/>
	<path fill="#BF000A" d="M144.981,37.936c0.602-0.568,1.441-1.529,1.708-1.89C146.234,36.629,145.671,37.26,144.981,37.936"/>
	<path fill="#BF000A" d="M142.449,40.307c-1.201,0.641-0.953,0.428-3.376,1.716c-5.887,2.571-11.396,3.759-17.383,3.996
		c-2.742,0.299-7.077,0.091-9.787,0.063c-6.438-0.161-22.822-1.436-13.16-0.686c14.42,0.841,24.264,2.099,36.853-1.91
		c4.935-1.702,10.048-4.256,12.351-9.247c1.774-3.688-3.079-2.97-5.15-3.29c-2.645-0.205-5.324-0.022-8.035-0.019
		c-3.036,0.149-5.887,0.285-8.75,0.417c3.729-0.117,7.559-0.453,11.808-0.432c2.789-0.123,5.862,0.105,9.337,0.432
		C150.112,33.762,145.494,38.217,142.449,40.307"/>
	<path fill="#BF000A" d="M88.825,11.853c0.361,1.338,1.429,3.85,1.51,3.816c2.289,5.604,6.477,11.147,12.525,13.631
		c-0.845-0.439-1.725-0.779-2.502-1.363c-3.072-2.028-3.324-2.409-0.725-0.421c-6.286-4.246-9.494-11.121-11.504-17.938
		C88.223,10.011,88.192,9.915,88.825,11.853"/>
	<polygon fill="#BF000A" points="87.327,5.4 88.13,9.577 88.107,9.412 87.301,5.263 	"/>
	<path fill="#BF000A" d="M106.841,45.686c-9.073-0.648-17.956-1.01-26.415-2.951c-8.556-1.689-15.954-6.163-23.866-8.883
		c-1.217-0.4-2.088-0.682-3.712-1.245c-1.253-0.431-2.535-0.679-3.81-1.024c-2.365-0.676-4.76-1.036-7.163-1.393l-2.566-0.396
		l-0.051-0.008c-1.36-0.204-0.976-0.134-0.144,0.01c0.942,0.153,1.8,0.299,2.532,0.421c-0.463-0.079-1.706-0.281-2.532-0.421
		c-1.118-0.186-2.408-0.395-3.886-0.629c-2.2-0.435-4.524-0.407-6.944-0.642c2.693,0.223,5.014,0.244,6.944,0.642l4.081,0.627
		l1.195,0.181c-5.506-1.045-11.042-1.454-16.617-1.792c-1.265-0.08-2.491-0.19-3.473-0.224c-4.078-0.471-8.003,1.236-9.978,2.691
		c-0.801,0.58-1.609,1.182-2.164,2.043l0.359-0.445l-0.69,0.865c-3.046,3.477-1.076,8.62,2.17,11.173
		c2.063,1.906,4.912,2.626,7.653,3.124c0,0,1.904,0.1,2.849,0.15c1.137-0.023,2.792-0.152,4.667-0.443
		c-2.23,0.307-4.329,0.451-6.242,0.283c-2.797-0.132-6.408-0.872-8.908-3.225c2.5,2.353,6.111,3.093,8.908,3.225
		c1.914,0.168,4.012,0.023,6.242-0.283c3.954-0.617,8.983-1.875,12.918-3.15c-4.889,1.615-9.156,2.607-12.918,3.15
		c-1.875,0.291-3.53,0.42-4.667,0.443c-0.945-0.051-2.849-0.15-2.849-0.15c-2.741-0.498-5.59-1.218-7.653-3.124
		c6.866,5.424,16.272,2.952,24.157,0.891c6.574-1.845,13.025-4.348,18.378-8.54c5.137-4.496,8.5-10.423,11.976-16.072
		c0.668-2.379,6.592-6.939,1.326-5.729c-0.194,3.347,0.314,6.637,0.47,9.947c0.154,6.602,0.099,13.293,1.327,19.85l0.797,4.923
		c0.22,0.829,0.081,1.63,0.594,2.479c-0.841-0.131,1.162,0.343,1.598,0.469c3.456-0.811,3.031-5.62,5.118-8.014
		c3.608-5.611,6.464-11.86,7.924-18.52c0.627-3.336,1.32-6.697,1.599-10.116c-0.037-1.022,0.838-4.95,0.051-3.598
		c-0.224,1.703-0.559,3.396-0.912,5.088c-1.547,6.715-3.455,13.557-7.021,19.695c-1.927,3.295-4.193,6.452-5.647,10.014
		c-0.256,0.916-0.711,1.816-0.801,2.741c-0.11,0.343-0.594,0.569-0.909,1.026c-0.156,0.713,0.829,1.183,1.139,0.509l-0.944-5.599
		c-1.527-7.436-1.371-14.91-1.74-22.361c-0.149-1.842-0.389-3.742-0.465-5.529l0.015-2.777c-0.081-1.102-2.163-1.247-2.157-0.381
		c-2.171,3.019-3.909,6.255-5.885,9.347c-3.654,6.354-8.387,12.111-14.992,15.291c-6.363,3.361-13.333,5.335-20.325,6.189
		c-6.559,1.475-15.599-0.24-16.482-7.828c0.035-7.646,9.738-9.168,15.924-8.279c6.92,0.43,13.819,1.121,20.601,2.465
		c13.79,2.012,25.42,11.068,39.708,12.719c13.942,1.976,28.279,3.196,42.912,1.633c5.448-0.88,12.654-2.186,18.274-7.482
		c1.175-1.487,2.523-2.909,3.227-4.787c1.652-3.25-2.571-2.588-3.807-3.543c-4-0.796-8.051,0.017-11.93-0.065
		c-15.481,1.439-33.256,1.62-38.998-9.085C86.579,9.046,88.123,4.651,87.53,5.23c-0.121,0.322,0.648,4.337,0.88,4.996
		c2.499,8.19,6.736,16.665,16.843,19.854c10.001,3.398,22.885-0.098,40.688,1.336c-5.93-1.252-8.007-0.322-7.057-0.624
		c0.816,0.163,4.906-0.913,9.59,1.585c0.012,4.16-6.596,9.719-12.896,11.382c-6.575,2.132-13.7,2.557-19.503,2.528
		c-16.676-0.609-37.886-0.66-57.028-11.125c-10.108-3.911-21.146-5.496-32.02-6.27c-5.277-0.467-11.284-0.999-16.015,2.223
		C5.591,34.348,7.32,42.5,12.327,44.813c10.078,4.017,21.822,0.295,32.958-4.807c7.555-3.5,12.529-10.48,16.428-17.307l3.104-5.082
		c1.257-1.801,2.045-3.603,2.655-2.491c-0.269,3.972,0.678,7.952,0.645,11.834c-0.069,7.866,0.836,15.812,2.363,23.503
		c0.193,0.084-0.077,1.865,0.496,0.555c-0.515-0.322-0.296,0.368-0.011-0.166c1.029-0.863,0.722-2.018,1.222-2.827
		c0.624-1.815,1.56-3.532,2.523-5.224c2.01-3.297,4.217-6.711,5.788-10.353c1.517-3.676,2.746-7.46,3.729-11.315
		c0.507-1.922,0.927-3.871,1.306-5.832l0.479-2.963c-0.578-1.085-1.127,0.286-0.992,1.293c-0.754,7.875-1.956,15.91-5.51,23.143
		c-1.565,3.621-4.193,6.896-5.815,10.721c-0.438,4.334-5.045,7.303-4.753,1.051c-1.716-8.162-1.874-16.359-2.019-24.953
		c-0.476-3.99-0.813-10.896,0.382-8.087c-2.426,3.526-4.487,7.126-6.654,10.525c-4.123,6.965-9.799,12.469-16.838,15.342
		c-9.92,4.024-22.243,7.822-30.545,4.379c-3.18-1.297-5.565-4.096-6.393-7.145c-0.665-3.214,1.514-6.182,3.997-7.807
		c5.16-3.795,11.622-2.166,17.3-1.979c-6.378-0.332-12.459-1.647-17.243,1.912c-5.682,2.782-5.3,11.45,1.519,14.656
		c4.331,1.88,2.827,1.253-0.501-0.176c-3.426-1.462-6.451-7.222-4.729-10.188c0.821-2.648,4.496-5.225,7.03-6.059
		c5.694-1.557,11.335-0.083,17.676,0.045c2.726,0.15,2.383,0.357,3.737,0.504c8.632,1.254,15.325,2.264,20.507,4.408
		c4.009,1.408,7.504,2.959,10.902,4.482c2.133,1.02,4.356,1.802,6.679,2.677c1.434,0.614,3.014,0.912,4.579,1.328
		c-1.216-0.335-1.656-0.477-2.07-0.611c2.236,0.564,5.367,1.476,7.691,1.772c-2.324-0.297-5.455-1.208-7.691-1.772
		c0.414,0.135,0.854,0.276,2.07,0.611c11.219,2.802,24.598,3.234,36.903,3.654l-0.179-0.009c-7.207-0.08-14.245-0.702-21.681-1.31
		c3.225,0.274,2.813,0.314-0.869-0.058l-2.815-0.359c6.396,0.78,12.812,1.037,18.882,1.494c0,0,2.754,0.109,4.122,0.163
		c2.036,0.052,1.931,0.042,2.361,0.069l4.276-0.014C116.298,46.146,106.84,45.742,106.841,45.686"/>
	<path fill="#BF000A" d="M35.068,29.139c0.989,0.153,2.177,0.336,3.447,0.534c-4.601-0.892-9.278-1.085-13.933-1.432
		C27.029,28.512,31.059,28.592,35.068,29.139"/>
	<path fill="#BF000A" d="M39.689,32.742c-1.582-0.308-3.179-0.55-4.776-0.696l2.404,0.302C38.35,32.538,38.898,32.617,39.689,32.742
		"/>
	<polygon fill="#BF000A" points="30.469,31.541 29.621,31.443 28.895,31.392 	"/>
	<path fill="#BF000A" d="M22.095,30.98c1.485,0.098,2.896,0.183,4.275,0.266C25.159,31.163,23.745,31.076,22.095,30.98"/>
	<path fill="#BF000A" d="M28.768,31.416c-0.517-0.043-0.756-0.07,0.096-0.026l0.03,0.002l-2.523-0.146
		C27.271,31.305,28.071,31.361,28.768,31.416"/>
	<path fill="#BF000A" d="M28.768,31.416c0.506,0.027,1.284,0.137,1.558,0.172C29.875,31.527,29.36,31.448,28.768,31.416"/>
	<path fill="#BF000A" d="M26.633,31.541c-0.827-0.045-0.629-0.105-2.299-0.193c-3.884-0.34-7.411-0.246-10.591,1.431
		c-1.57,0.597-3.034,3.024-2.931,4.644c-0.756,5.419,10.36,7.724,4.505,5.82c-4.086-1.512-5.75-6.324-3.236-8.977
		c2.248-2.629,6.093-3.047,9.948-2.986c6.474,0.357,12.725,0.742,19.249,1.969c1.828,0.338,3.563,0.562,5.25,1.057
		c-2.193-0.65-4.542-0.891-7.086-1.406C36.093,32.281,31.961,31.914,26.633,31.541"/>
	<path fill="#BF000A" d="M73.259,43.975c-0.796-0.272-2.379-0.813-2.379-0.813c-3.479-1.376-7.085-2.959-10.693-4.519l1.584,0.734
		c2.069,0.899,2.315,0.984,0.486,0.169c4.17,1.888,8.154,3.591,12.364,4.945C74.365,44.4,74.428,44.403,73.259,43.975"/>
	<polygon fill="#BF000A" points="77.131,45.189 74.622,44.491 74.717,44.525 77.213,45.214 	"/>
	<path fill="#BF000A" d="M11.532,40.359c3.154,5.148,10.02,4.229,14.864,3.489c5.218-0.99,10.16-2.675,14.951-4.491
		c0.711-0.332,1.219-0.575,2.185-0.996c0.767-0.277,1.428-0.736,2.129-1.136c1.333-0.712,2.484-1.657,3.658-2.572
		c0.425-0.298,0.779-0.702,1.175-1.071l0.021-0.021c0.601-0.594,0.42-0.434,0.041-0.082c-0.436,0.387-0.79,0.791-1.17,1.044
		c0.252-0.146,0.789-0.704,1.17-1.044c0.491-0.49,1.12-0.994,1.717-1.695c0.887-1.045,1.834-2.096,2.682-3.324
		c-0.933,1.37-1.903,2.406-2.682,3.324c-0.555,0.67-1.197,1.202-1.779,1.799l-0.53,0.521c2.584-2.272,4.655-5.011,6.561-7.842
		c0.421-0.653,0.835-1.281,1.155-1.795c1.248-2.121,2.537-4.222,3.375-5.5l0.964-1.552l-0.188,0.293l0.359-0.568
		c0.654-1.105,1.426-2.133,2.156-3.198c0.95-0.596-0.917-0.943-0.824-0.709l1.885,0.46c1.497,0.404,3.617,0.749,4.666,1.231
		c0,0-0.044,1.167-0.066,1.743c-0.033,0.701,0.06,1.715,0.167,2.869c-0.132-1.375-0.121-2.656-0.053-3.833
		c0.385-1.825-3.2-1.251-4.725-2.113c1.525,0.861,5.11,0.288,4.725,2.113c-0.068,1.177-0.08,2.458,0.053,3.833
		c0.25,2.44,0.428,5.602,0.411,8.135c-0.067-3.147-0.237-5.811-0.411-8.135c-0.107-1.154-0.199-2.168-0.167-2.869
		c0.022-0.576,0.066-1.743,0.066-1.743c-1.049-0.482-3.169-0.827-4.666-1.231c7.028-0.489,3.825,6.66,5.082,11.464
		c0.003,8.378,0.561,16.637,2.168,24.654c1.351,3.198-1.899,0.666-3.613,0.697c-1.496,1.004,0.944-1.496,1.258-3.377
		c1.518-3.76,3.719-7.192,5.795-10.693c4.638-6.853,5.846-15.307,6.597-23.517c0.779-7.848-0.844,0.796-1.279,4.086
		c-0.93,4.126-2.101,8.268-3.827,12.252c-1.727,4.38-4.064,8.427-6.424,12.398c-1.246,1.954-2.244,4.095-2.882,6.306
		c-0.376,1.242-0.679,2.02-2.015,1.35c0.25,0.887,1.973,0.744,2.884,1.162l3.302,0.854c1.113,0.621,2.559,0.506,1.834-1.108
		l-1.101-6.668c-0.768-4.435-1.242-8.85-1.128-13.29c0.121-4.442-0.547-8.853-0.696-13.124c3.054-2.86-3.646-3.133-7.376-4.325
		c-5.605,6.445-8.412,14.999-14.875,20.534c-6.428,5.463-14.934,7.851-23.22,9.676c-4.089,0.709-8.864,1.26-12.255-1.322
		c-3.789-2.74-2.032-8.74,2.55-9.477c13.485-1.783,39.033,3.303,50.626,9.887c16.823,5.955,8.273,2.265,7.397,2.289
		c-10.304-3.259-17.379-9.607-39.659-12.322c7.511,1.011,4.734,0.67-1.699-0.095c-3.221-0.323-7.366-0.769-11.622-0.761
		c-4.066-0.48-9.349,0.989-10.24,5.061c-1.195,6.428,6.994,9.282,12.653,7.848c6.083-0.854,12.293-2.723,18.387-5.34
		c6.24-2.54,11.175-7.82,14.56-13.555l5.185-8.498c0.723-0.977,2.155-3.604,2.41-3.159l4.684,1.164l2.34,0.59l1.178,0.303
		c0.792-1.523-0.442-0.579-0.586-0.998c-2.265,0.872-0.694,3.126-1.051,4.711c0.326,3.473,0.669,6.983,0.627,10.802
		c-0.167,4.976,0.528,9.916,1.341,14.706c0.526,1.972,0.493,5.761,1.51,6.233l-7.021-1.803l-0.871-0.227
		c-0.661,1.717,0.198,0.578,0.328,1.029c0.598,0.311,1.958-0.227,1.859-0.883c0.498-1.232,0.735-2.342,1.232-3.422
		c0.854-2.201,2.218-4.154,3.454-6.267c2.375-4.202,4.569-8.546,6.179-13.14c1.647-4.578,2.782-9.353,3.433-14.215
		c-0.188-1.034,1.1-2.843-0.363-3.203l-0.309,3.653c-0.221,2.438-0.322,4.903-0.877,7.307c-0.408,10.286-7.624,17.98-11.734,27.665
		c-0.005,0.957-1.951,3.219-1.055,2.457c-0.411,1.642,2.099,1.025,2.98,1.637c0.669-0.244,1.17,1.233,1.966-0.431l-0.316-1.889
		l-0.614-3.71c-0.853-4.891-1.444-9.566-1.427-14.184c-0.136-3.363-0.064-6.947-0.402-10.26c-0.632-2.818,0.955-7.815-3.071-7.399
		l-3.102-0.762c-0.269-0.692-1.638,0.455-0.654,0.55c0.824,0.133,0.336-0.625,0.034,0.326c-1.194,1.647-2.23,3.347-3.227,4.983
		c-2.055,3.26-3.786,6.475-5.898,9.334c2.348-3.205,3.967-6.261,5.885-9.277c0.935-1.513,1.867-3.093,2.992-4.654
		c0.228-0.125,0.661-1.393,0.728-0.6c-0.406,0.492-1.37-1.152-0.42-0.78l3.114,0.758c5.788,2.173-4.968-3.191-4.405,2.229
		c-0.896,1.438-2.341,3.646-3.213,5.077c-1.901,3.138-3.566,6.054-6.012,9.109c-1.071,1.275-0.999,1.079-1.535,1.716
		c-3.627,3.891-7.238,6.064-10.409,7.271c-2.416,0.963-4.648,1.678-6.814,2.381l-4.209,1.236l-2.826,0.673
		c0.754-0.149,1.033-0.186,1.301-0.218c-1.367,0.357-3.322,0.695-4.739,0.858c1.417-0.163,3.373-0.501,4.739-0.858
		c-0.268,0.032-0.546,0.068-1.301,0.218c-3.414,0.668-7.242,1.345-11.015,0.515c-3.763-0.616-6.904-4.809-5.45-8.395l-0.04,0.1
		c-1.689,4.452,2.883,8.463,7.298,8.646c-1.961-0.276-1.704-0.263,0.53,0.029c0.561,0.125,1.152,0.118,1.726,0.101
		c-3.847,0.163-8.237-1.273-9.599-4.965c-0.188,0.063-0.289-1.641-0.452-2.459c0.393-1.181,0.398-1.108,0.497-1.352
		c0.13-0.893,0.9-1.429,1.409-2.122C10.009,34.414,10.73,40.669,11.532,40.359"/>
	<path fill="#BF000A" d="M52.338,31.711c-0.375,0.488-0.935,0.971-1.491,1.526c2.098-1.956,3.826-4.267,5.438-6.623
		C55.419,27.848,53.993,29.857,52.338,31.711"/>
	<path fill="#BF000A" d="M155.827,33.286c-0.466,2.254-1.968,4.944-3.653,6.922c0.781-1.12,1.808-2.055,2.294-3.354
		C155.131,35.343,155.891,34.256,155.827,33.286"/>
	<path fill="#BF000A" d="M146.424,45.035l-1.244,0.719l-1.08,0.585C144.877,45.897,145.7,45.531,146.424,45.035"/>
	<path fill="#BF000A" d="M133.271,50.057c2.477-0.398,4.78-1.107,6.952-1.947C138.311,48.84,136.024,49.6,133.271,50.057"/>
	<path fill="#BF000A" d="M143.928,46.467c-0.779,0.404-1.139,0.586,0.126-0.102l0.046-0.026c-1.21,0.724-2.545,1.226-3.877,1.771
		C141.634,47.539,142.907,47.068,143.928,46.467"/>
	<path fill="#BF000A" d="M143.928,46.467c0.755-0.403,1.944-0.996,2.338-1.246C145.604,45.609,144.81,45.992,143.928,46.467"/>
	<path fill="#BF000A" d="M140.766,48.189c-1.311,0.524-0.994,0.426-3.726,1.225c-6.483,1.691-12.21,2.104-18.416,2.372
		c-2.849,0.063-7.34-0.031-10.148-0.19c-6.676-0.156-23.671-1.752-13.651-0.818c15.02,1.166,25.001,1.881,38.412-0.406
		c5.433-1.002,10.578-3.084,15.006-6.271c2.244-1.56,4.148-3.577,5.736-5.842c0.678-1.191,1.246-2.494,1.809-3.744
		c0.457-0.392,0.475-1.803-0.243-1.548c-0.033,0.272,1.866,1.721,0.886,0.601c-2.023-2.419-3.928-4.681-5.838-6.963l3.804,4.549
		l1.983,2.382c0.695,1.852-1.691-2.323-0.236,0.022C154.502,39.132,149.27,44.879,140.766,48.189"/>
	<path fill="#BF000A" d="M103.262,22.485c1.03,1.061,3.727,2.037,3.722,2.042c6.027,2.152,12.901,1.547,19.493,1.299l-2.955,0.109
		c-3.82,0.105-4.26,0.138-0.866,0.063c-7.437,0.031-15.95,0.655-21.089-5.313C101.869,21.037,101.709,21.039,103.262,22.485"/>
	<path fill="#BF000A" d="M99.003,17.105c0.745,1.275,1.612,2.508,2.563,3.58l-0.105-0.134c-0.975-1.11-1.799-2.331-2.53-3.571
		L99.003,17.105z"/>
	<path fill="#BF000A" d="M103.227,51.157c-9.414-0.655-18.606-1.411-27.322-3.641c-8.812-2.021-16.392-6.851-24.728-9.34
		c-1.284-0.344-2.188-0.642-3.917-1.08l-3.984-0.944c-2.486-0.533-4.974-0.929-7.46-1.313l-2.677-0.302l-0.053-0.005
		c-1.418-0.154-1.016-0.099-0.148,0.013c0.984,0.12,1.879,0.232,2.641,0.329c-0.482-0.062-1.78-0.219-2.641-0.329
		c-1.167-0.143-2.511-0.317-4.06-0.449c-2.309-0.221-4.7-0.373-7.222-0.438c2.804,0.059,5.195,0.234,7.222,0.438l4.261,0.441
		l1.247,0.137c-5.746-0.564-11.53-1.559-17.286-0.662c-1.365,0.131-2.425,1.131-2.721,2.121c-1.569,4.896,4.87,6.518,6.918,5.689
		l3.076-0.377l-0.588,0.064c0.449-0.062,0.826-0.079,1.131-0.148c4.261-0.861,8.544-1.848,12.619-3.493
		c2.666-0.999,5.286-2.325,7.709-3.938c0,0.001,1.56-1.219,2.33-1.823c0.947-0.722,1.948-2.141,3.29-3.583
		c-1.561,1.748-2.964,3.408-4.629,4.535c-2.222,1.932-5.536,3.529-8.789,4.74c3.253-1.211,6.567-2.809,8.789-4.74
		c1.666-1.127,3.069-2.787,4.629-4.535c2.501-3.316,5.261-7.926,7.552-11.549c-2.772,4.557-5.142,8.424-7.552,11.549
		c-1.341,1.442-2.342,2.861-3.29,3.583c-0.771,0.604-2.33,1.824-2.33,1.823c-2.424,1.613-5.044,2.939-7.709,3.938
		c8.468-2.511,14.424-9.575,18.659-17.255c1.759-2.786,3.927-6.579,5.548-8.348l10.216,2.512c0.953,0.141,5.049,1.467,3.413,0.642
		c-2.409-1.363-1.947,1.53-1.847,3.052c0.131,3.481,0.633,6.906,0.552,10.366c-0.427,6.949,0.928,13.78,1.981,20.564
		c0.63,2.13-0.986,2.002,1.336,2.135l-4.991-1.277c-3.154-1.221-8.214-0.523-5.192-4.872c2.913-6.175,7.531-11.632,9.538-18.384
		c1.79-6.734,2.593-13.726,2.804-20.777L79.55,0.925c0.194-1.584-0.824-0.905-0.558,0.332l-0.121,2.662
		c-0.176,3.544-0.602,7.094-1.293,10.615c-1.337,7.054-3.756,13.955-6.854,20.624c-1.661,3.622-3.566,7.108-5.607,10.485
		c-0.264,0.532-1.564,2.41-0.904,1.82l-2.858-0.742c1.157,1.021,3.601,1.129,5.33,1.737l11.34,2.915
		c1.091-2.229-0.862-7.201-1.002-10.654c-1.162-7.584-0.467-15.355-1.404-22.895c3.153-3.642-7.323-4.06-14.217-6.316
		c-6.209,3.178-8.081,12.328-12.539,17.445c-5.188,5.16-12.214,7.94-19.126,9.816c-3.501,0.828-7.086,1.513-10.645,1.369
		c-1.603-0.109-3.97-0.436-3.948-1.996c0.264-1.491,1.645-3.102,3.41-3.031c7.063-0.621,14.307,0.633,21.356,1.637
		c14.524,1.344,26.541,10.846,41.245,13.002c14.471,2.067,29.293,3.486,44.506,2.378c5.76-0.542,13.012-1.618,19.86-5.362
		c6.535-3.013,14.028-13.262,9.917-15.362c-3.983-8.727-14.265-6.487-21.375-6.749c-7.586,0.346-14.459,1.068-20.017,0.598
		c-7.722,0-11.187-3.637-12.803-5.748c-1.756-2.067-2.07-2.861-2.081-2.665c0.025,0.344,2.437,3.852,3.045,4.278
		c6.911,6.729,16.677,4.676,26.85,4.436c5.295-0.33,11.217-0.568,18.109,0.124c4.123-0.755,4.74,3.69,7.928,6.401
		c0.555,1.322,4.442,4.438,1.724,1.38c-1.694,1.722-1.934,3.989-3.551,5.793c1.861-2.593,2.517-4.585,2.988-5.686
		c1.499,0.261,1.134,0.94,0.983,0.44c-1.65-1.896-1.594,4.158-5.768,7.414c-7.545,8.754-25.755,10.899-37.609,10.41
		c-17.373-0.602-39.181-1.337-59.102-12.096c-10.604-3.714-22.061-5.201-33.412-5.509c-2.652-0.271-6.579,0.491-6.922,4.146
		c1.444,3.342,5.351,2.274,7.854,2.41c5.611-0.538,10.999-2.068,16.013-4.184c4.918-2.186,10.09-5.057,13.408-10.145
		c2.203-4.752,5.752-11.834,9.37-14.323l12.143,3.01l3.014,0.754c1.085-1.531-1.426-0.835-1.975-1.362
		c-0.642,1.696,0.697,0.694,0.938,1.168c-0.587-0.411-0.178,0.779-0.285,1.079l0.14,3.136c1.039,8.15,0.109,16.462,1.878,24.567
		l1.02,6.045c1.956,0.802-2.863-0.641-3.962-0.857l-11.849-3.045c0.882,3.857,4.894-2.074,6.167-5.269
		c1.93-3.614,3.751-7.3,5.231-11.136c3.082-7.617,5.119-15.721,5.78-24.009c0.189-1.991,0.176-4.339,0.36-6.017
		c-1.403,0.817-0.383,3.789-0.695,5.583c-0.119,4.146-0.378,8.3-0.991,12.434c-0.728,8.489-4.517,15.998-9.305,23.201
		c-1.158,1.773-2.13,3.855-2.712,5.918c-0.712,0.777,0.438,0.234,0.035,1.847l1.569,0.405l3.147,0.811l6.333,1.622
		c1.5-2.146-3.226-0.293-0.71-0.228c1.017-1.869-0.029-2.387,0.069-3.645c-2.094-9.189-1.654-17.85-2.169-26.326
		c-0.28-2.125-0.227-4.112-0.321-6.184c-0.944-0.39,1.455,0.307,2.015,0.4c0.097-1.462-1.672-0.825-2.412-1.338L61.921,11.88
		c-7.033,8.343-11.888,21.068-21.197,24.204c-6.603,3.092-13.344,4.646-19.739,5.392c-3.036,0.704-6.73-1.18-6.547-4.241
		c0.208-3.428,4.421-3.159,7.124-3.27c-3.167-0.008-7.233,0.138-7.157,3.629c0.188,3.01,3.696,4.479,6.495,3.911
		c5.94-0.638,12.115-2.018,18.972-4.995c8.953-4.453-6.074,3.538-12.907,4.136c-2.718,0.544-7.324,1.528-9.864,0.536
		c-2.984-0.977-3.765-5.28-0.923-6.613c2.8-0.898,5.983-0.669,9.267-0.519c2.824,0.176,2.486,0.259,3.899,0.368
		c9.031,0.742,15.894,2.193,21.431,3.846c4.247,1.205,7.828,2.912,11.366,4.475c2.222,1.042,4.519,1.873,6.887,2.861
		c1.478,0.642,3.121,0.973,4.72,1.492c-1.251-0.396-1.699-0.561-2.125-0.715c2.3,0.651,5.497,1.785,7.906,2.126
		c-2.409-0.341-5.606-1.475-7.906-2.126c0.426,0.154,0.874,0.318,2.125,0.715c11.519,3.363,25.419,4.036,38.175,4.558l-0.184-0.008
		c-7.471-0.237-14.782-0.767-22.471-1.674c3.332,0.423,2.904,0.417-0.9-0.077l-2.914-0.424c6.613,0.984,13.266,1.369,19.563,1.857
		c0,0,2.854,0.121,4.275,0.182c2.108,0.123,2,0.1,2.447,0.136l4.434,0.045C113.034,51.721,103.223,51.211,103.227,51.157"/>
	<path fill="#BF000A" d="M28.711,34.078c1.038,0.086,2.275,0.205,3.602,0.366c-4.816-0.47-9.67-1.138-14.505-0.579
		C20.351,33.495,24.532,33.707,28.711,34.078"/>
</g>
</svg>
