<?xml version="1.0" encoding="utf-8"?>
<!-- Generator: Adobe Illustrator 12.0.0, SVG Export Plug-In . SVG Version: 6.00 Build 51448)  -->
<!DOCTYPE svg PUBLIC "-//W3C//DTD SVG 1.1//EN" "http://www.w3.org/Graphics/SVG/1.1/DTD/svg11.dtd" [
	<!ENTITY ns_svg "http://www.w3.org/2000/svg">
	<!ENTITY ns_xlink "http://www.w3.org/1999/xlink">
]>
<svg  version="1.1" id="レイヤー_1" xmlns="&ns_svg;" xmlns:xlink="&ns_xlink;" width="7.147" height="4.354"
	 viewBox="0 0 7.147 4.354" overflow="visible" enable-background="new 0 0 7.147 4.354" xml:space="preserve">
<path d="M0.215,2.111C0.36,2.143,0.662,2.328,0.728,2.205c0.067-0.117,0.267-0.239,0.396-0.236c0.159,0.013,0.366-0.2,0.561-0.15
	C1.86,1.856,2.146,2.163,2.282,2.194c0.132,0.027,0.285-0.173,0.297,0.118c0.014,0.292,0.29,0.484,0.193,0.585
	c-0.117,0.11-0.179,0.422-0.314,0.391c-0.133-0.033-0.427,0.105-0.32,0.185c0.098,0.095,0.21,0.358,0.061,0.37
	C2.055,3.854,1.925,4.239,2.258,4.228c0.354-0.005,0.387-0.063,0.441-0.248C2.745,3.79,2.855,3.583,3.034,3.464
	c0.188-0.11,0.314-0.232,0.403-0.361C3.523,2.956,3.8,2.832,4,2.808c0.194-0.012,0.589-0.012,0.745,0.018
	c0.151,0.041,0.221,0.169,0.199,0.266C4.896,3.196,4.886,3.276,4.724,3.24C4.567,3.204,4.186,2.985,4.083,3.114
	c-0.117,0.126-0.107,0.35-0.107,0.35S3.612,3.665,3.812,3.649C4.01,3.618,4.343,3.724,4.444,3.638c0.097-0.09,0.341-0.295,0.5-0.127
	c0.131,0.166,0.153,0.453,0.242,0.58c0.078,0.132,0.131,0.403,0.164,0.176c0.035-0.239,0.035-0.342,0.102-0.422
	c0.066-0.068,0.865-0.408,0.712-0.707C5.999,2.835,5.865,2.804,6.03,2.717c0.176-0.099,0.332-0.149,0.391-0.334
	c0.053-0.185-0.012-0.302,0.117-0.414c0.127-0.102,0.213-0.235,0.277-0.394c0.076-0.16,0.314-0.145,0.125-0.35
	C6.759,1.034,6.628,0.869,6.674,0.803c0.042-0.081,0.599-0.41,0.448-0.381c-0.158,0.031-0.363,0.069-0.35,0.011
	C6.798,0.37,7.224,0.311,6.94,0.248C6.628,0.176,6.164,0.114,5.985,0.156C5.808,0.205,5.696,0.421,5.341,0.357
	C5.011,0.294,4.745,0.33,4.536,0.169c-0.238-0.159-0.271-0.19-0.379-0.159C4.041,0.06,3.5,0.566,3.41,0.591
	C3.325,0.616,3.122,0.573,2.9,0.519C2.665,0.467,2.083,0.613,1.728,0.573C1.464,0.545,1.391,0.184,1.391,0.184
	S1.062,0.573,0.982,0.64c-0.1,0.071-0.145,0.079-0.1,0.237c0.053,0.172,0.233,0.476,0.131,0.457c-0.086-0.019-0.378-0.095-0.552,0
	c-0.168,0.098-0.438,0.424-0.46,0.511C-0.014,1.931,0.084,2.084,0.215,2.111"/>
</svg>
