<?xml version="1.0" encoding="utf-8"?>
<!-- Generator: Adobe Illustrator 12.0.0, SVG Export Plug-In . SVG Version: 6.00 Build 51448)  -->
<!DOCTYPE svg PUBLIC "-//W3C//DTD SVG 1.1//EN" "http://www.w3.org/Graphics/SVG/1.1/DTD/svg11.dtd" [
	<!ENTITY ns_svg "http://www.w3.org/2000/svg">
	<!ENTITY ns_xlink "http://www.w3.org/1999/xlink">
]>
<svg  version="1.1" id="レイヤー_1" xmlns="&ns_svg;" xmlns:xlink="&ns_xlink;" width="568.47" height="200.407"
	 viewBox="0 0 568.47 200.407" overflow="visible" enable-background="new 0 0 568.47 200.407" xml:space="preserve">
<g>
	<path fill="#BF000A" d="M362.61,103.85c4.208,2.525,8.976,4.01,13.483,5.839l-6.84-2.79
		C366.294,105.688,364.698,105.134,362.61,103.85"/>
	<polygon fill="#BF000A" points="389.302,113.019 391.858,113.454 394.053,113.799 	"/>
	<path fill="#BF000A" d="M414.679,115.67c-4.525-0.049-8.805-0.553-12.999-0.899C405.364,115.085,409.644,115.663,414.679,115.67"/>
	<path fill="#BF000A" d="M394.443,113.756c1.556,0.309,2.269,0.464-0.303,0.064l-0.091-0.021l7.631,0.979
		C398.94,114.57,396.525,114.2,394.443,113.756"/>
	<path fill="#BF000A" d="M394.443,113.756c-1.517-0.294-3.867-0.727-4.688-0.896C391.118,113.13,392.663,113.427,394.443,113.756"/>
	<path fill="#BF000A" d="M400.935,113.693c2.504,0.203,1.889,0.412,6.944,0.813c11.923,0.671,22.133,0.505,33.252,0.033
		c5.1-0.22,13.133-0.385,18.17-0.727c11.925-0.925,42.52-2.54,24.481-1.758c-27.078,1.308-44.658,3.274-68.903,2.535
		c-19.531-0.586-38.955-3.413-56.2-13.972c-4.831-2.829-8.769-6.481-12.578-10.111c4.892,4.869,10.464,9.339,17.416,13.053
		C372.66,108.303,384.82,112.04,400.935,113.693"/>
	<path fill="#BF000A" d="M310.843,13.258c0.354,2.54,1.05,7.583,1.05,7.583c1.667,11.237,4.86,22.939,9.908,33.783l-1.984-4.923
		c-2.42-6.413-2.55-7.21-0.761-1.381c-4.573-13.153-7.528-26.083-8.248-39.504C310.816,9.648,310.498,9.48,310.843,13.258"/>
	<polygon fill="#BF000A" points="310.659,0.902 310.801,8.817 310.823,8.515 310.659,0.647 	"/>
	<path fill="#BF000A" d="M468.767,113.854c16.915-0.967,33.399-1.828,49.493-0.836c25.221-4.384,11.333,17.509,0.294,26.854
		c-1.732,1.626-3.187,2.556-5.748,4.456c-1.971,1.494-3.994,2.814-6.221,3.855c-3.975,2.251-7.988,4.279-12.273,5.763l-4.477,1.802
		l-0.089,0.035c-2.432,0.789-1.726,0.596-0.206,0.198l4.476-1.669c-0.823,0.303-3.019,1.135-4.476,1.669
		c-2.039,0.555-4.377,1.209-7.061,1.976c-3.954,1.316-8.194,2.073-12.616,2.994c4.919-1.045,9.134-1.861,12.616-2.994l7.355-2.209
		l2.083-0.851c-9.788,3.514-19.879,5.868-30.146,7.354c-2.338,0.345-4.598,0.674-6.413,0.949c-7.417,0.852-14.875,1.598-19.523,1.61
		l-5.55,0.269l1.063-0.027l-2.048,0.077c-7.791,0.212-15.628,0.303-23.496,0.121l-15.553-0.313c0,0.016-3.536-0.245-5.293-0.388
		c-2.118-0.047-5.182-0.153-8.713-0.329c4.181,0.306,8.066,0.59,11.632,0.838c5.293,0.312,11.768,0.252,18.024,0.542
		c-6.257-0.29-12.731-0.23-18.024-0.542c-3.565-0.248-7.451-0.532-11.632-0.838c-7.437-0.403-17.035-1.147-24.698-1.883
		c9.56,0.648,17.635,1.328,24.698,1.883c3.531,0.176,6.595,0.282,8.713,0.329c1.757,0.143,5.293,0.403,5.293,0.388l15.553,0.313
		c-15.328-0.305-30.854-1.208-46.621-2.417c-51.177-1.875-99.313-13.503-143.654-36.204
		c-46.347-17.699-96.752-24.661-149.666-24.765c-13.933,1.361-29.57,5.902-36.917,18.891c-8.14,12.547-2.307,29.784,8.691,38.103
		c23.513,18.29,54.23,9.965,79.481,4.097c26-6.752,51.435-16.214,71.777-33.221c19.376-18.173,31.376-41.548,45.229-63.148
		c1.845-3.16,10.783-15.71,6.826-11.164c-0.32,6.59-0.034,13.099,0.788,19.553c1.629,13.012,1.979,25.57,1.774,38.872
		c-0.438,13.208,1.424,26.421,3.35,39.595l3.225,19.826l1.66,9.964c1.657,1.109-2.549,4.578,3.931,3.763l3.528-4.264
		c4.128-21.336,25.698-43.133,36.112-71.683c10.696-27.872,16.177-57.143,18.685-77.178c4.426-53.906,0.688-26.063,0.514-23.524
		c-4.653,32.311-2.846,60.501-31.906,121.27c10.322-20.369,7.535-12.378-2.288,4.611c-4.936,8.482-12.097,18.931-17.776,30.633
		c-2.718,5.976-3.161,12.906-7.485,17.219c-0.789,4.668-1.892-9.098-2.687-12.046c-8.022-30.76-4.2-69.065-8.862-108.825
		l0.081-7.371c-1.321-1.372,2.985-2.139-2.95-4.021l-2.075,3.185l-8.343,12.789c-5.515,8.558-10.365,17.526-15.906,25.992
		c-11.057,16.685-23.083,33.369-39.634,43.245c-16.299,10.122-35.582,17.603-57.889,23.469
		c-27.595,6.716-61.976,15.123-82.107-7.935c-9.903-10.239-9.469-27.877,1.374-37.029c10.265-9.692,25.749-12.092,39.936-11.695
		c58.448,1.808,118.189,10.874,174.798,40.082c31.301,12.71,61.134,16.429,89.133,18.924c20.551,1.563,42.545,3.337,59.307,3.755
		c26.33,0.607,49.252-0.182,70.67-4.534c-24,4.485-41.902,4.854-68.962,4.536c-18.062-0.629,12.564,0.325,24.531-0.374
		c5.119-0.207,13.188-0.255,18.262-0.771c11.136-0.909,21.312-2.366,33-5.103c4.946-1.231,4.405-0.992,6.869-1.675
		c15.776-4.569,26.832-11.203,34.952-17.805c5.9-5.439,10.439-11.087,13.677-17.351c1.12-2.602,6.147-11.312-1.145-10.044
		l-8.844-0.972c2.344,0.168,3.166,0.527,3.972,0.681c-4.255-0.601-10.326-0.79-14.669-1.106c4.343,0.316,10.414,0.506,14.669,1.106
		c-0.806-0.153-1.628-0.513-3.972-0.681c-21.479-1.566-46.208,0.524-69.104,1.9l0.331,0.005c13.385-0.731,26.496-1.688,40.392-1.862
		c-6.024,0.11-5.267,0.014,1.616-0.19l5.286,0.021c-11.983,0.256-23.912,0.938-35.231,1.45c0,0-5.113,0.369-7.666,0.527
		c-3.782,0.173-3.592,0.081-4.396,0.055l-7.94,0.424C451.158,114.741,468.767,113.854,468.767,113.854"/>
	<path fill="#BF000A" d="M482.189,158.034c1.793-0.529,3.931-1.16,6.227-1.831c-8.301,2.586-16.777,4.58-25.363,5.896
		C467.596,161.541,474.974,160.146,482.189,158.034"/>
	<path fill="#BF000A" d="M525.26,131.271c2.585,1.479,6.954-0.766,3.833-0.894c2.154,3.552,4.254,3.499,1.039-0.063l-10.726-12.758
		l10.718,12.886c4.23,4.469-0.683,1.837-0.951-0.953C532.649,132.286,527.183,131.691,525.26,131.271"/>
	<polygon fill="#BF000A" points="500.785,127.201 496.141,130.759 492.186,133.803 	"/>
	<path fill="#BF000A" d="M447.027,145.581c10.27-0.818,19.782-3.014,29.079-5.195C467.908,142.202,458.437,144.608,447.027,145.581"
		/>
	<path fill="#BF000A" d="M491.446,134.231c-3.315,1.369-4.854,1.972,0.543-0.345l0.197-0.084c-5.303,2.138-10.535,4.754-16.08,6.583
		C481.976,138.444,486.956,135.979,491.446,134.231"/>
	<path fill="#BF000A" d="M491.446,134.231c3.029-1.686,7.165-5.238,8.739-6.287C497.616,129.734,494.939,132.187,491.446,134.231"/>
	<path fill="#BF000A" d="M478.266,140.821c-5.588,1.481-4.352,0.793-15.667,3.412c-26.93,4.791-50.437,4.429-75.753,3.353
		c-11.654-0.41-29.88-2.302-41.313-3.449c-27.734,0.729-95.062-18.833-55.392-7.594c60.877,10.195,101.313,14.116,156.649,10.169
		c21.836-2.54,45.875-6.608,60.517-24.739c3.303-1.713,5.29-16.432,7.537-8.385l10.827,12.792l5.43,6.448
		c3.87,2.279-4.224-7.191-1.25-1.326c-3.388-1.366-10.671-1.786-15.917-1.889c-12.907-0.67-24.991-0.134-37.146,0.337
		c15.789-0.61,32.149-1.322,50.035,0.794c12.111,5.783-5.807-7.423-13.034-18.558C510.107,119.389,495.996,136.918,478.266,140.821"
		/>
	<path fill="#BF000A" d="M305.039,67.075c2.936,5.048,8.774,15.064,8.774,15.057c13.716,22.261,37.065,39.403,64.04,45.069
		c-3.908-0.98-7.622-2.416-11.53-3.636c-14.551-5.578-16.028-6.797-3.424-0.934c-30.38-10.973-49.732-37.284-61.719-64.87
		C301.954,59.479,301.272,59.32,305.039,67.075"/>
	<path fill="#BF000A" d="M295.207,40.792c1.224,5.951,3.898,11.495,5.974,16.977l-0.237-0.666
		c-2.225-5.619-4.667-11.088-5.876-16.878L295.207,40.792z"/>
	<path fill="#BF000A" d="M324.221,141.188c-39.142-2.21-72.865-20.749-106.881-34.023c-34.534-12.485-70.243-18.875-105.52-22.189
		c-5.429-0.342-9.308-0.564-16.563-1.126l-16.694-1.041c-10.39-0.233-20.704,0.316-30.776,2.554
		c-3.603,0.376-7.067,1.632-10.502,3.166l-0.204,0.078c-5.406,2.19-3.849,1.612-0.505,0.323c3.758-1.512,7.155-2.942,10.339-3.181
		c-2.062,0.003-7.084,1.76-10.339,3.181c-4.466,1.772-9.86,3.367-14.78,7.531c-8.018,4.901-15.003,12.579-18.706,22.085
		c4.178-10.63,11.667-17.825,18.706-22.085c4.627-3.983,10.13-5.808,15.49-7.933l4.765-1.92
		c-22.525,5.919-43.954,25.335-41.915,50.175c-0.75,5.532,2.648,10.192,3.431,14.276c7.108,15.512,21.45,26.682,31.406,30.164
		c3.754,1.83,7.533,3.815,11.788,4.45l-2.344-0.577c1.807,0.442,3.294,0.797,4.536,1.106c17.206,4.968,35.613,3.579,53.151,0.51
		c11.333-2.556,23.067-4.666,34.438-8.34c0,0,7.755-2.25,11.595-3.364c4.625-1.39,11.226-3.729,18.649-6.835
		c-8.813,3.674-17.332,6.218-25.156,8.438c-11.482,3.7-25.816,7.157-39.826,9.797c14.009-2.64,28.344-6.097,39.826-9.797
		c7.825-2.22,16.343-4.764,25.156-8.438c15.653-6.555,34.576-18.044,47.5-29.988c-16.177,14.753-32.688,23.763-47.5,29.988
		c-7.423,3.106-14.023,5.445-18.649,6.835c-3.84,1.114-11.595,3.364-11.595,3.364c-11.37,3.674-23.104,5.784-34.438,8.34
		c34.057-6.666,69.354-15.961,98.704-37.457c24.53-16.477,38.604-42.947,53.678-66.825c3.704-6.097,7.532-12.106,11.672-17.872
		c-2.795-4.64-12.657-4.243-18.623-6.601c-11.115-2.338-33.451-9.226-35.261-7.759c3.143,1.56,9.205,1.35,2.859-0.032
		c-2.829,2.065-1.074,6.689-1.4,9.882l1.143,21.108c0.876,14.049,1.423,28.09,1.147,42.146c0.584,14.097,3.152,27.972,4.732,41.932
		l3.387,20.828c3.504,5.624,12.784,3.93,18.834,6.758c94.217,25.257,116.194-301.081,65.745-65.56
		c-7.207,14.539-16.18,28.101-24.154,42.21c-3.266,7.593-5.048,15.459-9.595,21.927c-2.277,4.201-5.822,5.025-7.038,6.201
		c1.859-0.015,4.02,2.384,5.612,0.373c-1.487-0.402-3.753-0.927-5.596-1.398l-23.22-5.922l-11.559-2.97
		c-0.565-1.998-1.32-7.331-1.986-10.801c-2.888-15.581-5.092-31.252-6.256-46.932c-2.009-15.716-0.134-31.253-1.997-47.031
		c1.455-12.801-10.639-40.504,11.484-28.021l22.581,5.657c2.75,2.231,11.068,0.689,3.931-0.636
		c-1.504-1.964-5.405,0.925-1.846,1.428c3.457,0.229-1.736,0.148-1.469,2.582c-8.625,12.868-16.145,26.398-24.711,39.1
		c-30.214,55.816-95.849,73.854-152.47,81.018c-28.615,2.307-61.442-9.25-72.73-36.878c-10.318-29.21,18.329-56.867,47.021-57.998
		c57.927-4.639,117.798,6.227,173.109,26.382c53.01,29.463,115.911,33.114,177.285,35.397c23.559-0.507,53.462,0.901,83.258-11.175
		c7.146-3.3,14.652-7.727,19.712-14.432c2.935-5.872,14.131-18.323,4.94-13.837l16.135,19.168
		c-2.438-4.967-15.056-3.103-22.42-3.774c-66.404,2.543-137.98,10.718-173.015-24.227c-40.193-45.564-36.188-65.487-38.156-62.624
		c-0.165,1.347,5.099,17.909,6.856,20.359c14.595,34.703,41.532,61.872,85.512,69.184c21.645,3.225,45.872,2.669,74.201,1.34
		c14.152-0.886,29.339-1.56,45.777-1.538c6.624-1.723,20,4.613,22.173-1.637c-5.108-4.693-12.956-18.707-16.488-16.502
		c5.777,0.46,13.195,14.001,15.701,15.605c4.671,4.236-2.302,4.61,1.336,4.138c1.042-3.469-3.848-5.812-8.047-11.829
		c-2.353-2.782-5.081-6.018-8.141-9.596c-4.701-2.277,1.953,5.599,1.164,1.649c-3.723-0.957-2.892,4.015-4.801,5.645
		c-10.041,20.924-41.396,29.402-69.871,30.679c-29.174,2.348-59.135,0.409-83.73-1.649c-73.918,4.721-147.693-55.405-240.917-58.494
		c-22.462-2.801-46.073-4.346-68.975,0.426c-22.857,3.424-45.477,23.5-44.194,48.333c1.462,24.851,24.063,42.057,45.902,47.438
		c22.579,6.159,45.884,2.072,67.243-2.837c41.959-9.85,91.503-27.798,118.299-75.791c9.702-14.241,17.667-29.245,27.426-43.084
		c-3.076-8.322-6.198,1.073-2.676,0.169c0.343-1.187,7.428,4.694,4.438-2.312l-12.32-3.112l-24.569-6.125
		c-2.801,0.366-2.397-2.987-7.822,0.443l-0.044,6.38c0.117,4.237-0.186,8.543,0.282,12.709c0.61,8.29,1.93,16.943,2.108,24.876
		c-0.294,16.882,0.63,33.681,2.622,50.327c4.538,15.141-1.083,36.542,14.192,46.144l24.226,6.174
		c3.335-0.722,9.646,5.939,10.606-0.893c-1.891,0.95-4.329-4.588-5.678,1.731c1.772,1.284,6.845-0.611,6.655-2.241
		c13.112-31.488,35.097-56.592,45.216-89.539c5.622-15.829,9.858-32.209,12.848-48.775c1.47-8.29,2.888-16.611,3.841-25.013
		l1.187-12.66c-6.065-4.005-1.925,6.117-3.386,8.485c-1.155,33.399-5.708,67.738-17.648,99.262
		c-7.013,15.497-17.922,28.977-25.693,44.79c-4.084,8.083-4.846,16.949-11.244,22.818l-4.165,4.826
		c5.995,0.327-1.966-0.986-2.258-1.38l-12.623-3.581c-15.813-8.31-39.764-0.117-36.339-24.016
		c-2.199-17.55-5.885-35.217-5.691-52.926c0.181-19.144-1.387-37.624-2.279-55.565c-0.802-3.445,0.685-11.13-1.191-10.921
		l3.261,0.785c2.997-5.294-1.047-1.963-1.199-3.354l-6.383-1.643c4.712,6.946,15.886,5.479,23.369,8.605
		c14.835,6.933,42.827,1.268,22.687,20.004c-8.744,14.065-16.883,28.018-26.168,41.011c-26.286,40.272-77.645,56.895-113.843,64.764
		c-28.716,7.423-57.926,8.853-81.784-2.646c-23.961-9.955-40.349-36.805-30.542-60.203c-10.283,26.557,8.994,50.704,30.181,60.099
		c22.03,10.456,48.727,10.971,78.381,3.649c39.987-10.161-27.592,10.688-54.88,4.202c-11.261-1.998-28.912-8.01-37.129-16.154
		c-20.021-14.662-27.612-44.323-8.745-65.112c7.641-8.335,7.922-6.139,12.176-9.838c32.26-18.874,63.542-11.188,86.307-10.562
		c17.99,1.625,33.956,3.969,49.486,6.879c9.761,2.197,19.55,3.916,29.605,6.717l19.369,5.496c-5.093-1.563-6.931-2.183-8.684-2.79
		c9.535,2.221,22.099,7.956,31.381,11.29c-9.283-3.334-21.846-9.069-31.381-11.29c1.753,0.607,3.591,1.228,8.684,2.79
		c23.031,7.776,46.374,20.238,71.876,28.402c25.616,8.085,53.036,9.418,78.963,12.158l-0.749-0.087
		c-30.165-3.395-60.792-4.189-90.238-16.54c12.98,4.44,11.159,4.363-3.468-1.256l-11.092-4.662
		c24.864,11.47,51.718,17.469,77.453,19.592c0,0,11.613,1.174,17.386,1.752c8.581,0.935,8.143,0.85,9.96,1.114l18.052,1.441
		C364.102,145.722,324.198,141.409,324.221,141.188"/>
	<path fill="#BF000A" d="M21.233,96.847c3.328-2.702,7.619-5.418,12.89-7.053C16.063,96.906-0.312,113.3,0.151,133.827
		C-1.122,123.433,6.179,105.735,21.233,96.847"/>
	<path fill="#BF000A" d="M113.894,94.939c-6.527-0.707-13.066-1.407-19.597-1.573l9.849,0.648
		C108.39,94.481,110.637,94.657,113.894,94.939"/>
	<polygon fill="#BF000A" points="76.084,92.502 72.612,92.336 69.64,92.339 	"/>
	<path fill="#BF000A" d="M42.393,97.318c5.678-2.162,11.334-3.562,16.948-4.265C54.401,93.638,48.698,94.883,42.393,97.318"/>
	<path fill="#BF000A" d="M69.134,92.469c-2.127,0.015-3.107,0.008,0.38-0.123l0.126-0.007c-3.394,0.177-6.87,0.007-10.305,0.715
		C62.974,92.346,66.284,92.594,69.134,92.469"/>
	<path fill="#BF000A" d="M69.134,92.469c2.077-0.113,5.254,0.187,6.384,0.229C73.664,92.61,71.561,92.355,69.134,92.469"/>
	<path fill="#BF000A" d="M60.592,93.884c-3.284,0.651-2.63-0.155-9.207,1.492c-15.104,4.047-28.478,11.214-34.767,24.651
		c-3.178,5.994-4.156,16.895-2.117,23.385c1.476,19.251,41.458,36.243,19.781,24.68c-32.45-19.556-23.824-61.06,8.305-69.679
		c24.839-9.194,51.316-3.52,77.928-1.992c7.548,0.667,14.609,1.495,21.637,2.854c-9.136-1.829-18.694-2.562-29.214-3.723
		C99.208,94.113,82.147,93.005,60.592,93.884"/>
	<path fill="#BF000A" d="M252.766,132.831c-3.178-1.298-9.452-3.974-9.444-3.983c-13.849-6.354-28.613-12.832-43.96-17.47
		l6.743,2.273c8.628,3.174,9.622,3.554,2.014,0.563c17.567,6.383,33.37,14.282,50.035,21.13
		C257.157,134.841,257.427,134.862,252.766,132.831"/>
	<polygon fill="#BF000A" points="268.057,139.165 258.156,135.344 258.526,135.522 268.379,139.292 	"/>
	<path fill="#BF000A" d="M19.314,154.999c31.158,39.141,83.901,22.27,120.95,11.598c2.979-1.189,5.094-2.06,9.113-3.546l9.251-3.418
		c5.812-1.967,11.234-4.637,16.67-7.346c1.863-0.982,3.92-1.753,5.694-3.091l0.11-0.07c2.85-1.913,2.011-1.41,0.234-0.288
		c-1.946,1.396-3.975,2.21-5.649,3.005c1.062-0.506,3.959-1.752,5.649-3.005c2.378-1.523,5.119-3.296,8.247-5.349
		c4.513-3.258,8.855-7.103,13.364-11.147c-4.999,4.514-9.349,8.354-13.364,11.147l-8.592,5.707l-2.577,1.569
		c12.029-7.106,22.97-15.833,32.249-26.277c2.108-2.364,3.955-4.823,5.53-6.725c6.32-7.784,11.721-16.294,15.151-21.494l3.906-6.341
		l-0.749,1.211l1.428-2.348c5.372-8.976,11.077-17.808,16.836-26.633c1.471-4.19,4.091-3.849,7.978-2.407
		c-0.577-0.9-6.014-1.682-8.802-2.537c0,0-4.592-1.239-6.866-1.85c-2.778-0.624-6.775-1.574-11.394-2.689
		c5.444,1.424,10.486,2.771,15.132,3.983c3.427,0.929,7.278,1.823,11.274,2.776c1.414,0.197-7.106-2.861-7.685,2.632
		c0.579-5.493,9.099-2.435,7.685-2.632c-3.996-0.953-7.847-1.847-11.274-2.776c-4.646-1.212-9.688-2.56-15.132-3.983
		c-1.945-0.247-6.1-2.005-6.648-1.096l-0.216,8.525c-0.143,5.777,0.438,11.578,0.882,16.713c-0.717-6.355-1.277-12.315-1.012-17.847
		c0.034-2.606,0.235-5.729,0.158-7.649c1.851-0.367,4.682,0.973,6.836,1.353c4.619,1.116,8.616,2.066,11.394,2.689
		c2.274,0.611,6.866,1.85,6.866,1.85c2.789,0.855,8.225,1.636,8.802,2.537c-3.887-1.442-6.506-1.784-7.978,2.407
		c-0.468-6.904,14.429-0.25,4.442-3.792l-15.128-3.801l-15.265-3.778c-0.045,5.151-0.397,10.488-0.093,15.819
		c4.013,33.925,0.234,67.805,7.466,100.604c2.505,6.99-0.051,19.163,6.669,21.838l24.096,6.133
		c1.958,6.352,12.871-18.961,18.578-31.399c16.67-28.232,35.488-57.582,37.53-92.228c1.815-8.331,2.174-16.865,2.874-25.399
		c1.952-7.934,0.073-23.013-1.196-7.084c-1.932,17.129-5.275,34.369-10.988,51.137c-10.473,36.982-33.857,68.359-48.883,101.198
		c-1.274,2.98,6.101,4.215,3.121,1.39l-6.722-1.694l-13.408-3.453c-5.693-1.676-4.22-16.076-6.677-23.463
		c-3.251-18.044-5.207-36.043-5.104-54.161c0.937-18.083-2.936-36-2.524-53.473c-1.415-6.902,1.316-2.359,6.778-2.101l12.816,3.165
		c1.33-7.587-4.799,8.19-9.446,13.299c-17.743,29.774-35.699,60.951-66.817,77.129c-30.141,16.172-64.396,25.883-99.018,28.621
		c-17.07,0.5-35.484-4.201-47.9-16.354c-14.604-11.158-15.219-32.914-3.986-46.535c17.586-23.896,62.73-18.674,100.7-14.782
		c39.588,3.048,77.508,14.762,102.334,25.004c66.686,28.058,32.806,11.899,29.432,10.992
		c-40.048-18.163-72.831-35.326-163.587-41.64c30.77,2.998,19.465,1.301-6.948,0.054c-13.041,0.109-30.603-0.722-46.883,6.017
		c-16.099,7-27.33,24.641-25.258,39.905c3.403,21.982,27.415,38.62,52.31,39.604c25.315,1.416,51.088-5.418,76.655-13.737
		c25.342-8.728,50.703-22.222,68.349-43.63c15.837-19.62,33.018-49.559,40.592-63.253c0.657-6.448-31.236-13.25-22.561,7.177
		c0.808,14.24,2.938,28.547,2.494,44.149c-0.266,20.232,2.521,40.338,5.996,59.831c1.102,8.705,1.758,23.138,14.505,22.301
		l14.466,3.624c-0.04-9.395-4.759,0.817-0.913-3.525c1.672-2.062,3.226-3.836,4.68-6.262
		c13.997-36.262,39.132-68.496,47.467-107.785c2.457-9.606,4.51-19.317,5.937-29.169l1.694-14.786
		c-1.456-6.455-3.717,2.526-3.19,6.729c-0.936,19.812-4.353,39.485-8.688,59.054c-5.142,19.274-16.445,36.534-26.801,54.329
		c-5.217,8.83-10.365,18.263-13.592,28.201c-0.815,5.629-7.088,6.246-6.728,14.373l3.814,0.999l0.945,0.248
		c0.667-1.183-0.706,2.892,0.996-2.84c0.56,0.116,0.051,0.012,0-0.004l-1.861-0.45l-7.682-1.931l-16.077-4.066l-7.846-2.004
		c1.373,1.979-0.374-4.007-0.412-5.589c-1.628-10.461-3.595-20.626-4.828-30.613c-3.711-19.914-2.431-39.091-3.299-58.134
		c-1.372-13.209-1.406-29.581-3.497-39.884c11.432,1.687,29.668,9.913,32.808,5.726c-26.292,21.105-34.606,55.123-57.162,73.395
		c24.18-22.093,30.133-47.128,54.932-73.894c3.569-1.266,4.777,4.103,2.322,2.949c-1.129-0.292-1.438-0.381-1.098-0.316
		c0.214,0.042,1.608,0.366,2.5,0.584c-0.307-4.437-3.078-1.922-5.064-3.364c-7.926,7.235-13.297,19.799-18.198,26.495
		c-3.417,5.938-9.294,14.962-13.071,20.588c-8.273,12.346-16.993,23.021-29.149,33.296c-5.123,4.449-4.681,3.729-7.501,5.589
		c-17.745,12.547-34.359,17.103-47.157,22.284c-10.059,3.327-19.444,5.176-28.393,7.622c-5.656,1.599-11.49,2.402-17.512,3.535
		c-3.81,0.59-7.726,1.259-11.723,1.576c3.125-0.102,4.258-0.301,5.355-0.311c-5.689,0.845-13.779,1.141-19.572,0.936
		c5.793,0.205,13.882-0.091,19.572-0.936c-1.098,0.01-2.23,0.209-5.355,0.311c-26.571,4.461-68.108-9.209-70.159-43.002l-0.037,0.44
		c1.172,18.22,15.548,32.771,32.899,38.909c-7.473-3.056-6.474-2.739,2.063,0.668c2.084,1.064,4.516,1.351,6.753,2.026
		c-15.543-3.483-30.563-12.364-37.498-26.187c-0.205,0.136-2.917-6.242-3.538-9.587c-0.762-5.016-0.789-4.745-0.679-5.83
		c0.113-3.527,0.03-7.031,1.186-10.473C9.446,132.892,17.542,155.911,19.314,154.999"/>
	<path fill="#BF000A" d="M189.929,143.282c-2.084,1.384-4.583,3.033-7.266,4.811c10.003-6.061,18.877-13.814,26.771-22.371
		C205.25,130.23,198.053,137.24,189.929,143.282"/>
	<path fill="#BF000A" d="M495.29,112.118c9.466-0.343,18.932-0.056,28.275,1.075l-14.166-1.277
		C503.246,111.935,499.99,112.026,495.29,112.118"/>
	<polygon fill="#BF000A" points="528.836,129.1 525.724,132.977 522.801,136.07 	"/>
	<path fill="#BF000A" d="M488.496,155.561c8.561-2.064,15.499-6.878,22.771-10.426C504.791,148.09,497.983,153.194,488.496,155.561"
		/>
	<path fill="#BF000A" d="M522.375,136.685c-2.266,2.041-3.283,2.998,0.304-0.475l0.125-0.14c-3.617,3.261-6.818,7.167-11.537,9.064
		C516.269,143.131,519.217,139.285,522.375,136.685"/>
	<path fill="#BF000A" d="M522.375,136.685c2.168-2.05,5.195-5.512,6.155-6.809C526.89,131.978,524.865,134.249,522.375,136.685"/>
	<path fill="#BF000A" d="M513.253,145.226c-4.328,2.31-3.434,1.544-12.165,6.184c-21.209,9.266-41.062,13.545-62.631,14.399
		c-9.879,1.076-25.501,0.324-35.263,0.228c-23.197-0.579-82.23-5.172-47.417-2.469c51.954,3.029,87.423,7.561,132.78-6.883
		c17.779-6.133,36.203-15.334,44.501-33.318c6.394-13.291-11.095-10.7-18.558-11.854c-9.527-0.74-19.184-0.082-28.952-0.068
		c-10.938,0.539-21.209,1.029-31.525,1.504c13.438-0.423,27.233-1.634,42.542-1.556c10.052-0.444,21.124,0.379,33.644,1.556
		C540.864,121.646,524.225,137.699,513.253,145.226"/>
	<path fill="#BF000A" d="M320.042,42.706c1.304,4.822,5.147,13.873,5.439,13.75c8.248,20.193,23.336,40.165,45.131,49.113
		c-3.043-1.584-6.214-2.808-9.016-4.913c-11.068-7.308-11.977-8.679-2.61-1.517c-22.65-15.298-34.208-40.07-41.449-64.633
		C317.875,36.071,317.761,35.724,320.042,42.706"/>
	<polygon fill="#BF000A" points="314.644,19.457 317.541,34.507 317.456,33.91 314.553,18.961 	"/>
	<path fill="#BF000A" d="M384.956,164.609c-32.69-2.34-64.695-3.64-95.174-10.634c-30.827-6.088-57.484-22.207-85.992-32.007
		c-4.385-1.442-7.525-2.458-13.376-4.485c-4.515-1.551-9.135-2.445-13.727-3.69c-8.52-2.437-17.149-3.733-25.807-5.021l-9.248-1.423
		l-0.184-0.029c-4.902-0.734-3.518-0.481-0.519,0.035c3.396,0.553,6.485,1.077,9.124,1.515c-1.667-0.281-6.146-1.011-9.124-1.515
		c-4.027-0.667-8.675-1.422-14-2.265c-7.925-1.566-16.299-1.468-25.021-2.312c9.705,0.802,18.065,0.88,25.021,2.312l14.704,2.259
		l4.307,0.65c-19.84-3.764-39.787-5.238-59.871-6.456c-4.557-0.288-8.974-0.685-12.512-0.808
		c-14.694-1.695-28.835,4.457-35.951,9.699c-2.885,2.09-5.798,4.257-7.796,7.361l1.294-1.605l-2.485,3.119
		c-10.976,12.525-3.878,31.058,7.818,40.256c7.432,6.867,17.697,9.46,27.575,11.256c0,0,6.86,0.357,10.266,0.542
		c4.096-0.085,10.059-0.55,16.814-1.599c-8.035,1.107-15.597,1.628-22.49,1.022c-10.079-0.476-23.089-3.143-32.098-11.619
		c9.009,8.477,22.02,11.144,32.098,11.619c6.894,0.605,14.456,0.085,22.49-1.022c14.245-2.222,32.366-6.755,46.548-11.352
		c-17.617,5.822-32.992,9.396-46.548,11.352c-6.756,1.049-12.719,1.514-16.814,1.599c-3.406-0.185-10.266-0.542-10.266-0.542
		c-9.878-1.796-20.143-4.389-27.575-11.256c24.738,19.543,58.63,10.636,87.039,3.21c23.686-6.65,46.929-15.665,66.219-30.771
		c18.509-16.2,30.627-37.555,43.147-57.91c2.41-8.572,23.752-25.004,4.777-20.644c-0.7,12.059,1.133,23.913,1.694,35.84
		c0.555,23.788,0.355,47.896,4.781,71.521l2.871,17.736c0.792,2.989,0.293,5.875,2.139,8.933c-3.029-0.472,4.186,1.234,5.759,1.688
		c12.45-2.922,10.921-20.249,18.439-28.874c13-20.217,23.292-42.733,28.553-66.727c2.257-12.02,4.757-24.13,5.759-36.448
		c-0.134-3.685,3.02-17.836,0.183-12.963c-0.807,6.134-2.013,12.234-3.287,18.333c-5.572,24.194-12.447,48.845-25.296,70.966
		c-6.944,11.868-15.106,23.245-20.348,36.078c-0.923,3.302-2.563,6.544-2.887,9.876c-0.396,1.238-2.139,2.053-3.275,3.701
		c-0.564,2.565,2.986,4.26,4.104,1.831l-3.4-20.172c-5.502-26.791-4.941-53.723-6.269-80.569
		c-0.537-6.637-1.402-13.484-1.675-19.922l0.055-10.006c-0.291-3.969-7.793-4.492-7.773-1.373
		c-7.823,10.879-14.083,22.539-21.205,33.68c-13.166,22.893-30.219,43.636-54.016,55.094c-22.927,12.111-48.042,19.221-73.233,22.3
		c-23.63,5.314-56.203-0.865-59.387-28.204c0.126-27.551,35.088-33.034,57.376-29.833c24.934,1.549,49.79,4.039,74.226,8.883
		c49.686,7.247,91.589,39.88,143.072,45.827c50.236,7.116,101.894,11.515,154.615,5.882c19.631-3.172,45.596-7.874,65.846-26.961
		c4.23-5.358,9.091-10.479,11.624-17.246c5.955-11.71-9.264-9.325-13.717-12.765c-14.41-2.869-29.005,0.057-42.982-0.242
		c-55.78,5.19-119.822,5.842-140.512-32.729c-27.505-43.994-21.939-59.829-24.074-57.742c-0.438,1.159,2.334,15.627,3.17,18
		c9.004,29.51,24.271,60.045,60.686,71.536c36.034,12.245,82.457-0.351,146.6,4.813c-21.366-4.51-28.849-1.159-25.426-2.248
		c2.941,0.588,17.678-3.289,34.551,5.711c0.045,14.988-23.763,35.018-46.461,41.01c-23.691,7.681-49.363,9.213-70.271,9.11
		c-60.083-2.196-136.505-2.379-205.475-40.084c-36.419-14.093-76.191-19.804-115.369-22.59c-19.012-1.683-40.656-3.599-57.703,8.009
		c-19.533,11.646-13.303,41.018,4.735,49.351c36.313,14.474,78.627,1.064,118.749-17.319c27.221-12.609,45.141-37.761,59.189-62.356
		l11.186-18.311c4.53-6.49,7.368-12.98,9.567-8.976c-0.968,14.312,2.443,28.652,2.324,42.637
		c-0.248,28.344,3.014,56.97,8.515,84.685c0.696,0.302-0.276,6.722,1.786,1.998c-1.854-1.16-1.068,1.327-0.041-0.599
		c3.708-3.108,2.602-7.27,4.402-10.185c2.249-6.541,5.622-12.727,9.092-18.823c7.242-11.877,15.193-24.178,20.855-37.299
		c5.464-13.244,9.895-26.879,13.434-40.771c1.827-6.925,3.339-13.948,4.705-21.012l1.723-10.677
		c-2.081-3.912-4.06,1.031-3.573,4.659c-2.717,28.373-7.049,57.325-19.853,83.385c-5.641,13.048-15.109,24.845-20.953,38.627
		c-1.578,15.613-18.178,26.312-17.126,3.784c-6.182-29.408-6.751-58.941-7.275-89.906c-1.714-14.377-2.927-39.259,1.377-29.14
		c-8.742,12.704-16.167,25.679-23.973,37.922c-14.855,25.096-35.309,44.926-60.669,55.278
		c-35.744,14.5-80.142,28.185-110.056,15.776c-11.458-4.672-20.051-14.757-23.033-25.741c-2.396-11.579,5.454-22.273,14.401-28.128
		c18.592-13.675,41.876-7.805,62.334-7.129c-22.982-1.196-44.892-5.936-62.128,6.889c-20.473,10.025-19.096,41.257,5.47,52.807
		c15.604,6.775,10.187,4.515-1.803-0.634c-12.344-5.266-23.245-26.021-17.038-36.705c2.96-9.542,16.198-18.825,25.329-21.829
		c20.518-5.609,40.843-0.3,63.688,0.162c9.822,0.541,8.587,1.287,13.465,1.815c31.102,4.518,55.217,8.156,73.888,15.884
		c14.445,5.073,27.037,10.661,39.279,16.15c7.688,3.673,15.697,6.489,24.065,9.644c5.168,2.213,10.86,3.286,16.497,4.787
		c-4.382-1.208-5.965-1.719-7.457-2.203c8.058,2.032,19.338,5.316,27.715,6.384c-8.377-1.067-19.658-4.352-27.715-6.384
		c1.492,0.484,3.075,0.995,7.457,2.203c40.423,10.092,88.629,11.651,132.963,13.166l-0.644-0.033
		c-25.966-0.29-51.325-2.528-78.115-4.718c11.616,0.989,10.133,1.131-3.135-0.207l-10.142-1.295
		c23.048,2.812,46.161,3.735,68.03,5.383c0,0,9.925,0.395,14.854,0.588c7.336,0.187,6.956,0.149,8.508,0.249l15.41-0.048
		C419.031,166.269,384.952,164.812,384.956,164.609"/>
	<path fill="#BF000A" d="M126.352,104.988c3.564,0.553,7.845,1.212,12.42,1.924c-16.577-3.211-33.428-3.909-50.2-5.156
		C97.387,102.73,111.906,103.018,126.352,104.988"/>
	<path fill="#BF000A" d="M143.002,117.973c-5.701-1.109-11.454-1.98-17.208-2.508l8.661,1.085
		C138.178,117.236,140.152,117.521,143.002,117.973"/>
	<polygon fill="#BF000A" points="109.782,113.644 106.726,113.292 104.11,113.106 	"/>
	<path fill="#BF000A" d="M79.609,111.625c5.351,0.353,10.437,0.657,15.405,0.957C90.65,112.282,85.552,111.971,79.609,111.625"/>
	<path fill="#BF000A" d="M103.654,113.193c-1.864-0.153-2.724-0.252,0.345-0.095l0.108,0.008l-9.092-0.524
		C98.261,112.793,101.142,112.997,103.654,113.193"/>
	<path fill="#BF000A" d="M103.654,113.193c1.821,0.099,4.626,0.493,5.611,0.619C107.641,113.596,105.787,113.31,103.654,113.193"/>
	<path fill="#BF000A" d="M95.961,113.644c-2.98-0.16-2.266-0.38-8.283-0.695c-13.995-1.227-26.701-0.886-38.162,5.154
		c-5.657,2.15-10.93,10.898-10.558,16.73c-2.726,19.527,37.327,27.83,16.231,20.974c-14.722-5.448-20.717-22.788-11.659-32.346
		c8.099-9.473,21.956-10.978,35.842-10.76c23.326,1.287,45.85,2.675,69.356,7.094c6.587,1.217,12.839,2.024,18.914,3.808
		c-7.903-2.344-16.366-3.21-25.532-5.065C130.046,116.313,115.157,114.989,95.961,113.644"/>
	<path fill="#BF000A" d="M263.955,158.443c-2.868-0.982-8.571-2.93-8.571-2.93c-12.536-4.959-25.527-10.663-38.528-16.281
		l5.709,2.644c7.456,3.244,8.341,3.548,1.752,0.609c15.025,6.803,29.38,12.94,44.547,17.82
		C267.94,159.977,268.169,159.988,263.955,158.443"/>
	<polygon fill="#BF000A" points="277.907,162.82 268.868,160.306 269.211,160.427 278.203,162.907 	"/>
	<path fill="#BF000A" d="M41.549,145.416c11.365,18.553,36.101,15.24,53.556,12.574c18.803-3.566,36.607-9.638,53.869-16.183
		c2.563-1.196,4.391-2.072,7.872-3.59c2.762-0.997,5.145-2.652,7.672-4.092c4.804-2.563,8.95-5.969,13.181-9.269
		c1.531-1.071,2.807-2.529,4.235-3.859l0.077-0.079c2.165-2.138,1.514-1.56,0.146-0.294c-1.571,1.393-2.845,2.849-4.217,3.762
		c0.909-0.525,2.842-2.537,4.217-3.762c1.768-1.768,4.036-3.583,6.185-6.107c3.195-3.768,6.608-7.552,9.664-11.979
		c-3.359,4.937-6.857,8.67-9.664,11.979c-2,2.414-4.313,4.328-6.408,6.48l-1.912,1.874c9.313-8.187,16.774-18.05,23.64-28.254
		c1.517-2.354,3.009-4.615,4.164-6.466c4.497-7.643,9.141-15.211,12.158-19.817l3.473-5.591l-0.676,1.055l1.296-2.047
		c2.357-3.983,5.137-7.686,7.766-11.522c3.422-2.148-3.305-3.4-2.967-2.557l6.791,1.66c5.394,1.456,13.032,2.699,16.813,4.437
		c0,0-0.16,4.203-0.24,6.279c-0.118,2.526,0.214,6.179,0.601,10.337c-0.478-4.954-0.436-9.57-0.19-13.811
		c1.388-6.574-11.529-4.508-17.023-7.612c5.494,3.104,18.412,1.038,17.023,7.612c-0.245,4.241-0.288,8.857,0.19,13.811
		c0.901,8.793,1.542,20.182,1.479,29.31c-0.242-11.341-0.854-20.936-1.479-29.31c-0.386-4.159-0.719-7.811-0.601-10.337
		c0.081-2.076,0.24-6.279,0.24-6.279c-3.782-1.738-11.42-2.981-16.813-4.437c25.325-1.763,13.783,23.995,18.309,41.306
		c0.011,30.188,2.02,59.944,7.813,88.833c4.868,11.522-6.841,2.398-13.016,2.512c-5.391,3.616,3.4-5.391,4.531-12.168
		c5.471-13.545,13.402-25.915,20.88-38.528c16.709-24.69,21.063-55.151,23.77-84.732c2.807-28.278-3.041,2.867-4.61,14.722
		c-3.351,14.866-7.571,29.791-13.792,44.144c-6.219,15.782-14.642,30.363-23.144,44.674c-4.488,7.041-8.086,14.752-10.385,22.72
		c-1.356,4.475-2.448,7.276-7.262,4.86c0.902,3.195,7.11,2.684,10.393,4.188l11.895,3.08c4.012,2.238,9.221,1.823,6.61-3.996
		l-3.967-24.022c-2.765-15.979-4.475-31.886-4.066-47.885c0.437-16.006-1.972-31.896-2.509-47.287
		c11.004-10.304-13.136-11.288-26.576-15.584c-20.196,23.224-30.308,54.043-53.598,73.986
		c-23.162,19.684-53.809,28.288-83.663,34.861c-14.735,2.556-31.938,4.54-44.157-4.764c-13.651-9.872-7.321-31.493,9.186-34.145
		c48.587-6.422,140.64,11.898,182.409,35.624c60.614,21.456,29.81,8.159,26.652,8.246c-37.126-11.742-62.619-34.616-142.895-44.398
		c27.062,3.644,17.057,2.415-6.123-0.341c-11.605-1.163-26.54-2.768-41.875-2.74c-14.65-1.732-33.684,3.564-36.895,18.233
		c-4.305,23.161,25.199,33.443,45.589,28.275c21.915-3.075,44.292-9.81,66.25-19.238c22.483-9.152,40.265-28.177,52.461-48.843
		l18.682-30.616c2.605-3.521,7.764-12.986,8.683-11.382l16.877,4.192l8.431,2.125l4.245,1.092c2.852-5.487-1.594-2.083-2.113-3.595
		c-8.16,3.141-2.5,11.264-3.786,16.973c1.176,12.514,2.412,25.162,2.258,38.921c-0.599,17.926,1.904,35.727,4.832,52.987
		c1.897,7.103,1.775,20.756,5.439,22.457l-25.299-6.496l-3.138-0.813c-2.38,6.184,0.714,2.082,1.183,3.707
		c2.152,1.12,7.056-0.813,6.698-3.181c1.795-4.438,2.647-8.437,4.441-12.328c3.078-7.932,7.99-14.968,12.443-22.581
		c8.56-15.138,16.461-30.79,22.262-47.341c5.937-16.496,10.025-33.699,12.369-51.22c-0.677-3.724,3.961-10.242-1.309-11.54
		l-1.112,13.161c-0.795,8.784-1.162,17.666-3.162,26.328c-1.47,37.062-27.467,64.786-42.278,99.679
		c-0.019,3.448-7.03,11.598-3.802,8.853c-1.48,5.916,7.563,3.695,10.738,5.898c2.409-0.881,4.217,4.442,7.082-1.553l-1.14-6.804
		l-2.214-13.368c-3.074-17.62-5.203-34.469-5.141-51.104c-0.488-12.118-0.23-25.032-1.449-36.967
		c-2.277-10.155,3.44-28.158-11.065-26.661l-11.175-2.746c-0.967-2.495-5.902,1.64-2.357,1.982c2.968,0.479,1.21-2.25,0.122,1.173
		c-4.302,5.936-8.035,12.061-11.626,17.955c-7.404,11.745-13.64,23.331-21.25,33.631c8.458-11.549,14.294-22.559,21.203-33.428
		c3.369-5.451,6.728-11.143,10.779-16.77c0.82-0.452,2.38-5.02,2.622-2.161c-1.462,1.771-4.936-4.151-1.513-2.812l11.218,2.732
		c20.856,7.829-17.9-11.497-15.869,8.031c-3.227,5.18-8.435,13.138-11.579,18.293c-6.85,11.306-12.848,21.813-21.66,32.821
		c-3.86,4.597-3.599,3.888-5.53,6.183c-13.067,14.019-26.079,21.853-37.504,26.199c-8.703,3.47-16.746,6.043-24.553,8.58
		l-15.167,4.454l-10.183,2.426c2.718-0.543,3.72-0.67,4.687-0.786c-4.924,1.286-11.968,2.504-17.076,3.092
		c5.107-0.588,12.152-1.806,17.076-3.092c-0.966,0.116-1.969,0.243-4.687,0.786c-12.302,2.405-26.094,4.843-39.688,1.852
		c-13.558-2.22-24.875-17.326-19.635-30.246l-0.144,0.36c-6.086,16.041,10.388,30.492,26.294,31.149
		c-7.066-0.997-6.137-0.947,1.911,0.105c2.02,0.449,4.151,0.426,6.219,0.362c-13.861,0.588-29.68-4.59-34.586-17.889
		c-0.679,0.226-1.042-5.913-1.629-8.86c1.417-4.254,1.435-3.992,1.791-4.868c0.47-3.218,3.242-5.148,5.074-7.646
		C36.062,123.996,38.663,146.533,41.549,145.416"/>
	<path fill="#BF000A" d="M188.577,114.257c-1.349,1.759-3.368,3.495-5.373,5.5c7.56-7.049,13.786-15.375,19.596-23.862
		C199.679,100.341,194.539,107.578,188.577,114.257"/>
	<path fill="#BF000A" d="M561.455,119.933c-1.678,8.122-7.09,17.813-13.165,24.938c2.817-4.034,6.515-7.401,8.266-12.08
		C558.948,127.343,561.687,123.425,561.455,119.933"/>
	<path fill="#BF000A" d="M527.579,162.265l-4.483,2.59l-3.893,2.109C522.004,165.371,524.966,164.053,527.579,162.265"/>
	<path fill="#BF000A" d="M480.186,180.358c8.921-1.437,17.223-3.991,25.049-7.018C498.343,175.974,490.104,178.711,480.186,180.358"
		/>
	<path fill="#BF000A" d="M518.583,167.424c-2.808,1.456-4.101,2.11,0.454-0.365l0.165-0.095c-4.358,2.605-9.17,4.415-13.968,6.377
		C510.317,171.287,514.904,169.59,518.583,167.424"/>
	<path fill="#BF000A" d="M518.583,167.424c2.721-1.454,7.007-3.59,8.424-4.49C524.622,164.333,521.761,165.714,518.583,167.424"/>
	<path fill="#BF000A" d="M507.191,173.629c-4.723,1.891-3.583,1.536-13.425,4.413c-23.36,6.095-43.993,7.584-66.354,8.548
		c-10.264,0.228-26.447-0.113-36.566-0.686c-24.055-0.564-85.288-6.313-49.186-2.951c54.116,4.202,90.079,6.776,138.4-1.464
		c19.574-3.608,38.114-11.111,54.067-22.595c8.088-5.619,14.947-12.888,20.668-21.049c2.443-4.293,4.489-8.988,6.517-13.491
		c1.646-1.411,1.712-6.495-0.875-5.577c-0.121,0.983,6.723,6.2,3.192,2.164c-7.29-8.716-14.152-16.864-21.036-25.087l13.706,16.389
		l7.146,8.584c2.505,6.672-6.095-8.372-0.85,0.08C556.684,140.994,537.831,161.702,507.191,173.629"/>
	<path fill="#BF000A" d="M372.061,81.017c3.71,3.82,13.426,7.338,13.409,7.356c21.716,7.755,46.485,5.574,70.235,4.681
		l-10.647,0.395c-13.765,0.379-15.35,0.495-3.122,0.225c-26.793,0.112-57.47,2.361-75.983-19.141
		C367.041,75.797,366.466,75.805,372.061,81.017"/>
	<path fill="#BF000A" d="M356.715,61.632c2.687,4.596,5.81,9.036,9.237,12.9l-0.38-0.482c-3.512-4.001-6.48-8.399-9.118-12.869
		L356.715,61.632z"/>
	<path fill="#BF000A" d="M371.934,184.323c-33.919-2.361-67.04-5.084-98.445-13.117c-31.749-7.28-59.062-24.685-89.095-33.654
		c-4.627-1.236-7.886-2.31-14.112-3.891l-14.354-3.402c-8.957-1.92-17.922-3.348-26.881-4.732l-9.646-1.088l-0.192-0.018
		c-5.111-0.556-3.659-0.354-0.533,0.046c3.545,0.434,6.771,0.837,9.516,1.188c-1.736-0.223-6.412-0.79-9.516-1.188
		c-4.206-0.514-9.048-1.143-14.629-1.617c-8.319-0.796-16.932-1.345-26.021-1.576c10.104,0.211,18.719,0.843,26.021,1.576
		l15.354,1.589l4.493,0.493c-20.702-2.033-41.543-5.615-62.282-2.385c-4.917,0.471-8.738,4.076-9.804,7.642
		c-5.653,17.642,17.546,23.482,24.929,20.5l11.083-1.357l-2.118,0.232c1.618-0.223,2.977-0.287,4.076-0.535
		c15.352-3.104,30.786-6.658,45.467-12.588c9.604-3.598,19.045-8.375,27.778-14.189c0,0.004,5.619-4.392,8.396-6.569
		c3.413-2.599,7.02-7.713,11.853-12.909c-5.623,6.297-10.679,12.279-16.68,16.341c-8.006,6.96-19.945,12.716-31.667,17.078
		c11.723-4.362,23.662-10.118,31.667-17.078c6.001-4.062,11.057-10.044,16.68-16.341c9.013-11.952,18.955-28.558,27.211-41.612
		c-9.987,16.417-18.526,30.352-27.211,41.612c-4.833,5.196-8.439,10.311-11.853,12.909c-2.776,2.178-8.396,6.573-8.396,6.569
		c-8.733,5.814-18.174,10.592-27.778,14.189c30.511-9.045,51.972-34.5,67.231-62.169c6.338-10.038,14.15-23.706,19.989-30.078
		l36.811,9.05c3.434,0.507,18.191,5.285,12.295,2.314c-8.679-4.911-7.014,5.512-6.656,10.997c0.473,12.544,2.282,24.886,1.99,37.35
		c-1.538,25.039,3.342,49.652,7.138,74.095c2.27,7.674-3.555,7.214,4.815,7.692l-17.982-4.601
		c-11.364-4.399-29.597-1.887-18.708-17.558c10.496-22.246,27.133-41.909,34.365-66.237c6.449-24.263,9.344-49.454,10.104-74.86
		l-0.016-19.104c0.702-5.707-2.97-3.262-2.008,1.197l-0.43,9.591c-0.637,12.771-2.174,25.56-4.667,38.247
		c-4.817,25.417-13.533,50.279-24.693,74.309c-5.985,13.05-12.848,25.612-20.204,37.777c-0.952,1.919-5.637,8.686-3.258,6.561
		l-10.296-2.677c4.167,3.684,12.974,4.07,19.203,6.262l40.859,10.502c3.93-8.027-3.108-25.944-3.612-38.388
		c-4.187-27.323-1.682-55.328-5.059-82.49c11.364-13.122-26.384-14.628-51.224-22.757c-22.374,11.451-29.115,44.417-45.178,62.855
		c-18.691,18.591-44.01,28.61-68.914,35.369c-12.614,2.984-25.533,5.449-38.353,4.934c-5.773-0.395-14.304-1.569-14.224-7.193
		c0.952-5.371,5.927-11.174,12.286-10.921c25.446-2.237,51.549,2.279,76.948,5.897c52.331,4.84,95.63,39.078,148.607,46.845
		c52.139,7.451,105.545,12.565,160.356,8.57c20.754-1.954,46.884-5.83,71.56-19.32c23.548-10.857,50.545-47.784,35.732-55.354
		c-14.353-31.442-51.396-23.374-77.016-24.317c-27.333,1.246-52.098,3.851-72.121,2.157c-27.822,0-40.306-13.106-46.132-20.713
		c-6.324-7.45-7.456-10.31-7.496-9.603c0.091,1.238,8.778,13.877,10.972,15.415c24.899,24.248,60.086,16.848,96.741,15.982
		c19.077-1.188,40.415-2.048,65.246,0.447c14.858-2.722,17.082,13.296,28.568,23.063c1.996,4.767,16.005,15.994,6.21,4.974
		c-6.107,6.202-6.968,14.373-12.795,20.871c6.704-9.341,9.067-16.52,10.767-20.485c5.403,0.941,4.087,3.389,3.546,1.587
		c-5.948-6.829-5.745,14.984-20.783,26.715c-27.185,31.54-92.797,39.271-135.51,37.507c-62.598-2.165-141.17-4.816-212.946-43.58
		c-38.207-13.382-79.487-18.742-120.386-19.849c-9.557-0.979-23.705,1.771-24.939,14.937c5.202,12.04,19.277,8.195,28.297,8.686
		c20.218-1.939,39.63-7.455,57.696-15.075c17.721-7.876,36.357-18.221,48.31-36.553c7.938-17.121,20.727-42.64,33.759-51.607
		l43.753,10.846l10.858,2.719c3.909-5.517-5.137-3.008-7.116-4.909c-2.312,6.112,2.511,2.5,3.38,4.208
		c-2.117-1.479-0.641,2.81-1.026,3.889l0.504,11.298c3.743,29.366,0.396,59.314,6.767,88.518l3.674,21.78
		c7.047,2.889-10.314-2.308-14.275-3.09l-42.694-10.971c3.177,13.898,17.632-7.475,22.222-18.982
		c6.954-13.024,13.515-26.302,18.847-40.125c11.104-27.443,18.445-56.644,20.828-86.506c0.682-7.173,0.634-15.633,1.294-21.68
		c-5.056,2.943-1.378,13.652-2.504,20.116c-0.429,14.938-1.361,29.905-3.571,44.799c-2.623,30.587-16.275,57.644-33.527,83.594
		c-4.171,6.392-7.673,13.894-9.772,21.323c-2.566,2.802,1.58,0.847,0.127,6.655l5.652,1.459l11.339,2.922l22.819,5.845
		c5.405-7.731-11.623-1.057-2.56-0.82c3.666-6.735-0.102-8.6,0.251-13.131c-7.545-33.11-5.959-64.316-7.814-94.856
		c-1.008-7.657-0.817-14.818-1.156-22.28c-3.401-1.404,5.241,1.104,7.259,1.442c0.348-5.269-6.023-2.971-8.69-4.822l-41.804-10.143
		c-25.341,30.059-42.832,75.913-76.376,87.209c-23.789,11.14-48.078,16.743-71.12,19.427c-10.938,2.536-24.248-4.249-23.589-15.282
		c0.75-12.35,15.928-11.381,25.666-11.78c-11.412-0.027-26.061,0.495-25.786,13.076c0.679,10.844,13.318,16.136,23.4,14.093
		c21.404-2.299,43.652-7.27,68.358-17.998c32.258-16.044-21.884,12.748-46.503,14.901c-9.793,1.958-26.39,5.508-35.54,1.932
		c-10.753-3.521-13.565-19.026-3.328-23.829c10.088-3.236,21.557-2.409,33.39-1.867c10.176,0.633,8.958,0.932,14.049,1.325
		c32.54,2.676,57.266,7.904,77.216,13.858c15.302,4.34,28.203,10.491,40.954,16.122c8.006,3.752,16.28,6.749,24.815,10.308
		c5.325,2.312,11.244,3.506,17.005,5.376c-4.509-1.43-6.121-2.02-7.657-2.575c8.29,2.349,19.807,6.433,28.486,7.661
		c-8.679-1.229-20.196-5.313-28.486-7.661c1.536,0.556,3.148,1.146,7.657,2.575c41.504,12.12,91.589,14.545,137.548,16.423
		l-0.662-0.029c-26.918-0.854-53.261-2.762-80.961-6.029c12.003,1.523,10.465,1.502-3.245-0.278l-10.501-1.526
		c23.83,3.546,47.798,4.932,70.484,6.69c0,0,10.284,0.438,15.407,0.653c7.597,0.446,7.205,0.361,8.815,0.49l15.977,0.163
		C407.266,186.353,371.919,184.519,371.934,184.323"/>
	<path fill="#BF000A" d="M103.446,122.785c3.739,0.31,8.199,0.739,12.977,1.32c-17.351-1.693-34.841-4.101-52.263-2.088
		C73.324,120.685,88.389,121.447,103.446,122.785"/>
</g>
</svg>
